%TF.GenerationSoftware,KiCad,Pcbnew,(6.0.4)*%
%TF.CreationDate,2022-11-28T15:49:36+01:00*%
%TF.ProjectId,STM32F103RF,53544d33-3246-4313-9033-52462e6b6963,1*%
%TF.SameCoordinates,Original*%
%TF.FileFunction,Copper,L1,Top*%
%TF.FilePolarity,Positive*%
%FSLAX46Y46*%
G04 Gerber Fmt 4.6, Leading zero omitted, Abs format (unit mm)*
G04 Created by KiCad (PCBNEW (6.0.4)) date 2022-11-28 15:49:36*
%MOMM*%
%LPD*%
G01*
G04 APERTURE LIST*
G04 Aperture macros list*
%AMRoundRect*
0 Rectangle with rounded corners*
0 $1 Rounding radius*
0 $2 $3 $4 $5 $6 $7 $8 $9 X,Y pos of 4 corners*
0 Add a 4 corners polygon primitive as box body*
4,1,4,$2,$3,$4,$5,$6,$7,$8,$9,$2,$3,0*
0 Add four circle primitives for the rounded corners*
1,1,$1+$1,$2,$3*
1,1,$1+$1,$4,$5*
1,1,$1+$1,$6,$7*
1,1,$1+$1,$8,$9*
0 Add four rect primitives between the rounded corners*
20,1,$1+$1,$2,$3,$4,$5,0*
20,1,$1+$1,$4,$5,$6,$7,0*
20,1,$1+$1,$6,$7,$8,$9,0*
20,1,$1+$1,$8,$9,$2,$3,0*%
%AMRotRect*
0 Rectangle, with rotation*
0 The origin of the aperture is its center*
0 $1 length*
0 $2 width*
0 $3 Rotation angle, in degrees counterclockwise*
0 Add horizontal line*
21,1,$1,$2,0,0,$3*%
G04 Aperture macros list end*
%TA.AperFunction,SMDPad,CuDef*%
%ADD10RoundRect,0.237500X0.237500X-0.300000X0.237500X0.300000X-0.237500X0.300000X-0.237500X-0.300000X0*%
%TD*%
%TA.AperFunction,SMDPad,CuDef*%
%ADD11RoundRect,0.237500X-0.287500X-0.237500X0.287500X-0.237500X0.287500X0.237500X-0.287500X0.237500X0*%
%TD*%
%TA.AperFunction,SMDPad,CuDef*%
%ADD12RoundRect,0.237500X-0.237500X0.250000X-0.237500X-0.250000X0.237500X-0.250000X0.237500X0.250000X0*%
%TD*%
%TA.AperFunction,SMDPad,CuDef*%
%ADD13RoundRect,0.237500X-0.344715X0.008839X0.008839X-0.344715X0.344715X-0.008839X-0.008839X0.344715X0*%
%TD*%
%TA.AperFunction,SMDPad,CuDef*%
%ADD14RoundRect,0.237500X0.300000X0.237500X-0.300000X0.237500X-0.300000X-0.237500X0.300000X-0.237500X0*%
%TD*%
%TA.AperFunction,SMDPad,CuDef*%
%ADD15RoundRect,0.075000X0.075000X-0.662500X0.075000X0.662500X-0.075000X0.662500X-0.075000X-0.662500X0*%
%TD*%
%TA.AperFunction,SMDPad,CuDef*%
%ADD16RoundRect,0.075000X0.662500X-0.075000X0.662500X0.075000X-0.662500X0.075000X-0.662500X-0.075000X0*%
%TD*%
%TA.AperFunction,SMDPad,CuDef*%
%ADD17RoundRect,0.237500X0.237500X-0.287500X0.237500X0.287500X-0.237500X0.287500X-0.237500X-0.287500X0*%
%TD*%
%TA.AperFunction,SMDPad,CuDef*%
%ADD18RoundRect,0.237500X-0.380070X0.044194X0.044194X-0.380070X0.380070X-0.044194X-0.044194X0.380070X0*%
%TD*%
%TA.AperFunction,ComponentPad*%
%ADD19R,1.700000X1.700000*%
%TD*%
%TA.AperFunction,ComponentPad*%
%ADD20O,1.700000X1.700000*%
%TD*%
%TA.AperFunction,SMDPad,CuDef*%
%ADD21R,1.450000X0.600000*%
%TD*%
%TA.AperFunction,SMDPad,CuDef*%
%ADD22R,1.450000X0.300000*%
%TD*%
%TA.AperFunction,ComponentPad*%
%ADD23O,1.600000X1.000000*%
%TD*%
%TA.AperFunction,ComponentPad*%
%ADD24O,2.100000X1.000000*%
%TD*%
%TA.AperFunction,SMDPad,CuDef*%
%ADD25RoundRect,0.237500X0.287500X0.237500X-0.287500X0.237500X-0.287500X-0.237500X0.287500X-0.237500X0*%
%TD*%
%TA.AperFunction,SMDPad,CuDef*%
%ADD26RoundRect,0.237500X-0.300000X-0.237500X0.300000X-0.237500X0.300000X0.237500X-0.300000X0.237500X0*%
%TD*%
%TA.AperFunction,SMDPad,CuDef*%
%ADD27RoundRect,0.237500X-0.250000X-0.237500X0.250000X-0.237500X0.250000X0.237500X-0.250000X0.237500X0*%
%TD*%
%TA.AperFunction,SMDPad,CuDef*%
%ADD28RoundRect,0.237500X-0.237500X0.300000X-0.237500X-0.300000X0.237500X-0.300000X0.237500X0.300000X0*%
%TD*%
%TA.AperFunction,SMDPad,CuDef*%
%ADD29R,1.000000X1.000000*%
%TD*%
%TA.AperFunction,SMDPad,CuDef*%
%ADD30RoundRect,0.237500X0.044194X0.380070X-0.380070X-0.044194X-0.044194X-0.380070X0.380070X0.044194X0*%
%TD*%
%TA.AperFunction,SMDPad,CuDef*%
%ADD31RoundRect,0.237500X0.250000X0.237500X-0.250000X0.237500X-0.250000X-0.237500X0.250000X-0.237500X0*%
%TD*%
%TA.AperFunction,SMDPad,CuDef*%
%ADD32RoundRect,0.062500X-0.350000X-0.062500X0.350000X-0.062500X0.350000X0.062500X-0.350000X0.062500X0*%
%TD*%
%TA.AperFunction,SMDPad,CuDef*%
%ADD33RoundRect,0.062500X-0.062500X-0.350000X0.062500X-0.350000X0.062500X0.350000X-0.062500X0.350000X0*%
%TD*%
%TA.AperFunction,SMDPad,CuDef*%
%ADD34R,2.500000X2.500000*%
%TD*%
%TA.AperFunction,SMDPad,CuDef*%
%ADD35RotRect,1.150000X1.000000X315.000000*%
%TD*%
%TA.AperFunction,SMDPad,CuDef*%
%ADD36R,3.600000X1.270000*%
%TD*%
%TA.AperFunction,SMDPad,CuDef*%
%ADD37R,4.200000X1.350000*%
%TD*%
%TA.AperFunction,SMDPad,CuDef*%
%ADD38RoundRect,0.150000X-0.512500X-0.150000X0.512500X-0.150000X0.512500X0.150000X-0.512500X0.150000X0*%
%TD*%
%TA.AperFunction,SMDPad,CuDef*%
%ADD39RotRect,1.150000X1.000000X135.000000*%
%TD*%
%TA.AperFunction,ViaPad*%
%ADD40C,0.800000*%
%TD*%
%TA.AperFunction,Conductor*%
%ADD41C,0.250000*%
%TD*%
%TA.AperFunction,Conductor*%
%ADD42C,0.508000*%
%TD*%
%TA.AperFunction,Conductor*%
%ADD43C,0.406400*%
%TD*%
%TA.AperFunction,Conductor*%
%ADD44C,0.200000*%
%TD*%
G04 APERTURE END LIST*
D10*
X81231250Y-62687500D03*
X81231250Y-60962500D03*
D11*
X81968750Y-68587500D03*
X83718750Y-68587500D03*
D12*
X80168750Y-67037500D03*
X80168750Y-68862500D03*
D10*
X119993750Y-68000000D03*
X119993750Y-66275000D03*
D13*
X104223515Y-68092265D03*
X105513985Y-69382735D03*
D14*
X93228125Y-65984375D03*
X91503125Y-65984375D03*
D15*
X96181250Y-66150000D03*
X96681250Y-66150000D03*
X97181250Y-66150000D03*
X97681250Y-66150000D03*
X98181250Y-66150000D03*
X98681250Y-66150000D03*
X99181250Y-66150000D03*
X99681250Y-66150000D03*
X100181250Y-66150000D03*
X100681250Y-66150000D03*
X101181250Y-66150000D03*
X101681250Y-66150000D03*
D16*
X103093750Y-64737500D03*
X103093750Y-64237500D03*
X103093750Y-63737500D03*
X103093750Y-63237500D03*
X103093750Y-62737500D03*
X103093750Y-62237500D03*
X103093750Y-61737500D03*
X103093750Y-61237500D03*
X103093750Y-60737500D03*
X103093750Y-60237500D03*
X103093750Y-59737500D03*
X103093750Y-59237500D03*
D15*
X101681250Y-57825000D03*
X101181250Y-57825000D03*
X100681250Y-57825000D03*
X100181250Y-57825000D03*
X99681250Y-57825000D03*
X99181250Y-57825000D03*
X98681250Y-57825000D03*
X98181250Y-57825000D03*
X97681250Y-57825000D03*
X97181250Y-57825000D03*
X96681250Y-57825000D03*
X96181250Y-57825000D03*
D16*
X94768750Y-59237500D03*
X94768750Y-59737500D03*
X94768750Y-60237500D03*
X94768750Y-60737500D03*
X94768750Y-61237500D03*
X94768750Y-61737500D03*
X94768750Y-62237500D03*
X94768750Y-62737500D03*
X94768750Y-63237500D03*
X94768750Y-63737500D03*
X94768750Y-64237500D03*
X94768750Y-64737500D03*
D17*
X117593750Y-64512500D03*
X117593750Y-62762500D03*
D11*
X88131250Y-61837500D03*
X89881250Y-61837500D03*
X81956250Y-65287500D03*
X83706250Y-65287500D03*
D18*
X96421370Y-71677620D03*
X97641130Y-72897380D03*
D19*
X100968750Y-54237500D03*
D20*
X103508750Y-54237500D03*
X106048750Y-54237500D03*
X108588750Y-54237500D03*
D21*
X74076250Y-59537500D03*
X74076250Y-60337500D03*
D22*
X74076250Y-61537500D03*
X74076250Y-62537500D03*
X74076250Y-63037500D03*
X74076250Y-64037500D03*
D21*
X74076250Y-65237500D03*
X74076250Y-66037500D03*
X74076250Y-66037500D03*
X74076250Y-65237500D03*
D22*
X74076250Y-64537500D03*
X74076250Y-63537500D03*
X74076250Y-62037500D03*
X74076250Y-61037500D03*
D21*
X74076250Y-60337500D03*
X74076250Y-59537500D03*
D23*
X68981250Y-67107500D03*
D24*
X73161250Y-58467500D03*
D23*
X68981250Y-58467500D03*
D24*
X73161250Y-67107500D03*
D12*
X78468750Y-67037500D03*
X78468750Y-68862500D03*
D10*
X118393750Y-68000000D03*
X118393750Y-66275000D03*
D14*
X91928125Y-68684375D03*
X90203125Y-68684375D03*
D25*
X120968750Y-64537500D03*
X119218750Y-64537500D03*
D26*
X103868750Y-57287500D03*
X105593750Y-57287500D03*
D27*
X72118750Y-69287500D03*
X73943750Y-69287500D03*
D28*
X79731250Y-62687500D03*
X79731250Y-64412500D03*
D29*
X84018750Y-55637500D03*
X86518750Y-55637500D03*
D30*
X101141130Y-71677620D03*
X99921370Y-72897380D03*
D31*
X87143750Y-65287500D03*
X85318750Y-65287500D03*
D27*
X79956250Y-53737500D03*
X81781250Y-53737500D03*
D32*
X107331250Y-61737500D03*
X107331250Y-62237500D03*
X107331250Y-62737500D03*
X107331250Y-63237500D03*
X107331250Y-63737500D03*
D33*
X108268750Y-64675000D03*
X108768750Y-64675000D03*
X109268750Y-64675000D03*
X109768750Y-64675000D03*
X110268750Y-64675000D03*
D32*
X111206250Y-63737500D03*
X111206250Y-63237500D03*
X111206250Y-62737500D03*
X111206250Y-62237500D03*
X111206250Y-61737500D03*
D33*
X110268750Y-60800000D03*
X109768750Y-60800000D03*
X109268750Y-60800000D03*
X108768750Y-60800000D03*
X108268750Y-60800000D03*
D34*
X109268750Y-62737500D03*
D31*
X87181250Y-68587500D03*
X85356250Y-68587500D03*
D35*
X97517557Y-70363756D03*
X98754994Y-71601193D03*
X99744943Y-70611244D03*
X98507506Y-69373807D03*
D18*
X107958870Y-71727620D03*
X109178630Y-72947380D03*
D26*
X109006250Y-58937500D03*
X110731250Y-58937500D03*
D17*
X80168750Y-72325000D03*
X80168750Y-70575000D03*
D11*
X76456250Y-62687500D03*
X78206250Y-62687500D03*
D29*
X79518750Y-55637500D03*
X82018750Y-55637500D03*
D27*
X112756250Y-58337500D03*
X114581250Y-58337500D03*
D18*
X101791761Y-68388885D03*
X103011521Y-69608645D03*
D14*
X93731250Y-56937500D03*
X92006250Y-56937500D03*
D27*
X72118750Y-56287500D03*
X73943750Y-56287500D03*
D29*
X86518750Y-57637500D03*
X84018750Y-57637500D03*
D28*
X94565625Y-67121875D03*
X94565625Y-68846875D03*
D29*
X82018750Y-57637500D03*
X79518750Y-57637500D03*
D36*
X128837500Y-62787500D03*
D37*
X128637500Y-65612500D03*
X128637500Y-59962500D03*
D38*
X84093750Y-61837500D03*
X84093750Y-62787500D03*
X84093750Y-63737500D03*
X86368750Y-63737500D03*
X86368750Y-61837500D03*
D26*
X105606250Y-58937500D03*
X107331250Y-58937500D03*
D14*
X89893750Y-63387500D03*
X88168750Y-63387500D03*
D31*
X110981250Y-67537500D03*
X109156250Y-67537500D03*
D26*
X109006250Y-57337500D03*
X110731250Y-57337500D03*
D14*
X107031250Y-66137500D03*
X105306250Y-66137500D03*
D10*
X124393750Y-66100000D03*
X124393750Y-64375000D03*
D26*
X90206250Y-70237500D03*
X91931250Y-70237500D03*
X122631250Y-62737500D03*
X124356250Y-62737500D03*
D14*
X89893750Y-60287500D03*
X88168750Y-60287500D03*
D30*
X112578630Y-71827620D03*
X111358870Y-73047380D03*
D31*
X91993750Y-71847500D03*
X90168750Y-71847500D03*
D39*
X111282443Y-70761244D03*
X110045006Y-69523807D03*
X109055057Y-70513756D03*
X110292494Y-71751193D03*
D11*
X119218750Y-62737500D03*
X120968750Y-62737500D03*
D17*
X78468750Y-72325000D03*
X78468750Y-70575000D03*
D26*
X112806250Y-60837500D03*
X114531250Y-60837500D03*
D40*
X111868750Y-65137500D03*
X75268750Y-69237500D03*
X76968750Y-66037500D03*
X90605635Y-56872290D03*
X123006250Y-68000000D03*
X100868750Y-74337500D03*
X112468750Y-74237500D03*
X112168750Y-68537500D03*
X110993250Y-65937500D03*
X97268750Y-67937500D03*
X99648788Y-67892940D03*
X116268750Y-69537500D03*
X95968750Y-69937500D03*
X113968750Y-72437500D03*
X112468750Y-62013000D03*
X75768750Y-59537500D03*
X101618750Y-70187500D03*
X108568750Y-74337500D03*
X112881000Y-70325250D03*
X127168750Y-69737500D03*
X115568750Y-62013000D03*
X82568750Y-60637500D03*
X105568750Y-60437500D03*
X94768750Y-71737500D03*
X75268750Y-56737500D03*
X96368750Y-64237500D03*
X76968750Y-67037500D03*
X118468750Y-57137500D03*
X106568750Y-71337500D03*
X125268750Y-56337500D03*
X107868750Y-67737500D03*
X115768750Y-56737500D03*
X121768750Y-69737500D03*
X77768750Y-56237500D03*
X87968750Y-56437500D03*
X124468750Y-69737500D03*
X96468750Y-56437500D03*
X101568750Y-59837500D03*
X99668750Y-64637500D03*
X96368750Y-74337500D03*
X129968750Y-69737500D03*
X117618750Y-60287500D03*
X107868750Y-70037500D03*
X86718810Y-60287500D03*
X75968750Y-66037500D03*
X102768750Y-72437500D03*
X121568750Y-56337500D03*
X75768750Y-58437500D03*
X90268750Y-66737500D03*
X106868750Y-56637500D03*
X118768750Y-69737500D03*
X79268750Y-73737500D03*
X76768750Y-59537500D03*
X75968750Y-67037500D03*
X78568750Y-65637500D03*
X128568750Y-56337500D03*
X115768750Y-59737500D03*
X85268750Y-62837500D03*
X121531250Y-68000000D03*
X76768750Y-58437500D03*
X94668750Y-65837500D03*
X113668750Y-59637500D03*
X93268750Y-71762000D03*
X78268750Y-54237500D03*
X92368750Y-60137500D03*
X92368750Y-63437500D03*
X106768750Y-67337500D03*
X102768750Y-67537500D03*
X86589056Y-59184770D03*
X95068750Y-56937500D03*
X93168750Y-69737500D03*
X91268750Y-60137500D03*
X91268750Y-63437500D03*
X107568750Y-57537500D03*
X88768750Y-71037500D03*
X98568750Y-64637500D03*
X87468750Y-67437500D03*
X95819739Y-67837500D03*
X71698189Y-61208061D03*
X71416186Y-63034295D03*
X97489895Y-56025360D03*
X72115686Y-62190564D03*
X97468750Y-54626349D03*
X72096328Y-63766697D03*
X101668750Y-61237500D03*
X103668750Y-66537500D03*
X105868750Y-62437500D03*
X104606451Y-64199799D03*
X98468750Y-59237511D03*
X99468750Y-60037500D03*
D41*
X124406250Y-62787500D02*
X124356250Y-62737500D01*
X128837500Y-62787500D02*
X124406250Y-62787500D01*
D42*
X131500000Y-60000000D02*
X131462500Y-59962500D01*
X131500000Y-60000000D02*
X131500000Y-65500000D01*
X131462500Y-59962500D02*
X128637500Y-59962500D01*
X131500000Y-58100000D02*
X131500000Y-60000000D01*
X131500000Y-65500000D02*
X131500000Y-68300000D01*
X131500000Y-65500000D02*
X131387500Y-65612500D01*
X131387500Y-65612500D02*
X128637500Y-65612500D01*
X129968750Y-69737500D02*
X126662500Y-69737500D01*
X126662500Y-69737500D02*
X118768750Y-69737500D01*
X127168750Y-69737500D02*
X126662500Y-69737500D01*
X130062500Y-69737500D02*
X129968750Y-69737500D01*
X131500000Y-68300000D02*
X130062500Y-69737500D01*
X129737500Y-56337500D02*
X131500000Y-58100000D01*
X128568750Y-56337500D02*
X129737500Y-56337500D01*
D41*
X96490813Y-59737500D02*
X94768750Y-59737500D01*
X96790813Y-60037500D02*
X96490813Y-59737500D01*
X99468750Y-60037500D02*
X96790813Y-60037500D01*
X97268750Y-68087500D02*
X97268750Y-67937500D01*
X96500000Y-68856250D02*
X97268750Y-68087500D01*
X96500000Y-69406250D02*
X96500000Y-68856250D01*
X94768750Y-71137500D02*
X96500000Y-69406250D01*
X94768750Y-71737500D02*
X94768750Y-71137500D01*
D42*
X81231250Y-60962500D02*
X82243750Y-60962500D01*
D41*
X99648788Y-67892940D02*
X101618750Y-69862902D01*
X110292494Y-71833516D02*
X109178630Y-72947380D01*
X103011521Y-69608645D02*
X102197605Y-69608645D01*
D43*
X91931250Y-70237500D02*
X91756250Y-70237500D01*
X124393750Y-66100000D02*
X124393750Y-66612500D01*
D42*
X115568750Y-62013000D02*
X115693250Y-62013000D01*
D41*
X112168750Y-66637500D02*
X111468750Y-65937500D01*
D42*
X81956250Y-65287500D02*
X81956250Y-68575000D01*
X75968750Y-67037500D02*
X76968750Y-67037500D01*
D41*
X113968750Y-71413000D02*
X113968750Y-72837500D01*
X110158870Y-74227620D02*
X110168750Y-74237500D01*
X108568750Y-74337500D02*
X106568750Y-72337500D01*
D42*
X75768750Y-59537500D02*
X75768750Y-58437500D01*
D41*
X109178630Y-73727620D02*
X108568750Y-74337500D01*
D42*
X116268750Y-69537500D02*
X111868750Y-65137500D01*
D41*
X94768750Y-71737500D02*
X94768750Y-72737500D01*
X88168750Y-60287500D02*
X86718810Y-60287500D01*
X79356250Y-72325000D02*
X78468750Y-72325000D01*
X98828630Y-72897380D02*
X99921370Y-72897380D01*
D42*
X115568750Y-62013000D02*
X112468750Y-62013000D01*
D41*
X99921370Y-72897380D02*
X99921370Y-72767569D01*
X110068750Y-74337500D02*
X108568750Y-74337500D01*
D43*
X118393750Y-68000000D02*
X119993750Y-68000000D01*
D41*
X96368750Y-74337500D02*
X96368750Y-74169760D01*
X112168750Y-69437500D02*
X112168750Y-66637500D01*
X111358870Y-73127620D02*
X112468750Y-74237500D01*
D42*
X74076250Y-66037500D02*
X75968750Y-66037500D01*
D41*
X99681250Y-67860478D02*
X99681250Y-66150000D01*
X105593750Y-57287500D02*
X105593750Y-58925000D01*
X94768750Y-64237500D02*
X96368750Y-64237500D01*
D42*
X119268750Y-56337500D02*
X121568750Y-56337500D01*
D41*
X109768750Y-60800000D02*
X109768750Y-59900000D01*
X79268750Y-73737500D02*
X79268750Y-72412500D01*
X105513985Y-69382735D02*
X105513985Y-70282735D01*
D42*
X76968750Y-66037500D02*
X76968750Y-67037500D01*
D41*
X109178630Y-72947380D02*
X110158870Y-72947380D01*
X105306250Y-66137500D02*
X105513985Y-66345235D01*
X112468750Y-74337500D02*
X110068750Y-74337500D01*
X106218750Y-57287500D02*
X105593750Y-57287500D01*
X88168750Y-63387500D02*
X87618750Y-62837500D01*
X112244250Y-62237500D02*
X112468750Y-62013000D01*
D43*
X91756250Y-70237500D02*
X90203125Y-68684375D01*
X94565625Y-68846875D02*
X94565625Y-69940625D01*
D41*
X112881000Y-70325250D02*
X113968750Y-71413000D01*
X111358870Y-73047380D02*
X111358870Y-73127620D01*
X105606250Y-60400000D02*
X105568750Y-60437500D01*
X97641130Y-72715057D02*
X98754994Y-71601193D01*
D42*
X79731250Y-64412500D02*
X81081250Y-64412500D01*
D43*
X93768750Y-70737500D02*
X92431250Y-70737500D01*
D41*
X79168750Y-57637500D02*
X77768750Y-56237500D01*
X110292494Y-71751193D02*
X110292494Y-71833516D01*
D42*
X115693250Y-62013000D02*
X117418750Y-60287500D01*
X76768750Y-58437500D02*
X76768750Y-59537500D01*
D43*
X90268750Y-67218750D02*
X90268750Y-66737500D01*
D41*
X107868750Y-67737500D02*
X107868750Y-67137500D01*
D42*
X117618750Y-60287500D02*
X117618750Y-57987500D01*
D43*
X90203125Y-67284375D02*
X90268750Y-67218750D01*
D42*
X79731250Y-64412500D02*
X79731250Y-64475000D01*
D41*
X101618750Y-69862902D02*
X101618750Y-70187500D01*
X107868750Y-67137500D02*
X107868750Y-70037500D01*
X105606250Y-58937500D02*
X105606250Y-60400000D01*
X110139717Y-69618518D02*
X110139717Y-71598416D01*
X98828630Y-72897380D02*
X98828630Y-74297380D01*
X96681250Y-56650000D02*
X96468750Y-56437500D01*
D42*
X82243750Y-60962500D02*
X82568750Y-60637500D01*
X116468750Y-69737500D02*
X118768750Y-69737500D01*
D43*
X114668750Y-60837500D02*
X115768750Y-59737500D01*
D41*
X110158870Y-72947380D02*
X110158870Y-74227620D01*
D43*
X90203125Y-68684375D02*
X90203125Y-67284375D01*
D41*
X103093750Y-59737500D02*
X101668750Y-59737500D01*
X105513985Y-70282735D02*
X106568750Y-71337500D01*
D42*
X84093750Y-62787500D02*
X85218750Y-62787500D01*
X117418750Y-60287500D02*
X117618750Y-60287500D01*
D43*
X123006250Y-68000000D02*
X119993750Y-68000000D01*
D41*
X110158870Y-72947380D02*
X111258870Y-72947380D01*
X111258870Y-72947380D02*
X111358870Y-73047380D01*
X113968750Y-72837500D02*
X112468750Y-74337500D01*
D42*
X75768750Y-58437500D02*
X76768750Y-58437500D01*
D43*
X73943750Y-69287500D02*
X75218750Y-69287500D01*
D41*
X96681250Y-57825000D02*
X96681250Y-56650000D01*
X98602217Y-69468518D02*
X98602217Y-71448416D01*
X112881000Y-70149750D02*
X112168750Y-69437500D01*
D42*
X75968750Y-66037500D02*
X75968750Y-67037500D01*
X75968750Y-66037500D02*
X76968750Y-66037500D01*
D41*
X94768750Y-72737500D02*
X96368750Y-74337500D01*
D43*
X114531250Y-60837500D02*
X114668750Y-60837500D01*
D41*
X99921370Y-73390120D02*
X100868750Y-74337500D01*
D42*
X74076250Y-59537500D02*
X75768750Y-59537500D01*
D43*
X75218750Y-69287500D02*
X75268750Y-69237500D01*
D41*
X102197605Y-69608645D02*
X101618750Y-70187500D01*
X109768750Y-59900000D02*
X110731250Y-58937500D01*
X109268750Y-64675000D02*
X109268750Y-65737500D01*
X92006250Y-56937500D02*
X90670845Y-56937500D01*
X107468750Y-60800000D02*
X106937500Y-60268750D01*
D42*
X81956250Y-68575000D02*
X81968750Y-68587500D01*
D41*
X102868750Y-72337500D02*
X100868750Y-74337500D01*
X96368750Y-74169760D02*
X97641130Y-72897380D01*
X105513985Y-66345235D02*
X105513985Y-69382735D01*
X110045006Y-69523807D02*
X110139717Y-69618518D01*
X102868750Y-71437500D02*
X102868750Y-72337500D01*
X99921370Y-72897380D02*
X99921370Y-73390120D01*
D43*
X124393750Y-66612500D02*
X123006250Y-68000000D01*
D41*
X97641130Y-72897380D02*
X97641130Y-72715057D01*
X98868750Y-74337500D02*
X96368750Y-74337500D01*
D43*
X114581250Y-57925000D02*
X115768750Y-56737500D01*
D42*
X85218750Y-62787500D02*
X85268750Y-62837500D01*
X79731250Y-64475000D02*
X78568750Y-65637500D01*
D41*
X106768750Y-60437500D02*
X106937500Y-60268750D01*
X111206250Y-62237500D02*
X112244250Y-62237500D01*
D42*
X117618750Y-57987500D02*
X119268750Y-56337500D01*
D41*
X99648788Y-67892940D02*
X99681250Y-67860478D01*
X105568750Y-60437500D02*
X106768750Y-60437500D01*
X110292494Y-71981004D02*
X111358870Y-73047380D01*
X110292494Y-71751193D02*
X110292494Y-71981004D01*
D42*
X75768750Y-59537500D02*
X76768750Y-59537500D01*
D41*
X111468750Y-65937500D02*
X110993250Y-65937500D01*
X108268750Y-60800000D02*
X107468750Y-60800000D01*
X80168750Y-72325000D02*
X79356250Y-72325000D01*
X110731250Y-57337500D02*
X110731250Y-58937500D01*
X101618750Y-70187500D02*
X102868750Y-71437500D01*
X106937500Y-60268750D02*
X105606250Y-58937500D01*
X99681250Y-66150000D02*
X99681250Y-64650000D01*
X112881000Y-70325250D02*
X112881000Y-70149750D01*
D43*
X90203125Y-67284375D02*
X91503125Y-65984375D01*
D41*
X99681250Y-64650000D02*
X99668750Y-64637500D01*
X90670845Y-56937500D02*
X90605635Y-56872290D01*
D42*
X81081250Y-64412500D02*
X81956250Y-65287500D01*
D41*
X110168750Y-74237500D02*
X110068750Y-74337500D01*
X106568750Y-72337500D02*
X106568750Y-71337500D01*
X87618750Y-62837500D02*
X85268750Y-62837500D01*
X109268750Y-65737500D02*
X107868750Y-67137500D01*
X99921370Y-72767569D02*
X98754994Y-71601193D01*
X98828630Y-74297380D02*
X98868750Y-74337500D01*
D43*
X92431250Y-70737500D02*
X91931250Y-70237500D01*
D41*
X79518750Y-57637500D02*
X79168750Y-57637500D01*
X100868750Y-74337500D02*
X98868750Y-74337500D01*
D43*
X114581250Y-58337500D02*
X114581250Y-57925000D01*
D41*
X87168750Y-55637500D02*
X86518750Y-55637500D01*
X110139717Y-71598416D02*
X110292494Y-71751193D01*
X79268750Y-72412500D02*
X79356250Y-72325000D01*
X98507506Y-69373807D02*
X98602217Y-69468518D01*
X98602217Y-71448416D02*
X98754994Y-71601193D01*
X97641130Y-72897380D02*
X98828630Y-72897380D01*
X105593750Y-58925000D02*
X105606250Y-58937500D01*
X87968750Y-56437500D02*
X87168750Y-55637500D01*
D42*
X125268750Y-56337500D02*
X128568750Y-56337500D01*
D41*
X73943750Y-56287500D02*
X74818750Y-56287500D01*
X109178630Y-72947380D02*
X109178630Y-73727620D01*
X106868750Y-56637500D02*
X106218750Y-57287500D01*
D42*
X121568750Y-56337500D02*
X125268750Y-56337500D01*
D41*
X101668750Y-59737500D02*
X101568750Y-59837500D01*
X106568750Y-71337500D02*
X107868750Y-70037500D01*
X74818750Y-56287500D02*
X75268750Y-56737500D01*
D43*
X94565625Y-69940625D02*
X93768750Y-70737500D01*
D42*
X89881250Y-61837500D02*
X89881250Y-63375000D01*
X93228125Y-64996875D02*
X93228125Y-65984375D01*
D41*
X109006250Y-57337500D02*
X109006250Y-58937500D01*
X93731250Y-56937500D02*
X95068750Y-56937500D01*
X109006250Y-57337500D02*
X107578097Y-57337500D01*
X107031250Y-67075000D02*
X107031250Y-66137500D01*
X95293750Y-56937500D02*
X96181250Y-57825000D01*
X112806250Y-60500000D02*
X112806250Y-60837500D01*
D42*
X93975000Y-66531250D02*
X94668750Y-65837500D01*
D41*
X86518750Y-57637500D02*
X86518750Y-59114464D01*
X86518750Y-59114464D02*
X86589056Y-59184770D01*
X112106250Y-60837500D02*
X111206250Y-61737500D01*
X108768750Y-64675000D02*
X108768750Y-65337500D01*
X109268750Y-59200000D02*
X109268750Y-60800000D01*
X101220135Y-68388885D02*
X101791761Y-68388885D01*
D42*
X89893750Y-60287500D02*
X91118750Y-60287500D01*
D41*
X108768750Y-65337500D02*
X107968750Y-66137500D01*
D42*
X93228125Y-65984375D02*
X93428125Y-65984375D01*
X93168750Y-69237500D02*
X93168750Y-69737500D01*
D41*
X94768750Y-65937500D02*
X94668750Y-65837500D01*
X107578097Y-57337500D02*
X107519218Y-57396379D01*
X94768750Y-64737500D02*
X94768750Y-65737500D01*
X100181250Y-67350000D02*
X101220135Y-68388885D01*
X94768750Y-65737500D02*
X94668750Y-65837500D01*
D42*
X89881250Y-61837500D02*
X89881250Y-60300000D01*
X89893750Y-63387500D02*
X91218750Y-63387500D01*
D41*
X96181250Y-66150000D02*
X95968750Y-65937500D01*
D43*
X91993750Y-71847500D02*
X93183250Y-71847500D01*
D41*
X95968750Y-65937500D02*
X94768750Y-65937500D01*
D42*
X93975000Y-66531250D02*
X91928125Y-68578125D01*
D41*
X106768750Y-67337500D02*
X107031250Y-67075000D01*
X112806250Y-60837500D02*
X112106250Y-60837500D01*
X78268750Y-54237500D02*
X78268750Y-54387500D01*
X95068750Y-56937500D02*
X95293750Y-56937500D01*
D42*
X91268750Y-60137500D02*
X92368750Y-60137500D01*
X89118750Y-65287500D02*
X89893750Y-64512500D01*
D41*
X100181250Y-66150000D02*
X100181250Y-67350000D01*
X103868750Y-57287500D02*
X103868750Y-58462500D01*
X107968750Y-66137500D02*
X107031250Y-66137500D01*
D42*
X92368750Y-63437500D02*
X92368750Y-64137500D01*
X93975000Y-66531250D02*
X94565625Y-67121875D01*
D41*
X103868750Y-58462500D02*
X103093750Y-59237500D01*
D42*
X91928125Y-68578125D02*
X91928125Y-68684375D01*
X91928125Y-68684375D02*
X92615625Y-68684375D01*
X89881250Y-60300000D02*
X89893750Y-60287500D01*
X92368750Y-64137500D02*
X93228125Y-64996875D01*
D41*
X78268750Y-54387500D02*
X79518750Y-55637500D01*
X78768750Y-53737500D02*
X78268750Y-54237500D01*
X109006250Y-58937500D02*
X109268750Y-59200000D01*
D42*
X89881250Y-63375000D02*
X89893750Y-63387500D01*
X92615625Y-68684375D02*
X93168750Y-69237500D01*
X89893750Y-64512500D02*
X89893750Y-63387500D01*
X91118750Y-60287500D02*
X91268750Y-60137500D01*
D41*
X79956250Y-53737500D02*
X78768750Y-53737500D01*
D42*
X93428125Y-65984375D02*
X93975000Y-66531250D01*
X92368750Y-63437500D02*
X91268750Y-63437500D01*
X87143750Y-65287500D02*
X89118750Y-65287500D01*
D43*
X93183250Y-71847500D02*
X93268750Y-71762000D01*
D41*
X102768750Y-67537500D02*
X102643146Y-67537500D01*
D42*
X91218750Y-63387500D02*
X91268750Y-63437500D01*
D41*
X113668750Y-59637500D02*
X112806250Y-60500000D01*
X102643146Y-67537500D02*
X101791761Y-68388885D01*
D42*
X90206250Y-71810000D02*
X90168750Y-71847500D01*
D41*
X99181250Y-66150000D02*
X99181250Y-65250000D01*
D42*
X90206250Y-71000000D02*
X90206250Y-71810000D01*
X90206250Y-71000000D02*
X88806250Y-71000000D01*
X90206250Y-70237500D02*
X90206250Y-71000000D01*
D41*
X99181250Y-65250000D02*
X98568750Y-64637500D01*
D42*
X88806250Y-71000000D02*
X88768750Y-71037500D01*
X83706250Y-65287500D02*
X85318750Y-65287500D01*
D41*
X87468750Y-68075000D02*
X86956250Y-68587500D01*
X96681250Y-66150000D02*
X96681250Y-66975989D01*
X87468750Y-67437500D02*
X87468750Y-68075000D01*
X96681250Y-66975989D02*
X95819739Y-67837500D01*
X80168750Y-68862500D02*
X80168750Y-70575000D01*
D42*
X86368750Y-61837500D02*
X88131250Y-61837500D01*
D41*
X97517557Y-70581433D02*
X96421370Y-71677620D01*
X98181250Y-66150000D02*
X98181250Y-68060718D01*
X97517557Y-70363756D02*
X97517557Y-70581433D01*
X97268750Y-68973218D02*
X97268750Y-70114949D01*
X97268750Y-70114949D02*
X97517557Y-70363756D01*
X98181250Y-68060718D02*
X97268750Y-68973218D01*
X100074754Y-70611244D02*
X101141130Y-71677620D01*
X99744943Y-70611244D02*
X100074754Y-70611244D01*
X98681250Y-66150000D02*
X98681250Y-67950000D01*
X98681250Y-67950000D02*
X99744943Y-69013693D01*
X99744943Y-69013693D02*
X99744943Y-70611244D01*
D42*
X82118750Y-63087500D02*
X82768750Y-63737500D01*
X81718750Y-62687500D02*
X82118750Y-63087500D01*
X81231250Y-62687500D02*
X81718750Y-62687500D01*
X82368750Y-62037500D02*
X82118750Y-62287500D01*
X78206250Y-62687500D02*
X79731250Y-62687500D01*
X82568750Y-61837500D02*
X84093750Y-61837500D01*
X82118750Y-62287500D02*
X82118750Y-63087500D01*
X81718750Y-62687500D02*
X82368750Y-62037500D01*
X79731250Y-62687500D02*
X81231250Y-62687500D01*
X82768750Y-63737500D02*
X84093750Y-63737500D01*
X82368750Y-62037500D02*
X82568750Y-61837500D01*
D44*
X98181250Y-57666312D02*
X98189406Y-57658156D01*
X98181250Y-57825000D02*
X98181250Y-57666312D01*
X70895534Y-55528916D02*
X71566961Y-54857489D01*
X98189406Y-55735612D02*
X97779643Y-55325849D01*
X71698189Y-61208061D02*
X72122427Y-61208061D01*
X83243750Y-58680700D02*
X83243751Y-58412499D01*
X74570539Y-54857489D02*
X79194340Y-59481290D01*
X72122427Y-61208061D02*
X72951866Y-62037500D01*
X72951866Y-62037500D02*
X74076250Y-62037500D01*
X71467622Y-61265563D02*
X70895534Y-60693475D01*
X98181250Y-57825000D02*
X98156251Y-57800001D01*
X97779643Y-55325849D02*
X88357099Y-55325849D01*
X83243751Y-56862501D02*
X83243751Y-56412499D01*
X74076250Y-63037500D02*
X71419391Y-63037500D01*
X88357099Y-55325849D02*
X87869239Y-54837989D01*
X70895534Y-60693475D02*
X70895534Y-55528916D01*
X71419391Y-63037500D02*
X71416186Y-63034295D01*
X79194340Y-59481290D02*
X82443160Y-59481290D01*
X71566961Y-54857489D02*
X74570539Y-54857489D01*
X84919728Y-55637500D02*
X84018750Y-55637500D01*
X84018750Y-57637500D02*
X83243751Y-56862501D01*
X85719239Y-54837989D02*
X84919728Y-55637500D01*
X83243751Y-58412499D02*
X84018750Y-57637500D01*
X98189406Y-57658156D02*
X98189406Y-55735612D01*
X71640687Y-61265563D02*
X71467622Y-61265563D01*
X83243751Y-56412499D02*
X84018750Y-55637500D01*
X82443160Y-59481290D02*
X83243750Y-58680700D01*
X87869239Y-54837989D02*
X85719239Y-54837989D01*
X71698189Y-61208061D02*
X71640687Y-61265563D01*
X97731249Y-57775001D02*
X97681250Y-57825000D01*
X83568750Y-54637500D02*
X83018750Y-54637500D01*
X97168770Y-54926329D02*
X88522585Y-54926329D01*
X72325525Y-63537500D02*
X74076250Y-63537500D01*
X97681250Y-57825000D02*
X97706249Y-57800001D01*
X82793749Y-56862501D02*
X82793749Y-56412499D01*
X88522585Y-54926329D02*
X88034725Y-54438469D01*
X88034725Y-54438469D02*
X83767781Y-54438469D01*
X82018750Y-57637500D02*
X82793749Y-56862501D01*
X72115686Y-62190564D02*
X71832694Y-61907572D01*
X83268750Y-53737500D02*
X83568750Y-54037500D01*
X82793750Y-58494300D02*
X82793749Y-58412499D01*
X70445534Y-60879875D02*
X70445534Y-55342516D01*
X81781250Y-53737500D02*
X83268750Y-53737500D01*
X82793749Y-56412499D02*
X82018750Y-55637500D01*
X97468750Y-54626349D02*
X97168770Y-54926329D01*
X82793749Y-58412499D02*
X82018750Y-57637500D01*
X70445534Y-55342516D02*
X71380561Y-54407489D01*
X72096328Y-63766697D02*
X72325525Y-63537500D01*
X97489895Y-56076845D02*
X97731249Y-56318199D01*
X83018750Y-54637500D02*
X82018750Y-55637500D01*
X70998678Y-61497809D02*
X70998678Y-61433019D01*
X71832694Y-61907572D02*
X71408441Y-61907572D01*
X71380561Y-54407489D02*
X74756939Y-54407489D01*
X71408441Y-61907572D02*
X70998678Y-61497809D01*
X82256760Y-59031290D02*
X82793750Y-58494300D01*
X72115686Y-62190564D02*
X72462622Y-62537500D01*
X83767781Y-54438469D02*
X83568750Y-54637500D01*
X83568750Y-54037500D02*
X83568750Y-54637500D01*
X74756939Y-54407489D02*
X79380740Y-59031290D01*
X79380740Y-59031290D02*
X82256760Y-59031290D01*
X72462622Y-62537500D02*
X74076250Y-62537500D01*
X97731249Y-56318199D02*
X97731249Y-57775001D01*
X97489895Y-56025360D02*
X97489895Y-56076845D01*
X70998678Y-61433019D02*
X70445534Y-60879875D01*
D41*
X78468750Y-68862500D02*
X78468750Y-70575000D01*
D42*
X83718750Y-68587500D02*
X85131250Y-68587500D01*
D41*
X105368750Y-63237500D02*
X107331250Y-63237500D01*
X104843270Y-62712020D02*
X105368750Y-63237500D01*
X103093750Y-62737500D02*
X103093750Y-62712500D01*
X103093750Y-62712500D02*
X103094230Y-62712020D01*
X103094230Y-62712020D02*
X104843270Y-62712020D01*
X104668750Y-63237500D02*
X103093750Y-63237500D01*
X105168750Y-63737500D02*
X104668750Y-63237500D01*
X107331250Y-63737500D02*
X105168750Y-63737500D01*
X111282443Y-70761244D02*
X111512254Y-70761244D01*
X110268750Y-66825000D02*
X110981250Y-67537500D01*
X111512254Y-70761244D02*
X112578630Y-71827620D01*
X110268750Y-64675000D02*
X110268750Y-66825000D01*
X111282443Y-67838693D02*
X111282443Y-70761244D01*
X110981250Y-67537500D02*
X111282443Y-67838693D01*
X107958870Y-71727620D02*
X107958870Y-71609943D01*
X108648470Y-70107169D02*
X108648470Y-68045280D01*
X109055057Y-70513756D02*
X108648470Y-70107169D01*
X109156250Y-67537500D02*
X109768750Y-66925000D01*
X108648470Y-68045280D02*
X109156250Y-67537500D01*
X109768750Y-66925000D02*
X109768750Y-64675000D01*
X107958870Y-71609943D02*
X109055057Y-70513756D01*
X120968750Y-64537500D02*
X120968750Y-65300000D01*
X111768750Y-63737500D02*
X111206250Y-63737500D01*
X118393750Y-66275000D02*
X114306250Y-66275000D01*
X118393750Y-66275000D02*
X119993750Y-66275000D01*
X114306250Y-66275000D02*
X111768750Y-63737500D01*
X120968750Y-65300000D02*
X119993750Y-66275000D01*
X101668750Y-61237500D02*
X103093750Y-61237500D01*
X104223515Y-68092265D02*
X103668750Y-67537500D01*
X103668750Y-67537500D02*
X103668750Y-66537500D01*
X103896256Y-61737500D02*
X103093750Y-61737500D01*
X104396256Y-61237500D02*
X103896256Y-61737500D01*
X107331250Y-61737500D02*
X106831250Y-61237500D01*
X106831250Y-61237500D02*
X104396256Y-61237500D01*
X104031974Y-62237500D02*
X103093750Y-62237500D01*
X107331250Y-62237500D02*
X106871422Y-62237500D01*
X104582454Y-61687020D02*
X104031974Y-62237500D01*
X106871422Y-62237500D02*
X106320942Y-61687020D01*
X106320942Y-61687020D02*
X104582454Y-61687020D01*
X105868750Y-62437500D02*
X106168750Y-62737500D01*
X106168750Y-62737500D02*
X107331250Y-62737500D01*
X103093750Y-63737500D02*
X104144152Y-63737500D01*
X104144152Y-63737500D02*
X104606451Y-64199799D01*
X105331250Y-64675000D02*
X108268750Y-64675000D01*
X104668750Y-65337500D02*
X105331250Y-64675000D01*
X102493750Y-65337500D02*
X104668750Y-65337500D01*
X101681250Y-66150000D02*
X102493750Y-65337500D01*
X111206250Y-63237500D02*
X113068750Y-63237500D01*
X113068750Y-63237500D02*
X114343750Y-64512500D01*
X117593750Y-64512500D02*
X119193750Y-64512500D01*
X119193750Y-64512500D02*
X119218750Y-64537500D01*
X114343750Y-64512500D02*
X117593750Y-64512500D01*
X117618750Y-62737500D02*
X117593750Y-62762500D01*
X111206250Y-62737500D02*
X117568750Y-62737500D01*
X117568750Y-62737500D02*
X117593750Y-62762500D01*
X119218750Y-62737500D02*
X117618750Y-62737500D01*
X107467038Y-58937500D02*
X108768750Y-60239212D01*
X107331250Y-58937500D02*
X107467038Y-58937500D01*
X108768750Y-60239212D02*
X108768750Y-60800000D01*
X122631250Y-62737500D02*
X120968750Y-62737500D01*
X124393750Y-64375000D02*
X124393750Y-62775000D01*
X124393750Y-62775000D02*
X124356250Y-62737500D01*
X72781977Y-64537500D02*
X71768750Y-65550727D01*
X71768750Y-68937500D02*
X72118750Y-69287500D01*
X71768750Y-65550727D02*
X71768750Y-68937500D01*
X74076250Y-64537500D02*
X72781977Y-64537500D01*
X73052228Y-61537500D02*
X74076250Y-61537500D01*
X71786730Y-60272002D02*
X73052228Y-61537500D01*
X72118750Y-56287500D02*
X71786730Y-56619520D01*
X71786730Y-56619520D02*
X71786730Y-60272002D01*
X110268750Y-60800000D02*
X110806250Y-60800000D01*
X112756250Y-58850000D02*
X112756250Y-58337500D01*
X110806250Y-60800000D02*
X112756250Y-58850000D01*
X98468750Y-59237511D02*
X98468739Y-59237500D01*
X98468739Y-59237500D02*
X94768750Y-59237500D01*
D42*
X76456250Y-61635478D02*
X75158272Y-60337500D01*
X76456250Y-62687500D02*
X76456250Y-61635478D01*
X75158272Y-60337500D02*
X74076250Y-60337500D01*
X75268750Y-65237500D02*
X74076250Y-65237500D01*
X76456250Y-62687500D02*
X76456250Y-64050000D01*
X76456250Y-64050000D02*
X75268750Y-65237500D01*
M02*
