%TF.GenerationSoftware,KiCad,Pcbnew,(6.0.4)*%
%TF.CreationDate,2022-11-28T15:49:36+01:00*%
%TF.ProjectId,STM32F103RF,53544d33-3246-4313-9033-52462e6b6963,1*%
%TF.SameCoordinates,Original*%
%TF.FileFunction,Copper,L4,Bot*%
%TF.FilePolarity,Positive*%
%FSLAX46Y46*%
G04 Gerber Fmt 4.6, Leading zero omitted, Abs format (unit mm)*
G04 Created by KiCad (PCBNEW (6.0.4)) date 2022-11-28 15:49:36*
%MOMM*%
%LPD*%
G01*
G04 APERTURE LIST*
%TA.AperFunction,ComponentPad*%
%ADD10R,1.700000X1.700000*%
%TD*%
%TA.AperFunction,ComponentPad*%
%ADD11O,1.700000X1.700000*%
%TD*%
%TA.AperFunction,ComponentPad*%
%ADD12O,1.600000X1.000000*%
%TD*%
%TA.AperFunction,ComponentPad*%
%ADD13O,2.100000X1.000000*%
%TD*%
%TA.AperFunction,SMDPad,CuDef*%
%ADD14R,4.200000X1.350000*%
%TD*%
%TA.AperFunction,ViaPad*%
%ADD15C,0.800000*%
%TD*%
%TA.AperFunction,Conductor*%
%ADD16C,0.250000*%
%TD*%
%TA.AperFunction,Conductor*%
%ADD17C,0.200000*%
%TD*%
G04 APERTURE END LIST*
D10*
X100968750Y-54237500D03*
D11*
X103508750Y-54237500D03*
X106048750Y-54237500D03*
X108588750Y-54237500D03*
D12*
X68981250Y-67107500D03*
D13*
X73161250Y-58467500D03*
D12*
X68981250Y-58467500D03*
D13*
X73161250Y-67107500D03*
D14*
X128637500Y-65612500D03*
X128637500Y-59962500D03*
D15*
X111868750Y-65137500D03*
X75268750Y-69237500D03*
X76968750Y-66037500D03*
X90605635Y-56872290D03*
X123006250Y-68000000D03*
X100868750Y-74337500D03*
X112468750Y-74237500D03*
X112168750Y-68537500D03*
X110993250Y-65937500D03*
X97268750Y-67937500D03*
X99648788Y-67892940D03*
X116268750Y-69537500D03*
X95968750Y-69937500D03*
X113968750Y-72437500D03*
X112468750Y-62013000D03*
X75768750Y-59537500D03*
X101618750Y-70187500D03*
X108568750Y-74337500D03*
X112881000Y-70325250D03*
X127168750Y-69737500D03*
X115568750Y-62013000D03*
X82568750Y-60637500D03*
X105568750Y-60437500D03*
X94768750Y-71737500D03*
X75268750Y-56737500D03*
X96368750Y-64237500D03*
X76968750Y-67037500D03*
X118468750Y-57137500D03*
X106568750Y-71337500D03*
X125268750Y-56337500D03*
X107868750Y-67737500D03*
X115768750Y-56737500D03*
X121768750Y-69737500D03*
X77768750Y-56237500D03*
X87968750Y-56437500D03*
X124468750Y-69737500D03*
X96468750Y-56437500D03*
X101568750Y-59837500D03*
X99668750Y-64637500D03*
X96368750Y-74337500D03*
X129968750Y-69737500D03*
X117618750Y-60287500D03*
X107868750Y-70037500D03*
X86718810Y-60287500D03*
X75968750Y-66037500D03*
X102768750Y-72437500D03*
X121568750Y-56337500D03*
X75768750Y-58437500D03*
X90268750Y-66737500D03*
X106868750Y-56637500D03*
X118768750Y-69737500D03*
X79268750Y-73737500D03*
X76768750Y-59537500D03*
X75968750Y-67037500D03*
X78568750Y-65637500D03*
X128568750Y-56337500D03*
X115768750Y-59737500D03*
X85268750Y-62837500D03*
X121531250Y-68000000D03*
X76768750Y-58437500D03*
X94668750Y-65837500D03*
X113668750Y-59637500D03*
X93268750Y-71762000D03*
X78268750Y-54237500D03*
X92368750Y-60137500D03*
X92368750Y-63437500D03*
X106768750Y-67337500D03*
X102768750Y-67537500D03*
X86589056Y-59184770D03*
X95068750Y-56937500D03*
X93168750Y-69737500D03*
X91268750Y-60137500D03*
X91268750Y-63437500D03*
X107568750Y-57537500D03*
X88768750Y-71037500D03*
X98568750Y-64637500D03*
X87468750Y-67437500D03*
X95819739Y-67837500D03*
X71698189Y-61208061D03*
X71416186Y-63034295D03*
X97489895Y-56025360D03*
X72115686Y-62190564D03*
X97468750Y-54626349D03*
X72096328Y-63766697D03*
X101668750Y-61237500D03*
X103668750Y-66537500D03*
X105868750Y-62437500D03*
X104606451Y-64199799D03*
X98468750Y-59237511D03*
X99468750Y-60037500D03*
D16*
X87868750Y-67837500D02*
X87468750Y-67437500D01*
X95819739Y-67837500D02*
X87868750Y-67837500D01*
X93644353Y-71037500D02*
X88768750Y-71037500D01*
X96544250Y-68137603D02*
X93644353Y-71037500D01*
X96544250Y-67155750D02*
X96544250Y-68137603D01*
X98568750Y-64637500D02*
X98568750Y-65131250D01*
X98568750Y-65131250D02*
X96544250Y-67155750D01*
D17*
X71416186Y-63034295D02*
X71416186Y-61490064D01*
X71416186Y-61490064D02*
X71698189Y-61208061D01*
X72096328Y-63766697D02*
X72115686Y-63747339D01*
X97468750Y-56004215D02*
X97489895Y-56025360D01*
X97468750Y-54626349D02*
X97468750Y-56004215D01*
X72115686Y-63747339D02*
X72115686Y-62190564D01*
D16*
X101668750Y-64537500D02*
X101668750Y-61237500D01*
X103668750Y-66537500D02*
X101668750Y-64537500D01*
X104606451Y-64199799D02*
X104606451Y-63699799D01*
X104606451Y-63699799D02*
X105868750Y-62437500D01*
X98468750Y-59237511D02*
X98508739Y-59237511D01*
X98508739Y-59237511D02*
X103508750Y-54237500D01*
X99468750Y-60037500D02*
X100248750Y-60037500D01*
X100248750Y-60037500D02*
X106048750Y-54237500D01*
%TA.AperFunction,Conductor*%
G36*
X129048771Y-51731340D02*
G01*
X129072385Y-51735017D01*
X129081288Y-51733853D01*
X129081289Y-51733853D01*
X129089580Y-51732769D01*
X129113525Y-51731936D01*
X129371370Y-51747539D01*
X129386473Y-51749373D01*
X129667421Y-51800864D01*
X129682194Y-51804506D01*
X129954876Y-51889482D01*
X129969102Y-51894877D01*
X130229564Y-52012105D01*
X130243036Y-52019176D01*
X130487462Y-52166939D01*
X130499984Y-52175582D01*
X130724829Y-52351737D01*
X130736217Y-52361827D01*
X130938173Y-52563783D01*
X130948263Y-52575171D01*
X131124418Y-52800016D01*
X131133061Y-52812538D01*
X131280824Y-53056964D01*
X131287895Y-53070436D01*
X131405123Y-53330898D01*
X131410518Y-53345124D01*
X131495494Y-53617806D01*
X131499136Y-53632579D01*
X131550627Y-53913527D01*
X131552461Y-53928630D01*
X131567627Y-54179242D01*
X131566366Y-54206039D01*
X131566364Y-54206193D01*
X131564983Y-54215063D01*
X131568554Y-54242365D01*
X131569110Y-54246618D01*
X131570174Y-54262958D01*
X131570183Y-60627428D01*
X131570197Y-71112487D01*
X131570198Y-72229323D01*
X131568697Y-72248711D01*
X131565007Y-72272405D01*
X131566171Y-72281309D01*
X131567255Y-72289601D01*
X131568088Y-72313545D01*
X131554910Y-72531303D01*
X131552484Y-72571387D01*
X131550649Y-72586492D01*
X131499155Y-72867441D01*
X131495514Y-72882212D01*
X131410538Y-73154893D01*
X131405144Y-73169116D01*
X131309981Y-73380554D01*
X131287914Y-73429582D01*
X131280846Y-73443049D01*
X131150517Y-73658634D01*
X131133076Y-73687484D01*
X131124437Y-73700000D01*
X130994427Y-73865944D01*
X130948280Y-73924846D01*
X130938190Y-73936234D01*
X130736234Y-74138190D01*
X130724846Y-74148280D01*
X130500000Y-74324437D01*
X130487489Y-74333073D01*
X130243049Y-74480846D01*
X130229587Y-74487911D01*
X129969116Y-74605144D01*
X129954893Y-74610538D01*
X129682212Y-74695514D01*
X129667441Y-74699155D01*
X129386491Y-74750649D01*
X129371392Y-74752483D01*
X129183115Y-74763877D01*
X129120775Y-74767650D01*
X129093965Y-74766389D01*
X129093824Y-74766387D01*
X129084957Y-74765007D01*
X129076058Y-74766171D01*
X129076055Y-74766171D01*
X129053747Y-74769089D01*
X129037272Y-74770153D01*
X117472898Y-74757856D01*
X113429616Y-74753556D01*
X113361517Y-74733481D01*
X113315081Y-74679776D01*
X113305052Y-74609492D01*
X113309917Y-74588619D01*
X113310582Y-74586575D01*
X113362292Y-74427428D01*
X113382254Y-74237500D01*
X113381492Y-74230247D01*
X113362982Y-74054135D01*
X113362982Y-74054133D01*
X113362292Y-74047572D01*
X113303277Y-73865944D01*
X113207790Y-73700556D01*
X113080003Y-73558634D01*
X112925502Y-73446382D01*
X112919474Y-73443698D01*
X112919472Y-73443697D01*
X112757069Y-73371391D01*
X112757068Y-73371391D01*
X112751038Y-73368706D01*
X112657637Y-73348853D01*
X112570694Y-73330372D01*
X112570689Y-73330372D01*
X112564237Y-73329000D01*
X112373263Y-73329000D01*
X112366811Y-73330372D01*
X112366806Y-73330372D01*
X112279863Y-73348853D01*
X112186462Y-73368706D01*
X112180432Y-73371391D01*
X112180431Y-73371391D01*
X112018028Y-73443697D01*
X112018026Y-73443698D01*
X112011998Y-73446382D01*
X111857497Y-73558634D01*
X111729710Y-73700556D01*
X111634223Y-73865944D01*
X111575208Y-74047572D01*
X111574518Y-74054133D01*
X111574518Y-74054135D01*
X111556008Y-74230247D01*
X111555246Y-74237500D01*
X111575208Y-74427428D01*
X111589485Y-74471367D01*
X111626918Y-74586575D01*
X111628946Y-74657543D01*
X111592283Y-74718340D01*
X111528571Y-74749666D01*
X111506951Y-74751511D01*
X109563444Y-74749444D01*
X109495345Y-74729369D01*
X109448909Y-74675664D01*
X109438880Y-74605380D01*
X109443743Y-74584515D01*
X109462292Y-74527428D01*
X109472143Y-74433706D01*
X109481564Y-74344065D01*
X109482254Y-74337500D01*
X109480881Y-74324433D01*
X109462982Y-74154135D01*
X109462982Y-74154133D01*
X109462292Y-74147572D01*
X109403277Y-73965944D01*
X109385166Y-73934574D01*
X109350039Y-73873733D01*
X109307790Y-73800556D01*
X109180003Y-73658634D01*
X109044840Y-73560432D01*
X109030844Y-73550263D01*
X109030843Y-73550262D01*
X109025502Y-73546382D01*
X109019474Y-73543698D01*
X109019472Y-73543697D01*
X108857069Y-73471391D01*
X108857068Y-73471391D01*
X108851038Y-73468706D01*
X108757638Y-73448853D01*
X108670694Y-73430372D01*
X108670689Y-73430372D01*
X108664237Y-73429000D01*
X108473263Y-73429000D01*
X108466811Y-73430372D01*
X108466806Y-73430372D01*
X108379862Y-73448853D01*
X108286462Y-73468706D01*
X108280432Y-73471391D01*
X108280431Y-73471391D01*
X108118028Y-73543697D01*
X108118026Y-73543698D01*
X108111998Y-73546382D01*
X108106657Y-73550262D01*
X108106656Y-73550263D01*
X108092660Y-73560432D01*
X107957497Y-73658634D01*
X107829710Y-73800556D01*
X107787461Y-73873733D01*
X107752335Y-73934574D01*
X107734223Y-73965944D01*
X107675208Y-74147572D01*
X107674518Y-74154133D01*
X107674518Y-74154135D01*
X107656619Y-74324433D01*
X107655246Y-74337500D01*
X107655936Y-74344065D01*
X107665358Y-74433706D01*
X107675208Y-74527428D01*
X107693067Y-74582392D01*
X107695095Y-74653358D01*
X107658433Y-74714156D01*
X107594721Y-74745481D01*
X107573100Y-74747327D01*
X106289470Y-74745962D01*
X101866103Y-74741259D01*
X101798005Y-74721184D01*
X101751569Y-74667479D01*
X101741540Y-74597195D01*
X101746405Y-74576323D01*
X101755597Y-74548033D01*
X101762292Y-74527428D01*
X101772143Y-74433706D01*
X101781564Y-74344065D01*
X101782254Y-74337500D01*
X101780881Y-74324433D01*
X101762982Y-74154135D01*
X101762982Y-74154133D01*
X101762292Y-74147572D01*
X101703277Y-73965944D01*
X101685166Y-73934574D01*
X101650039Y-73873733D01*
X101607790Y-73800556D01*
X101480003Y-73658634D01*
X101344840Y-73560432D01*
X101330844Y-73550263D01*
X101330843Y-73550262D01*
X101325502Y-73546382D01*
X101319474Y-73543698D01*
X101319472Y-73543697D01*
X101157069Y-73471391D01*
X101157068Y-73471391D01*
X101151038Y-73468706D01*
X101057638Y-73448853D01*
X100970694Y-73430372D01*
X100970689Y-73430372D01*
X100964237Y-73429000D01*
X100773263Y-73429000D01*
X100766811Y-73430372D01*
X100766806Y-73430372D01*
X100679862Y-73448853D01*
X100586462Y-73468706D01*
X100580432Y-73471391D01*
X100580431Y-73471391D01*
X100418028Y-73543697D01*
X100418026Y-73543698D01*
X100411998Y-73546382D01*
X100406657Y-73550262D01*
X100406656Y-73550263D01*
X100392660Y-73560432D01*
X100257497Y-73658634D01*
X100129710Y-73800556D01*
X100087461Y-73873733D01*
X100052335Y-73934574D01*
X100034223Y-73965944D01*
X99975208Y-74147572D01*
X99974518Y-74154133D01*
X99974518Y-74154135D01*
X99956619Y-74324433D01*
X99955246Y-74337500D01*
X99955936Y-74344065D01*
X99965358Y-74433706D01*
X99975208Y-74527428D01*
X99977247Y-74533702D01*
X99977248Y-74533706D01*
X99990405Y-74574200D01*
X99992432Y-74645168D01*
X99955770Y-74705966D01*
X99892057Y-74737291D01*
X99870438Y-74739136D01*
X99045703Y-74738259D01*
X97367656Y-74736475D01*
X97299559Y-74716400D01*
X97253123Y-74662695D01*
X97243094Y-74592411D01*
X97247957Y-74571545D01*
X97262292Y-74527428D01*
X97272143Y-74433706D01*
X97281564Y-74344065D01*
X97282254Y-74337500D01*
X97280881Y-74324433D01*
X97262982Y-74154135D01*
X97262982Y-74154133D01*
X97262292Y-74147572D01*
X97203277Y-73965944D01*
X97185166Y-73934574D01*
X97150039Y-73873733D01*
X97107790Y-73800556D01*
X96980003Y-73658634D01*
X96844840Y-73560432D01*
X96830844Y-73550263D01*
X96830843Y-73550262D01*
X96825502Y-73546382D01*
X96819474Y-73543698D01*
X96819472Y-73543697D01*
X96657069Y-73471391D01*
X96657068Y-73471391D01*
X96651038Y-73468706D01*
X96557638Y-73448853D01*
X96470694Y-73430372D01*
X96470689Y-73430372D01*
X96464237Y-73429000D01*
X96273263Y-73429000D01*
X96266811Y-73430372D01*
X96266806Y-73430372D01*
X96179862Y-73448853D01*
X96086462Y-73468706D01*
X96080432Y-73471391D01*
X96080431Y-73471391D01*
X95918028Y-73543697D01*
X95918026Y-73543698D01*
X95911998Y-73546382D01*
X95906657Y-73550262D01*
X95906656Y-73550263D01*
X95892660Y-73560432D01*
X95757497Y-73658634D01*
X95629710Y-73800556D01*
X95587461Y-73873733D01*
X95552335Y-73934574D01*
X95534223Y-73965944D01*
X95475208Y-74147572D01*
X95474518Y-74154133D01*
X95474518Y-74154135D01*
X95456619Y-74324433D01*
X95455246Y-74337500D01*
X95455936Y-74344065D01*
X95465358Y-74433706D01*
X95475208Y-74527428D01*
X95481167Y-74545766D01*
X95488850Y-74569412D01*
X95490878Y-74640380D01*
X95454216Y-74701178D01*
X95390503Y-74732503D01*
X95368888Y-74734349D01*
X79852700Y-74717849D01*
X79784603Y-74697774D01*
X79738167Y-74644069D01*
X79728138Y-74573785D01*
X79757699Y-74509235D01*
X79778775Y-74489913D01*
X79817062Y-74462095D01*
X79880003Y-74416366D01*
X80007790Y-74274444D01*
X80084664Y-74141294D01*
X80099973Y-74114779D01*
X80099974Y-74114778D01*
X80103277Y-74109056D01*
X80162292Y-73927428D01*
X80176143Y-73795648D01*
X80181564Y-73744065D01*
X80182254Y-73737500D01*
X80162292Y-73547572D01*
X80103277Y-73365944D01*
X80082740Y-73330372D01*
X80025542Y-73231303D01*
X80007790Y-73200556D01*
X79880003Y-73058634D01*
X79725502Y-72946382D01*
X79719474Y-72943698D01*
X79719472Y-72943697D01*
X79557069Y-72871391D01*
X79557068Y-72871391D01*
X79551038Y-72868706D01*
X79457638Y-72848853D01*
X79370694Y-72830372D01*
X79370689Y-72830372D01*
X79364237Y-72829000D01*
X79173263Y-72829000D01*
X79166811Y-72830372D01*
X79166806Y-72830372D01*
X79079862Y-72848853D01*
X78986462Y-72868706D01*
X78980432Y-72871391D01*
X78980431Y-72871391D01*
X78818028Y-72943697D01*
X78818026Y-72943698D01*
X78811998Y-72946382D01*
X78657497Y-73058634D01*
X78529710Y-73200556D01*
X78511958Y-73231303D01*
X78454761Y-73330372D01*
X78434223Y-73365944D01*
X78375208Y-73547572D01*
X78355246Y-73737500D01*
X78355936Y-73744065D01*
X78361358Y-73795648D01*
X78375208Y-73927428D01*
X78434223Y-74109056D01*
X78437526Y-74114778D01*
X78437527Y-74114779D01*
X78452836Y-74141294D01*
X78529710Y-74274444D01*
X78657497Y-74416366D01*
X78662839Y-74420247D01*
X78662841Y-74420249D01*
X78757012Y-74488668D01*
X78800366Y-74544890D01*
X78806441Y-74615626D01*
X78773310Y-74678418D01*
X78711489Y-74713330D01*
X78682817Y-74716604D01*
X70339636Y-74707732D01*
X70320389Y-74706232D01*
X70296351Y-74702489D01*
X70285927Y-74703852D01*
X70279158Y-74704737D01*
X70255212Y-74705571D01*
X69997370Y-74689971D01*
X69982266Y-74688137D01*
X69701326Y-74636650D01*
X69686553Y-74633009D01*
X69413863Y-74548033D01*
X69399636Y-74542637D01*
X69139180Y-74425413D01*
X69125708Y-74418342D01*
X68881279Y-74270577D01*
X68868757Y-74261933D01*
X68731166Y-74154135D01*
X68643930Y-74085789D01*
X68632542Y-74075701D01*
X68610977Y-74054135D01*
X68430578Y-73873733D01*
X68420488Y-73862344D01*
X68244341Y-73637505D01*
X68235698Y-73624983D01*
X68087938Y-73380554D01*
X68080867Y-73367081D01*
X67963646Y-73106621D01*
X67958251Y-73092395D01*
X67919715Y-72968726D01*
X67873279Y-72819702D01*
X67869640Y-72804936D01*
X67833491Y-72607666D01*
X67818158Y-72523996D01*
X67816324Y-72508892D01*
X67803904Y-72303541D01*
X67801152Y-72258043D01*
X67802369Y-72232192D01*
X67802380Y-72231332D01*
X67803761Y-72222459D01*
X67801648Y-72206294D01*
X67799585Y-72190517D01*
X67798521Y-72174329D01*
X67798521Y-72173754D01*
X67795240Y-69407666D01*
X67795038Y-69237500D01*
X74355246Y-69237500D01*
X74355936Y-69244065D01*
X74372985Y-69406274D01*
X74375208Y-69427428D01*
X74434223Y-69609056D01*
X74437526Y-69614778D01*
X74437527Y-69614779D01*
X74455349Y-69645648D01*
X74529710Y-69774444D01*
X74657497Y-69916366D01*
X74811998Y-70028618D01*
X74818026Y-70031302D01*
X74818028Y-70031303D01*
X74902082Y-70068726D01*
X74986462Y-70106294D01*
X75055013Y-70120865D01*
X75166806Y-70144628D01*
X75166811Y-70144628D01*
X75173263Y-70146000D01*
X75364237Y-70146000D01*
X75370689Y-70144628D01*
X75370694Y-70144628D01*
X75482487Y-70120865D01*
X75551038Y-70106294D01*
X75635418Y-70068726D01*
X75719472Y-70031303D01*
X75719474Y-70031302D01*
X75725502Y-70028618D01*
X75880003Y-69916366D01*
X76007790Y-69774444D01*
X76082151Y-69645648D01*
X76099973Y-69614779D01*
X76099974Y-69614778D01*
X76103277Y-69609056D01*
X76162292Y-69427428D01*
X76164516Y-69406274D01*
X76181564Y-69244065D01*
X76182254Y-69237500D01*
X76165632Y-69079347D01*
X76162982Y-69054135D01*
X76162982Y-69054133D01*
X76162292Y-69047572D01*
X76103277Y-68865944D01*
X76082740Y-68830372D01*
X76050933Y-68775282D01*
X76007790Y-68700556D01*
X75983839Y-68673955D01*
X75884425Y-68563545D01*
X75884424Y-68563544D01*
X75880003Y-68558634D01*
X75764126Y-68474444D01*
X75730844Y-68450263D01*
X75730843Y-68450262D01*
X75725502Y-68446382D01*
X75719474Y-68443698D01*
X75719472Y-68443697D01*
X75557069Y-68371391D01*
X75557068Y-68371391D01*
X75551038Y-68368706D01*
X75451611Y-68347572D01*
X75370694Y-68330372D01*
X75370689Y-68330372D01*
X75364237Y-68329000D01*
X75173263Y-68329000D01*
X75166811Y-68330372D01*
X75166806Y-68330372D01*
X75085889Y-68347572D01*
X74986462Y-68368706D01*
X74980432Y-68371391D01*
X74980431Y-68371391D01*
X74818028Y-68443697D01*
X74818026Y-68443698D01*
X74811998Y-68446382D01*
X74806657Y-68450262D01*
X74806656Y-68450263D01*
X74773374Y-68474444D01*
X74657497Y-68558634D01*
X74653076Y-68563544D01*
X74653075Y-68563545D01*
X74553662Y-68673955D01*
X74529710Y-68700556D01*
X74486567Y-68775282D01*
X74454761Y-68830372D01*
X74434223Y-68865944D01*
X74375208Y-69047572D01*
X74374518Y-69054133D01*
X74374518Y-69054135D01*
X74371868Y-69079347D01*
X74355246Y-69237500D01*
X67795038Y-69237500D01*
X67793511Y-67949514D01*
X67813432Y-67881370D01*
X67867033Y-67834814D01*
X67937295Y-67824626D01*
X68000499Y-67852842D01*
X68108724Y-67943654D01*
X68114122Y-67946621D01*
X68114127Y-67946625D01*
X68212229Y-68000556D01*
X68282037Y-68038933D01*
X68287904Y-68040794D01*
X68287906Y-68040795D01*
X68464686Y-68096873D01*
X68470556Y-68098735D01*
X68624477Y-68116000D01*
X69331019Y-68116000D01*
X69334075Y-68115700D01*
X69334082Y-68115700D01*
X69401838Y-68109056D01*
X69478083Y-68101580D01*
X69483984Y-68099798D01*
X69483986Y-68099798D01*
X69561798Y-68076305D01*
X69667419Y-68044416D01*
X69842046Y-67951566D01*
X69985198Y-67834814D01*
X69990537Y-67830460D01*
X69990540Y-67830457D01*
X69995312Y-67826565D01*
X70003618Y-67816525D01*
X70117451Y-67678925D01*
X70117453Y-67678921D01*
X70121380Y-67674175D01*
X70215448Y-67500201D01*
X70273932Y-67311268D01*
X70280627Y-67247572D01*
X70293961Y-67120704D01*
X70293961Y-67120702D01*
X70294605Y-67114575D01*
X70293317Y-67100425D01*
X71597895Y-67100425D01*
X71604041Y-67167960D01*
X71611884Y-67254135D01*
X71615820Y-67297388D01*
X71617558Y-67303294D01*
X71617559Y-67303298D01*
X71646835Y-67402771D01*
X71671660Y-67487119D01*
X71674513Y-67492577D01*
X71674515Y-67492581D01*
X71686581Y-67515661D01*
X71763290Y-67662390D01*
X71887218Y-67816525D01*
X71891942Y-67820489D01*
X71894632Y-67822746D01*
X72038724Y-67943654D01*
X72044122Y-67946621D01*
X72044127Y-67946625D01*
X72142229Y-68000556D01*
X72212037Y-68038933D01*
X72217904Y-68040794D01*
X72217906Y-68040795D01*
X72394686Y-68096873D01*
X72400556Y-68098735D01*
X72554477Y-68116000D01*
X73761019Y-68116000D01*
X73764075Y-68115700D01*
X73764082Y-68115700D01*
X73831838Y-68109056D01*
X73908083Y-68101580D01*
X73913984Y-68099798D01*
X73913986Y-68099798D01*
X73991798Y-68076305D01*
X74097419Y-68044416D01*
X74272046Y-67951566D01*
X74415198Y-67834814D01*
X74420537Y-67830460D01*
X74420540Y-67830457D01*
X74425312Y-67826565D01*
X74433618Y-67816525D01*
X74547451Y-67678925D01*
X74547453Y-67678921D01*
X74551380Y-67674175D01*
X74645448Y-67500201D01*
X74703932Y-67311268D01*
X74710627Y-67247572D01*
X74723961Y-67120704D01*
X74723961Y-67120702D01*
X74724605Y-67114575D01*
X74717591Y-67037500D01*
X75055246Y-67037500D01*
X75055936Y-67044065D01*
X75074321Y-67218985D01*
X75075208Y-67227428D01*
X75134223Y-67409056D01*
X75137526Y-67414778D01*
X75137527Y-67414779D01*
X75155553Y-67446000D01*
X75229710Y-67574444D01*
X75234128Y-67579351D01*
X75234129Y-67579352D01*
X75273179Y-67622721D01*
X75357497Y-67716366D01*
X75456593Y-67788364D01*
X75506504Y-67824626D01*
X75511998Y-67828618D01*
X75518026Y-67831302D01*
X75518028Y-67831303D01*
X75680431Y-67903609D01*
X75686462Y-67906294D01*
X75755013Y-67920865D01*
X75866806Y-67944628D01*
X75866811Y-67944628D01*
X75873263Y-67946000D01*
X76064237Y-67946000D01*
X76070689Y-67944628D01*
X76070694Y-67944628D01*
X76182487Y-67920865D01*
X76251038Y-67906294D01*
X76266287Y-67899505D01*
X76347054Y-67863545D01*
X76417502Y-67832180D01*
X76487868Y-67822746D01*
X76519997Y-67832180D01*
X76590446Y-67863545D01*
X76671214Y-67899505D01*
X76686462Y-67906294D01*
X76755013Y-67920865D01*
X76866806Y-67944628D01*
X76866811Y-67944628D01*
X76873263Y-67946000D01*
X77064237Y-67946000D01*
X77070689Y-67944628D01*
X77070694Y-67944628D01*
X77182487Y-67920865D01*
X77251038Y-67906294D01*
X77257069Y-67903609D01*
X77419472Y-67831303D01*
X77419474Y-67831302D01*
X77425502Y-67828618D01*
X77430997Y-67824626D01*
X77480907Y-67788364D01*
X77580003Y-67716366D01*
X77664321Y-67622721D01*
X77703371Y-67579352D01*
X77703372Y-67579351D01*
X77707790Y-67574444D01*
X77781947Y-67446000D01*
X77786855Y-67437500D01*
X86555246Y-67437500D01*
X86555936Y-67444065D01*
X86570799Y-67585474D01*
X86575208Y-67627428D01*
X86634223Y-67809056D01*
X86637526Y-67814778D01*
X86637527Y-67814779D01*
X86647067Y-67831303D01*
X86729710Y-67974444D01*
X86734128Y-67979351D01*
X86734129Y-67979352D01*
X86821426Y-68076305D01*
X86857497Y-68116366D01*
X87011998Y-68228618D01*
X87018026Y-68231302D01*
X87018028Y-68231303D01*
X87114925Y-68274444D01*
X87186462Y-68306294D01*
X87279862Y-68326147D01*
X87366806Y-68344628D01*
X87366811Y-68344628D01*
X87373263Y-68346000D01*
X87446370Y-68346000D01*
X87507081Y-68361591D01*
X87511191Y-68363851D01*
X87527706Y-68374699D01*
X87543709Y-68387113D01*
X87584293Y-68404676D01*
X87594923Y-68409883D01*
X87633690Y-68431195D01*
X87641367Y-68433166D01*
X87641372Y-68433168D01*
X87653308Y-68436232D01*
X87672016Y-68442637D01*
X87690605Y-68450681D01*
X87698430Y-68451920D01*
X87698432Y-68451921D01*
X87734269Y-68457597D01*
X87745890Y-68460004D01*
X87779863Y-68468726D01*
X87788720Y-68471000D01*
X87808981Y-68471000D01*
X87828690Y-68472551D01*
X87848693Y-68475719D01*
X87856585Y-68474973D01*
X87861812Y-68474479D01*
X87892704Y-68471559D01*
X87904561Y-68471000D01*
X95010759Y-68471000D01*
X95078880Y-68491002D01*
X95125373Y-68544658D01*
X95135477Y-68614932D01*
X95105983Y-68679512D01*
X95099855Y-68686094D01*
X94255013Y-69530935D01*
X93418853Y-70367095D01*
X93356541Y-70401121D01*
X93329758Y-70404000D01*
X89476950Y-70404000D01*
X89408829Y-70383998D01*
X89389603Y-70367657D01*
X89389330Y-70367960D01*
X89384418Y-70363537D01*
X89380003Y-70358634D01*
X89310199Y-70307918D01*
X89230844Y-70250263D01*
X89230843Y-70250262D01*
X89225502Y-70246382D01*
X89219474Y-70243698D01*
X89219472Y-70243697D01*
X89057069Y-70171391D01*
X89057068Y-70171391D01*
X89051038Y-70168706D01*
X88957637Y-70148853D01*
X88870694Y-70130372D01*
X88870689Y-70130372D01*
X88864237Y-70129000D01*
X88673263Y-70129000D01*
X88666811Y-70130372D01*
X88666806Y-70130372D01*
X88579863Y-70148853D01*
X88486462Y-70168706D01*
X88480432Y-70171391D01*
X88480431Y-70171391D01*
X88318028Y-70243697D01*
X88318026Y-70243698D01*
X88311998Y-70246382D01*
X88157497Y-70358634D01*
X88153076Y-70363544D01*
X88153075Y-70363545D01*
X88119242Y-70401121D01*
X88029710Y-70500556D01*
X88003252Y-70546382D01*
X87946510Y-70644663D01*
X87934223Y-70665944D01*
X87875208Y-70847572D01*
X87874518Y-70854133D01*
X87874518Y-70854135D01*
X87865986Y-70935317D01*
X87855246Y-71037500D01*
X87855936Y-71044065D01*
X87872985Y-71206274D01*
X87875208Y-71227428D01*
X87934223Y-71409056D01*
X88029710Y-71574444D01*
X88034128Y-71579351D01*
X88034129Y-71579352D01*
X88116202Y-71670503D01*
X88157497Y-71716366D01*
X88311998Y-71828618D01*
X88318026Y-71831302D01*
X88318028Y-71831303D01*
X88473574Y-71900556D01*
X88486462Y-71906294D01*
X88555013Y-71920865D01*
X88666806Y-71944628D01*
X88666811Y-71944628D01*
X88673263Y-71946000D01*
X88864237Y-71946000D01*
X88870689Y-71944628D01*
X88870694Y-71944628D01*
X88982487Y-71920865D01*
X89051038Y-71906294D01*
X89063926Y-71900556D01*
X89219472Y-71831303D01*
X89219474Y-71831302D01*
X89225502Y-71828618D01*
X89380003Y-71716366D01*
X89384418Y-71711463D01*
X89389330Y-71707040D01*
X89390455Y-71708289D01*
X89443764Y-71675449D01*
X89476950Y-71671000D01*
X93565586Y-71671000D01*
X93576769Y-71671527D01*
X93584262Y-71673202D01*
X93592188Y-71672953D01*
X93592189Y-71672953D01*
X93652339Y-71671062D01*
X93656298Y-71671000D01*
X93684209Y-71671000D01*
X93688144Y-71670503D01*
X93688209Y-71670495D01*
X93700044Y-71669563D01*
X93730589Y-71668602D01*
X93799303Y-71686454D01*
X93847459Y-71738622D01*
X93859857Y-71781370D01*
X93872985Y-71906274D01*
X93875208Y-71927428D01*
X93934223Y-72109056D01*
X94029710Y-72274444D01*
X94034128Y-72279351D01*
X94034129Y-72279352D01*
X94153075Y-72411455D01*
X94157497Y-72416366D01*
X94256593Y-72488364D01*
X94284848Y-72508892D01*
X94311998Y-72528618D01*
X94318026Y-72531302D01*
X94318028Y-72531303D01*
X94480431Y-72603609D01*
X94486462Y-72606294D01*
X94555013Y-72620865D01*
X94666806Y-72644628D01*
X94666811Y-72644628D01*
X94673263Y-72646000D01*
X94864237Y-72646000D01*
X94870689Y-72644628D01*
X94870694Y-72644628D01*
X94982487Y-72620865D01*
X95051038Y-72606294D01*
X95057069Y-72603609D01*
X95219472Y-72531303D01*
X95219474Y-72531302D01*
X95225502Y-72528618D01*
X95252653Y-72508892D01*
X95280907Y-72488364D01*
X95350915Y-72437500D01*
X101855246Y-72437500D01*
X101855936Y-72444065D01*
X101872705Y-72603609D01*
X101875208Y-72627428D01*
X101934223Y-72809056D01*
X102029710Y-72974444D01*
X102034128Y-72979351D01*
X102034129Y-72979352D01*
X102153075Y-73111455D01*
X102157497Y-73116366D01*
X102311998Y-73228618D01*
X102318026Y-73231302D01*
X102318028Y-73231303D01*
X102328268Y-73235862D01*
X102486462Y-73306294D01*
X102579862Y-73326147D01*
X102666806Y-73344628D01*
X102666811Y-73344628D01*
X102673263Y-73346000D01*
X102864237Y-73346000D01*
X102870689Y-73344628D01*
X102870694Y-73344628D01*
X102957638Y-73326147D01*
X103051038Y-73306294D01*
X103209232Y-73235862D01*
X103219472Y-73231303D01*
X103219474Y-73231302D01*
X103225502Y-73228618D01*
X103380003Y-73116366D01*
X103384425Y-73111455D01*
X103503371Y-72979352D01*
X103503372Y-72979351D01*
X103507790Y-72974444D01*
X103603277Y-72809056D01*
X103662292Y-72627428D01*
X103664796Y-72603609D01*
X103681564Y-72444065D01*
X103682254Y-72437500D01*
X113055246Y-72437500D01*
X113055936Y-72444065D01*
X113072705Y-72603609D01*
X113075208Y-72627428D01*
X113134223Y-72809056D01*
X113229710Y-72974444D01*
X113234128Y-72979351D01*
X113234129Y-72979352D01*
X113353075Y-73111455D01*
X113357497Y-73116366D01*
X113511998Y-73228618D01*
X113518026Y-73231302D01*
X113518028Y-73231303D01*
X113528268Y-73235862D01*
X113686462Y-73306294D01*
X113779862Y-73326147D01*
X113866806Y-73344628D01*
X113866811Y-73344628D01*
X113873263Y-73346000D01*
X114064237Y-73346000D01*
X114070689Y-73344628D01*
X114070694Y-73344628D01*
X114157638Y-73326147D01*
X114251038Y-73306294D01*
X114409232Y-73235862D01*
X114419472Y-73231303D01*
X114419474Y-73231302D01*
X114425502Y-73228618D01*
X114580003Y-73116366D01*
X114584425Y-73111455D01*
X114703371Y-72979352D01*
X114703372Y-72979351D01*
X114707790Y-72974444D01*
X114803277Y-72809056D01*
X114862292Y-72627428D01*
X114864796Y-72603609D01*
X114881564Y-72444065D01*
X114882254Y-72437500D01*
X114867964Y-72301534D01*
X114862982Y-72254135D01*
X114862982Y-72254133D01*
X114862292Y-72247572D01*
X114803277Y-72065944D01*
X114707790Y-71900556D01*
X114645435Y-71831303D01*
X114584425Y-71763545D01*
X114584424Y-71763544D01*
X114580003Y-71758634D01*
X114465509Y-71675449D01*
X114430844Y-71650263D01*
X114430843Y-71650262D01*
X114425502Y-71646382D01*
X114419474Y-71643698D01*
X114419472Y-71643697D01*
X114257069Y-71571391D01*
X114257068Y-71571391D01*
X114251038Y-71568706D01*
X114151611Y-71547572D01*
X114070694Y-71530372D01*
X114070689Y-71530372D01*
X114064237Y-71529000D01*
X113873263Y-71529000D01*
X113866811Y-71530372D01*
X113866806Y-71530372D01*
X113785889Y-71547572D01*
X113686462Y-71568706D01*
X113680432Y-71571391D01*
X113680431Y-71571391D01*
X113518028Y-71643697D01*
X113518026Y-71643698D01*
X113511998Y-71646382D01*
X113506657Y-71650262D01*
X113506656Y-71650263D01*
X113471991Y-71675449D01*
X113357497Y-71758634D01*
X113353076Y-71763544D01*
X113353075Y-71763545D01*
X113292066Y-71831303D01*
X113229710Y-71900556D01*
X113134223Y-72065944D01*
X113075208Y-72247572D01*
X113074518Y-72254133D01*
X113074518Y-72254135D01*
X113069536Y-72301534D01*
X113055246Y-72437500D01*
X103682254Y-72437500D01*
X103667964Y-72301534D01*
X103662982Y-72254135D01*
X103662982Y-72254133D01*
X103662292Y-72247572D01*
X103603277Y-72065944D01*
X103507790Y-71900556D01*
X103445435Y-71831303D01*
X103384425Y-71763545D01*
X103384424Y-71763544D01*
X103380003Y-71758634D01*
X103265509Y-71675449D01*
X103230844Y-71650263D01*
X103230843Y-71650262D01*
X103225502Y-71646382D01*
X103219474Y-71643698D01*
X103219472Y-71643697D01*
X103057069Y-71571391D01*
X103057068Y-71571391D01*
X103051038Y-71568706D01*
X102951611Y-71547572D01*
X102870694Y-71530372D01*
X102870689Y-71530372D01*
X102864237Y-71529000D01*
X102673263Y-71529000D01*
X102666811Y-71530372D01*
X102666806Y-71530372D01*
X102585889Y-71547572D01*
X102486462Y-71568706D01*
X102480432Y-71571391D01*
X102480431Y-71571391D01*
X102318028Y-71643697D01*
X102318026Y-71643698D01*
X102311998Y-71646382D01*
X102306657Y-71650262D01*
X102306656Y-71650263D01*
X102271991Y-71675449D01*
X102157497Y-71758634D01*
X102153076Y-71763544D01*
X102153075Y-71763545D01*
X102092066Y-71831303D01*
X102029710Y-71900556D01*
X101934223Y-72065944D01*
X101875208Y-72247572D01*
X101874518Y-72254133D01*
X101874518Y-72254135D01*
X101869536Y-72301534D01*
X101855246Y-72437500D01*
X95350915Y-72437500D01*
X95380003Y-72416366D01*
X95384425Y-72411455D01*
X95503371Y-72279352D01*
X95503372Y-72279351D01*
X95507790Y-72274444D01*
X95603277Y-72109056D01*
X95662292Y-71927428D01*
X95664516Y-71906274D01*
X95681564Y-71744065D01*
X95682254Y-71737500D01*
X95665632Y-71579352D01*
X95662982Y-71554135D01*
X95662982Y-71554133D01*
X95662292Y-71547572D01*
X95603277Y-71365944D01*
X95586855Y-71337500D01*
X105655246Y-71337500D01*
X105675208Y-71527428D01*
X105734223Y-71709056D01*
X105829710Y-71874444D01*
X105834128Y-71879351D01*
X105834129Y-71879352D01*
X105877417Y-71927428D01*
X105957497Y-72016366D01*
X106111998Y-72128618D01*
X106118026Y-72131302D01*
X106118028Y-72131303D01*
X106214667Y-72174329D01*
X106286462Y-72206294D01*
X106362512Y-72222459D01*
X106466806Y-72244628D01*
X106466811Y-72244628D01*
X106473263Y-72246000D01*
X106664237Y-72246000D01*
X106670689Y-72244628D01*
X106670694Y-72244628D01*
X106774988Y-72222459D01*
X106851038Y-72206294D01*
X106922833Y-72174329D01*
X107019472Y-72131303D01*
X107019474Y-72131302D01*
X107025502Y-72128618D01*
X107180003Y-72016366D01*
X107260083Y-71927428D01*
X107303371Y-71879352D01*
X107303372Y-71879351D01*
X107307790Y-71874444D01*
X107403277Y-71709056D01*
X107462292Y-71527428D01*
X107482254Y-71337500D01*
X107467321Y-71195416D01*
X107462982Y-71154135D01*
X107462982Y-71154133D01*
X107462292Y-71147572D01*
X107436139Y-71067082D01*
X107434111Y-70996115D01*
X107470774Y-70935317D01*
X107534486Y-70903991D01*
X107586166Y-70907688D01*
X107586462Y-70906294D01*
X107766806Y-70944628D01*
X107766811Y-70944628D01*
X107773263Y-70946000D01*
X107964237Y-70946000D01*
X107970689Y-70944628D01*
X107970694Y-70944628D01*
X108057637Y-70926147D01*
X108151038Y-70906294D01*
X108231997Y-70870249D01*
X108319472Y-70831303D01*
X108319474Y-70831302D01*
X108325502Y-70828618D01*
X108480003Y-70716366D01*
X108607790Y-70574444D01*
X108681947Y-70446000D01*
X108699973Y-70414779D01*
X108699974Y-70414778D01*
X108703277Y-70409056D01*
X108762292Y-70227428D01*
X108772143Y-70133706D01*
X108781564Y-70044065D01*
X108782254Y-70037500D01*
X108769931Y-69920249D01*
X108762982Y-69854135D01*
X108762982Y-69854133D01*
X108762292Y-69847572D01*
X108703277Y-69665944D01*
X108697716Y-69656311D01*
X108659391Y-69589932D01*
X108607790Y-69500556D01*
X108576678Y-69466002D01*
X108484425Y-69363545D01*
X108484424Y-69363544D01*
X108480003Y-69358634D01*
X108349125Y-69263545D01*
X108330844Y-69250263D01*
X108330843Y-69250262D01*
X108325502Y-69246382D01*
X108319474Y-69243698D01*
X108319472Y-69243697D01*
X108157069Y-69171391D01*
X108157068Y-69171391D01*
X108151038Y-69168706D01*
X108057637Y-69148853D01*
X107970694Y-69130372D01*
X107970689Y-69130372D01*
X107964237Y-69129000D01*
X107773263Y-69129000D01*
X107766811Y-69130372D01*
X107766806Y-69130372D01*
X107679863Y-69148853D01*
X107586462Y-69168706D01*
X107580432Y-69171391D01*
X107580431Y-69171391D01*
X107418028Y-69243697D01*
X107418026Y-69243698D01*
X107411998Y-69246382D01*
X107406657Y-69250262D01*
X107406656Y-69250263D01*
X107388375Y-69263545D01*
X107257497Y-69358634D01*
X107253076Y-69363544D01*
X107253075Y-69363545D01*
X107160823Y-69466002D01*
X107129710Y-69500556D01*
X107078109Y-69589932D01*
X107039785Y-69656311D01*
X107034223Y-69665944D01*
X106975208Y-69847572D01*
X106974518Y-69854133D01*
X106974518Y-69854135D01*
X106967569Y-69920249D01*
X106955246Y-70037500D01*
X106955936Y-70044065D01*
X106965358Y-70133706D01*
X106975208Y-70227428D01*
X106977248Y-70233706D01*
X107001361Y-70307918D01*
X107003389Y-70378885D01*
X106966726Y-70439683D01*
X106903014Y-70471009D01*
X106851334Y-70467312D01*
X106851038Y-70468706D01*
X106670694Y-70430372D01*
X106670689Y-70430372D01*
X106664237Y-70429000D01*
X106473263Y-70429000D01*
X106466811Y-70430372D01*
X106466806Y-70430372D01*
X106379863Y-70448853D01*
X106286462Y-70468706D01*
X106280432Y-70471391D01*
X106280431Y-70471391D01*
X106118028Y-70543697D01*
X106118026Y-70543698D01*
X106111998Y-70546382D01*
X105957497Y-70658634D01*
X105953076Y-70663544D01*
X105953075Y-70663545D01*
X105892066Y-70731303D01*
X105829710Y-70800556D01*
X105789473Y-70870249D01*
X105751906Y-70935317D01*
X105734223Y-70965944D01*
X105675208Y-71147572D01*
X105674518Y-71154133D01*
X105674518Y-71154135D01*
X105670179Y-71195416D01*
X105655246Y-71337500D01*
X95586855Y-71337500D01*
X95507790Y-71200556D01*
X95465993Y-71154135D01*
X95384425Y-71063545D01*
X95384424Y-71063544D01*
X95380003Y-71058634D01*
X95225502Y-70946382D01*
X95219474Y-70943698D01*
X95219472Y-70943697D01*
X95057069Y-70871391D01*
X95057068Y-70871391D01*
X95051038Y-70868706D01*
X95044583Y-70867334D01*
X95044574Y-70867331D01*
X94995991Y-70857004D01*
X94933518Y-70823276D01*
X94899197Y-70761126D01*
X94903926Y-70690287D01*
X94933094Y-70644663D01*
X95075937Y-70501820D01*
X95138249Y-70467794D01*
X95209064Y-70472859D01*
X95258668Y-70506605D01*
X95280906Y-70531303D01*
X95346011Y-70603609D01*
X95357497Y-70616366D01*
X95398285Y-70646000D01*
X95495135Y-70716366D01*
X95511998Y-70728618D01*
X95518026Y-70731302D01*
X95518028Y-70731303D01*
X95673574Y-70800556D01*
X95686462Y-70806294D01*
X95766356Y-70823276D01*
X95866806Y-70844628D01*
X95866811Y-70844628D01*
X95873263Y-70846000D01*
X96064237Y-70846000D01*
X96070689Y-70844628D01*
X96070694Y-70844628D01*
X96171144Y-70823276D01*
X96251038Y-70806294D01*
X96263926Y-70800556D01*
X96419472Y-70731303D01*
X96419474Y-70731302D01*
X96425502Y-70728618D01*
X96442366Y-70716366D01*
X96539215Y-70646000D01*
X96580003Y-70616366D01*
X96589072Y-70606294D01*
X96703371Y-70479352D01*
X96703372Y-70479351D01*
X96707790Y-70474444D01*
X96791983Y-70328618D01*
X96799973Y-70314779D01*
X96799974Y-70314778D01*
X96803277Y-70309056D01*
X96842773Y-70187500D01*
X100705246Y-70187500D01*
X100705936Y-70194065D01*
X100723233Y-70358634D01*
X100725208Y-70377428D01*
X100784223Y-70559056D01*
X100879710Y-70724444D01*
X100884128Y-70729351D01*
X100884129Y-70729352D01*
X100975926Y-70831303D01*
X101007497Y-70866366D01*
X101161998Y-70978618D01*
X101168026Y-70981302D01*
X101168028Y-70981303D01*
X101308995Y-71044065D01*
X101336462Y-71056294D01*
X101429862Y-71076147D01*
X101516806Y-71094628D01*
X101516811Y-71094628D01*
X101523263Y-71096000D01*
X101714237Y-71096000D01*
X101720689Y-71094628D01*
X101720694Y-71094628D01*
X101807638Y-71076147D01*
X101901038Y-71056294D01*
X101928505Y-71044065D01*
X102069472Y-70981303D01*
X102069474Y-70981302D01*
X102075502Y-70978618D01*
X102230003Y-70866366D01*
X102261574Y-70831303D01*
X102353371Y-70729352D01*
X102353372Y-70729351D01*
X102357790Y-70724444D01*
X102453277Y-70559056D01*
X102512292Y-70377428D01*
X102514268Y-70358634D01*
X102531564Y-70194065D01*
X102532254Y-70187500D01*
X102530279Y-70168706D01*
X102512982Y-70004135D01*
X102512982Y-70004133D01*
X102512292Y-69997572D01*
X102453277Y-69815944D01*
X102440622Y-69794024D01*
X102363370Y-69660221D01*
X102357790Y-69650556D01*
X102252962Y-69534132D01*
X102234425Y-69513545D01*
X102234424Y-69513544D01*
X102230003Y-69508634D01*
X102109200Y-69420865D01*
X102080844Y-69400263D01*
X102080843Y-69400262D01*
X102075502Y-69396382D01*
X102069474Y-69393698D01*
X102069472Y-69393697D01*
X101907069Y-69321391D01*
X101907068Y-69321391D01*
X101901038Y-69318706D01*
X101807638Y-69298853D01*
X101720694Y-69280372D01*
X101720689Y-69280372D01*
X101714237Y-69279000D01*
X101523263Y-69279000D01*
X101516811Y-69280372D01*
X101516806Y-69280372D01*
X101429862Y-69298853D01*
X101336462Y-69318706D01*
X101330432Y-69321391D01*
X101330431Y-69321391D01*
X101168028Y-69393697D01*
X101168026Y-69393698D01*
X101161998Y-69396382D01*
X101156657Y-69400262D01*
X101156656Y-69400263D01*
X101128300Y-69420865D01*
X101007497Y-69508634D01*
X101003076Y-69513544D01*
X101003075Y-69513545D01*
X100984539Y-69534132D01*
X100879710Y-69650556D01*
X100874130Y-69660221D01*
X100796879Y-69794024D01*
X100784223Y-69815944D01*
X100725208Y-69997572D01*
X100724518Y-70004133D01*
X100724518Y-70004135D01*
X100707221Y-70168706D01*
X100705246Y-70187500D01*
X96842773Y-70187500D01*
X96862292Y-70127428D01*
X96863622Y-70114779D01*
X96881564Y-69944065D01*
X96882254Y-69937500D01*
X96872802Y-69847572D01*
X96862982Y-69754135D01*
X96862982Y-69754133D01*
X96862292Y-69747572D01*
X96803277Y-69565944D01*
X96707790Y-69400556D01*
X96665993Y-69354135D01*
X96584425Y-69263545D01*
X96584424Y-69263544D01*
X96580003Y-69258634D01*
X96574656Y-69254749D01*
X96548254Y-69235566D01*
X96504900Y-69179343D01*
X96498826Y-69108607D01*
X96533221Y-69044536D01*
X96776463Y-68801294D01*
X96838775Y-68767268D01*
X96909590Y-68772333D01*
X96916806Y-68775282D01*
X96980427Y-68803608D01*
X96980435Y-68803611D01*
X96986462Y-68806294D01*
X97079863Y-68826147D01*
X97166806Y-68844628D01*
X97166811Y-68844628D01*
X97173263Y-68846000D01*
X97364237Y-68846000D01*
X97370689Y-68844628D01*
X97370694Y-68844628D01*
X97457637Y-68826147D01*
X97551038Y-68806294D01*
X97557071Y-68803608D01*
X97719472Y-68731303D01*
X97719474Y-68731302D01*
X97725502Y-68728618D01*
X97880003Y-68616366D01*
X97889870Y-68605408D01*
X98003371Y-68479352D01*
X98003372Y-68479351D01*
X98007790Y-68474444D01*
X98081947Y-68346000D01*
X98099973Y-68314779D01*
X98099974Y-68314778D01*
X98103277Y-68309056D01*
X98162292Y-68127428D01*
X98163535Y-68115607D01*
X98181564Y-67944065D01*
X98182254Y-67937500D01*
X98177570Y-67892940D01*
X98735284Y-67892940D01*
X98735974Y-67899505D01*
X98751205Y-68044416D01*
X98755246Y-68082868D01*
X98814261Y-68264496D01*
X98909748Y-68429884D01*
X98914166Y-68434791D01*
X98914167Y-68434792D01*
X99000997Y-68531226D01*
X99037535Y-68571806D01*
X99192036Y-68684058D01*
X99198064Y-68686742D01*
X99198066Y-68686743D01*
X99360469Y-68759049D01*
X99366500Y-68761734D01*
X99459900Y-68781587D01*
X99546844Y-68800068D01*
X99546849Y-68800068D01*
X99553301Y-68801440D01*
X99744275Y-68801440D01*
X99750727Y-68800068D01*
X99750732Y-68800068D01*
X99837676Y-68781587D01*
X99931076Y-68761734D01*
X99937107Y-68759049D01*
X100099510Y-68686743D01*
X100099512Y-68686742D01*
X100105540Y-68684058D01*
X100260041Y-68571806D01*
X100296579Y-68531226D01*
X100383409Y-68434792D01*
X100383410Y-68434791D01*
X100387828Y-68429884D01*
X100483315Y-68264496D01*
X100542330Y-68082868D01*
X100546372Y-68044416D01*
X100561602Y-67899505D01*
X100562292Y-67892940D01*
X100561076Y-67881370D01*
X100545955Y-67737500D01*
X106955246Y-67737500D01*
X106955936Y-67744065D01*
X106972705Y-67903609D01*
X106975208Y-67927428D01*
X107034223Y-68109056D01*
X107129710Y-68274444D01*
X107134128Y-68279351D01*
X107134129Y-68279352D01*
X107233992Y-68390261D01*
X107257497Y-68416366D01*
X107356593Y-68488364D01*
X107395135Y-68516366D01*
X107411998Y-68528618D01*
X107418026Y-68531302D01*
X107418028Y-68531303D01*
X107580431Y-68603609D01*
X107586462Y-68606294D01*
X107652115Y-68620249D01*
X107766806Y-68644628D01*
X107766811Y-68644628D01*
X107773263Y-68646000D01*
X107964237Y-68646000D01*
X107970689Y-68644628D01*
X107970694Y-68644628D01*
X108085385Y-68620249D01*
X108151038Y-68606294D01*
X108157069Y-68603609D01*
X108305553Y-68537500D01*
X111255246Y-68537500D01*
X111255936Y-68544065D01*
X111272985Y-68706274D01*
X111275208Y-68727428D01*
X111334223Y-68909056D01*
X111429710Y-69074444D01*
X111557497Y-69216366D01*
X111711998Y-69328618D01*
X111718026Y-69331302D01*
X111718028Y-69331303D01*
X111864199Y-69396382D01*
X111886462Y-69406294D01*
X111955013Y-69420865D01*
X112066806Y-69444628D01*
X112066811Y-69444628D01*
X112073263Y-69446000D01*
X112167174Y-69446000D01*
X112235295Y-69466002D01*
X112281788Y-69519658D01*
X112291892Y-69589932D01*
X112260811Y-69656308D01*
X112141960Y-69788306D01*
X112126003Y-69815944D01*
X112055823Y-69937500D01*
X112046473Y-69953694D01*
X111987458Y-70135322D01*
X111986768Y-70141883D01*
X111986768Y-70141885D01*
X111976067Y-70243697D01*
X111967496Y-70325250D01*
X111968186Y-70331815D01*
X111983693Y-70479352D01*
X111987458Y-70515178D01*
X112046473Y-70696806D01*
X112049776Y-70702528D01*
X112049777Y-70702529D01*
X112060008Y-70720249D01*
X112141960Y-70862194D01*
X112146378Y-70867101D01*
X112146379Y-70867102D01*
X112249206Y-70981303D01*
X112269747Y-71004116D01*
X112306660Y-71030935D01*
X112394326Y-71094628D01*
X112424248Y-71116368D01*
X112430276Y-71119052D01*
X112430278Y-71119053D01*
X112509074Y-71154135D01*
X112598712Y-71194044D01*
X112692113Y-71213897D01*
X112779056Y-71232378D01*
X112779061Y-71232378D01*
X112785513Y-71233750D01*
X112976487Y-71233750D01*
X112982939Y-71232378D01*
X112982944Y-71232378D01*
X113069887Y-71213897D01*
X113163288Y-71194044D01*
X113252926Y-71154135D01*
X113331722Y-71119053D01*
X113331724Y-71119052D01*
X113337752Y-71116368D01*
X113367675Y-71094628D01*
X113455340Y-71030935D01*
X113492253Y-71004116D01*
X113512794Y-70981303D01*
X113615621Y-70867102D01*
X113615622Y-70867101D01*
X113620040Y-70862194D01*
X113701992Y-70720249D01*
X113712223Y-70702529D01*
X113712224Y-70702528D01*
X113715527Y-70696806D01*
X113774542Y-70515178D01*
X113778308Y-70479352D01*
X113793814Y-70331815D01*
X113794504Y-70325250D01*
X113785933Y-70243697D01*
X113775232Y-70141885D01*
X113775232Y-70141883D01*
X113774542Y-70135322D01*
X113715527Y-69953694D01*
X113706178Y-69937500D01*
X113635997Y-69815944D01*
X113620040Y-69788306D01*
X113492253Y-69646384D01*
X113365284Y-69554135D01*
X113343094Y-69538013D01*
X113343093Y-69538012D01*
X113342388Y-69537500D01*
X115355246Y-69537500D01*
X115355936Y-69544065D01*
X115367730Y-69656274D01*
X115375208Y-69727428D01*
X115434223Y-69909056D01*
X115529710Y-70074444D01*
X115534128Y-70079351D01*
X115534129Y-70079352D01*
X115577417Y-70127428D01*
X115657497Y-70216366D01*
X115811998Y-70328618D01*
X115818026Y-70331302D01*
X115818028Y-70331303D01*
X115974843Y-70401121D01*
X115986462Y-70406294D01*
X116052115Y-70420249D01*
X116166806Y-70444628D01*
X116166811Y-70444628D01*
X116173263Y-70446000D01*
X116364237Y-70446000D01*
X116370689Y-70444628D01*
X116370694Y-70444628D01*
X116485385Y-70420249D01*
X116551038Y-70406294D01*
X116562657Y-70401121D01*
X116719472Y-70331303D01*
X116719474Y-70331302D01*
X116725502Y-70328618D01*
X116880003Y-70216366D01*
X116960083Y-70127428D01*
X117003371Y-70079352D01*
X117003372Y-70079351D01*
X117007790Y-70074444D01*
X117103277Y-69909056D01*
X117159019Y-69737500D01*
X117855246Y-69737500D01*
X117855936Y-69744065D01*
X117873879Y-69914779D01*
X117875208Y-69927428D01*
X117934223Y-70109056D01*
X117937526Y-70114778D01*
X117937527Y-70114779D01*
X117955553Y-70146000D01*
X118029710Y-70274444D01*
X118034128Y-70279351D01*
X118034129Y-70279352D01*
X118148428Y-70406294D01*
X118157497Y-70416366D01*
X118256593Y-70488364D01*
X118293500Y-70515178D01*
X118311998Y-70528618D01*
X118318026Y-70531302D01*
X118318028Y-70531303D01*
X118380363Y-70559056D01*
X118486462Y-70606294D01*
X118552115Y-70620249D01*
X118666806Y-70644628D01*
X118666811Y-70644628D01*
X118673263Y-70646000D01*
X118864237Y-70646000D01*
X118870689Y-70644628D01*
X118870694Y-70644628D01*
X118985385Y-70620249D01*
X119051038Y-70606294D01*
X119157137Y-70559056D01*
X119219472Y-70531303D01*
X119219474Y-70531302D01*
X119225502Y-70528618D01*
X119244001Y-70515178D01*
X119280907Y-70488364D01*
X119380003Y-70416366D01*
X119389072Y-70406294D01*
X119503371Y-70279352D01*
X119503372Y-70279351D01*
X119507790Y-70274444D01*
X119581947Y-70146000D01*
X119599973Y-70114779D01*
X119599974Y-70114778D01*
X119603277Y-70109056D01*
X119662292Y-69927428D01*
X119663622Y-69914779D01*
X119681564Y-69744065D01*
X119682254Y-69737500D01*
X119673116Y-69650556D01*
X119662982Y-69554135D01*
X119662982Y-69554133D01*
X119662292Y-69547572D01*
X119603277Y-69365944D01*
X119507790Y-69200556D01*
X119461237Y-69148853D01*
X119384425Y-69063545D01*
X119384424Y-69063544D01*
X119380003Y-69058634D01*
X119225502Y-68946382D01*
X119219474Y-68943698D01*
X119219472Y-68943697D01*
X119057069Y-68871391D01*
X119057068Y-68871391D01*
X119051038Y-68868706D01*
X118957638Y-68848853D01*
X118870694Y-68830372D01*
X118870689Y-68830372D01*
X118864237Y-68829000D01*
X118673263Y-68829000D01*
X118666811Y-68830372D01*
X118666806Y-68830372D01*
X118579862Y-68848853D01*
X118486462Y-68868706D01*
X118480432Y-68871391D01*
X118480431Y-68871391D01*
X118318028Y-68943697D01*
X118318026Y-68943698D01*
X118311998Y-68946382D01*
X118157497Y-69058634D01*
X118153076Y-69063544D01*
X118153075Y-69063545D01*
X118076264Y-69148853D01*
X118029710Y-69200556D01*
X117934223Y-69365944D01*
X117875208Y-69547572D01*
X117874518Y-69554133D01*
X117874518Y-69554135D01*
X117864384Y-69650556D01*
X117855246Y-69737500D01*
X117159019Y-69737500D01*
X117162292Y-69727428D01*
X117169771Y-69656274D01*
X117181564Y-69544065D01*
X117182254Y-69537500D01*
X117163971Y-69363545D01*
X117162982Y-69354135D01*
X117162982Y-69354133D01*
X117162292Y-69347572D01*
X117103277Y-69165944D01*
X117093410Y-69148853D01*
X117039082Y-69054755D01*
X117007790Y-69000556D01*
X116926784Y-68910589D01*
X116884425Y-68863545D01*
X116884424Y-68863544D01*
X116880003Y-68858634D01*
X116725502Y-68746382D01*
X116719474Y-68743698D01*
X116719472Y-68743697D01*
X116557069Y-68671391D01*
X116557068Y-68671391D01*
X116551038Y-68668706D01*
X116457638Y-68648853D01*
X116370694Y-68630372D01*
X116370689Y-68630372D01*
X116364237Y-68629000D01*
X116173263Y-68629000D01*
X116166811Y-68630372D01*
X116166806Y-68630372D01*
X116079862Y-68648853D01*
X115986462Y-68668706D01*
X115980432Y-68671391D01*
X115980431Y-68671391D01*
X115818028Y-68743697D01*
X115818026Y-68743698D01*
X115811998Y-68746382D01*
X115657497Y-68858634D01*
X115653076Y-68863544D01*
X115653075Y-68863545D01*
X115610717Y-68910589D01*
X115529710Y-69000556D01*
X115498418Y-69054755D01*
X115444091Y-69148853D01*
X115434223Y-69165944D01*
X115375208Y-69347572D01*
X115374518Y-69354133D01*
X115374518Y-69354135D01*
X115373529Y-69363545D01*
X115355246Y-69537500D01*
X113342388Y-69537500D01*
X113337752Y-69534132D01*
X113331724Y-69531448D01*
X113331722Y-69531447D01*
X113169319Y-69459141D01*
X113169318Y-69459141D01*
X113163288Y-69456456D01*
X113069888Y-69436603D01*
X112982944Y-69418122D01*
X112982939Y-69418122D01*
X112976487Y-69416750D01*
X112882576Y-69416750D01*
X112814455Y-69396748D01*
X112767962Y-69343092D01*
X112757858Y-69272818D01*
X112788939Y-69206442D01*
X112907790Y-69074444D01*
X113003277Y-68909056D01*
X113062292Y-68727428D01*
X113064516Y-68706274D01*
X113081564Y-68544065D01*
X113082254Y-68537500D01*
X113077367Y-68491002D01*
X113062982Y-68354135D01*
X113062982Y-68354133D01*
X113062292Y-68347572D01*
X113003277Y-68165944D01*
X112907790Y-68000556D01*
X112907289Y-68000000D01*
X120617746Y-68000000D01*
X120618436Y-68006565D01*
X120630385Y-68120249D01*
X120637708Y-68189928D01*
X120696723Y-68371556D01*
X120792210Y-68536944D01*
X120796628Y-68541851D01*
X120796629Y-68541852D01*
X120910849Y-68668706D01*
X120919997Y-68678866D01*
X121004223Y-68740060D01*
X121034055Y-68761734D01*
X121074498Y-68791118D01*
X121080526Y-68793802D01*
X121080528Y-68793803D01*
X121154890Y-68826911D01*
X121208986Y-68872891D01*
X121229635Y-68940819D01*
X121210283Y-69009127D01*
X121177705Y-69043952D01*
X121157497Y-69058634D01*
X121153076Y-69063544D01*
X121153075Y-69063545D01*
X121076264Y-69148853D01*
X121029710Y-69200556D01*
X120934223Y-69365944D01*
X120875208Y-69547572D01*
X120874518Y-69554133D01*
X120874518Y-69554135D01*
X120864384Y-69650556D01*
X120855246Y-69737500D01*
X120855936Y-69744065D01*
X120873879Y-69914779D01*
X120875208Y-69927428D01*
X120934223Y-70109056D01*
X120937526Y-70114778D01*
X120937527Y-70114779D01*
X120955553Y-70146000D01*
X121029710Y-70274444D01*
X121034128Y-70279351D01*
X121034129Y-70279352D01*
X121148428Y-70406294D01*
X121157497Y-70416366D01*
X121256593Y-70488364D01*
X121293500Y-70515178D01*
X121311998Y-70528618D01*
X121318026Y-70531302D01*
X121318028Y-70531303D01*
X121380363Y-70559056D01*
X121486462Y-70606294D01*
X121552115Y-70620249D01*
X121666806Y-70644628D01*
X121666811Y-70644628D01*
X121673263Y-70646000D01*
X121864237Y-70646000D01*
X121870689Y-70644628D01*
X121870694Y-70644628D01*
X121985385Y-70620249D01*
X122051038Y-70606294D01*
X122157137Y-70559056D01*
X122219472Y-70531303D01*
X122219474Y-70531302D01*
X122225502Y-70528618D01*
X122244001Y-70515178D01*
X122280907Y-70488364D01*
X122380003Y-70416366D01*
X122389072Y-70406294D01*
X122503371Y-70279352D01*
X122503372Y-70279351D01*
X122507790Y-70274444D01*
X122581947Y-70146000D01*
X122599973Y-70114779D01*
X122599974Y-70114778D01*
X122603277Y-70109056D01*
X122662292Y-69927428D01*
X122663622Y-69914779D01*
X122681564Y-69744065D01*
X122682254Y-69737500D01*
X123555246Y-69737500D01*
X123555936Y-69744065D01*
X123573879Y-69914779D01*
X123575208Y-69927428D01*
X123634223Y-70109056D01*
X123637526Y-70114778D01*
X123637527Y-70114779D01*
X123655553Y-70146000D01*
X123729710Y-70274444D01*
X123734128Y-70279351D01*
X123734129Y-70279352D01*
X123848428Y-70406294D01*
X123857497Y-70416366D01*
X123956593Y-70488364D01*
X123993500Y-70515178D01*
X124011998Y-70528618D01*
X124018026Y-70531302D01*
X124018028Y-70531303D01*
X124080363Y-70559056D01*
X124186462Y-70606294D01*
X124252115Y-70620249D01*
X124366806Y-70644628D01*
X124366811Y-70644628D01*
X124373263Y-70646000D01*
X124564237Y-70646000D01*
X124570689Y-70644628D01*
X124570694Y-70644628D01*
X124685385Y-70620249D01*
X124751038Y-70606294D01*
X124857137Y-70559056D01*
X124919472Y-70531303D01*
X124919474Y-70531302D01*
X124925502Y-70528618D01*
X124944001Y-70515178D01*
X124980907Y-70488364D01*
X125080003Y-70416366D01*
X125089072Y-70406294D01*
X125203371Y-70279352D01*
X125203372Y-70279351D01*
X125207790Y-70274444D01*
X125281947Y-70146000D01*
X125299973Y-70114779D01*
X125299974Y-70114778D01*
X125303277Y-70109056D01*
X125362292Y-69927428D01*
X125363622Y-69914779D01*
X125381564Y-69744065D01*
X125382254Y-69737500D01*
X126255246Y-69737500D01*
X126255936Y-69744065D01*
X126273879Y-69914779D01*
X126275208Y-69927428D01*
X126334223Y-70109056D01*
X126337526Y-70114778D01*
X126337527Y-70114779D01*
X126355553Y-70146000D01*
X126429710Y-70274444D01*
X126434128Y-70279351D01*
X126434129Y-70279352D01*
X126548428Y-70406294D01*
X126557497Y-70416366D01*
X126656593Y-70488364D01*
X126693500Y-70515178D01*
X126711998Y-70528618D01*
X126718026Y-70531302D01*
X126718028Y-70531303D01*
X126780363Y-70559056D01*
X126886462Y-70606294D01*
X126952115Y-70620249D01*
X127066806Y-70644628D01*
X127066811Y-70644628D01*
X127073263Y-70646000D01*
X127264237Y-70646000D01*
X127270689Y-70644628D01*
X127270694Y-70644628D01*
X127385385Y-70620249D01*
X127451038Y-70606294D01*
X127557137Y-70559056D01*
X127619472Y-70531303D01*
X127619474Y-70531302D01*
X127625502Y-70528618D01*
X127644001Y-70515178D01*
X127680907Y-70488364D01*
X127780003Y-70416366D01*
X127789072Y-70406294D01*
X127903371Y-70279352D01*
X127903372Y-70279351D01*
X127907790Y-70274444D01*
X127981947Y-70146000D01*
X127999973Y-70114779D01*
X127999974Y-70114778D01*
X128003277Y-70109056D01*
X128062292Y-69927428D01*
X128063622Y-69914779D01*
X128081564Y-69744065D01*
X128082254Y-69737500D01*
X129055246Y-69737500D01*
X129055936Y-69744065D01*
X129073879Y-69914779D01*
X129075208Y-69927428D01*
X129134223Y-70109056D01*
X129137526Y-70114778D01*
X129137527Y-70114779D01*
X129155553Y-70146000D01*
X129229710Y-70274444D01*
X129234128Y-70279351D01*
X129234129Y-70279352D01*
X129348428Y-70406294D01*
X129357497Y-70416366D01*
X129456593Y-70488364D01*
X129493500Y-70515178D01*
X129511998Y-70528618D01*
X129518026Y-70531302D01*
X129518028Y-70531303D01*
X129580363Y-70559056D01*
X129686462Y-70606294D01*
X129752115Y-70620249D01*
X129866806Y-70644628D01*
X129866811Y-70644628D01*
X129873263Y-70646000D01*
X130064237Y-70646000D01*
X130070689Y-70644628D01*
X130070694Y-70644628D01*
X130185385Y-70620249D01*
X130251038Y-70606294D01*
X130357137Y-70559056D01*
X130419472Y-70531303D01*
X130419474Y-70531302D01*
X130425502Y-70528618D01*
X130444001Y-70515178D01*
X130480907Y-70488364D01*
X130580003Y-70416366D01*
X130589072Y-70406294D01*
X130703371Y-70279352D01*
X130703372Y-70279351D01*
X130707790Y-70274444D01*
X130781947Y-70146000D01*
X130799973Y-70114779D01*
X130799974Y-70114778D01*
X130803277Y-70109056D01*
X130862292Y-69927428D01*
X130863622Y-69914779D01*
X130881564Y-69744065D01*
X130882254Y-69737500D01*
X130873116Y-69650556D01*
X130862982Y-69554135D01*
X130862982Y-69554133D01*
X130862292Y-69547572D01*
X130803277Y-69365944D01*
X130707790Y-69200556D01*
X130661237Y-69148853D01*
X130584425Y-69063545D01*
X130584424Y-69063544D01*
X130580003Y-69058634D01*
X130425502Y-68946382D01*
X130419474Y-68943698D01*
X130419472Y-68943697D01*
X130257069Y-68871391D01*
X130257068Y-68871391D01*
X130251038Y-68868706D01*
X130157638Y-68848853D01*
X130070694Y-68830372D01*
X130070689Y-68830372D01*
X130064237Y-68829000D01*
X129873263Y-68829000D01*
X129866811Y-68830372D01*
X129866806Y-68830372D01*
X129779862Y-68848853D01*
X129686462Y-68868706D01*
X129680432Y-68871391D01*
X129680431Y-68871391D01*
X129518028Y-68943697D01*
X129518026Y-68943698D01*
X129511998Y-68946382D01*
X129357497Y-69058634D01*
X129353076Y-69063544D01*
X129353075Y-69063545D01*
X129276264Y-69148853D01*
X129229710Y-69200556D01*
X129134223Y-69365944D01*
X129075208Y-69547572D01*
X129074518Y-69554133D01*
X129074518Y-69554135D01*
X129064384Y-69650556D01*
X129055246Y-69737500D01*
X128082254Y-69737500D01*
X128073116Y-69650556D01*
X128062982Y-69554135D01*
X128062982Y-69554133D01*
X128062292Y-69547572D01*
X128003277Y-69365944D01*
X127907790Y-69200556D01*
X127861237Y-69148853D01*
X127784425Y-69063545D01*
X127784424Y-69063544D01*
X127780003Y-69058634D01*
X127625502Y-68946382D01*
X127619474Y-68943698D01*
X127619472Y-68943697D01*
X127457069Y-68871391D01*
X127457068Y-68871391D01*
X127451038Y-68868706D01*
X127357638Y-68848853D01*
X127270694Y-68830372D01*
X127270689Y-68830372D01*
X127264237Y-68829000D01*
X127073263Y-68829000D01*
X127066811Y-68830372D01*
X127066806Y-68830372D01*
X126979862Y-68848853D01*
X126886462Y-68868706D01*
X126880432Y-68871391D01*
X126880431Y-68871391D01*
X126718028Y-68943697D01*
X126718026Y-68943698D01*
X126711998Y-68946382D01*
X126557497Y-69058634D01*
X126553076Y-69063544D01*
X126553075Y-69063545D01*
X126476264Y-69148853D01*
X126429710Y-69200556D01*
X126334223Y-69365944D01*
X126275208Y-69547572D01*
X126274518Y-69554133D01*
X126274518Y-69554135D01*
X126264384Y-69650556D01*
X126255246Y-69737500D01*
X125382254Y-69737500D01*
X125373116Y-69650556D01*
X125362982Y-69554135D01*
X125362982Y-69554133D01*
X125362292Y-69547572D01*
X125303277Y-69365944D01*
X125207790Y-69200556D01*
X125161237Y-69148853D01*
X125084425Y-69063545D01*
X125084424Y-69063544D01*
X125080003Y-69058634D01*
X124925502Y-68946382D01*
X124919474Y-68943698D01*
X124919472Y-68943697D01*
X124757069Y-68871391D01*
X124757068Y-68871391D01*
X124751038Y-68868706D01*
X124657638Y-68848853D01*
X124570694Y-68830372D01*
X124570689Y-68830372D01*
X124564237Y-68829000D01*
X124373263Y-68829000D01*
X124366811Y-68830372D01*
X124366806Y-68830372D01*
X124279862Y-68848853D01*
X124186462Y-68868706D01*
X124180432Y-68871391D01*
X124180431Y-68871391D01*
X124018028Y-68943697D01*
X124018026Y-68943698D01*
X124011998Y-68946382D01*
X123857497Y-69058634D01*
X123853076Y-69063544D01*
X123853075Y-69063545D01*
X123776264Y-69148853D01*
X123729710Y-69200556D01*
X123634223Y-69365944D01*
X123575208Y-69547572D01*
X123574518Y-69554133D01*
X123574518Y-69554135D01*
X123564384Y-69650556D01*
X123555246Y-69737500D01*
X122682254Y-69737500D01*
X122673116Y-69650556D01*
X122662982Y-69554135D01*
X122662982Y-69554133D01*
X122662292Y-69547572D01*
X122603277Y-69365944D01*
X122507790Y-69200556D01*
X122461237Y-69148853D01*
X122384425Y-69063545D01*
X122384424Y-69063544D01*
X122380003Y-69058634D01*
X122225502Y-68946382D01*
X122219474Y-68943698D01*
X122219472Y-68943697D01*
X122145110Y-68910589D01*
X122091014Y-68864609D01*
X122070365Y-68796681D01*
X122089717Y-68728373D01*
X122122295Y-68693548D01*
X122142503Y-68678866D01*
X122175115Y-68642646D01*
X122235560Y-68605408D01*
X122306544Y-68606760D01*
X122362385Y-68642646D01*
X122394997Y-68678866D01*
X122479223Y-68740060D01*
X122509055Y-68761734D01*
X122549498Y-68791118D01*
X122555526Y-68793802D01*
X122555528Y-68793803D01*
X122717931Y-68866109D01*
X122723962Y-68868794D01*
X122817363Y-68888647D01*
X122904306Y-68907128D01*
X122904311Y-68907128D01*
X122910763Y-68908500D01*
X123101737Y-68908500D01*
X123108189Y-68907128D01*
X123108194Y-68907128D01*
X123195137Y-68888647D01*
X123288538Y-68868794D01*
X123294569Y-68866109D01*
X123456972Y-68793803D01*
X123456974Y-68793802D01*
X123463002Y-68791118D01*
X123503446Y-68761734D01*
X123533277Y-68740060D01*
X123617503Y-68678866D01*
X123626651Y-68668706D01*
X123740871Y-68541852D01*
X123740872Y-68541851D01*
X123745290Y-68536944D01*
X123840777Y-68371556D01*
X123899792Y-68189928D01*
X123907116Y-68120249D01*
X123919064Y-68006565D01*
X123919754Y-68000000D01*
X123912495Y-67930935D01*
X123900482Y-67816635D01*
X123900482Y-67816633D01*
X123899792Y-67810072D01*
X123840777Y-67628444D01*
X123745290Y-67463056D01*
X123728698Y-67444628D01*
X123621925Y-67326045D01*
X123621921Y-67326041D01*
X123617503Y-67321134D01*
X123463002Y-67208882D01*
X123456974Y-67206198D01*
X123456972Y-67206197D01*
X123294569Y-67133891D01*
X123294568Y-67133891D01*
X123288538Y-67131206D01*
X123184331Y-67109056D01*
X123108194Y-67092872D01*
X123108189Y-67092872D01*
X123101737Y-67091500D01*
X122910763Y-67091500D01*
X122904311Y-67092872D01*
X122904306Y-67092872D01*
X122828169Y-67109056D01*
X122723962Y-67131206D01*
X122717932Y-67133891D01*
X122717931Y-67133891D01*
X122555528Y-67206197D01*
X122555526Y-67206198D01*
X122549498Y-67208882D01*
X122394997Y-67321134D01*
X122362385Y-67357354D01*
X122301940Y-67394592D01*
X122230956Y-67393240D01*
X122175115Y-67357354D01*
X122142503Y-67321134D01*
X121988002Y-67208882D01*
X121981974Y-67206198D01*
X121981972Y-67206197D01*
X121819569Y-67133891D01*
X121819568Y-67133891D01*
X121813538Y-67131206D01*
X121709331Y-67109056D01*
X121633194Y-67092872D01*
X121633189Y-67092872D01*
X121626737Y-67091500D01*
X121435763Y-67091500D01*
X121429311Y-67092872D01*
X121429306Y-67092872D01*
X121353169Y-67109056D01*
X121248962Y-67131206D01*
X121242932Y-67133891D01*
X121242931Y-67133891D01*
X121080528Y-67206197D01*
X121080526Y-67206198D01*
X121074498Y-67208882D01*
X120919997Y-67321134D01*
X120915579Y-67326041D01*
X120915575Y-67326045D01*
X120808803Y-67444628D01*
X120792210Y-67463056D01*
X120696723Y-67628444D01*
X120637708Y-67810072D01*
X120637018Y-67816633D01*
X120637018Y-67816635D01*
X120625005Y-67930935D01*
X120617746Y-68000000D01*
X112907289Y-68000000D01*
X112859231Y-67946625D01*
X112784425Y-67863545D01*
X112784424Y-67863544D01*
X112780003Y-67858634D01*
X112625502Y-67746382D01*
X112619474Y-67743698D01*
X112619472Y-67743697D01*
X112457069Y-67671391D01*
X112457068Y-67671391D01*
X112451038Y-67668706D01*
X112357637Y-67648853D01*
X112270694Y-67630372D01*
X112270689Y-67630372D01*
X112264237Y-67629000D01*
X112073263Y-67629000D01*
X112066811Y-67630372D01*
X112066806Y-67630372D01*
X111979863Y-67648853D01*
X111886462Y-67668706D01*
X111880432Y-67671391D01*
X111880431Y-67671391D01*
X111718028Y-67743697D01*
X111718026Y-67743698D01*
X111711998Y-67746382D01*
X111557497Y-67858634D01*
X111553076Y-67863544D01*
X111553075Y-67863545D01*
X111478270Y-67946625D01*
X111429710Y-68000556D01*
X111334223Y-68165944D01*
X111275208Y-68347572D01*
X111274518Y-68354133D01*
X111274518Y-68354135D01*
X111260133Y-68491002D01*
X111255246Y-68537500D01*
X108305553Y-68537500D01*
X108319472Y-68531303D01*
X108319474Y-68531302D01*
X108325502Y-68528618D01*
X108342366Y-68516366D01*
X108380907Y-68488364D01*
X108480003Y-68416366D01*
X108503508Y-68390261D01*
X108603371Y-68279352D01*
X108603372Y-68279351D01*
X108607790Y-68274444D01*
X108703277Y-68109056D01*
X108762292Y-67927428D01*
X108764796Y-67903609D01*
X108781564Y-67744065D01*
X108782254Y-67737500D01*
X108773786Y-67656932D01*
X108762982Y-67554135D01*
X108762982Y-67554133D01*
X108762292Y-67547572D01*
X108703277Y-67365944D01*
X108607790Y-67200556D01*
X108578441Y-67167960D01*
X108484425Y-67063545D01*
X108484424Y-67063544D01*
X108480003Y-67058634D01*
X108325502Y-66946382D01*
X108319474Y-66943698D01*
X108319472Y-66943697D01*
X108157069Y-66871391D01*
X108157068Y-66871391D01*
X108151038Y-66868706D01*
X108051611Y-66847572D01*
X107970694Y-66830372D01*
X107970689Y-66830372D01*
X107964237Y-66829000D01*
X107773263Y-66829000D01*
X107766811Y-66830372D01*
X107766806Y-66830372D01*
X107685889Y-66847572D01*
X107586462Y-66868706D01*
X107580432Y-66871391D01*
X107580431Y-66871391D01*
X107418028Y-66943697D01*
X107418026Y-66943698D01*
X107411998Y-66946382D01*
X107257497Y-67058634D01*
X107253076Y-67063544D01*
X107253075Y-67063545D01*
X107159060Y-67167960D01*
X107129710Y-67200556D01*
X107034223Y-67365944D01*
X106975208Y-67547572D01*
X106974518Y-67554133D01*
X106974518Y-67554135D01*
X106963714Y-67656932D01*
X106955246Y-67737500D01*
X100545955Y-67737500D01*
X100543020Y-67709575D01*
X100543020Y-67709573D01*
X100542330Y-67703012D01*
X100483315Y-67521384D01*
X100387828Y-67355996D01*
X100365595Y-67331303D01*
X100264463Y-67218985D01*
X100264462Y-67218984D01*
X100260041Y-67214074D01*
X100149679Y-67133891D01*
X100110882Y-67105703D01*
X100110881Y-67105702D01*
X100105540Y-67101822D01*
X100099512Y-67099138D01*
X100099510Y-67099137D01*
X99937107Y-67026831D01*
X99937106Y-67026831D01*
X99931076Y-67024146D01*
X99837675Y-67004293D01*
X99750732Y-66985812D01*
X99750727Y-66985812D01*
X99744275Y-66984440D01*
X99553301Y-66984440D01*
X99546849Y-66985812D01*
X99546844Y-66985812D01*
X99459901Y-67004293D01*
X99366500Y-67024146D01*
X99360470Y-67026831D01*
X99360469Y-67026831D01*
X99198066Y-67099137D01*
X99198064Y-67099138D01*
X99192036Y-67101822D01*
X99186695Y-67105702D01*
X99186694Y-67105703D01*
X99147897Y-67133891D01*
X99037535Y-67214074D01*
X99033114Y-67218984D01*
X99033113Y-67218985D01*
X98931982Y-67331303D01*
X98909748Y-67355996D01*
X98814261Y-67521384D01*
X98755246Y-67703012D01*
X98754556Y-67709573D01*
X98754556Y-67709575D01*
X98736500Y-67881370D01*
X98735284Y-67892940D01*
X98177570Y-67892940D01*
X98173356Y-67852844D01*
X98162982Y-67754135D01*
X98162982Y-67754133D01*
X98162292Y-67747572D01*
X98103277Y-67565944D01*
X98007790Y-67400556D01*
X97945435Y-67331303D01*
X97884425Y-67263545D01*
X97884424Y-67263544D01*
X97880003Y-67258634D01*
X97759150Y-67170829D01*
X97730844Y-67150263D01*
X97730843Y-67150262D01*
X97725502Y-67146382D01*
X97702024Y-67135929D01*
X97647929Y-67089951D01*
X97627278Y-67022024D01*
X97646629Y-66953715D01*
X97664177Y-66931727D01*
X98960997Y-65634907D01*
X98969287Y-65627363D01*
X98975768Y-65623250D01*
X99022409Y-65573582D01*
X99025163Y-65570741D01*
X99044884Y-65551020D01*
X99047362Y-65547825D01*
X99055068Y-65538803D01*
X99079908Y-65512351D01*
X99085336Y-65506571D01*
X99089156Y-65499622D01*
X99093814Y-65493211D01*
X99094995Y-65494069D01*
X99139187Y-65450120D01*
X99208603Y-65435220D01*
X99250515Y-65445767D01*
X99274153Y-65456291D01*
X99362551Y-65495648D01*
X99386462Y-65506294D01*
X99479863Y-65526147D01*
X99566806Y-65544628D01*
X99566811Y-65544628D01*
X99573263Y-65546000D01*
X99764237Y-65546000D01*
X99770689Y-65544628D01*
X99770694Y-65544628D01*
X99857637Y-65526147D01*
X99951038Y-65506294D01*
X99963926Y-65500556D01*
X100119472Y-65431303D01*
X100119474Y-65431302D01*
X100125502Y-65428618D01*
X100280003Y-65316366D01*
X100284425Y-65311455D01*
X100403371Y-65179352D01*
X100403372Y-65179351D01*
X100407790Y-65174444D01*
X100503277Y-65009056D01*
X100562292Y-64827428D01*
X100563096Y-64819785D01*
X100581564Y-64644065D01*
X100582254Y-64637500D01*
X100575933Y-64577356D01*
X100562982Y-64454135D01*
X100562982Y-64454133D01*
X100562292Y-64447572D01*
X100503277Y-64265944D01*
X100482740Y-64230372D01*
X100461298Y-64193234D01*
X100407790Y-64100556D01*
X100365993Y-64054135D01*
X100284425Y-63963545D01*
X100284424Y-63963544D01*
X100280003Y-63958634D01*
X100125502Y-63846382D01*
X100119474Y-63843698D01*
X100119472Y-63843697D01*
X99957069Y-63771391D01*
X99957068Y-63771391D01*
X99951038Y-63768706D01*
X99857638Y-63748853D01*
X99770694Y-63730372D01*
X99770689Y-63730372D01*
X99764237Y-63729000D01*
X99573263Y-63729000D01*
X99566811Y-63730372D01*
X99566806Y-63730372D01*
X99479862Y-63748853D01*
X99386462Y-63768706D01*
X99380432Y-63771391D01*
X99380431Y-63771391D01*
X99218028Y-63843697D01*
X99218026Y-63843698D01*
X99211998Y-63846382D01*
X99205565Y-63851056D01*
X99192810Y-63860323D01*
X99125942Y-63884181D01*
X99056791Y-63868100D01*
X99044690Y-63860323D01*
X99031935Y-63851056D01*
X99025502Y-63846382D01*
X99019474Y-63843698D01*
X99019472Y-63843697D01*
X98857069Y-63771391D01*
X98857068Y-63771391D01*
X98851038Y-63768706D01*
X98757638Y-63748853D01*
X98670694Y-63730372D01*
X98670689Y-63730372D01*
X98664237Y-63729000D01*
X98473263Y-63729000D01*
X98466811Y-63730372D01*
X98466806Y-63730372D01*
X98379862Y-63748853D01*
X98286462Y-63768706D01*
X98280432Y-63771391D01*
X98280431Y-63771391D01*
X98118028Y-63843697D01*
X98118026Y-63843698D01*
X98111998Y-63846382D01*
X97957497Y-63958634D01*
X97953076Y-63963544D01*
X97953075Y-63963545D01*
X97871508Y-64054135D01*
X97829710Y-64100556D01*
X97776202Y-64193234D01*
X97754761Y-64230372D01*
X97734223Y-64265944D01*
X97675208Y-64447572D01*
X97674518Y-64454133D01*
X97674518Y-64454135D01*
X97661567Y-64577356D01*
X97655246Y-64637500D01*
X97655936Y-64644065D01*
X97674405Y-64819785D01*
X97675208Y-64827428D01*
X97677248Y-64833706D01*
X97725277Y-64981525D01*
X97727304Y-65052493D01*
X97694539Y-65109556D01*
X96151997Y-66652098D01*
X96143711Y-66659638D01*
X96137232Y-66663750D01*
X96131807Y-66669527D01*
X96090607Y-66713401D01*
X96087852Y-66716243D01*
X96068115Y-66735980D01*
X96065635Y-66739177D01*
X96057932Y-66748197D01*
X96027664Y-66780429D01*
X96023845Y-66787375D01*
X96023843Y-66787378D01*
X96017902Y-66798184D01*
X96007051Y-66814703D01*
X95994636Y-66830709D01*
X95988613Y-66844628D01*
X95984972Y-66853041D01*
X95939561Y-66907615D01*
X95869335Y-66929000D01*
X95724252Y-66929000D01*
X95717800Y-66930372D01*
X95717795Y-66930372D01*
X95630851Y-66948853D01*
X95537451Y-66968706D01*
X95531421Y-66971391D01*
X95531420Y-66971391D01*
X95369017Y-67043697D01*
X95369015Y-67043698D01*
X95362987Y-67046382D01*
X95357646Y-67050262D01*
X95357645Y-67050263D01*
X95260692Y-67120704D01*
X95208486Y-67158634D01*
X95204071Y-67163537D01*
X95199159Y-67167960D01*
X95198034Y-67166711D01*
X95144725Y-67199551D01*
X95111539Y-67204000D01*
X91245852Y-67204000D01*
X91177731Y-67183998D01*
X91131238Y-67130342D01*
X91121134Y-67060068D01*
X91126019Y-67039064D01*
X91143322Y-66985812D01*
X91162292Y-66927428D01*
X91163622Y-66914779D01*
X91181564Y-66744065D01*
X91182254Y-66737500D01*
X91173278Y-66652098D01*
X91162982Y-66554135D01*
X91162982Y-66554133D01*
X91162292Y-66547572D01*
X91103277Y-66365944D01*
X91091391Y-66345356D01*
X91026929Y-66233706D01*
X91007790Y-66200556D01*
X90984064Y-66174205D01*
X90884425Y-66063545D01*
X90884424Y-66063544D01*
X90880003Y-66058634D01*
X90725502Y-65946382D01*
X90719474Y-65943698D01*
X90719472Y-65943697D01*
X90557069Y-65871391D01*
X90557068Y-65871391D01*
X90551038Y-65868706D01*
X90451611Y-65847572D01*
X90370694Y-65830372D01*
X90370689Y-65830372D01*
X90364237Y-65829000D01*
X90173263Y-65829000D01*
X90166811Y-65830372D01*
X90166806Y-65830372D01*
X90085889Y-65847572D01*
X89986462Y-65868706D01*
X89980432Y-65871391D01*
X89980431Y-65871391D01*
X89818028Y-65943697D01*
X89818026Y-65943698D01*
X89811998Y-65946382D01*
X89657497Y-66058634D01*
X89653076Y-66063544D01*
X89653075Y-66063545D01*
X89553437Y-66174205D01*
X89529710Y-66200556D01*
X89510571Y-66233706D01*
X89446110Y-66345356D01*
X89434223Y-66365944D01*
X89375208Y-66547572D01*
X89374518Y-66554133D01*
X89374518Y-66554135D01*
X89364222Y-66652098D01*
X89355246Y-66737500D01*
X89355936Y-66744065D01*
X89373879Y-66914779D01*
X89375208Y-66927428D01*
X89394178Y-66985812D01*
X89411481Y-67039064D01*
X89413509Y-67110031D01*
X89376846Y-67170829D01*
X89313134Y-67202155D01*
X89291648Y-67204000D01*
X88439678Y-67204000D01*
X88371557Y-67183998D01*
X88325064Y-67130342D01*
X88319845Y-67116935D01*
X88305320Y-67072231D01*
X88305319Y-67072229D01*
X88303277Y-67065944D01*
X88299885Y-67060068D01*
X88257013Y-66985812D01*
X88207790Y-66900556D01*
X88165993Y-66854135D01*
X88084425Y-66763545D01*
X88084424Y-66763544D01*
X88080003Y-66758634D01*
X87941965Y-66658343D01*
X87930844Y-66650263D01*
X87930843Y-66650262D01*
X87925502Y-66646382D01*
X87919474Y-66643698D01*
X87919472Y-66643697D01*
X87757069Y-66571391D01*
X87757068Y-66571391D01*
X87751038Y-66568706D01*
X87645373Y-66546246D01*
X87570694Y-66530372D01*
X87570689Y-66530372D01*
X87564237Y-66529000D01*
X87373263Y-66529000D01*
X87366811Y-66530372D01*
X87366806Y-66530372D01*
X87292127Y-66546246D01*
X87186462Y-66568706D01*
X87180432Y-66571391D01*
X87180431Y-66571391D01*
X87018028Y-66643697D01*
X87018026Y-66643698D01*
X87011998Y-66646382D01*
X87006657Y-66650262D01*
X87006656Y-66650263D01*
X86995535Y-66658343D01*
X86857497Y-66758634D01*
X86853076Y-66763544D01*
X86853075Y-66763545D01*
X86771508Y-66854135D01*
X86729710Y-66900556D01*
X86680487Y-66985812D01*
X86637616Y-67060068D01*
X86634223Y-67065944D01*
X86575208Y-67247572D01*
X86574518Y-67254133D01*
X86574518Y-67254135D01*
X86567476Y-67321134D01*
X86555246Y-67437500D01*
X77786855Y-67437500D01*
X77799973Y-67414779D01*
X77799974Y-67414778D01*
X77803277Y-67409056D01*
X77862292Y-67227428D01*
X77863180Y-67218985D01*
X77881564Y-67044065D01*
X77882254Y-67037500D01*
X77869977Y-66920690D01*
X77862982Y-66854135D01*
X77862982Y-66854133D01*
X77862292Y-66847572D01*
X77803277Y-66665944D01*
X77799896Y-66660087D01*
X77765493Y-66600500D01*
X77748755Y-66531505D01*
X77765493Y-66474500D01*
X77799973Y-66414779D01*
X77799974Y-66414778D01*
X77803277Y-66409056D01*
X77805319Y-66402771D01*
X77808003Y-66396743D01*
X77810654Y-66397923D01*
X77843521Y-66349796D01*
X77908902Y-66322122D01*
X77978866Y-66334188D01*
X77997398Y-66345356D01*
X78079787Y-66405215D01*
X78111998Y-66428618D01*
X78118026Y-66431302D01*
X78118028Y-66431303D01*
X78202082Y-66468726D01*
X78286462Y-66506294D01*
X78378216Y-66525797D01*
X78466806Y-66544628D01*
X78466811Y-66544628D01*
X78473263Y-66546000D01*
X78664237Y-66546000D01*
X78670689Y-66544628D01*
X78670694Y-66544628D01*
X78759284Y-66525797D01*
X78851038Y-66506294D01*
X78935418Y-66468726D01*
X79019472Y-66431303D01*
X79019474Y-66431302D01*
X79025502Y-66428618D01*
X79180003Y-66316366D01*
X79230268Y-66260541D01*
X79303371Y-66179352D01*
X79303372Y-66179351D01*
X79307790Y-66174444D01*
X79403277Y-66009056D01*
X79462292Y-65827428D01*
X79482254Y-65637500D01*
X79475386Y-65572155D01*
X79462982Y-65454135D01*
X79462982Y-65454133D01*
X79462292Y-65447572D01*
X79403277Y-65265944D01*
X79307790Y-65100556D01*
X79279011Y-65068593D01*
X79184425Y-64963545D01*
X79184424Y-64963544D01*
X79180003Y-64958634D01*
X79025502Y-64846382D01*
X79019474Y-64843698D01*
X79019472Y-64843697D01*
X78857069Y-64771391D01*
X78857068Y-64771391D01*
X78851038Y-64768706D01*
X78756645Y-64748642D01*
X78670694Y-64730372D01*
X78670689Y-64730372D01*
X78664237Y-64729000D01*
X78473263Y-64729000D01*
X78466811Y-64730372D01*
X78466806Y-64730372D01*
X78380855Y-64748642D01*
X78286462Y-64768706D01*
X78280432Y-64771391D01*
X78280431Y-64771391D01*
X78118028Y-64843697D01*
X78118026Y-64843698D01*
X78111998Y-64846382D01*
X77957497Y-64958634D01*
X77953076Y-64963544D01*
X77953075Y-64963545D01*
X77858490Y-65068593D01*
X77829710Y-65100556D01*
X77734223Y-65265944D01*
X77732181Y-65272228D01*
X77729497Y-65278257D01*
X77726846Y-65277077D01*
X77693979Y-65325204D01*
X77628598Y-65352878D01*
X77558634Y-65340812D01*
X77540102Y-65329644D01*
X77430844Y-65250263D01*
X77430843Y-65250262D01*
X77425502Y-65246382D01*
X77419474Y-65243698D01*
X77419472Y-65243697D01*
X77257069Y-65171391D01*
X77257068Y-65171391D01*
X77251038Y-65168706D01*
X77157637Y-65148853D01*
X77070694Y-65130372D01*
X77070689Y-65130372D01*
X77064237Y-65129000D01*
X76873263Y-65129000D01*
X76866811Y-65130372D01*
X76866806Y-65130372D01*
X76779863Y-65148853D01*
X76686462Y-65168706D01*
X76680432Y-65171391D01*
X76680431Y-65171391D01*
X76618661Y-65198893D01*
X76519998Y-65242820D01*
X76449632Y-65252254D01*
X76417503Y-65242820D01*
X76318839Y-65198893D01*
X76257069Y-65171391D01*
X76257068Y-65171391D01*
X76251038Y-65168706D01*
X76157637Y-65148853D01*
X76070694Y-65130372D01*
X76070689Y-65130372D01*
X76064237Y-65129000D01*
X75873263Y-65129000D01*
X75866811Y-65130372D01*
X75866806Y-65130372D01*
X75779863Y-65148853D01*
X75686462Y-65168706D01*
X75680432Y-65171391D01*
X75680431Y-65171391D01*
X75518028Y-65243697D01*
X75518026Y-65243698D01*
X75511998Y-65246382D01*
X75506657Y-65250262D01*
X75506656Y-65250263D01*
X75468126Y-65278257D01*
X75357497Y-65358634D01*
X75353076Y-65363544D01*
X75353075Y-65363545D01*
X75271508Y-65454135D01*
X75229710Y-65500556D01*
X75187548Y-65573583D01*
X75154761Y-65630372D01*
X75134223Y-65665944D01*
X75075208Y-65847572D01*
X75074518Y-65854133D01*
X75074518Y-65854135D01*
X75070093Y-65896234D01*
X75055246Y-66037500D01*
X75055936Y-66044065D01*
X75072985Y-66206274D01*
X75075208Y-66227428D01*
X75134223Y-66409056D01*
X75137526Y-66414778D01*
X75137527Y-66414779D01*
X75172007Y-66474500D01*
X75188745Y-66543495D01*
X75172007Y-66600500D01*
X75137605Y-66660087D01*
X75134223Y-66665944D01*
X75075208Y-66847572D01*
X75074518Y-66854133D01*
X75074518Y-66854135D01*
X75067523Y-66920690D01*
X75055246Y-67037500D01*
X74717591Y-67037500D01*
X74709966Y-66953715D01*
X74707239Y-66923751D01*
X74707238Y-66923748D01*
X74706680Y-66917612D01*
X74701661Y-66900556D01*
X74655546Y-66743870D01*
X74650840Y-66727881D01*
X74647173Y-66720865D01*
X74592541Y-66616366D01*
X74559210Y-66552610D01*
X74435282Y-66398475D01*
X74428977Y-66393184D01*
X74371977Y-66345356D01*
X74283776Y-66271346D01*
X74278378Y-66268379D01*
X74278373Y-66268375D01*
X74115858Y-66179033D01*
X74115859Y-66179033D01*
X74110463Y-66176067D01*
X74104596Y-66174206D01*
X74104594Y-66174205D01*
X73927814Y-66118127D01*
X73927813Y-66118127D01*
X73921944Y-66116265D01*
X73768023Y-66099000D01*
X73546473Y-66099000D01*
X73478352Y-66078998D01*
X73431859Y-66025342D01*
X73421755Y-65955068D01*
X73429484Y-65926208D01*
X73436245Y-65909303D01*
X73438780Y-65902966D01*
X73439894Y-65896238D01*
X73439895Y-65896234D01*
X73467243Y-65731039D01*
X73467243Y-65731036D01*
X73468358Y-65724302D01*
X73466003Y-65679352D01*
X73459237Y-65550266D01*
X73458880Y-65543453D01*
X73448640Y-65506274D01*
X73412602Y-65375441D01*
X73410789Y-65368859D01*
X73326328Y-65208664D01*
X73321923Y-65203451D01*
X73321920Y-65203447D01*
X73213844Y-65075557D01*
X73213840Y-65075553D01*
X73209437Y-65070343D01*
X73204012Y-65066195D01*
X73070993Y-64964494D01*
X73070989Y-64964491D01*
X73065572Y-64960350D01*
X72953369Y-64908029D01*
X72907619Y-64886695D01*
X72907616Y-64886694D01*
X72901442Y-64883815D01*
X72894794Y-64882329D01*
X72894791Y-64882328D01*
X72751339Y-64850263D01*
X72724707Y-64844310D01*
X72719162Y-64844000D01*
X72586006Y-64844000D01*
X72582609Y-64844369D01*
X72492129Y-64854198D01*
X72422246Y-64841670D01*
X72384191Y-64806318D01*
X72374577Y-64849521D01*
X72324136Y-64899484D01*
X72304468Y-64908028D01*
X72279575Y-64916406D01*
X72124345Y-65009677D01*
X72119388Y-65014365D01*
X72119385Y-65014367D01*
X71998165Y-65129000D01*
X71992765Y-65134107D01*
X71988933Y-65139745D01*
X71988930Y-65139749D01*
X71895602Y-65277077D01*
X71890973Y-65283888D01*
X71823720Y-65452034D01*
X71822606Y-65458762D01*
X71822605Y-65458766D01*
X71797734Y-65608998D01*
X71794142Y-65630698D01*
X71794499Y-65637515D01*
X71794499Y-65637519D01*
X71799401Y-65731039D01*
X71803620Y-65811547D01*
X71805431Y-65818120D01*
X71805431Y-65818123D01*
X71836505Y-65930935D01*
X71851711Y-65986141D01*
X71936172Y-66146336D01*
X71940580Y-66151552D01*
X71958622Y-66172902D01*
X71987313Y-66237843D01*
X71976340Y-66307986D01*
X71942018Y-66351872D01*
X71901968Y-66384536D01*
X71901965Y-66384539D01*
X71897188Y-66388435D01*
X71893261Y-66393182D01*
X71893259Y-66393184D01*
X71775049Y-66536075D01*
X71775047Y-66536079D01*
X71771120Y-66540825D01*
X71677052Y-66714799D01*
X71618568Y-66903732D01*
X71617924Y-66909857D01*
X71617924Y-66909858D01*
X71601227Y-67068726D01*
X71597895Y-67100425D01*
X70293317Y-67100425D01*
X70279966Y-66953715D01*
X70277239Y-66923751D01*
X70277238Y-66923748D01*
X70276680Y-66917612D01*
X70271661Y-66900556D01*
X70225546Y-66743870D01*
X70220840Y-66727881D01*
X70217173Y-66720865D01*
X70162541Y-66616366D01*
X70129210Y-66552610D01*
X70005282Y-66398475D01*
X69998977Y-66393184D01*
X69941977Y-66345356D01*
X69853776Y-66271346D01*
X69848378Y-66268379D01*
X69848373Y-66268375D01*
X69685858Y-66179033D01*
X69685859Y-66179033D01*
X69680463Y-66176067D01*
X69674596Y-66174206D01*
X69674594Y-66174205D01*
X69497814Y-66118127D01*
X69497813Y-66118127D01*
X69491944Y-66116265D01*
X69338023Y-66099000D01*
X68631481Y-66099000D01*
X68628425Y-66099300D01*
X68628418Y-66099300D01*
X68569910Y-66105037D01*
X68484417Y-66113420D01*
X68478516Y-66115202D01*
X68478514Y-66115202D01*
X68417227Y-66133706D01*
X68295081Y-66170584D01*
X68120454Y-66263434D01*
X68115679Y-66267328D01*
X68115678Y-66267329D01*
X68110753Y-66271346D01*
X68024989Y-66341294D01*
X67997151Y-66363998D01*
X67931719Y-66391552D01*
X67861778Y-66379357D01*
X67809533Y-66331284D01*
X67791515Y-66266504D01*
X67787682Y-63034295D01*
X70502682Y-63034295D01*
X70522644Y-63224223D01*
X70581659Y-63405851D01*
X70677146Y-63571239D01*
X70681564Y-63576146D01*
X70681565Y-63576147D01*
X70725316Y-63624737D01*
X70804933Y-63713161D01*
X70959434Y-63825413D01*
X70965462Y-63828097D01*
X70965464Y-63828098D01*
X71046666Y-63864251D01*
X71131292Y-63901929D01*
X71131294Y-63901930D01*
X71133898Y-63903089D01*
X71133686Y-63903565D01*
X71188751Y-63941215D01*
X71211044Y-63982040D01*
X71261801Y-64138253D01*
X71357288Y-64303641D01*
X71361706Y-64308548D01*
X71361707Y-64308549D01*
X71480653Y-64440652D01*
X71485075Y-64445563D01*
X71539818Y-64485336D01*
X71628056Y-64549445D01*
X71639576Y-64557815D01*
X71645604Y-64560499D01*
X71645606Y-64560500D01*
X71803807Y-64630935D01*
X71814040Y-64635491D01*
X71907440Y-64655344D01*
X71994384Y-64673825D01*
X71994389Y-64673825D01*
X72000841Y-64675197D01*
X72191815Y-64675197D01*
X72198267Y-64673825D01*
X72198272Y-64673825D01*
X72238081Y-64665363D01*
X72308872Y-64670765D01*
X72358099Y-64707983D01*
X72374942Y-64657189D01*
X72427272Y-64613828D01*
X72547050Y-64560500D01*
X72547052Y-64560499D01*
X72553080Y-64557815D01*
X72564601Y-64549445D01*
X72652838Y-64485336D01*
X72707581Y-64445563D01*
X72712003Y-64440652D01*
X72830949Y-64308549D01*
X72830950Y-64308548D01*
X72835368Y-64303641D01*
X72873555Y-64237500D01*
X95455246Y-64237500D01*
X95455936Y-64244065D01*
X95471246Y-64389727D01*
X95475208Y-64427428D01*
X95534223Y-64609056D01*
X95537526Y-64614778D01*
X95537527Y-64614779D01*
X95561811Y-64656839D01*
X95629710Y-64774444D01*
X95634128Y-64779351D01*
X95634129Y-64779352D01*
X95736263Y-64892783D01*
X95757497Y-64916366D01*
X95911998Y-65028618D01*
X95918026Y-65031302D01*
X95918028Y-65031303D01*
X96073574Y-65100556D01*
X96086462Y-65106294D01*
X96179863Y-65126147D01*
X96266806Y-65144628D01*
X96266811Y-65144628D01*
X96273263Y-65146000D01*
X96464237Y-65146000D01*
X96470689Y-65144628D01*
X96470694Y-65144628D01*
X96557637Y-65126147D01*
X96651038Y-65106294D01*
X96663926Y-65100556D01*
X96819472Y-65031303D01*
X96819474Y-65031302D01*
X96825502Y-65028618D01*
X96980003Y-64916366D01*
X97001237Y-64892783D01*
X97103371Y-64779352D01*
X97103372Y-64779351D01*
X97107790Y-64774444D01*
X97175689Y-64656839D01*
X97199973Y-64614779D01*
X97199974Y-64614778D01*
X97203277Y-64609056D01*
X97262292Y-64427428D01*
X97266255Y-64389727D01*
X97281564Y-64244065D01*
X97282254Y-64237500D01*
X97262292Y-64047572D01*
X97203277Y-63865944D01*
X97194682Y-63851056D01*
X97148687Y-63771391D01*
X97107790Y-63700556D01*
X97078993Y-63668573D01*
X96984425Y-63563545D01*
X96984424Y-63563544D01*
X96980003Y-63558634D01*
X96825502Y-63446382D01*
X96819474Y-63443698D01*
X96819472Y-63443697D01*
X96657069Y-63371391D01*
X96657068Y-63371391D01*
X96651038Y-63368706D01*
X96557638Y-63348853D01*
X96470694Y-63330372D01*
X96470689Y-63330372D01*
X96464237Y-63329000D01*
X96273263Y-63329000D01*
X96266811Y-63330372D01*
X96266806Y-63330372D01*
X96179862Y-63348853D01*
X96086462Y-63368706D01*
X96080432Y-63371391D01*
X96080431Y-63371391D01*
X95918028Y-63443697D01*
X95918026Y-63443698D01*
X95911998Y-63446382D01*
X95757497Y-63558634D01*
X95753076Y-63563544D01*
X95753075Y-63563545D01*
X95658508Y-63668573D01*
X95629710Y-63700556D01*
X95588813Y-63771391D01*
X95542819Y-63851056D01*
X95534223Y-63865944D01*
X95475208Y-64047572D01*
X95455246Y-64237500D01*
X72873555Y-64237500D01*
X72930855Y-64138253D01*
X72989870Y-63956625D01*
X73009832Y-63766697D01*
X73007657Y-63746000D01*
X72990560Y-63583332D01*
X72990560Y-63583330D01*
X72989870Y-63576769D01*
X72930855Y-63395141D01*
X72900309Y-63342233D01*
X72838671Y-63235474D01*
X72835368Y-63229753D01*
X72824480Y-63217660D01*
X72756550Y-63142217D01*
X72725833Y-63078209D01*
X72724186Y-63057906D01*
X72724186Y-62920854D01*
X72744188Y-62852733D01*
X72755820Y-62837500D01*
X84355246Y-62837500D01*
X84375208Y-63027428D01*
X84434223Y-63209056D01*
X84437526Y-63214778D01*
X84437527Y-63214779D01*
X84442980Y-63224223D01*
X84529710Y-63374444D01*
X84534128Y-63379351D01*
X84534129Y-63379352D01*
X84637327Y-63493965D01*
X84657497Y-63516366D01*
X84811998Y-63628618D01*
X84818026Y-63631302D01*
X84818028Y-63631303D01*
X84973574Y-63700556D01*
X84986462Y-63706294D01*
X85065175Y-63723025D01*
X85166806Y-63744628D01*
X85166811Y-63744628D01*
X85173263Y-63746000D01*
X85364237Y-63746000D01*
X85370689Y-63744628D01*
X85370694Y-63744628D01*
X85472325Y-63723025D01*
X85551038Y-63706294D01*
X85563926Y-63700556D01*
X85719472Y-63631303D01*
X85719474Y-63631302D01*
X85725502Y-63628618D01*
X85880003Y-63516366D01*
X85900173Y-63493965D01*
X86003371Y-63379352D01*
X86003372Y-63379351D01*
X86007790Y-63374444D01*
X86094520Y-63224223D01*
X86099973Y-63214779D01*
X86099974Y-63214778D01*
X86103277Y-63209056D01*
X86162292Y-63027428D01*
X86182254Y-62837500D01*
X86167356Y-62695749D01*
X86162982Y-62654135D01*
X86162982Y-62654133D01*
X86162292Y-62647572D01*
X86103277Y-62465944D01*
X86007790Y-62300556D01*
X85965993Y-62254135D01*
X85884425Y-62163545D01*
X85884424Y-62163544D01*
X85880003Y-62158634D01*
X85725502Y-62046382D01*
X85719474Y-62043698D01*
X85719472Y-62043697D01*
X85557069Y-61971391D01*
X85557068Y-61971391D01*
X85551038Y-61968706D01*
X85457638Y-61948853D01*
X85370694Y-61930372D01*
X85370689Y-61930372D01*
X85364237Y-61929000D01*
X85173263Y-61929000D01*
X85166811Y-61930372D01*
X85166806Y-61930372D01*
X85079862Y-61948853D01*
X84986462Y-61968706D01*
X84980432Y-61971391D01*
X84980431Y-61971391D01*
X84818028Y-62043697D01*
X84818026Y-62043698D01*
X84811998Y-62046382D01*
X84657497Y-62158634D01*
X84653076Y-62163544D01*
X84653075Y-62163545D01*
X84571508Y-62254135D01*
X84529710Y-62300556D01*
X84434223Y-62465944D01*
X84375208Y-62647572D01*
X84374518Y-62654133D01*
X84374518Y-62654135D01*
X84370144Y-62695749D01*
X84355246Y-62837500D01*
X72755820Y-62837500D01*
X72756550Y-62836544D01*
X72850307Y-62732416D01*
X72850308Y-62732415D01*
X72854726Y-62727508D01*
X72913000Y-62626574D01*
X72946909Y-62567843D01*
X72946910Y-62567842D01*
X72950213Y-62562120D01*
X73009228Y-62380492D01*
X73012073Y-62353429D01*
X73028500Y-62197129D01*
X73029190Y-62190564D01*
X73013754Y-62043697D01*
X73009918Y-62007199D01*
X73009918Y-62007197D01*
X73009228Y-62000636D01*
X72950213Y-61819008D01*
X72854726Y-61653620D01*
X72819754Y-61614779D01*
X72731361Y-61516609D01*
X72731360Y-61516608D01*
X72726939Y-61511698D01*
X72721390Y-61507666D01*
X72649073Y-61455125D01*
X72605719Y-61398903D01*
X72597824Y-61340019D01*
X72611003Y-61214626D01*
X72611693Y-61208061D01*
X72604982Y-61144206D01*
X72592421Y-61024696D01*
X72592421Y-61024694D01*
X72591731Y-61018133D01*
X72552026Y-60895934D01*
X72549998Y-60824969D01*
X72586660Y-60764171D01*
X72650372Y-60732846D01*
X72669680Y-60731187D01*
X72669680Y-60731184D01*
X72669781Y-60731179D01*
X72671859Y-60731000D01*
X72676494Y-60731000D01*
X72811287Y-60716357D01*
X72939519Y-60673202D01*
X72976454Y-60660772D01*
X72976456Y-60660771D01*
X72982925Y-60658594D01*
X73018032Y-60637500D01*
X81655246Y-60637500D01*
X81655936Y-60644065D01*
X81673879Y-60814779D01*
X81675208Y-60827428D01*
X81734223Y-61009056D01*
X81737526Y-61014778D01*
X81737527Y-61014779D01*
X81743253Y-61024696D01*
X81829710Y-61174444D01*
X81834128Y-61179351D01*
X81834129Y-61179352D01*
X81948428Y-61306294D01*
X81957497Y-61316366D01*
X81996396Y-61344628D01*
X82099666Y-61419658D01*
X82111998Y-61428618D01*
X82118026Y-61431302D01*
X82118028Y-61431303D01*
X82268399Y-61498252D01*
X82286462Y-61506294D01*
X82379863Y-61526147D01*
X82466806Y-61544628D01*
X82466811Y-61544628D01*
X82473263Y-61546000D01*
X82664237Y-61546000D01*
X82670689Y-61544628D01*
X82670694Y-61544628D01*
X82757637Y-61526147D01*
X82851038Y-61506294D01*
X82869101Y-61498252D01*
X83019472Y-61431303D01*
X83019474Y-61431302D01*
X83025502Y-61428618D01*
X83037835Y-61419658D01*
X83141104Y-61344628D01*
X83180003Y-61316366D01*
X83189072Y-61306294D01*
X83303371Y-61179352D01*
X83303372Y-61179351D01*
X83307790Y-61174444D01*
X83394247Y-61024696D01*
X83399973Y-61014779D01*
X83399974Y-61014778D01*
X83403277Y-61009056D01*
X83462292Y-60827428D01*
X83463622Y-60814779D01*
X83481564Y-60644065D01*
X83482254Y-60637500D01*
X83477513Y-60592390D01*
X83462982Y-60454135D01*
X83462982Y-60454133D01*
X83462292Y-60447572D01*
X83410281Y-60287500D01*
X85805306Y-60287500D01*
X85805996Y-60294065D01*
X85821821Y-60444628D01*
X85825268Y-60477428D01*
X85884283Y-60659056D01*
X85887586Y-60664778D01*
X85887587Y-60664779D01*
X85890887Y-60670495D01*
X85979770Y-60824444D01*
X85984188Y-60829351D01*
X85984189Y-60829352D01*
X86051050Y-60903609D01*
X86107557Y-60966366D01*
X86262058Y-61078618D01*
X86268086Y-61081302D01*
X86268088Y-61081303D01*
X86412572Y-61145631D01*
X86436522Y-61156294D01*
X86521911Y-61174444D01*
X86616866Y-61194628D01*
X86616871Y-61194628D01*
X86623323Y-61196000D01*
X86814297Y-61196000D01*
X86820749Y-61194628D01*
X86820754Y-61194628D01*
X86915709Y-61174444D01*
X87001098Y-61156294D01*
X87025048Y-61145631D01*
X87169532Y-61081303D01*
X87169534Y-61081302D01*
X87175562Y-61078618D01*
X87330063Y-60966366D01*
X87386570Y-60903609D01*
X87453431Y-60829352D01*
X87453432Y-60829351D01*
X87457850Y-60824444D01*
X87546733Y-60670495D01*
X87550033Y-60664779D01*
X87550034Y-60664778D01*
X87553337Y-60659056D01*
X87612352Y-60477428D01*
X87615800Y-60444628D01*
X87631624Y-60294065D01*
X87632314Y-60287500D01*
X87624671Y-60214779D01*
X87613042Y-60104135D01*
X87613042Y-60104133D01*
X87612352Y-60097572D01*
X87553337Y-59915944D01*
X87457850Y-59750556D01*
X87452006Y-59744065D01*
X87334485Y-59613545D01*
X87334484Y-59613544D01*
X87330063Y-59608634D01*
X87175562Y-59496382D01*
X87169534Y-59493698D01*
X87169532Y-59493697D01*
X87007129Y-59421391D01*
X87007128Y-59421391D01*
X87001098Y-59418706D01*
X86894120Y-59395967D01*
X86820754Y-59380372D01*
X86820749Y-59380372D01*
X86814297Y-59379000D01*
X86623323Y-59379000D01*
X86616871Y-59380372D01*
X86616866Y-59380372D01*
X86543500Y-59395967D01*
X86436522Y-59418706D01*
X86430492Y-59421391D01*
X86430491Y-59421391D01*
X86268088Y-59493697D01*
X86268086Y-59493698D01*
X86262058Y-59496382D01*
X86107557Y-59608634D01*
X86103136Y-59613544D01*
X86103135Y-59613545D01*
X85985615Y-59744065D01*
X85979770Y-59750556D01*
X85884283Y-59915944D01*
X85825268Y-60097572D01*
X85824578Y-60104133D01*
X85824578Y-60104135D01*
X85812949Y-60214779D01*
X85805306Y-60287500D01*
X83410281Y-60287500D01*
X83403277Y-60265944D01*
X83307790Y-60100556D01*
X83299451Y-60091294D01*
X83184425Y-59963545D01*
X83184424Y-59963544D01*
X83180003Y-59958634D01*
X83040831Y-59857519D01*
X83030844Y-59850263D01*
X83030843Y-59850262D01*
X83025502Y-59846382D01*
X83019474Y-59843698D01*
X83019472Y-59843697D01*
X82857069Y-59771391D01*
X82857068Y-59771391D01*
X82851038Y-59768706D01*
X82757638Y-59748853D01*
X82670694Y-59730372D01*
X82670689Y-59730372D01*
X82664237Y-59729000D01*
X82473263Y-59729000D01*
X82466811Y-59730372D01*
X82466806Y-59730372D01*
X82379862Y-59748853D01*
X82286462Y-59768706D01*
X82280432Y-59771391D01*
X82280431Y-59771391D01*
X82118028Y-59843697D01*
X82118026Y-59843698D01*
X82111998Y-59846382D01*
X82106657Y-59850262D01*
X82106656Y-59850263D01*
X82096669Y-59857519D01*
X81957497Y-59958634D01*
X81953076Y-59963544D01*
X81953075Y-59963545D01*
X81838050Y-60091294D01*
X81829710Y-60100556D01*
X81734223Y-60265944D01*
X81675208Y-60447572D01*
X81674518Y-60454133D01*
X81674518Y-60454135D01*
X81659987Y-60592390D01*
X81655246Y-60637500D01*
X73018032Y-60637500D01*
X73138155Y-60565323D01*
X73143112Y-60560635D01*
X73143115Y-60560633D01*
X73264777Y-60445582D01*
X73264779Y-60445580D01*
X73269735Y-60440893D01*
X73273567Y-60435255D01*
X73273570Y-60435251D01*
X73367692Y-60296755D01*
X73371527Y-60291112D01*
X73438780Y-60122966D01*
X73439894Y-60116238D01*
X73439895Y-60116234D01*
X73467243Y-59951039D01*
X73467243Y-59951036D01*
X73468358Y-59944302D01*
X73467202Y-59922229D01*
X73459237Y-59770266D01*
X73458880Y-59763453D01*
X73451732Y-59737500D01*
X73423625Y-59635460D01*
X73424819Y-59564473D01*
X73464202Y-59505401D01*
X73529269Y-59476999D01*
X73545101Y-59476000D01*
X73761019Y-59476000D01*
X73764075Y-59475700D01*
X73764082Y-59475700D01*
X73822590Y-59469963D01*
X73908083Y-59461580D01*
X73913984Y-59459798D01*
X73913986Y-59459798D01*
X73987303Y-59437662D01*
X74097419Y-59404416D01*
X74272046Y-59311566D01*
X74379123Y-59224236D01*
X74420537Y-59190460D01*
X74420540Y-59190457D01*
X74425312Y-59186565D01*
X74439194Y-59169785D01*
X74547451Y-59038925D01*
X74547453Y-59038921D01*
X74551380Y-59034175D01*
X74645448Y-58860201D01*
X74668757Y-58784902D01*
X74676990Y-58758305D01*
X74716241Y-58699145D01*
X74781246Y-58670598D01*
X74851365Y-58681727D01*
X74904336Y-58728998D01*
X74917188Y-58756628D01*
X74934223Y-58809056D01*
X74997618Y-58918858D01*
X75000875Y-58924500D01*
X75017613Y-58993495D01*
X75000875Y-59050499D01*
X74934223Y-59165944D01*
X74875208Y-59347572D01*
X74874518Y-59354133D01*
X74874518Y-59354135D01*
X74867449Y-59421391D01*
X74855246Y-59537500D01*
X74855936Y-59544065D01*
X74868554Y-59664115D01*
X74875208Y-59727428D01*
X74934223Y-59909056D01*
X74937526Y-59914778D01*
X74937527Y-59914779D01*
X74941041Y-59920865D01*
X75029710Y-60074444D01*
X75034128Y-60079351D01*
X75034129Y-60079352D01*
X75053221Y-60100556D01*
X75157497Y-60216366D01*
X75246368Y-60280935D01*
X75268750Y-60297196D01*
X75311998Y-60328618D01*
X75318026Y-60331302D01*
X75318028Y-60331303D01*
X75414925Y-60374444D01*
X75486462Y-60406294D01*
X75579862Y-60426147D01*
X75666806Y-60444628D01*
X75666811Y-60444628D01*
X75673263Y-60446000D01*
X75864237Y-60446000D01*
X75870689Y-60444628D01*
X75870694Y-60444628D01*
X75957638Y-60426147D01*
X76051038Y-60406294D01*
X76217502Y-60332180D01*
X76287868Y-60322746D01*
X76319997Y-60332180D01*
X76486462Y-60406294D01*
X76579862Y-60426147D01*
X76666806Y-60444628D01*
X76666811Y-60444628D01*
X76673263Y-60446000D01*
X76864237Y-60446000D01*
X76870689Y-60444628D01*
X76870694Y-60444628D01*
X76957638Y-60426147D01*
X77051038Y-60406294D01*
X77122575Y-60374444D01*
X77219472Y-60331303D01*
X77219474Y-60331302D01*
X77225502Y-60328618D01*
X77268751Y-60297196D01*
X77291132Y-60280935D01*
X77380003Y-60216366D01*
X77484279Y-60100556D01*
X77503371Y-60079352D01*
X77503372Y-60079351D01*
X77507790Y-60074444D01*
X77596459Y-59920865D01*
X77599973Y-59914779D01*
X77599974Y-59914778D01*
X77603277Y-59909056D01*
X77662292Y-59727428D01*
X77668947Y-59664115D01*
X77681564Y-59544065D01*
X77682254Y-59537500D01*
X77670051Y-59421391D01*
X77662982Y-59354135D01*
X77662982Y-59354133D01*
X77662292Y-59347572D01*
X77626531Y-59237511D01*
X97555246Y-59237511D01*
X97555936Y-59244076D01*
X97572408Y-59400795D01*
X97575208Y-59427439D01*
X97634223Y-59609067D01*
X97637526Y-59614789D01*
X97637527Y-59614790D01*
X97660243Y-59654135D01*
X97729710Y-59774455D01*
X97734128Y-59779362D01*
X97734129Y-59779363D01*
X97843252Y-59900556D01*
X97857497Y-59916377D01*
X98011998Y-60028629D01*
X98018026Y-60031313D01*
X98018028Y-60031314D01*
X98166847Y-60097572D01*
X98186462Y-60106305D01*
X98279862Y-60126158D01*
X98366806Y-60144639D01*
X98366811Y-60144639D01*
X98373263Y-60146011D01*
X98457210Y-60146011D01*
X98525331Y-60166013D01*
X98571824Y-60219669D01*
X98577042Y-60233072D01*
X98634223Y-60409056D01*
X98637526Y-60414778D01*
X98637527Y-60414779D01*
X98663703Y-60460116D01*
X98729710Y-60574444D01*
X98734128Y-60579351D01*
X98734129Y-60579352D01*
X98821903Y-60676835D01*
X98857497Y-60716366D01*
X99011998Y-60828618D01*
X99018026Y-60831302D01*
X99018028Y-60831303D01*
X99180431Y-60903609D01*
X99186462Y-60906294D01*
X99279862Y-60926147D01*
X99366806Y-60944628D01*
X99366811Y-60944628D01*
X99373263Y-60946000D01*
X99564237Y-60946000D01*
X99570689Y-60944628D01*
X99570694Y-60944628D01*
X99657638Y-60926147D01*
X99751038Y-60906294D01*
X99757069Y-60903609D01*
X99919472Y-60831303D01*
X99919474Y-60831302D01*
X99925502Y-60828618D01*
X100080003Y-60716366D01*
X100084418Y-60711463D01*
X100089330Y-60707040D01*
X100090613Y-60708464D01*
X100143208Y-60676058D01*
X100185205Y-60672430D01*
X100188659Y-60673202D01*
X100196584Y-60672953D01*
X100196585Y-60672953D01*
X100256736Y-60671062D01*
X100260695Y-60671000D01*
X100288606Y-60671000D01*
X100292541Y-60670503D01*
X100292606Y-60670495D01*
X100304443Y-60669562D01*
X100336701Y-60668548D01*
X100340720Y-60668422D01*
X100348639Y-60668173D01*
X100368093Y-60662521D01*
X100387450Y-60658513D01*
X100399680Y-60656968D01*
X100399681Y-60656968D01*
X100407547Y-60655974D01*
X100414918Y-60653055D01*
X100414920Y-60653055D01*
X100448662Y-60639696D01*
X100459892Y-60635851D01*
X100494733Y-60625729D01*
X100494734Y-60625729D01*
X100502343Y-60623518D01*
X100509162Y-60619485D01*
X100509167Y-60619483D01*
X100519778Y-60613207D01*
X100537526Y-60604512D01*
X100556367Y-60597052D01*
X100592137Y-60571064D01*
X100602057Y-60564548D01*
X100633285Y-60546080D01*
X100633288Y-60546078D01*
X100640112Y-60542042D01*
X100654433Y-60527721D01*
X100669467Y-60514880D01*
X100685857Y-60502972D01*
X100714048Y-60468895D01*
X100722038Y-60460116D01*
X100725400Y-60456754D01*
X100787712Y-60422728D01*
X100858527Y-60427793D01*
X100908130Y-60461538D01*
X100939940Y-60496866D01*
X100950613Y-60508720D01*
X100981330Y-60572727D01*
X100972566Y-60643181D01*
X100950613Y-60677341D01*
X100929710Y-60700556D01*
X100926409Y-60706274D01*
X100926407Y-60706277D01*
X100851220Y-60836505D01*
X100834223Y-60865944D01*
X100775208Y-61047572D01*
X100774518Y-61054133D01*
X100774518Y-61054135D01*
X100759752Y-61194628D01*
X100755246Y-61237500D01*
X100755936Y-61244065D01*
X100773430Y-61410508D01*
X100775208Y-61427428D01*
X100834223Y-61609056D01*
X100929710Y-61774444D01*
X101002887Y-61855715D01*
X101033603Y-61919721D01*
X101035250Y-61940024D01*
X101035250Y-64458733D01*
X101034723Y-64469916D01*
X101033048Y-64477409D01*
X101033297Y-64485335D01*
X101033297Y-64485336D01*
X101035188Y-64545486D01*
X101035250Y-64549445D01*
X101035250Y-64577356D01*
X101035747Y-64581290D01*
X101035747Y-64581291D01*
X101035755Y-64581356D01*
X101036688Y-64593193D01*
X101038077Y-64637389D01*
X101043728Y-64656839D01*
X101047737Y-64676200D01*
X101050276Y-64696297D01*
X101053195Y-64703668D01*
X101053195Y-64703670D01*
X101066554Y-64737412D01*
X101070399Y-64748642D01*
X101077895Y-64774444D01*
X101082732Y-64791093D01*
X101086765Y-64797912D01*
X101086767Y-64797917D01*
X101093043Y-64808528D01*
X101101738Y-64826276D01*
X101109198Y-64845117D01*
X101113860Y-64851533D01*
X101113860Y-64851534D01*
X101135186Y-64880887D01*
X101141702Y-64890807D01*
X101156818Y-64916366D01*
X101164208Y-64928862D01*
X101178529Y-64943183D01*
X101191369Y-64958216D01*
X101203278Y-64974607D01*
X101226239Y-64993602D01*
X101237355Y-65002798D01*
X101246134Y-65010788D01*
X102721628Y-66486283D01*
X102755654Y-66548595D01*
X102757843Y-66562206D01*
X102763019Y-66611455D01*
X102773881Y-66714799D01*
X102775208Y-66727428D01*
X102834223Y-66909056D01*
X102929710Y-67074444D01*
X102934128Y-67079351D01*
X102934129Y-67079352D01*
X103048341Y-67206197D01*
X103057497Y-67216366D01*
X103211998Y-67328618D01*
X103218026Y-67331302D01*
X103218028Y-67331303D01*
X103373574Y-67400556D01*
X103386462Y-67406294D01*
X103479862Y-67426147D01*
X103566806Y-67444628D01*
X103566811Y-67444628D01*
X103573263Y-67446000D01*
X103764237Y-67446000D01*
X103770689Y-67444628D01*
X103770694Y-67444628D01*
X103857638Y-67426147D01*
X103951038Y-67406294D01*
X103963926Y-67400556D01*
X104119472Y-67331303D01*
X104119474Y-67331302D01*
X104125502Y-67328618D01*
X104280003Y-67216366D01*
X104289159Y-67206197D01*
X104403371Y-67079352D01*
X104403372Y-67079351D01*
X104407790Y-67074444D01*
X104503277Y-66909056D01*
X104562292Y-66727428D01*
X104563620Y-66714799D01*
X104581564Y-66544065D01*
X104582254Y-66537500D01*
X104576871Y-66486283D01*
X104562982Y-66354135D01*
X104562982Y-66354133D01*
X104562292Y-66347572D01*
X104503277Y-66165944D01*
X104407790Y-66000556D01*
X104366833Y-65955068D01*
X104351015Y-65937500D01*
X110079746Y-65937500D01*
X110080436Y-65944065D01*
X110098463Y-66115579D01*
X110099708Y-66127428D01*
X110158723Y-66309056D01*
X110254210Y-66474444D01*
X110381997Y-66616366D01*
X110431178Y-66652098D01*
X110525581Y-66720686D01*
X110536498Y-66728618D01*
X110542526Y-66731302D01*
X110542528Y-66731303D01*
X110704931Y-66803609D01*
X110710962Y-66806294D01*
X110796374Y-66824449D01*
X110891306Y-66844628D01*
X110891311Y-66844628D01*
X110897763Y-66846000D01*
X111088737Y-66846000D01*
X111095189Y-66844628D01*
X111095194Y-66844628D01*
X111190126Y-66824449D01*
X111275538Y-66806294D01*
X111281569Y-66803609D01*
X111443972Y-66731303D01*
X111443974Y-66731302D01*
X111450002Y-66728618D01*
X111460920Y-66720686D01*
X111555322Y-66652098D01*
X111604503Y-66616366D01*
X111732290Y-66474444D01*
X111812432Y-66335634D01*
X126029000Y-66335634D01*
X126035755Y-66397816D01*
X126086885Y-66534205D01*
X126174239Y-66650761D01*
X126290795Y-66738115D01*
X126427184Y-66789245D01*
X126489366Y-66796000D01*
X130785634Y-66796000D01*
X130847816Y-66789245D01*
X130984205Y-66738115D01*
X131100761Y-66650761D01*
X131188115Y-66534205D01*
X131239245Y-66397816D01*
X131246000Y-66335634D01*
X131246000Y-64889366D01*
X131239245Y-64827184D01*
X131188115Y-64690795D01*
X131100761Y-64574239D01*
X130984205Y-64486885D01*
X130847816Y-64435755D01*
X130785634Y-64429000D01*
X126489366Y-64429000D01*
X126427184Y-64435755D01*
X126290795Y-64486885D01*
X126174239Y-64574239D01*
X126086885Y-64690795D01*
X126035755Y-64827184D01*
X126029000Y-64889366D01*
X126029000Y-66335634D01*
X111812432Y-66335634D01*
X111827777Y-66309056D01*
X111886792Y-66127428D01*
X111889588Y-66128337D01*
X111917180Y-66077159D01*
X111980552Y-66042532D01*
X112151038Y-66006294D01*
X112163926Y-66000556D01*
X112319472Y-65931303D01*
X112319474Y-65931302D01*
X112325502Y-65928618D01*
X112480003Y-65816366D01*
X112484425Y-65811455D01*
X112603371Y-65679352D01*
X112603372Y-65679351D01*
X112607790Y-65674444D01*
X112681947Y-65546000D01*
X112699973Y-65514779D01*
X112699974Y-65514778D01*
X112703277Y-65509056D01*
X112762292Y-65327428D01*
X112769523Y-65258634D01*
X112781564Y-65144065D01*
X112782254Y-65137500D01*
X112774760Y-65066195D01*
X112762982Y-64954135D01*
X112762982Y-64954133D01*
X112762292Y-64947572D01*
X112703277Y-64765944D01*
X112689991Y-64742931D01*
X112632910Y-64644065D01*
X112607790Y-64600556D01*
X112586651Y-64577078D01*
X112484425Y-64463545D01*
X112484424Y-64463544D01*
X112480003Y-64458634D01*
X112325502Y-64346382D01*
X112319474Y-64343698D01*
X112319472Y-64343697D01*
X112157069Y-64271391D01*
X112157068Y-64271391D01*
X112151038Y-64268706D01*
X112035112Y-64244065D01*
X111970694Y-64230372D01*
X111970689Y-64230372D01*
X111964237Y-64229000D01*
X111773263Y-64229000D01*
X111766811Y-64230372D01*
X111766806Y-64230372D01*
X111702388Y-64244065D01*
X111586462Y-64268706D01*
X111580432Y-64271391D01*
X111580431Y-64271391D01*
X111418028Y-64343697D01*
X111418026Y-64343698D01*
X111411998Y-64346382D01*
X111257497Y-64458634D01*
X111253076Y-64463544D01*
X111253075Y-64463545D01*
X111150850Y-64577078D01*
X111129710Y-64600556D01*
X111104590Y-64644065D01*
X111047510Y-64742931D01*
X111034223Y-64765944D01*
X110975208Y-64947572D01*
X110972412Y-64946663D01*
X110944820Y-64997841D01*
X110881448Y-65032468D01*
X110710962Y-65068706D01*
X110704932Y-65071391D01*
X110704931Y-65071391D01*
X110542528Y-65143697D01*
X110542526Y-65143698D01*
X110536498Y-65146382D01*
X110381997Y-65258634D01*
X110377576Y-65263544D01*
X110377575Y-65263545D01*
X110276824Y-65375441D01*
X110254210Y-65400556D01*
X110196475Y-65500556D01*
X110165722Y-65553822D01*
X110158723Y-65565944D01*
X110099708Y-65747572D01*
X110099018Y-65754133D01*
X110099018Y-65754135D01*
X110089198Y-65847572D01*
X110079746Y-65937500D01*
X104351015Y-65937500D01*
X104284425Y-65863545D01*
X104284424Y-65863544D01*
X104280003Y-65858634D01*
X104125502Y-65746382D01*
X104119474Y-65743698D01*
X104119472Y-65743697D01*
X103957069Y-65671391D01*
X103957068Y-65671391D01*
X103951038Y-65668706D01*
X103835112Y-65644065D01*
X103770694Y-65630372D01*
X103770689Y-65630372D01*
X103764237Y-65629000D01*
X103708344Y-65629000D01*
X103640223Y-65608998D01*
X103619249Y-65592095D01*
X102339155Y-64312000D01*
X102305129Y-64249688D01*
X102302250Y-64222905D01*
X102302250Y-64199799D01*
X103692947Y-64199799D01*
X103693637Y-64206364D01*
X103700472Y-64271391D01*
X103712909Y-64389727D01*
X103771924Y-64571355D01*
X103775227Y-64577077D01*
X103775228Y-64577078D01*
X103793691Y-64609056D01*
X103867411Y-64736743D01*
X103871829Y-64741650D01*
X103871830Y-64741651D01*
X103966130Y-64846382D01*
X103995198Y-64878665D01*
X104064288Y-64928862D01*
X104118424Y-64968194D01*
X104149699Y-64990917D01*
X104155727Y-64993601D01*
X104155729Y-64993602D01*
X104318132Y-65065908D01*
X104324163Y-65068593D01*
X104417563Y-65088446D01*
X104504507Y-65106927D01*
X104504512Y-65106927D01*
X104510964Y-65108299D01*
X104701938Y-65108299D01*
X104708390Y-65106927D01*
X104708395Y-65106927D01*
X104795339Y-65088446D01*
X104888739Y-65068593D01*
X104894770Y-65065908D01*
X105057173Y-64993602D01*
X105057175Y-64993601D01*
X105063203Y-64990917D01*
X105094479Y-64968194D01*
X105148614Y-64928862D01*
X105217704Y-64878665D01*
X105246772Y-64846382D01*
X105341072Y-64741651D01*
X105341073Y-64741650D01*
X105345491Y-64736743D01*
X105419211Y-64609056D01*
X105437674Y-64577078D01*
X105437675Y-64577077D01*
X105440978Y-64571355D01*
X105499993Y-64389727D01*
X105512431Y-64271391D01*
X105519265Y-64206364D01*
X105519955Y-64199799D01*
X105509524Y-64100556D01*
X105500683Y-64016434D01*
X105500683Y-64016432D01*
X105499993Y-64009871D01*
X105455270Y-63872229D01*
X105448391Y-63851056D01*
X105446364Y-63780088D01*
X105479129Y-63723025D01*
X105819249Y-63382905D01*
X105881561Y-63348879D01*
X105908344Y-63346000D01*
X105964237Y-63346000D01*
X105970689Y-63344628D01*
X105970694Y-63344628D01*
X106065489Y-63324478D01*
X106151038Y-63306294D01*
X106182586Y-63292248D01*
X106319472Y-63231303D01*
X106319474Y-63231302D01*
X106325502Y-63228618D01*
X106340585Y-63217660D01*
X106444422Y-63142217D01*
X106480003Y-63116366D01*
X106560083Y-63027428D01*
X106603371Y-62979352D01*
X106603372Y-62979351D01*
X106607790Y-62974444D01*
X106703277Y-62809056D01*
X106762292Y-62627428D01*
X106775964Y-62497351D01*
X106781564Y-62444065D01*
X106782254Y-62437500D01*
X106776029Y-62378271D01*
X106762982Y-62254135D01*
X106762982Y-62254133D01*
X106762292Y-62247572D01*
X106703277Y-62065944D01*
X106672710Y-62013000D01*
X111555246Y-62013000D01*
X111555936Y-62019565D01*
X111573909Y-62190564D01*
X111575208Y-62202928D01*
X111634223Y-62384556D01*
X111729710Y-62549944D01*
X111734128Y-62554851D01*
X111734129Y-62554852D01*
X111823524Y-62654135D01*
X111857497Y-62691866D01*
X112011998Y-62804118D01*
X112018026Y-62806802D01*
X112018028Y-62806803D01*
X112163184Y-62871430D01*
X112186462Y-62881794D01*
X112279862Y-62901647D01*
X112366806Y-62920128D01*
X112366811Y-62920128D01*
X112373263Y-62921500D01*
X112564237Y-62921500D01*
X112570689Y-62920128D01*
X112570694Y-62920128D01*
X112657638Y-62901647D01*
X112751038Y-62881794D01*
X112774316Y-62871430D01*
X112919472Y-62806803D01*
X112919474Y-62806802D01*
X112925502Y-62804118D01*
X113080003Y-62691866D01*
X113113976Y-62654135D01*
X113203371Y-62554852D01*
X113203372Y-62554851D01*
X113207790Y-62549944D01*
X113303277Y-62384556D01*
X113362292Y-62202928D01*
X113363592Y-62190564D01*
X113381564Y-62019565D01*
X113382254Y-62013000D01*
X114655246Y-62013000D01*
X114655936Y-62019565D01*
X114673909Y-62190564D01*
X114675208Y-62202928D01*
X114734223Y-62384556D01*
X114829710Y-62549944D01*
X114834128Y-62554851D01*
X114834129Y-62554852D01*
X114923524Y-62654135D01*
X114957497Y-62691866D01*
X115111998Y-62804118D01*
X115118026Y-62806802D01*
X115118028Y-62806803D01*
X115263184Y-62871430D01*
X115286462Y-62881794D01*
X115379862Y-62901647D01*
X115466806Y-62920128D01*
X115466811Y-62920128D01*
X115473263Y-62921500D01*
X115664237Y-62921500D01*
X115670689Y-62920128D01*
X115670694Y-62920128D01*
X115757638Y-62901647D01*
X115851038Y-62881794D01*
X115874316Y-62871430D01*
X116019472Y-62806803D01*
X116019474Y-62806802D01*
X116025502Y-62804118D01*
X116180003Y-62691866D01*
X116213976Y-62654135D01*
X116303371Y-62554852D01*
X116303372Y-62554851D01*
X116307790Y-62549944D01*
X116403277Y-62384556D01*
X116462292Y-62202928D01*
X116463592Y-62190564D01*
X116481564Y-62019565D01*
X116482254Y-62013000D01*
X116462292Y-61823072D01*
X116403277Y-61641444D01*
X116307790Y-61476056D01*
X116280891Y-61446181D01*
X116184425Y-61339045D01*
X116184424Y-61339044D01*
X116180003Y-61334134D01*
X116038469Y-61231303D01*
X116030844Y-61225763D01*
X116030843Y-61225762D01*
X116025502Y-61221882D01*
X116019474Y-61219198D01*
X116019472Y-61219197D01*
X115857069Y-61146891D01*
X115857068Y-61146891D01*
X115851038Y-61144206D01*
X115738330Y-61120249D01*
X115670694Y-61105872D01*
X115670689Y-61105872D01*
X115664237Y-61104500D01*
X115473263Y-61104500D01*
X115466811Y-61105872D01*
X115466806Y-61105872D01*
X115399170Y-61120249D01*
X115286462Y-61144206D01*
X115280432Y-61146891D01*
X115280431Y-61146891D01*
X115118028Y-61219197D01*
X115118026Y-61219198D01*
X115111998Y-61221882D01*
X115106657Y-61225762D01*
X115106656Y-61225763D01*
X115099031Y-61231303D01*
X114957497Y-61334134D01*
X114953076Y-61339044D01*
X114953075Y-61339045D01*
X114856610Y-61446181D01*
X114829710Y-61476056D01*
X114734223Y-61641444D01*
X114675208Y-61823072D01*
X114655246Y-62013000D01*
X113382254Y-62013000D01*
X113362292Y-61823072D01*
X113303277Y-61641444D01*
X113207790Y-61476056D01*
X113180891Y-61446181D01*
X113084425Y-61339045D01*
X113084424Y-61339044D01*
X113080003Y-61334134D01*
X112938469Y-61231303D01*
X112930844Y-61225763D01*
X112930843Y-61225762D01*
X112925502Y-61221882D01*
X112919474Y-61219198D01*
X112919472Y-61219197D01*
X112757069Y-61146891D01*
X112757068Y-61146891D01*
X112751038Y-61144206D01*
X112638330Y-61120249D01*
X112570694Y-61105872D01*
X112570689Y-61105872D01*
X112564237Y-61104500D01*
X112373263Y-61104500D01*
X112366811Y-61105872D01*
X112366806Y-61105872D01*
X112299170Y-61120249D01*
X112186462Y-61144206D01*
X112180432Y-61146891D01*
X112180431Y-61146891D01*
X112018028Y-61219197D01*
X112018026Y-61219198D01*
X112011998Y-61221882D01*
X112006657Y-61225762D01*
X112006656Y-61225763D01*
X111999031Y-61231303D01*
X111857497Y-61334134D01*
X111853076Y-61339044D01*
X111853075Y-61339045D01*
X111756610Y-61446181D01*
X111729710Y-61476056D01*
X111634223Y-61641444D01*
X111575208Y-61823072D01*
X111555246Y-62013000D01*
X106672710Y-62013000D01*
X106669361Y-62007199D01*
X106648687Y-61971391D01*
X106607790Y-61900556D01*
X106532371Y-61816794D01*
X106484425Y-61763545D01*
X106484424Y-61763544D01*
X106480003Y-61758634D01*
X106380907Y-61686636D01*
X106330844Y-61650263D01*
X106330843Y-61650262D01*
X106325502Y-61646382D01*
X106319474Y-61643698D01*
X106319472Y-61643697D01*
X106157069Y-61571391D01*
X106157068Y-61571391D01*
X106151038Y-61568706D01*
X106057637Y-61548853D01*
X105970694Y-61530372D01*
X105970689Y-61530372D01*
X105964237Y-61529000D01*
X105943617Y-61529000D01*
X105875496Y-61508998D01*
X105829003Y-61455342D01*
X105818899Y-61385068D01*
X105848393Y-61320488D01*
X105892368Y-61287893D01*
X106019472Y-61231303D01*
X106019474Y-61231302D01*
X106025502Y-61228618D01*
X106034774Y-61221882D01*
X106080907Y-61188364D01*
X106180003Y-61116366D01*
X106211574Y-61081303D01*
X106303371Y-60979352D01*
X106303372Y-60979351D01*
X106307790Y-60974444D01*
X106390433Y-60831303D01*
X106399973Y-60814779D01*
X106399974Y-60814778D01*
X106403277Y-60809056D01*
X106462292Y-60627428D01*
X106464796Y-60603609D01*
X106481564Y-60444065D01*
X106482254Y-60437500D01*
X106478067Y-60397659D01*
X106462982Y-60254135D01*
X106462982Y-60254133D01*
X106462292Y-60247572D01*
X106403277Y-60065944D01*
X106379493Y-60024748D01*
X106341321Y-59958634D01*
X106307790Y-59900556D01*
X106269040Y-59857519D01*
X106184425Y-59763545D01*
X106184424Y-59763544D01*
X106180003Y-59758634D01*
X106150915Y-59737500D01*
X114855246Y-59737500D01*
X114855936Y-59744065D01*
X114874455Y-59920260D01*
X114875208Y-59927428D01*
X114934223Y-60109056D01*
X114937526Y-60114778D01*
X114937527Y-60114779D01*
X114952147Y-60140101D01*
X115029710Y-60274444D01*
X115034128Y-60279351D01*
X115034129Y-60279352D01*
X115148428Y-60406294D01*
X115157497Y-60416366D01*
X115229797Y-60468895D01*
X115295135Y-60516366D01*
X115311998Y-60528618D01*
X115318026Y-60531302D01*
X115318028Y-60531303D01*
X115480431Y-60603609D01*
X115486462Y-60606294D01*
X115555013Y-60620865D01*
X115666806Y-60644628D01*
X115666811Y-60644628D01*
X115673263Y-60646000D01*
X115864237Y-60646000D01*
X115870689Y-60644628D01*
X115870694Y-60644628D01*
X115982487Y-60620865D01*
X116051038Y-60606294D01*
X116057069Y-60603609D01*
X116219472Y-60531303D01*
X116219474Y-60531302D01*
X116225502Y-60528618D01*
X116242366Y-60516366D01*
X116307703Y-60468895D01*
X116380003Y-60416366D01*
X116391490Y-60403609D01*
X116494013Y-60289745D01*
X116554459Y-60252505D01*
X116625443Y-60253857D01*
X116684427Y-60293370D01*
X116712959Y-60360885D01*
X116721761Y-60444628D01*
X116725208Y-60477428D01*
X116784223Y-60659056D01*
X116787526Y-60664778D01*
X116787527Y-60664779D01*
X116790827Y-60670495D01*
X116879710Y-60824444D01*
X116884128Y-60829351D01*
X116884129Y-60829352D01*
X116950990Y-60903609D01*
X117007497Y-60966366D01*
X117161998Y-61078618D01*
X117168026Y-61081302D01*
X117168028Y-61081303D01*
X117312512Y-61145631D01*
X117336462Y-61156294D01*
X117421851Y-61174444D01*
X117516806Y-61194628D01*
X117516811Y-61194628D01*
X117523263Y-61196000D01*
X117714237Y-61196000D01*
X117720689Y-61194628D01*
X117720694Y-61194628D01*
X117815649Y-61174444D01*
X117901038Y-61156294D01*
X117924988Y-61145631D01*
X118069472Y-61081303D01*
X118069474Y-61081302D01*
X118075502Y-61078618D01*
X118230003Y-60966366D01*
X118286510Y-60903609D01*
X118353371Y-60829352D01*
X118353372Y-60829351D01*
X118357790Y-60824444D01*
X118437932Y-60685634D01*
X126029000Y-60685634D01*
X126035755Y-60747816D01*
X126086885Y-60884205D01*
X126174239Y-61000761D01*
X126290795Y-61088115D01*
X126427184Y-61139245D01*
X126489366Y-61146000D01*
X130785634Y-61146000D01*
X130847816Y-61139245D01*
X130984205Y-61088115D01*
X131100761Y-61000761D01*
X131188115Y-60884205D01*
X131239245Y-60747816D01*
X131246000Y-60685634D01*
X131246000Y-59239366D01*
X131239245Y-59177184D01*
X131188115Y-59040795D01*
X131100761Y-58924239D01*
X130984205Y-58836885D01*
X130847816Y-58785755D01*
X130785634Y-58779000D01*
X126489366Y-58779000D01*
X126427184Y-58785755D01*
X126290795Y-58836885D01*
X126174239Y-58924239D01*
X126086885Y-59040795D01*
X126035755Y-59177184D01*
X126029000Y-59239366D01*
X126029000Y-60685634D01*
X118437932Y-60685634D01*
X118446673Y-60670495D01*
X118449973Y-60664779D01*
X118449974Y-60664778D01*
X118453277Y-60659056D01*
X118512292Y-60477428D01*
X118515740Y-60444628D01*
X118531564Y-60294065D01*
X118532254Y-60287500D01*
X118524611Y-60214779D01*
X118512982Y-60104135D01*
X118512982Y-60104133D01*
X118512292Y-60097572D01*
X118453277Y-59915944D01*
X118357790Y-59750556D01*
X118351946Y-59744065D01*
X118234425Y-59613545D01*
X118234424Y-59613544D01*
X118230003Y-59608634D01*
X118075502Y-59496382D01*
X118069474Y-59493698D01*
X118069472Y-59493697D01*
X117907069Y-59421391D01*
X117907068Y-59421391D01*
X117901038Y-59418706D01*
X117794060Y-59395967D01*
X117720694Y-59380372D01*
X117720689Y-59380372D01*
X117714237Y-59379000D01*
X117523263Y-59379000D01*
X117516811Y-59380372D01*
X117516806Y-59380372D01*
X117443440Y-59395967D01*
X117336462Y-59418706D01*
X117330432Y-59421391D01*
X117330431Y-59421391D01*
X117168028Y-59493697D01*
X117168026Y-59493698D01*
X117161998Y-59496382D01*
X117007497Y-59608634D01*
X117003076Y-59613544D01*
X117003075Y-59613545D01*
X116893487Y-59735255D01*
X116833041Y-59772495D01*
X116762057Y-59771143D01*
X116703073Y-59731630D01*
X116674541Y-59664115D01*
X116662982Y-59554135D01*
X116662982Y-59554133D01*
X116662292Y-59547572D01*
X116603277Y-59365944D01*
X116596574Y-59354333D01*
X116563035Y-59296243D01*
X116507790Y-59200556D01*
X116495193Y-59186565D01*
X116384425Y-59063545D01*
X116384424Y-59063544D01*
X116380003Y-59058634D01*
X116280907Y-58986636D01*
X116230844Y-58950263D01*
X116230843Y-58950262D01*
X116225502Y-58946382D01*
X116219474Y-58943698D01*
X116219472Y-58943697D01*
X116057069Y-58871391D01*
X116057068Y-58871391D01*
X116051038Y-58868706D01*
X115949480Y-58847119D01*
X115870694Y-58830372D01*
X115870689Y-58830372D01*
X115864237Y-58829000D01*
X115673263Y-58829000D01*
X115666811Y-58830372D01*
X115666806Y-58830372D01*
X115588020Y-58847119D01*
X115486462Y-58868706D01*
X115480432Y-58871391D01*
X115480431Y-58871391D01*
X115318028Y-58943697D01*
X115318026Y-58943698D01*
X115311998Y-58946382D01*
X115306657Y-58950262D01*
X115306656Y-58950263D01*
X115256593Y-58986636D01*
X115157497Y-59058634D01*
X115153076Y-59063544D01*
X115153075Y-59063545D01*
X115042308Y-59186565D01*
X115029710Y-59200556D01*
X114974465Y-59296243D01*
X114940927Y-59354333D01*
X114934223Y-59365944D01*
X114875208Y-59547572D01*
X114874518Y-59554133D01*
X114874518Y-59554135D01*
X114865105Y-59643697D01*
X114855246Y-59737500D01*
X106150915Y-59737500D01*
X106025502Y-59646382D01*
X106019474Y-59643698D01*
X106019472Y-59643697D01*
X105857069Y-59571391D01*
X105857068Y-59571391D01*
X105851038Y-59568706D01*
X105735112Y-59544065D01*
X105670694Y-59530372D01*
X105670689Y-59530372D01*
X105664237Y-59529000D01*
X105473263Y-59529000D01*
X105466811Y-59530372D01*
X105466806Y-59530372D01*
X105402388Y-59544065D01*
X105286462Y-59568706D01*
X105280432Y-59571391D01*
X105280431Y-59571391D01*
X105118028Y-59643697D01*
X105118026Y-59643698D01*
X105111998Y-59646382D01*
X104957497Y-59758634D01*
X104953076Y-59763544D01*
X104953075Y-59763545D01*
X104868461Y-59857519D01*
X104829710Y-59900556D01*
X104796179Y-59958634D01*
X104758008Y-60024748D01*
X104734223Y-60065944D01*
X104675208Y-60247572D01*
X104674518Y-60254133D01*
X104674518Y-60254135D01*
X104659433Y-60397659D01*
X104655246Y-60437500D01*
X104655936Y-60444065D01*
X104672705Y-60603609D01*
X104675208Y-60627428D01*
X104734223Y-60809056D01*
X104737526Y-60814778D01*
X104737527Y-60814779D01*
X104747067Y-60831303D01*
X104829710Y-60974444D01*
X104834128Y-60979351D01*
X104834129Y-60979352D01*
X104925926Y-61081303D01*
X104957497Y-61116366D01*
X105056593Y-61188364D01*
X105102727Y-61221882D01*
X105111998Y-61228618D01*
X105118026Y-61231302D01*
X105118028Y-61231303D01*
X105245132Y-61287893D01*
X105286462Y-61306294D01*
X105379862Y-61326147D01*
X105466806Y-61344628D01*
X105466811Y-61344628D01*
X105473263Y-61346000D01*
X105493883Y-61346000D01*
X105562004Y-61366002D01*
X105608497Y-61419658D01*
X105618601Y-61489932D01*
X105589107Y-61554512D01*
X105545132Y-61587107D01*
X105418028Y-61643697D01*
X105418026Y-61643698D01*
X105411998Y-61646382D01*
X105406657Y-61650262D01*
X105406656Y-61650263D01*
X105356593Y-61686636D01*
X105257497Y-61758634D01*
X105253076Y-61763544D01*
X105253075Y-61763545D01*
X105205130Y-61816794D01*
X105129710Y-61900556D01*
X105088813Y-61971391D01*
X105068140Y-62007199D01*
X105034223Y-62065944D01*
X104975208Y-62247572D01*
X104960416Y-62388315D01*
X104957843Y-62412792D01*
X104930830Y-62478449D01*
X104921628Y-62488717D01*
X104214198Y-63196147D01*
X104205912Y-63203687D01*
X104199433Y-63207799D01*
X104194008Y-63213576D01*
X104152808Y-63257450D01*
X104150053Y-63260292D01*
X104130316Y-63280029D01*
X104127836Y-63283226D01*
X104120133Y-63292246D01*
X104089865Y-63324478D01*
X104086046Y-63331424D01*
X104086044Y-63331427D01*
X104080103Y-63342233D01*
X104069252Y-63358752D01*
X104056837Y-63374758D01*
X104053692Y-63382027D01*
X104053689Y-63382031D01*
X104039277Y-63415336D01*
X104034060Y-63425986D01*
X104012756Y-63464739D01*
X104010785Y-63472414D01*
X104010785Y-63472415D01*
X104007718Y-63484361D01*
X104001313Y-63503068D01*
X104000280Y-63505455D01*
X103978280Y-63539722D01*
X103939014Y-63583332D01*
X103867411Y-63662855D01*
X103841539Y-63707666D01*
X103775799Y-63821532D01*
X103771924Y-63828243D01*
X103712909Y-64009871D01*
X103712219Y-64016432D01*
X103712219Y-64016434D01*
X103703378Y-64100556D01*
X103692947Y-64199799D01*
X102302250Y-64199799D01*
X102302250Y-61940024D01*
X102322252Y-61871903D01*
X102334608Y-61855721D01*
X102407790Y-61774444D01*
X102503277Y-61609056D01*
X102562292Y-61427428D01*
X102564071Y-61410508D01*
X102581564Y-61244065D01*
X102582254Y-61237500D01*
X102577748Y-61194628D01*
X102562982Y-61054135D01*
X102562982Y-61054133D01*
X102562292Y-61047572D01*
X102503277Y-60865944D01*
X102407790Y-60700556D01*
X102286885Y-60566278D01*
X102256170Y-60502273D01*
X102264934Y-60431819D01*
X102286887Y-60397659D01*
X102303371Y-60379352D01*
X102303372Y-60379351D01*
X102307790Y-60374444D01*
X102326549Y-60341952D01*
X102399973Y-60214779D01*
X102399974Y-60214778D01*
X102403277Y-60209056D01*
X102462292Y-60027428D01*
X102469523Y-59958634D01*
X102481564Y-59844065D01*
X102482254Y-59837500D01*
X102474481Y-59763545D01*
X102462982Y-59654135D01*
X102462982Y-59654133D01*
X102462292Y-59647572D01*
X102403277Y-59465944D01*
X102307790Y-59300556D01*
X102284833Y-59275059D01*
X102217750Y-59200556D01*
X102185869Y-59165149D01*
X102155152Y-59101142D01*
X102163916Y-59030688D01*
X102190410Y-58991744D01*
X104544654Y-56637500D01*
X105955246Y-56637500D01*
X105955936Y-56644065D01*
X105973879Y-56814779D01*
X105975208Y-56827428D01*
X106034223Y-57009056D01*
X106129710Y-57174444D01*
X106134128Y-57179351D01*
X106134129Y-57179352D01*
X106248428Y-57306294D01*
X106257497Y-57316366D01*
X106296396Y-57344628D01*
X106395135Y-57416366D01*
X106411998Y-57428618D01*
X106418026Y-57431302D01*
X106418028Y-57431303D01*
X106578549Y-57502771D01*
X106586462Y-57506294D01*
X106673229Y-57524737D01*
X106766806Y-57544628D01*
X106766811Y-57544628D01*
X106773263Y-57546000D01*
X106964237Y-57546000D01*
X106970689Y-57544628D01*
X106970694Y-57544628D01*
X107064271Y-57524737D01*
X107151038Y-57506294D01*
X107158951Y-57502771D01*
X107319472Y-57431303D01*
X107319474Y-57431302D01*
X107325502Y-57428618D01*
X107342366Y-57416366D01*
X107441104Y-57344628D01*
X107480003Y-57316366D01*
X107489072Y-57306294D01*
X107603371Y-57179352D01*
X107603372Y-57179351D01*
X107607790Y-57174444D01*
X107703277Y-57009056D01*
X107762292Y-56827428D01*
X107763622Y-56814779D01*
X107771744Y-56737500D01*
X114855246Y-56737500D01*
X114855936Y-56744065D01*
X114871429Y-56891469D01*
X114875208Y-56927428D01*
X114934223Y-57109056D01*
X114937526Y-57114778D01*
X114937527Y-57114779D01*
X114955553Y-57146000D01*
X115029710Y-57274444D01*
X115034128Y-57279351D01*
X115034129Y-57279352D01*
X115077417Y-57327428D01*
X115157497Y-57416366D01*
X115311998Y-57528618D01*
X115318026Y-57531302D01*
X115318028Y-57531303D01*
X115408068Y-57571391D01*
X115486462Y-57606294D01*
X115567099Y-57623434D01*
X115666806Y-57644628D01*
X115666811Y-57644628D01*
X115673263Y-57646000D01*
X115864237Y-57646000D01*
X115870689Y-57644628D01*
X115870694Y-57644628D01*
X115970401Y-57623434D01*
X116051038Y-57606294D01*
X116129432Y-57571391D01*
X116219472Y-57531303D01*
X116219474Y-57531302D01*
X116225502Y-57528618D01*
X116380003Y-57416366D01*
X116460083Y-57327428D01*
X116503371Y-57279352D01*
X116503372Y-57279351D01*
X116507790Y-57274444D01*
X116581947Y-57146000D01*
X116586855Y-57137500D01*
X117555246Y-57137500D01*
X117555936Y-57144065D01*
X117572705Y-57303609D01*
X117575208Y-57327428D01*
X117634223Y-57509056D01*
X117637526Y-57514778D01*
X117637527Y-57514779D01*
X117655553Y-57546000D01*
X117729710Y-57674444D01*
X117734128Y-57679351D01*
X117734129Y-57679352D01*
X117853075Y-57811455D01*
X117857497Y-57816366D01*
X118011998Y-57928618D01*
X118018026Y-57931302D01*
X118018028Y-57931303D01*
X118180431Y-58003609D01*
X118186462Y-58006294D01*
X118279863Y-58026147D01*
X118366806Y-58044628D01*
X118366811Y-58044628D01*
X118373263Y-58046000D01*
X118564237Y-58046000D01*
X118570689Y-58044628D01*
X118570694Y-58044628D01*
X118657637Y-58026147D01*
X118751038Y-58006294D01*
X118757069Y-58003609D01*
X118919472Y-57931303D01*
X118919474Y-57931302D01*
X118925502Y-57928618D01*
X119080003Y-57816366D01*
X119084425Y-57811455D01*
X119203371Y-57679352D01*
X119203372Y-57679351D01*
X119207790Y-57674444D01*
X119281947Y-57546000D01*
X119299973Y-57514779D01*
X119299974Y-57514778D01*
X119303277Y-57509056D01*
X119362292Y-57327428D01*
X119364796Y-57303609D01*
X119381564Y-57144065D01*
X119382254Y-57137500D01*
X119378604Y-57102771D01*
X119362982Y-56954135D01*
X119362982Y-56954133D01*
X119362292Y-56947572D01*
X119303277Y-56765944D01*
X119207790Y-56600556D01*
X119165993Y-56554135D01*
X119084425Y-56463545D01*
X119084424Y-56463544D01*
X119080003Y-56458634D01*
X118925502Y-56346382D01*
X118919474Y-56343698D01*
X118919472Y-56343697D01*
X118905553Y-56337500D01*
X120655246Y-56337500D01*
X120655936Y-56344065D01*
X120667978Y-56458634D01*
X120675208Y-56527428D01*
X120734223Y-56709056D01*
X120829710Y-56874444D01*
X120834128Y-56879351D01*
X120834129Y-56879352D01*
X120919750Y-56974444D01*
X120957497Y-57016366D01*
X121020607Y-57062218D01*
X121095135Y-57116366D01*
X121111998Y-57128618D01*
X121118026Y-57131302D01*
X121118028Y-57131303D01*
X121202082Y-57168726D01*
X121286462Y-57206294D01*
X121373229Y-57224737D01*
X121466806Y-57244628D01*
X121466811Y-57244628D01*
X121473263Y-57246000D01*
X121664237Y-57246000D01*
X121670689Y-57244628D01*
X121670694Y-57244628D01*
X121764271Y-57224737D01*
X121851038Y-57206294D01*
X121935418Y-57168726D01*
X122019472Y-57131303D01*
X122019474Y-57131302D01*
X122025502Y-57128618D01*
X122042366Y-57116366D01*
X122116893Y-57062218D01*
X122180003Y-57016366D01*
X122217750Y-56974444D01*
X122303371Y-56879352D01*
X122303372Y-56879351D01*
X122307790Y-56874444D01*
X122403277Y-56709056D01*
X122462292Y-56527428D01*
X122469523Y-56458634D01*
X122481564Y-56344065D01*
X122482254Y-56337500D01*
X124355246Y-56337500D01*
X124355936Y-56344065D01*
X124367978Y-56458634D01*
X124375208Y-56527428D01*
X124434223Y-56709056D01*
X124529710Y-56874444D01*
X124534128Y-56879351D01*
X124534129Y-56879352D01*
X124619750Y-56974444D01*
X124657497Y-57016366D01*
X124720607Y-57062218D01*
X124795135Y-57116366D01*
X124811998Y-57128618D01*
X124818026Y-57131302D01*
X124818028Y-57131303D01*
X124902082Y-57168726D01*
X124986462Y-57206294D01*
X125073229Y-57224737D01*
X125166806Y-57244628D01*
X125166811Y-57244628D01*
X125173263Y-57246000D01*
X125364237Y-57246000D01*
X125370689Y-57244628D01*
X125370694Y-57244628D01*
X125464271Y-57224737D01*
X125551038Y-57206294D01*
X125635418Y-57168726D01*
X125719472Y-57131303D01*
X125719474Y-57131302D01*
X125725502Y-57128618D01*
X125742366Y-57116366D01*
X125816893Y-57062218D01*
X125880003Y-57016366D01*
X125917750Y-56974444D01*
X126003371Y-56879352D01*
X126003372Y-56879351D01*
X126007790Y-56874444D01*
X126103277Y-56709056D01*
X126162292Y-56527428D01*
X126169523Y-56458634D01*
X126181564Y-56344065D01*
X126182254Y-56337500D01*
X127655246Y-56337500D01*
X127655936Y-56344065D01*
X127667978Y-56458634D01*
X127675208Y-56527428D01*
X127734223Y-56709056D01*
X127829710Y-56874444D01*
X127834128Y-56879351D01*
X127834129Y-56879352D01*
X127919750Y-56974444D01*
X127957497Y-57016366D01*
X128020607Y-57062218D01*
X128095135Y-57116366D01*
X128111998Y-57128618D01*
X128118026Y-57131302D01*
X128118028Y-57131303D01*
X128202082Y-57168726D01*
X128286462Y-57206294D01*
X128373229Y-57224737D01*
X128466806Y-57244628D01*
X128466811Y-57244628D01*
X128473263Y-57246000D01*
X128664237Y-57246000D01*
X128670689Y-57244628D01*
X128670694Y-57244628D01*
X128764271Y-57224737D01*
X128851038Y-57206294D01*
X128935418Y-57168726D01*
X129019472Y-57131303D01*
X129019474Y-57131302D01*
X129025502Y-57128618D01*
X129042366Y-57116366D01*
X129116893Y-57062218D01*
X129180003Y-57016366D01*
X129217750Y-56974444D01*
X129303371Y-56879352D01*
X129303372Y-56879351D01*
X129307790Y-56874444D01*
X129403277Y-56709056D01*
X129462292Y-56527428D01*
X129469523Y-56458634D01*
X129481564Y-56344065D01*
X129482254Y-56337500D01*
X129472434Y-56244065D01*
X129462982Y-56154135D01*
X129462982Y-56154133D01*
X129462292Y-56147572D01*
X129403277Y-55965944D01*
X129307790Y-55800556D01*
X129180003Y-55658634D01*
X129043092Y-55559162D01*
X129030844Y-55550263D01*
X129030843Y-55550262D01*
X129025502Y-55546382D01*
X129019474Y-55543698D01*
X129019472Y-55543697D01*
X128857069Y-55471391D01*
X128857068Y-55471391D01*
X128851038Y-55468706D01*
X128757638Y-55448853D01*
X128670694Y-55430372D01*
X128670689Y-55430372D01*
X128664237Y-55429000D01*
X128473263Y-55429000D01*
X128466811Y-55430372D01*
X128466806Y-55430372D01*
X128379862Y-55448853D01*
X128286462Y-55468706D01*
X128280432Y-55471391D01*
X128280431Y-55471391D01*
X128118028Y-55543697D01*
X128118026Y-55543698D01*
X128111998Y-55546382D01*
X128106657Y-55550262D01*
X128106656Y-55550263D01*
X128094408Y-55559162D01*
X127957497Y-55658634D01*
X127829710Y-55800556D01*
X127734223Y-55965944D01*
X127675208Y-56147572D01*
X127674518Y-56154133D01*
X127674518Y-56154135D01*
X127665066Y-56244065D01*
X127655246Y-56337500D01*
X126182254Y-56337500D01*
X126172434Y-56244065D01*
X126162982Y-56154135D01*
X126162982Y-56154133D01*
X126162292Y-56147572D01*
X126103277Y-55965944D01*
X126007790Y-55800556D01*
X125880003Y-55658634D01*
X125743092Y-55559162D01*
X125730844Y-55550263D01*
X125730843Y-55550262D01*
X125725502Y-55546382D01*
X125719474Y-55543698D01*
X125719472Y-55543697D01*
X125557069Y-55471391D01*
X125557068Y-55471391D01*
X125551038Y-55468706D01*
X125457638Y-55448853D01*
X125370694Y-55430372D01*
X125370689Y-55430372D01*
X125364237Y-55429000D01*
X125173263Y-55429000D01*
X125166811Y-55430372D01*
X125166806Y-55430372D01*
X125079862Y-55448853D01*
X124986462Y-55468706D01*
X124980432Y-55471391D01*
X124980431Y-55471391D01*
X124818028Y-55543697D01*
X124818026Y-55543698D01*
X124811998Y-55546382D01*
X124806657Y-55550262D01*
X124806656Y-55550263D01*
X124794408Y-55559162D01*
X124657497Y-55658634D01*
X124529710Y-55800556D01*
X124434223Y-55965944D01*
X124375208Y-56147572D01*
X124374518Y-56154133D01*
X124374518Y-56154135D01*
X124365066Y-56244065D01*
X124355246Y-56337500D01*
X122482254Y-56337500D01*
X122472434Y-56244065D01*
X122462982Y-56154135D01*
X122462982Y-56154133D01*
X122462292Y-56147572D01*
X122403277Y-55965944D01*
X122307790Y-55800556D01*
X122180003Y-55658634D01*
X122043092Y-55559162D01*
X122030844Y-55550263D01*
X122030843Y-55550262D01*
X122025502Y-55546382D01*
X122019474Y-55543698D01*
X122019472Y-55543697D01*
X121857069Y-55471391D01*
X121857068Y-55471391D01*
X121851038Y-55468706D01*
X121757638Y-55448853D01*
X121670694Y-55430372D01*
X121670689Y-55430372D01*
X121664237Y-55429000D01*
X121473263Y-55429000D01*
X121466811Y-55430372D01*
X121466806Y-55430372D01*
X121379862Y-55448853D01*
X121286462Y-55468706D01*
X121280432Y-55471391D01*
X121280431Y-55471391D01*
X121118028Y-55543697D01*
X121118026Y-55543698D01*
X121111998Y-55546382D01*
X121106657Y-55550262D01*
X121106656Y-55550263D01*
X121094408Y-55559162D01*
X120957497Y-55658634D01*
X120829710Y-55800556D01*
X120734223Y-55965944D01*
X120675208Y-56147572D01*
X120674518Y-56154133D01*
X120674518Y-56154135D01*
X120665066Y-56244065D01*
X120655246Y-56337500D01*
X118905553Y-56337500D01*
X118757069Y-56271391D01*
X118757068Y-56271391D01*
X118751038Y-56268706D01*
X118635112Y-56244065D01*
X118570694Y-56230372D01*
X118570689Y-56230372D01*
X118564237Y-56229000D01*
X118373263Y-56229000D01*
X118366811Y-56230372D01*
X118366806Y-56230372D01*
X118302388Y-56244065D01*
X118186462Y-56268706D01*
X118180432Y-56271391D01*
X118180431Y-56271391D01*
X118018028Y-56343697D01*
X118018026Y-56343698D01*
X118011998Y-56346382D01*
X117857497Y-56458634D01*
X117853076Y-56463544D01*
X117853075Y-56463545D01*
X117771508Y-56554135D01*
X117729710Y-56600556D01*
X117634223Y-56765944D01*
X117575208Y-56947572D01*
X117574518Y-56954133D01*
X117574518Y-56954135D01*
X117558896Y-57102771D01*
X117555246Y-57137500D01*
X116586855Y-57137500D01*
X116599973Y-57114779D01*
X116599974Y-57114778D01*
X116603277Y-57109056D01*
X116662292Y-56927428D01*
X116666072Y-56891469D01*
X116681564Y-56744065D01*
X116682254Y-56737500D01*
X116664356Y-56567212D01*
X116662982Y-56554135D01*
X116662982Y-56554133D01*
X116662292Y-56547572D01*
X116603277Y-56365944D01*
X116588913Y-56341064D01*
X116566064Y-56301490D01*
X116507790Y-56200556D01*
X116501369Y-56193424D01*
X116384425Y-56063545D01*
X116384424Y-56063544D01*
X116380003Y-56058634D01*
X116252427Y-55965944D01*
X116230844Y-55950263D01*
X116230843Y-55950262D01*
X116225502Y-55946382D01*
X116219474Y-55943698D01*
X116219472Y-55943697D01*
X116057069Y-55871391D01*
X116057068Y-55871391D01*
X116051038Y-55868706D01*
X115957638Y-55848853D01*
X115870694Y-55830372D01*
X115870689Y-55830372D01*
X115864237Y-55829000D01*
X115673263Y-55829000D01*
X115666811Y-55830372D01*
X115666806Y-55830372D01*
X115579862Y-55848853D01*
X115486462Y-55868706D01*
X115480432Y-55871391D01*
X115480431Y-55871391D01*
X115318028Y-55943697D01*
X115318026Y-55943698D01*
X115311998Y-55946382D01*
X115306657Y-55950262D01*
X115306656Y-55950263D01*
X115285073Y-55965944D01*
X115157497Y-56058634D01*
X115153076Y-56063544D01*
X115153075Y-56063545D01*
X115036132Y-56193424D01*
X115029710Y-56200556D01*
X114971436Y-56301490D01*
X114948588Y-56341064D01*
X114934223Y-56365944D01*
X114875208Y-56547572D01*
X114874518Y-56554133D01*
X114874518Y-56554135D01*
X114873144Y-56567212D01*
X114855246Y-56737500D01*
X107771744Y-56737500D01*
X107781564Y-56644065D01*
X107782254Y-56637500D01*
X107772802Y-56547572D01*
X107762982Y-56454135D01*
X107762982Y-56454133D01*
X107762292Y-56447572D01*
X107703277Y-56265944D01*
X107682740Y-56230372D01*
X107664243Y-56198335D01*
X107607790Y-56100556D01*
X107565993Y-56054135D01*
X107484425Y-55963545D01*
X107484424Y-55963544D01*
X107480003Y-55958634D01*
X107325502Y-55846382D01*
X107319474Y-55843698D01*
X107319472Y-55843697D01*
X107157069Y-55771391D01*
X107157068Y-55771391D01*
X107151038Y-55768706D01*
X107038871Y-55744864D01*
X106970694Y-55730372D01*
X106970689Y-55730372D01*
X106964237Y-55729000D01*
X106773263Y-55729000D01*
X106766811Y-55730372D01*
X106766806Y-55730372D01*
X106698629Y-55744864D01*
X106586462Y-55768706D01*
X106580432Y-55771391D01*
X106580431Y-55771391D01*
X106418028Y-55843697D01*
X106418026Y-55843698D01*
X106411998Y-55846382D01*
X106257497Y-55958634D01*
X106253076Y-55963544D01*
X106253075Y-55963545D01*
X106171508Y-56054135D01*
X106129710Y-56100556D01*
X106073257Y-56198335D01*
X106054761Y-56230372D01*
X106034223Y-56265944D01*
X105975208Y-56447572D01*
X105974518Y-56454133D01*
X105974518Y-56454135D01*
X105964698Y-56547572D01*
X105955246Y-56637500D01*
X104544654Y-56637500D01*
X105593299Y-55588855D01*
X105655611Y-55554829D01*
X105707512Y-55554479D01*
X105887347Y-55591067D01*
X105892522Y-55591257D01*
X105892524Y-55591257D01*
X106105423Y-55599064D01*
X106105427Y-55599064D01*
X106110587Y-55599253D01*
X106115707Y-55598597D01*
X106115709Y-55598597D01*
X106327038Y-55571525D01*
X106327039Y-55571525D01*
X106332166Y-55570868D01*
X106337116Y-55569383D01*
X106541179Y-55508161D01*
X106541184Y-55508159D01*
X106546134Y-55506674D01*
X106746744Y-55408396D01*
X106928610Y-55278673D01*
X106943373Y-55263962D01*
X107083185Y-55124637D01*
X107086846Y-55120989D01*
X107217203Y-54939577D01*
X107218526Y-54940528D01*
X107265395Y-54897357D01*
X107335330Y-54885125D01*
X107400776Y-54912644D01*
X107428625Y-54944494D01*
X107488737Y-55042588D01*
X107635000Y-55211438D01*
X107806876Y-55354132D01*
X107999750Y-55466838D01*
X108004575Y-55468680D01*
X108004576Y-55468681D01*
X108011673Y-55471391D01*
X108208442Y-55546530D01*
X108213510Y-55547561D01*
X108213513Y-55547562D01*
X108292073Y-55563545D01*
X108427347Y-55591067D01*
X108432522Y-55591257D01*
X108432524Y-55591257D01*
X108645423Y-55599064D01*
X108645427Y-55599064D01*
X108650587Y-55599253D01*
X108655707Y-55598597D01*
X108655709Y-55598597D01*
X108867038Y-55571525D01*
X108867039Y-55571525D01*
X108872166Y-55570868D01*
X108877116Y-55569383D01*
X109081179Y-55508161D01*
X109081184Y-55508159D01*
X109086134Y-55506674D01*
X109286744Y-55408396D01*
X109468610Y-55278673D01*
X109483373Y-55263962D01*
X109623185Y-55124637D01*
X109626846Y-55120989D01*
X109757203Y-54939577D01*
X109778070Y-54897357D01*
X109853886Y-54743953D01*
X109853887Y-54743951D01*
X109856180Y-54739311D01*
X109921120Y-54525569D01*
X109950279Y-54304090D01*
X109950361Y-54300740D01*
X109951824Y-54240865D01*
X109951824Y-54240861D01*
X109951906Y-54237500D01*
X109933602Y-54014861D01*
X109879181Y-53798202D01*
X109790104Y-53593340D01*
X109668764Y-53405777D01*
X109518420Y-53240551D01*
X109514369Y-53237352D01*
X109514365Y-53237348D01*
X109347164Y-53105300D01*
X109347160Y-53105298D01*
X109343109Y-53102098D01*
X109147539Y-52994138D01*
X109142670Y-52992414D01*
X109142666Y-52992412D01*
X108941837Y-52921295D01*
X108941833Y-52921294D01*
X108936962Y-52919569D01*
X108931869Y-52918662D01*
X108931866Y-52918661D01*
X108722123Y-52881300D01*
X108722117Y-52881299D01*
X108717034Y-52880394D01*
X108643202Y-52879492D01*
X108498831Y-52877728D01*
X108498829Y-52877728D01*
X108493661Y-52877665D01*
X108272841Y-52911455D01*
X108060506Y-52980857D01*
X108030193Y-52996637D01*
X107888427Y-53070436D01*
X107862357Y-53084007D01*
X107858224Y-53087110D01*
X107858221Y-53087112D01*
X107687850Y-53215030D01*
X107683715Y-53218135D01*
X107680143Y-53221873D01*
X107560528Y-53347043D01*
X107529379Y-53379638D01*
X107421951Y-53537121D01*
X107367043Y-53582121D01*
X107296518Y-53590292D01*
X107232771Y-53559038D01*
X107212074Y-53534554D01*
X107131572Y-53410117D01*
X107131570Y-53410114D01*
X107128764Y-53405777D01*
X106978420Y-53240551D01*
X106974369Y-53237352D01*
X106974365Y-53237348D01*
X106807164Y-53105300D01*
X106807160Y-53105298D01*
X106803109Y-53102098D01*
X106607539Y-52994138D01*
X106602670Y-52992414D01*
X106602666Y-52992412D01*
X106401837Y-52921295D01*
X106401833Y-52921294D01*
X106396962Y-52919569D01*
X106391869Y-52918662D01*
X106391866Y-52918661D01*
X106182123Y-52881300D01*
X106182117Y-52881299D01*
X106177034Y-52880394D01*
X106103202Y-52879492D01*
X105958831Y-52877728D01*
X105958829Y-52877728D01*
X105953661Y-52877665D01*
X105732841Y-52911455D01*
X105520506Y-52980857D01*
X105490193Y-52996637D01*
X105348427Y-53070436D01*
X105322357Y-53084007D01*
X105318224Y-53087110D01*
X105318221Y-53087112D01*
X105147850Y-53215030D01*
X105143715Y-53218135D01*
X105140143Y-53221873D01*
X105020528Y-53347043D01*
X104989379Y-53379638D01*
X104881951Y-53537121D01*
X104827043Y-53582121D01*
X104756518Y-53590292D01*
X104692771Y-53559038D01*
X104672074Y-53534554D01*
X104591572Y-53410117D01*
X104591570Y-53410114D01*
X104588764Y-53405777D01*
X104438420Y-53240551D01*
X104434369Y-53237352D01*
X104434365Y-53237348D01*
X104267164Y-53105300D01*
X104267160Y-53105298D01*
X104263109Y-53102098D01*
X104067539Y-52994138D01*
X104062670Y-52992414D01*
X104062666Y-52992412D01*
X103861837Y-52921295D01*
X103861833Y-52921294D01*
X103856962Y-52919569D01*
X103851869Y-52918662D01*
X103851866Y-52918661D01*
X103642123Y-52881300D01*
X103642117Y-52881299D01*
X103637034Y-52880394D01*
X103563202Y-52879492D01*
X103418831Y-52877728D01*
X103418829Y-52877728D01*
X103413661Y-52877665D01*
X103192841Y-52911455D01*
X102980506Y-52980857D01*
X102950193Y-52996637D01*
X102808427Y-53070436D01*
X102782357Y-53084007D01*
X102778224Y-53087110D01*
X102778221Y-53087112D01*
X102607850Y-53215030D01*
X102603715Y-53218135D01*
X102600143Y-53221873D01*
X102522648Y-53302966D01*
X102461124Y-53338395D01*
X102390212Y-53334938D01*
X102332426Y-53293692D01*
X102313573Y-53260144D01*
X102272074Y-53149446D01*
X102263536Y-53133851D01*
X102187035Y-53031776D01*
X102174474Y-53019215D01*
X102072399Y-52942714D01*
X102056804Y-52934176D01*
X101936356Y-52889022D01*
X101921101Y-52885395D01*
X101870236Y-52879869D01*
X101863422Y-52879500D01*
X101240865Y-52879500D01*
X101225626Y-52883975D01*
X101224421Y-52885365D01*
X101222750Y-52893048D01*
X101222750Y-55575405D01*
X101202748Y-55643526D01*
X101185845Y-55664500D01*
X98558239Y-58292106D01*
X98495927Y-58326132D01*
X98469144Y-58329011D01*
X98373263Y-58329011D01*
X98366811Y-58330383D01*
X98366806Y-58330383D01*
X98279862Y-58348864D01*
X98186462Y-58368717D01*
X98180432Y-58371402D01*
X98180431Y-58371402D01*
X98018028Y-58443708D01*
X98018026Y-58443709D01*
X98011998Y-58446393D01*
X98006657Y-58450273D01*
X98006656Y-58450274D01*
X97984234Y-58466565D01*
X97857497Y-58558645D01*
X97853076Y-58563555D01*
X97853075Y-58563556D01*
X97746674Y-58681727D01*
X97729710Y-58700567D01*
X97697343Y-58756628D01*
X97651007Y-58836885D01*
X97634223Y-58865955D01*
X97575208Y-59047583D01*
X97574518Y-59054144D01*
X97574518Y-59054146D01*
X97561240Y-59180485D01*
X97555246Y-59237511D01*
X77626531Y-59237511D01*
X77603277Y-59165944D01*
X77536625Y-59050499D01*
X77519887Y-58981505D01*
X77536625Y-58924500D01*
X77539883Y-58918858D01*
X77603277Y-58809056D01*
X77662292Y-58627428D01*
X77669930Y-58554762D01*
X77681564Y-58444065D01*
X77682254Y-58437500D01*
X77675025Y-58368717D01*
X77662982Y-58254135D01*
X77662982Y-58254133D01*
X77662292Y-58247572D01*
X77603277Y-58065944D01*
X77507790Y-57900556D01*
X77380003Y-57758634D01*
X77270881Y-57679352D01*
X77230844Y-57650263D01*
X77230843Y-57650262D01*
X77225502Y-57646382D01*
X77219474Y-57643698D01*
X77219472Y-57643697D01*
X77057069Y-57571391D01*
X77057068Y-57571391D01*
X77051038Y-57568706D01*
X76945368Y-57546245D01*
X76870694Y-57530372D01*
X76870689Y-57530372D01*
X76864237Y-57529000D01*
X76673263Y-57529000D01*
X76666811Y-57530372D01*
X76666806Y-57530372D01*
X76592132Y-57546245D01*
X76486462Y-57568706D01*
X76319998Y-57642820D01*
X76249632Y-57652254D01*
X76217503Y-57642820D01*
X76051038Y-57568706D01*
X76044580Y-57567333D01*
X76044573Y-57567331D01*
X76005814Y-57559092D01*
X75943341Y-57525363D01*
X75909020Y-57463214D01*
X75913749Y-57392375D01*
X75938376Y-57351536D01*
X76003371Y-57279352D01*
X76003372Y-57279351D01*
X76007790Y-57274444D01*
X76081947Y-57146000D01*
X76099973Y-57114779D01*
X76099974Y-57114778D01*
X76103277Y-57109056D01*
X76162292Y-56927428D01*
X76166072Y-56891469D01*
X76181564Y-56744065D01*
X76182254Y-56737500D01*
X76164356Y-56567212D01*
X76162982Y-56554135D01*
X76162982Y-56554133D01*
X76162292Y-56547572D01*
X76103277Y-56365944D01*
X76088913Y-56341064D01*
X76066064Y-56301490D01*
X76029120Y-56237500D01*
X76855246Y-56237500D01*
X76855936Y-56244065D01*
X76872603Y-56402639D01*
X76875208Y-56427428D01*
X76934223Y-56609056D01*
X77029710Y-56774444D01*
X77034128Y-56779351D01*
X77034129Y-56779352D01*
X77145431Y-56902965D01*
X77157497Y-56916366D01*
X77244192Y-56979354D01*
X77295135Y-57016366D01*
X77311998Y-57028618D01*
X77318026Y-57031302D01*
X77318028Y-57031303D01*
X77478549Y-57102771D01*
X77486462Y-57106294D01*
X77552115Y-57120249D01*
X77666806Y-57144628D01*
X77666811Y-57144628D01*
X77673263Y-57146000D01*
X77864237Y-57146000D01*
X77870689Y-57144628D01*
X77870694Y-57144628D01*
X77985385Y-57120249D01*
X78051038Y-57106294D01*
X78058951Y-57102771D01*
X78219472Y-57031303D01*
X78219474Y-57031302D01*
X78225502Y-57028618D01*
X78242366Y-57016366D01*
X78293308Y-56979354D01*
X78380003Y-56916366D01*
X78392069Y-56902965D01*
X78503371Y-56779352D01*
X78503372Y-56779351D01*
X78507790Y-56774444D01*
X78603277Y-56609056D01*
X78659019Y-56437500D01*
X87055246Y-56437500D01*
X87055936Y-56444065D01*
X87073879Y-56614779D01*
X87075208Y-56627428D01*
X87134223Y-56809056D01*
X87229710Y-56974444D01*
X87234128Y-56979351D01*
X87234129Y-56979352D01*
X87348428Y-57106294D01*
X87357497Y-57116366D01*
X87511998Y-57228618D01*
X87518026Y-57231302D01*
X87518028Y-57231303D01*
X87602082Y-57268726D01*
X87686462Y-57306294D01*
X87752115Y-57320249D01*
X87866806Y-57344628D01*
X87866811Y-57344628D01*
X87873263Y-57346000D01*
X88064237Y-57346000D01*
X88070689Y-57344628D01*
X88070694Y-57344628D01*
X88185385Y-57320249D01*
X88251038Y-57306294D01*
X88335418Y-57268726D01*
X88419472Y-57231303D01*
X88419474Y-57231302D01*
X88425502Y-57228618D01*
X88580003Y-57116366D01*
X88589072Y-57106294D01*
X88703371Y-56979352D01*
X88703372Y-56979351D01*
X88707790Y-56974444D01*
X88766769Y-56872290D01*
X89692131Y-56872290D01*
X89692821Y-56878855D01*
X89708562Y-57028618D01*
X89712093Y-57062218D01*
X89771108Y-57243846D01*
X89774411Y-57249568D01*
X89774412Y-57249569D01*
X89788774Y-57274444D01*
X89866595Y-57409234D01*
X89871013Y-57414141D01*
X89871014Y-57414142D01*
X89989960Y-57546245D01*
X89994382Y-57551156D01*
X90022233Y-57571391D01*
X90130791Y-57650263D01*
X90148883Y-57663408D01*
X90154911Y-57666092D01*
X90154913Y-57666093D01*
X90257542Y-57711786D01*
X90323347Y-57741084D01*
X90405165Y-57758475D01*
X90503691Y-57779418D01*
X90503696Y-57779418D01*
X90510148Y-57780790D01*
X90701122Y-57780790D01*
X90707574Y-57779418D01*
X90707579Y-57779418D01*
X90806105Y-57758475D01*
X90887923Y-57741084D01*
X90953728Y-57711786D01*
X91056357Y-57666093D01*
X91056359Y-57666092D01*
X91062387Y-57663408D01*
X91080480Y-57650263D01*
X91189037Y-57571391D01*
X91216888Y-57551156D01*
X91221310Y-57546245D01*
X91340256Y-57414142D01*
X91340257Y-57414141D01*
X91344675Y-57409234D01*
X91422496Y-57274444D01*
X91436858Y-57249569D01*
X91436859Y-57249568D01*
X91440162Y-57243846D01*
X91499177Y-57062218D01*
X91502709Y-57028618D01*
X91518449Y-56878855D01*
X91519139Y-56872290D01*
X91499177Y-56682362D01*
X91440162Y-56500734D01*
X91403654Y-56437500D01*
X95555246Y-56437500D01*
X95555936Y-56444065D01*
X95573879Y-56614779D01*
X95575208Y-56627428D01*
X95634223Y-56809056D01*
X95729710Y-56974444D01*
X95734128Y-56979351D01*
X95734129Y-56979352D01*
X95848428Y-57106294D01*
X95857497Y-57116366D01*
X96011998Y-57228618D01*
X96018026Y-57231302D01*
X96018028Y-57231303D01*
X96102082Y-57268726D01*
X96186462Y-57306294D01*
X96252115Y-57320249D01*
X96366806Y-57344628D01*
X96366811Y-57344628D01*
X96373263Y-57346000D01*
X96564237Y-57346000D01*
X96570689Y-57344628D01*
X96570694Y-57344628D01*
X96685385Y-57320249D01*
X96751038Y-57306294D01*
X96835418Y-57268726D01*
X96919472Y-57231303D01*
X96919474Y-57231302D01*
X96925502Y-57228618D01*
X97080003Y-57116366D01*
X97091490Y-57103609D01*
X97203369Y-56979354D01*
X97207790Y-56974444D01*
X97210066Y-56970502D01*
X97265687Y-56927615D01*
X97337593Y-56921784D01*
X97379346Y-56930659D01*
X97394408Y-56933860D01*
X97585382Y-56933860D01*
X97591834Y-56932488D01*
X97591839Y-56932488D01*
X97678782Y-56914007D01*
X97772183Y-56894154D01*
X97805429Y-56879352D01*
X97940617Y-56819163D01*
X97940619Y-56819162D01*
X97946647Y-56816478D01*
X97956863Y-56809056D01*
X98024078Y-56760221D01*
X98101148Y-56704226D01*
X98114925Y-56688925D01*
X98224516Y-56567212D01*
X98224517Y-56567211D01*
X98228935Y-56562304D01*
X98295176Y-56447572D01*
X98321118Y-56402639D01*
X98321119Y-56402638D01*
X98324422Y-56396916D01*
X98383437Y-56215288D01*
X98384385Y-56206274D01*
X98402709Y-56031925D01*
X98403399Y-56025360D01*
X98389766Y-55895648D01*
X98384127Y-55841995D01*
X98384127Y-55841993D01*
X98383437Y-55835432D01*
X98324422Y-55653804D01*
X98228935Y-55488416D01*
X98191088Y-55446382D01*
X98147905Y-55398423D01*
X98117187Y-55334416D01*
X98125952Y-55263962D01*
X98147904Y-55229803D01*
X98183876Y-55189852D01*
X98207790Y-55163293D01*
X98225759Y-55132169D01*
X99610751Y-55132169D01*
X99611121Y-55138990D01*
X99616645Y-55189852D01*
X99620271Y-55205104D01*
X99665426Y-55325554D01*
X99673964Y-55341149D01*
X99750465Y-55443224D01*
X99763026Y-55455785D01*
X99865101Y-55532286D01*
X99880696Y-55540824D01*
X100001144Y-55585978D01*
X100016399Y-55589605D01*
X100067264Y-55595131D01*
X100074078Y-55595500D01*
X100696635Y-55595500D01*
X100711874Y-55591025D01*
X100713079Y-55589635D01*
X100714750Y-55581952D01*
X100714750Y-54509615D01*
X100710275Y-54494376D01*
X100708885Y-54493171D01*
X100701202Y-54491500D01*
X99628866Y-54491500D01*
X99613627Y-54495975D01*
X99612422Y-54497365D01*
X99610751Y-54505048D01*
X99610751Y-55132169D01*
X98225759Y-55132169D01*
X98303277Y-54997905D01*
X98362292Y-54816277D01*
X98369894Y-54743953D01*
X98381564Y-54632914D01*
X98382254Y-54626349D01*
X98381564Y-54619784D01*
X98362982Y-54442984D01*
X98362982Y-54442982D01*
X98362292Y-54436421D01*
X98303277Y-54254793D01*
X98291357Y-54234146D01*
X98266064Y-54190339D01*
X98207790Y-54089405D01*
X98140671Y-54014861D01*
X98096122Y-53965385D01*
X99610750Y-53965385D01*
X99615225Y-53980624D01*
X99616615Y-53981829D01*
X99624298Y-53983500D01*
X100696635Y-53983500D01*
X100711874Y-53979025D01*
X100713079Y-53977635D01*
X100714750Y-53969952D01*
X100714750Y-52897616D01*
X100710275Y-52882377D01*
X100708885Y-52881172D01*
X100701202Y-52879501D01*
X100074081Y-52879501D01*
X100067260Y-52879871D01*
X100016398Y-52885395D01*
X100001146Y-52889021D01*
X99880696Y-52934176D01*
X99865101Y-52942714D01*
X99763026Y-53019215D01*
X99750465Y-53031776D01*
X99673964Y-53133851D01*
X99665426Y-53149446D01*
X99620272Y-53269894D01*
X99616645Y-53285149D01*
X99611119Y-53336014D01*
X99610750Y-53342828D01*
X99610750Y-53965385D01*
X98096122Y-53965385D01*
X98084425Y-53952394D01*
X98084424Y-53952393D01*
X98080003Y-53947483D01*
X97925502Y-53835231D01*
X97919474Y-53832547D01*
X97919472Y-53832546D01*
X97757069Y-53760240D01*
X97757068Y-53760240D01*
X97751038Y-53757555D01*
X97657638Y-53737702D01*
X97570694Y-53719221D01*
X97570689Y-53719221D01*
X97564237Y-53717849D01*
X97373263Y-53717849D01*
X97366811Y-53719221D01*
X97366806Y-53719221D01*
X97279863Y-53737702D01*
X97186462Y-53757555D01*
X97180432Y-53760240D01*
X97180431Y-53760240D01*
X97018028Y-53832546D01*
X97018026Y-53832547D01*
X97011998Y-53835231D01*
X96857497Y-53947483D01*
X96853076Y-53952393D01*
X96853075Y-53952394D01*
X96796830Y-54014861D01*
X96729710Y-54089405D01*
X96671436Y-54190339D01*
X96646144Y-54234146D01*
X96634223Y-54254793D01*
X96575208Y-54436421D01*
X96574518Y-54442982D01*
X96574518Y-54442984D01*
X96555936Y-54619784D01*
X96555246Y-54626349D01*
X96555936Y-54632914D01*
X96567607Y-54743953D01*
X96575208Y-54816277D01*
X96634223Y-54997905D01*
X96729710Y-55163293D01*
X96734125Y-55168196D01*
X96734129Y-55168201D01*
X96810740Y-55253286D01*
X96841458Y-55317293D01*
X96832693Y-55387747D01*
X96810742Y-55421904D01*
X96750855Y-55488416D01*
X96748579Y-55492358D01*
X96692958Y-55535245D01*
X96621052Y-55541076D01*
X96570696Y-55530373D01*
X96570697Y-55530373D01*
X96564237Y-55529000D01*
X96373263Y-55529000D01*
X96366811Y-55530372D01*
X96366806Y-55530372D01*
X96290791Y-55546530D01*
X96186462Y-55568706D01*
X96180432Y-55571391D01*
X96180431Y-55571391D01*
X96018028Y-55643697D01*
X96018026Y-55643698D01*
X96011998Y-55646382D01*
X96006657Y-55650262D01*
X96006656Y-55650263D01*
X95993132Y-55660089D01*
X95857497Y-55758634D01*
X95853076Y-55763544D01*
X95853075Y-55763545D01*
X95782439Y-55841995D01*
X95729710Y-55900556D01*
X95671436Y-56001490D01*
X95661445Y-56018795D01*
X95634223Y-56065944D01*
X95575208Y-56247572D01*
X95574518Y-56254133D01*
X95574518Y-56254135D01*
X95566446Y-56330935D01*
X95555246Y-56437500D01*
X91403654Y-56437500D01*
X91344675Y-56335346D01*
X91271553Y-56254135D01*
X91221310Y-56198335D01*
X91221309Y-56198334D01*
X91216888Y-56193424D01*
X91089067Y-56100556D01*
X91067729Y-56085053D01*
X91067728Y-56085052D01*
X91062387Y-56081172D01*
X91056359Y-56078488D01*
X91056357Y-56078487D01*
X90893954Y-56006181D01*
X90893953Y-56006181D01*
X90887923Y-56003496D01*
X90794523Y-55983643D01*
X90707579Y-55965162D01*
X90707574Y-55965162D01*
X90701122Y-55963790D01*
X90510148Y-55963790D01*
X90503696Y-55965162D01*
X90503691Y-55965162D01*
X90416747Y-55983643D01*
X90323347Y-56003496D01*
X90317317Y-56006181D01*
X90317316Y-56006181D01*
X90154913Y-56078487D01*
X90154911Y-56078488D01*
X90148883Y-56081172D01*
X90143542Y-56085052D01*
X90143541Y-56085053D01*
X90122203Y-56100556D01*
X89994382Y-56193424D01*
X89989961Y-56198334D01*
X89989960Y-56198335D01*
X89939718Y-56254135D01*
X89866595Y-56335346D01*
X89771108Y-56500734D01*
X89712093Y-56682362D01*
X89692131Y-56872290D01*
X88766769Y-56872290D01*
X88803277Y-56809056D01*
X88862292Y-56627428D01*
X88863622Y-56614779D01*
X88881564Y-56444065D01*
X88882254Y-56437500D01*
X88871054Y-56330935D01*
X88862982Y-56254135D01*
X88862982Y-56254133D01*
X88862292Y-56247572D01*
X88803277Y-56065944D01*
X88776056Y-56018795D01*
X88766064Y-56001490D01*
X88707790Y-55900556D01*
X88655062Y-55841995D01*
X88584425Y-55763545D01*
X88584424Y-55763544D01*
X88580003Y-55758634D01*
X88444368Y-55660089D01*
X88430844Y-55650263D01*
X88430843Y-55650262D01*
X88425502Y-55646382D01*
X88419474Y-55643698D01*
X88419472Y-55643697D01*
X88257069Y-55571391D01*
X88257068Y-55571391D01*
X88251038Y-55568706D01*
X88146709Y-55546530D01*
X88070694Y-55530372D01*
X88070689Y-55530372D01*
X88064237Y-55529000D01*
X87873263Y-55529000D01*
X87866811Y-55530372D01*
X87866806Y-55530372D01*
X87790791Y-55546530D01*
X87686462Y-55568706D01*
X87680432Y-55571391D01*
X87680431Y-55571391D01*
X87518028Y-55643697D01*
X87518026Y-55643698D01*
X87511998Y-55646382D01*
X87506657Y-55650262D01*
X87506656Y-55650263D01*
X87493132Y-55660089D01*
X87357497Y-55758634D01*
X87353076Y-55763544D01*
X87353075Y-55763545D01*
X87282439Y-55841995D01*
X87229710Y-55900556D01*
X87171436Y-56001490D01*
X87161445Y-56018795D01*
X87134223Y-56065944D01*
X87075208Y-56247572D01*
X87074518Y-56254133D01*
X87074518Y-56254135D01*
X87066446Y-56330935D01*
X87055246Y-56437500D01*
X78659019Y-56437500D01*
X78662292Y-56427428D01*
X78664898Y-56402639D01*
X78681564Y-56244065D01*
X78682254Y-56237500D01*
X78677855Y-56195648D01*
X78662982Y-56054135D01*
X78662982Y-56054133D01*
X78662292Y-56047572D01*
X78603277Y-55865944D01*
X78582740Y-55830372D01*
X78565525Y-55800556D01*
X78507790Y-55700556D01*
X78471354Y-55660089D01*
X78384425Y-55563545D01*
X78384424Y-55563544D01*
X78380003Y-55558634D01*
X78225502Y-55446382D01*
X78219474Y-55443698D01*
X78219472Y-55443697D01*
X78057069Y-55371391D01*
X78057068Y-55371391D01*
X78051038Y-55368706D01*
X77957638Y-55348853D01*
X77870694Y-55330372D01*
X77870689Y-55330372D01*
X77864237Y-55329000D01*
X77673263Y-55329000D01*
X77666811Y-55330372D01*
X77666806Y-55330372D01*
X77579862Y-55348853D01*
X77486462Y-55368706D01*
X77480432Y-55371391D01*
X77480431Y-55371391D01*
X77318028Y-55443697D01*
X77318026Y-55443698D01*
X77311998Y-55446382D01*
X77157497Y-55558634D01*
X77153076Y-55563544D01*
X77153075Y-55563545D01*
X77066147Y-55660089D01*
X77029710Y-55700556D01*
X76971975Y-55800556D01*
X76954761Y-55830372D01*
X76934223Y-55865944D01*
X76875208Y-56047572D01*
X76874518Y-56054133D01*
X76874518Y-56054135D01*
X76859645Y-56195648D01*
X76855246Y-56237500D01*
X76029120Y-56237500D01*
X76007790Y-56200556D01*
X76001369Y-56193424D01*
X75884425Y-56063545D01*
X75884424Y-56063544D01*
X75880003Y-56058634D01*
X75752427Y-55965944D01*
X75730844Y-55950263D01*
X75730843Y-55950262D01*
X75725502Y-55946382D01*
X75719474Y-55943698D01*
X75719472Y-55943697D01*
X75557069Y-55871391D01*
X75557068Y-55871391D01*
X75551038Y-55868706D01*
X75457638Y-55848853D01*
X75370694Y-55830372D01*
X75370689Y-55830372D01*
X75364237Y-55829000D01*
X75173263Y-55829000D01*
X75166811Y-55830372D01*
X75166806Y-55830372D01*
X75079862Y-55848853D01*
X74986462Y-55868706D01*
X74980432Y-55871391D01*
X74980431Y-55871391D01*
X74818028Y-55943697D01*
X74818026Y-55943698D01*
X74811998Y-55946382D01*
X74806657Y-55950262D01*
X74806656Y-55950263D01*
X74785073Y-55965944D01*
X74657497Y-56058634D01*
X74653076Y-56063544D01*
X74653075Y-56063545D01*
X74536132Y-56193424D01*
X74529710Y-56200556D01*
X74471436Y-56301490D01*
X74448588Y-56341064D01*
X74434223Y-56365944D01*
X74375208Y-56547572D01*
X74374518Y-56554133D01*
X74374518Y-56554135D01*
X74373144Y-56567212D01*
X74355246Y-56737500D01*
X74355936Y-56744065D01*
X74371429Y-56891469D01*
X74375208Y-56927428D01*
X74434223Y-57109056D01*
X74437526Y-57114778D01*
X74437527Y-57114779D01*
X74455553Y-57146000D01*
X74529710Y-57274444D01*
X74534128Y-57279351D01*
X74534129Y-57279352D01*
X74577417Y-57327428D01*
X74657497Y-57416366D01*
X74811998Y-57528618D01*
X74818026Y-57531302D01*
X74818028Y-57531303D01*
X74908068Y-57571391D01*
X74986462Y-57606294D01*
X74992920Y-57607667D01*
X74992927Y-57607669D01*
X75031686Y-57615908D01*
X75094159Y-57649637D01*
X75128480Y-57711786D01*
X75123751Y-57782625D01*
X75099124Y-57823464D01*
X75029710Y-57900556D01*
X74934223Y-58065944D01*
X74932182Y-58072226D01*
X74907923Y-58146886D01*
X74867849Y-58205491D01*
X74802452Y-58233128D01*
X74732495Y-58221021D01*
X74680190Y-58173014D01*
X74667216Y-58143523D01*
X74652581Y-58093796D01*
X74652580Y-58093794D01*
X74650840Y-58087881D01*
X74642658Y-58072229D01*
X74600530Y-57991647D01*
X74559210Y-57912610D01*
X74435282Y-57758475D01*
X74428977Y-57753184D01*
X74335138Y-57674444D01*
X74283776Y-57631346D01*
X74278378Y-57628379D01*
X74278373Y-57628375D01*
X74128531Y-57546000D01*
X74110463Y-57536067D01*
X74104596Y-57534206D01*
X74104594Y-57534205D01*
X73927814Y-57478127D01*
X73927813Y-57478127D01*
X73921944Y-57476265D01*
X73768023Y-57459000D01*
X72561481Y-57459000D01*
X72558425Y-57459300D01*
X72558418Y-57459300D01*
X72499910Y-57465037D01*
X72414417Y-57473420D01*
X72408516Y-57475202D01*
X72408514Y-57475202D01*
X72335197Y-57497338D01*
X72225081Y-57530584D01*
X72050454Y-57623434D01*
X71998149Y-57666093D01*
X71901963Y-57744540D01*
X71901960Y-57744543D01*
X71897188Y-57748435D01*
X71893261Y-57753182D01*
X71893259Y-57753184D01*
X71775049Y-57896075D01*
X71775047Y-57896079D01*
X71771120Y-57900825D01*
X71677052Y-58074799D01*
X71618568Y-58263732D01*
X71617924Y-58269857D01*
X71617924Y-58269858D01*
X71607252Y-58371402D01*
X71597895Y-58460425D01*
X71615820Y-58657388D01*
X71617558Y-58663294D01*
X71617559Y-58663298D01*
X71645027Y-58756628D01*
X71671660Y-58847119D01*
X71674513Y-58852577D01*
X71674515Y-58852581D01*
X71712114Y-58924500D01*
X71763290Y-59022390D01*
X71887218Y-59176525D01*
X71944078Y-59224236D01*
X71983404Y-59283346D01*
X71984530Y-59354333D01*
X71967298Y-59391580D01*
X71948863Y-59418706D01*
X71890973Y-59503888D01*
X71823720Y-59672034D01*
X71822606Y-59678762D01*
X71822605Y-59678766D01*
X71796327Y-59837500D01*
X71794142Y-59850698D01*
X71794499Y-59857515D01*
X71794499Y-59857519D01*
X71799401Y-59951039D01*
X71803620Y-60031547D01*
X71830547Y-60129303D01*
X71833521Y-60140101D01*
X71832327Y-60211087D01*
X71792945Y-60270159D01*
X71727877Y-60298562D01*
X71712045Y-60299561D01*
X71602702Y-60299561D01*
X71596250Y-60300933D01*
X71596245Y-60300933D01*
X71509301Y-60319414D01*
X71415901Y-60339267D01*
X71409871Y-60341952D01*
X71409870Y-60341952D01*
X71247467Y-60414258D01*
X71247465Y-60414259D01*
X71241437Y-60416943D01*
X71236096Y-60420823D01*
X71236095Y-60420824D01*
X71226503Y-60427793D01*
X71086936Y-60529195D01*
X71082515Y-60534105D01*
X71082514Y-60534106D01*
X70963791Y-60665962D01*
X70959149Y-60671117D01*
X70923510Y-60732846D01*
X70868216Y-60828618D01*
X70863662Y-60836505D01*
X70804647Y-61018133D01*
X70803957Y-61024694D01*
X70803957Y-61024696D01*
X70791396Y-61144206D01*
X70784685Y-61208061D01*
X70804647Y-61397989D01*
X70806546Y-61403833D01*
X70807722Y-61433734D01*
X70808764Y-61433734D01*
X70808764Y-61433739D01*
X70808113Y-61443668D01*
X70808212Y-61446181D01*
X70807688Y-61450165D01*
X70807687Y-61450165D01*
X70807686Y-61450176D01*
X70807686Y-61450184D01*
X70802436Y-61490064D01*
X70803514Y-61498252D01*
X70806608Y-61521754D01*
X70807686Y-61538200D01*
X70807686Y-62304005D01*
X70787684Y-62372126D01*
X70775322Y-62388315D01*
X70677146Y-62497351D01*
X70643948Y-62554852D01*
X70586627Y-62654135D01*
X70581659Y-62662739D01*
X70522644Y-62844367D01*
X70521954Y-62850928D01*
X70521954Y-62850930D01*
X70508457Y-62979352D01*
X70502682Y-63034295D01*
X67787682Y-63034295D01*
X67783255Y-59300909D01*
X67803176Y-59232765D01*
X67856777Y-59186209D01*
X67927039Y-59176021D01*
X67990244Y-59204237D01*
X68108724Y-59303654D01*
X68114122Y-59306621D01*
X68114127Y-59306625D01*
X68222030Y-59365944D01*
X68282037Y-59398933D01*
X68287904Y-59400794D01*
X68287906Y-59400795D01*
X68464686Y-59456873D01*
X68470556Y-59458735D01*
X68624477Y-59476000D01*
X69331019Y-59476000D01*
X69334075Y-59475700D01*
X69334082Y-59475700D01*
X69392590Y-59469963D01*
X69478083Y-59461580D01*
X69483984Y-59459798D01*
X69483986Y-59459798D01*
X69557303Y-59437662D01*
X69667419Y-59404416D01*
X69842046Y-59311566D01*
X69949123Y-59224236D01*
X69990537Y-59190460D01*
X69990540Y-59190457D01*
X69995312Y-59186565D01*
X70009194Y-59169785D01*
X70117451Y-59038925D01*
X70117453Y-59038921D01*
X70121380Y-59034175D01*
X70215448Y-58860201D01*
X70273932Y-58671268D01*
X70294605Y-58474575D01*
X70276680Y-58277612D01*
X70269771Y-58254135D01*
X70222580Y-58093794D01*
X70220840Y-58087881D01*
X70212658Y-58072229D01*
X70170530Y-57991647D01*
X70129210Y-57912610D01*
X70005282Y-57758475D01*
X69998977Y-57753184D01*
X69905138Y-57674444D01*
X69853776Y-57631346D01*
X69848378Y-57628379D01*
X69848373Y-57628375D01*
X69698531Y-57546000D01*
X69680463Y-57536067D01*
X69674596Y-57534206D01*
X69674594Y-57534205D01*
X69497814Y-57478127D01*
X69497813Y-57478127D01*
X69491944Y-57476265D01*
X69338023Y-57459000D01*
X68631481Y-57459000D01*
X68628425Y-57459300D01*
X68628418Y-57459300D01*
X68569910Y-57465037D01*
X68484417Y-57473420D01*
X68478516Y-57475202D01*
X68478514Y-57475202D01*
X68405197Y-57497338D01*
X68295081Y-57530584D01*
X68120454Y-57623434D01*
X68012124Y-57711786D01*
X67986915Y-57732346D01*
X67921483Y-57759900D01*
X67851542Y-57747705D01*
X67799297Y-57699632D01*
X67781279Y-57634852D01*
X67781272Y-57628375D01*
X67779441Y-56085053D01*
X67777313Y-54290527D01*
X67779059Y-54269475D01*
X67781519Y-54254851D01*
X67781519Y-54254845D01*
X67782326Y-54250052D01*
X67782479Y-54237500D01*
X67781790Y-54232686D01*
X67781789Y-54232677D01*
X67780619Y-54224506D01*
X67779577Y-54199041D01*
X67794956Y-53944788D01*
X67796790Y-53929683D01*
X67848274Y-53648737D01*
X67851915Y-53633964D01*
X67921668Y-53410117D01*
X67936891Y-53361264D01*
X67942279Y-53347056D01*
X68059509Y-53086579D01*
X68066579Y-53073109D01*
X68214341Y-52828675D01*
X68222985Y-52816152D01*
X68399137Y-52591309D01*
X68409226Y-52579920D01*
X68611191Y-52377952D01*
X68622580Y-52367863D01*
X68847416Y-52191712D01*
X68859937Y-52183068D01*
X69104374Y-52035297D01*
X69117847Y-52028226D01*
X69378307Y-51910999D01*
X69392533Y-51905604D01*
X69665218Y-51820627D01*
X69679991Y-51816985D01*
X69960944Y-51765495D01*
X69976048Y-51763661D01*
X70226432Y-51748511D01*
X70253424Y-51749781D01*
X70253594Y-51749807D01*
X70262483Y-51751191D01*
X70271384Y-51750027D01*
X70271389Y-51750027D01*
X70294127Y-51747053D01*
X70310430Y-51745989D01*
X129029355Y-51729840D01*
X129048771Y-51731340D01*
G37*
%TD.AperFunction*%
M02*
