%TF.GenerationSoftware,KiCad,Pcbnew,(6.0.4)*%
%TF.CreationDate,2022-11-28T15:49:36+01:00*%
%TF.ProjectId,STM32F103RF,53544d33-3246-4313-9033-52462e6b6963,1*%
%TF.SameCoordinates,Original*%
%TF.FileFunction,Copper,L2,Inr*%
%TF.FilePolarity,Positive*%
%FSLAX46Y46*%
G04 Gerber Fmt 4.6, Leading zero omitted, Abs format (unit mm)*
G04 Created by KiCad (PCBNEW (6.0.4)) date 2022-11-28 15:49:36*
%MOMM*%
%LPD*%
G01*
G04 APERTURE LIST*
%TA.AperFunction,ComponentPad*%
%ADD10R,1.700000X1.700000*%
%TD*%
%TA.AperFunction,ComponentPad*%
%ADD11O,1.700000X1.700000*%
%TD*%
%TA.AperFunction,ComponentPad*%
%ADD12O,1.600000X1.000000*%
%TD*%
%TA.AperFunction,ComponentPad*%
%ADD13O,2.100000X1.000000*%
%TD*%
%TA.AperFunction,ViaPad*%
%ADD14C,0.800000*%
%TD*%
G04 APERTURE END LIST*
D10*
X100968750Y-54237500D03*
D11*
X103508750Y-54237500D03*
X106048750Y-54237500D03*
X108588750Y-54237500D03*
D12*
X68981250Y-67107500D03*
D13*
X73161250Y-58467500D03*
D12*
X68981250Y-58467500D03*
D13*
X73161250Y-67107500D03*
D14*
X111868750Y-65137500D03*
X75268750Y-69237500D03*
X76968750Y-66037500D03*
X90605635Y-56872290D03*
X123006250Y-68000000D03*
X100868750Y-74337500D03*
X112468750Y-74237500D03*
X112168750Y-68537500D03*
X110993250Y-65937500D03*
X97268750Y-67937500D03*
X99648788Y-67892940D03*
X116268750Y-69537500D03*
X95968750Y-69937500D03*
X113968750Y-72437500D03*
X112468750Y-62013000D03*
X75768750Y-59537500D03*
X101618750Y-70187500D03*
X108568750Y-74337500D03*
X112881000Y-70325250D03*
X127168750Y-69737500D03*
X115568750Y-62013000D03*
X82568750Y-60637500D03*
X105568750Y-60437500D03*
X94768750Y-71737500D03*
X75268750Y-56737500D03*
X96368750Y-64237500D03*
X76968750Y-67037500D03*
X118468750Y-57137500D03*
X106568750Y-71337500D03*
X125268750Y-56337500D03*
X107868750Y-67737500D03*
X115768750Y-56737500D03*
X121768750Y-69737500D03*
X77768750Y-56237500D03*
X87968750Y-56437500D03*
X124468750Y-69737500D03*
X96468750Y-56437500D03*
X101568750Y-59837500D03*
X99668750Y-64637500D03*
X96368750Y-74337500D03*
X129968750Y-69737500D03*
X117618750Y-60287500D03*
X107868750Y-70037500D03*
X86718810Y-60287500D03*
X75968750Y-66037500D03*
X102768750Y-72437500D03*
X121568750Y-56337500D03*
X75768750Y-58437500D03*
X90268750Y-66737500D03*
X106868750Y-56637500D03*
X118768750Y-69737500D03*
X79268750Y-73737500D03*
X76768750Y-59537500D03*
X75968750Y-67037500D03*
X78568750Y-65637500D03*
X128568750Y-56337500D03*
X115768750Y-59737500D03*
X85268750Y-62837500D03*
X121531250Y-68000000D03*
X76768750Y-58437500D03*
X94668750Y-65837500D03*
X113668750Y-59637500D03*
X93268750Y-71762000D03*
X78268750Y-54237500D03*
X92368750Y-60137500D03*
X92368750Y-63437500D03*
X106768750Y-67337500D03*
X102768750Y-67537500D03*
X86589056Y-59184770D03*
X95068750Y-56937500D03*
X93168750Y-69737500D03*
X91268750Y-60137500D03*
X91268750Y-63437500D03*
X107568750Y-57537500D03*
X88768750Y-71037500D03*
X98568750Y-64637500D03*
X87468750Y-67437500D03*
X95819739Y-67837500D03*
X71698189Y-61208061D03*
X71416186Y-63034295D03*
X97489895Y-56025360D03*
X72115686Y-62190564D03*
X97468750Y-54626349D03*
X72096328Y-63766697D03*
X101668750Y-61237500D03*
X103668750Y-66537500D03*
X105868750Y-62437500D03*
X104606451Y-64199799D03*
X98468750Y-59237511D03*
X99468750Y-60037500D03*
%TA.AperFunction,Conductor*%
G36*
X129048771Y-51731340D02*
G01*
X129072385Y-51735017D01*
X129081288Y-51733853D01*
X129081289Y-51733853D01*
X129089580Y-51732769D01*
X129113525Y-51731936D01*
X129371370Y-51747539D01*
X129386473Y-51749373D01*
X129667421Y-51800864D01*
X129682194Y-51804506D01*
X129954876Y-51889482D01*
X129969102Y-51894877D01*
X130229564Y-52012105D01*
X130243036Y-52019176D01*
X130487462Y-52166939D01*
X130499984Y-52175582D01*
X130724829Y-52351737D01*
X130736217Y-52361827D01*
X130938173Y-52563783D01*
X130948263Y-52575171D01*
X131124418Y-52800016D01*
X131133061Y-52812538D01*
X131280824Y-53056964D01*
X131287895Y-53070436D01*
X131405123Y-53330898D01*
X131410518Y-53345124D01*
X131495494Y-53617806D01*
X131499136Y-53632579D01*
X131550627Y-53913527D01*
X131552461Y-53928630D01*
X131567627Y-54179242D01*
X131566366Y-54206039D01*
X131566364Y-54206193D01*
X131564983Y-54215063D01*
X131568554Y-54242365D01*
X131569110Y-54246618D01*
X131570174Y-54262958D01*
X131570179Y-57634852D01*
X131570196Y-70363545D01*
X131570198Y-72229323D01*
X131568697Y-72248711D01*
X131565007Y-72272405D01*
X131566171Y-72281309D01*
X131567255Y-72289601D01*
X131568088Y-72313545D01*
X131553590Y-72553118D01*
X131552484Y-72571387D01*
X131550649Y-72586492D01*
X131499155Y-72867441D01*
X131495514Y-72882212D01*
X131410538Y-73154893D01*
X131405144Y-73169116D01*
X131309981Y-73380554D01*
X131287914Y-73429582D01*
X131280846Y-73443049D01*
X131166917Y-73631506D01*
X131133076Y-73687484D01*
X131124437Y-73700000D01*
X130992548Y-73868342D01*
X130948280Y-73924846D01*
X130938190Y-73936234D01*
X130736234Y-74138190D01*
X130724846Y-74148280D01*
X130500000Y-74324437D01*
X130487489Y-74333073D01*
X130243049Y-74480846D01*
X130229587Y-74487911D01*
X129969116Y-74605144D01*
X129954893Y-74610538D01*
X129682212Y-74695514D01*
X129667441Y-74699155D01*
X129386491Y-74750649D01*
X129371392Y-74752483D01*
X129183115Y-74763877D01*
X129120775Y-74767650D01*
X129093965Y-74766389D01*
X129093824Y-74766387D01*
X129084957Y-74765007D01*
X129076058Y-74766171D01*
X129076055Y-74766171D01*
X129053747Y-74769089D01*
X129037272Y-74770153D01*
X70339636Y-74707732D01*
X70320389Y-74706232D01*
X70296351Y-74702489D01*
X70285927Y-74703852D01*
X70279158Y-74704737D01*
X70255212Y-74705571D01*
X69997370Y-74689971D01*
X69982266Y-74688137D01*
X69701326Y-74636650D01*
X69686553Y-74633009D01*
X69413863Y-74548033D01*
X69399636Y-74542637D01*
X69139180Y-74425413D01*
X69125708Y-74418342D01*
X68881279Y-74270577D01*
X68868757Y-74261933D01*
X68710814Y-74138190D01*
X68643930Y-74085789D01*
X68632542Y-74075701D01*
X68430578Y-73873733D01*
X68420488Y-73862344D01*
X68244341Y-73637505D01*
X68235698Y-73624983D01*
X68087938Y-73380554D01*
X68080867Y-73367081D01*
X67963646Y-73106621D01*
X67958251Y-73092395D01*
X67939125Y-73031018D01*
X67873279Y-72819702D01*
X67869640Y-72804936D01*
X67818158Y-72523996D01*
X67816324Y-72508892D01*
X67812210Y-72440866D01*
X67801152Y-72258043D01*
X67802369Y-72232192D01*
X67802380Y-72231332D01*
X67803761Y-72222459D01*
X67801299Y-72203625D01*
X67799585Y-72190517D01*
X67798521Y-72174329D01*
X67798521Y-72173754D01*
X67797173Y-71037500D01*
X87855246Y-71037500D01*
X87875208Y-71227428D01*
X87934223Y-71409056D01*
X88029710Y-71574444D01*
X88157497Y-71716366D01*
X88311998Y-71828618D01*
X88318026Y-71831302D01*
X88318028Y-71831303D01*
X88480431Y-71903609D01*
X88486462Y-71906294D01*
X88579863Y-71926147D01*
X88666806Y-71944628D01*
X88666811Y-71944628D01*
X88673263Y-71946000D01*
X88864237Y-71946000D01*
X88870689Y-71944628D01*
X88870694Y-71944628D01*
X88957637Y-71926147D01*
X89051038Y-71906294D01*
X89057069Y-71903609D01*
X89219472Y-71831303D01*
X89219474Y-71831302D01*
X89225502Y-71828618D01*
X89380003Y-71716366D01*
X89507790Y-71574444D01*
X89603277Y-71409056D01*
X89662292Y-71227428D01*
X89682254Y-71037500D01*
X89674970Y-70968197D01*
X89662982Y-70854135D01*
X89662982Y-70854133D01*
X89662292Y-70847572D01*
X89603277Y-70665944D01*
X89507790Y-70500556D01*
X89380003Y-70358634D01*
X89225502Y-70246382D01*
X89219474Y-70243698D01*
X89219472Y-70243697D01*
X89057069Y-70171391D01*
X89057068Y-70171391D01*
X89051038Y-70168706D01*
X88957637Y-70148853D01*
X88870694Y-70130372D01*
X88870689Y-70130372D01*
X88864237Y-70129000D01*
X88673263Y-70129000D01*
X88666811Y-70130372D01*
X88666806Y-70130372D01*
X88579863Y-70148853D01*
X88486462Y-70168706D01*
X88480432Y-70171391D01*
X88480431Y-70171391D01*
X88318028Y-70243697D01*
X88318026Y-70243698D01*
X88311998Y-70246382D01*
X88157497Y-70358634D01*
X88029710Y-70500556D01*
X87934223Y-70665944D01*
X87875208Y-70847572D01*
X87874518Y-70854133D01*
X87874518Y-70854135D01*
X87862530Y-70968197D01*
X87855246Y-71037500D01*
X67797173Y-71037500D01*
X67795631Y-69737500D01*
X92255246Y-69737500D01*
X92275208Y-69927428D01*
X92334223Y-70109056D01*
X92429710Y-70274444D01*
X92557497Y-70416366D01*
X92711998Y-70528618D01*
X92718026Y-70531302D01*
X92718028Y-70531303D01*
X92880431Y-70603609D01*
X92886462Y-70606294D01*
X92993341Y-70629012D01*
X93031537Y-70637131D01*
X93094011Y-70670860D01*
X93128332Y-70733009D01*
X93123604Y-70803848D01*
X93081328Y-70860886D01*
X93031537Y-70883625D01*
X92986462Y-70893206D01*
X92980432Y-70895891D01*
X92980431Y-70895891D01*
X92818028Y-70968197D01*
X92818026Y-70968198D01*
X92811998Y-70970882D01*
X92657497Y-71083134D01*
X92529710Y-71225056D01*
X92434223Y-71390444D01*
X92375208Y-71572072D01*
X92355246Y-71762000D01*
X92355936Y-71768565D01*
X92370130Y-71903609D01*
X92375208Y-71951928D01*
X92434223Y-72133556D01*
X92437526Y-72139278D01*
X92437527Y-72139279D01*
X92471436Y-72198010D01*
X92529710Y-72298944D01*
X92657497Y-72440866D01*
X92811998Y-72553118D01*
X92818026Y-72555802D01*
X92818028Y-72555803D01*
X92968994Y-72623017D01*
X92986462Y-72630794D01*
X93079863Y-72650647D01*
X93166806Y-72669128D01*
X93166811Y-72669128D01*
X93173263Y-72670500D01*
X93364237Y-72670500D01*
X93370689Y-72669128D01*
X93370694Y-72669128D01*
X93457637Y-72650647D01*
X93551038Y-72630794D01*
X93568506Y-72623017D01*
X93719472Y-72555803D01*
X93719474Y-72555802D01*
X93725502Y-72553118D01*
X93880003Y-72440866D01*
X94007790Y-72298944D01*
X94066064Y-72198010D01*
X94099973Y-72139279D01*
X94099974Y-72139278D01*
X94103277Y-72133556D01*
X94162292Y-71951928D01*
X94167371Y-71903609D01*
X94181564Y-71768565D01*
X94182254Y-71762000D01*
X94162292Y-71572072D01*
X94103277Y-71390444D01*
X94007790Y-71225056D01*
X93880003Y-71083134D01*
X93725502Y-70970882D01*
X93719474Y-70968198D01*
X93719472Y-70968197D01*
X93557069Y-70895891D01*
X93557068Y-70895891D01*
X93551038Y-70893206D01*
X93444159Y-70870488D01*
X93405963Y-70862369D01*
X93343489Y-70828640D01*
X93309168Y-70766491D01*
X93313896Y-70695652D01*
X93356172Y-70638614D01*
X93405963Y-70615875D01*
X93451038Y-70606294D01*
X93457069Y-70603609D01*
X93619472Y-70531303D01*
X93619474Y-70531302D01*
X93625502Y-70528618D01*
X93780003Y-70416366D01*
X93907790Y-70274444D01*
X94003277Y-70109056D01*
X94062292Y-69927428D01*
X94082254Y-69737500D01*
X94062292Y-69547572D01*
X94003277Y-69365944D01*
X93907790Y-69200556D01*
X93780003Y-69058634D01*
X93625502Y-68946382D01*
X93619474Y-68943698D01*
X93619472Y-68943697D01*
X93457069Y-68871391D01*
X93457068Y-68871391D01*
X93451038Y-68868706D01*
X93357638Y-68848853D01*
X93270694Y-68830372D01*
X93270689Y-68830372D01*
X93264237Y-68829000D01*
X93073263Y-68829000D01*
X93066811Y-68830372D01*
X93066806Y-68830372D01*
X92979862Y-68848853D01*
X92886462Y-68868706D01*
X92880432Y-68871391D01*
X92880431Y-68871391D01*
X92718028Y-68943697D01*
X92718026Y-68943698D01*
X92711998Y-68946382D01*
X92557497Y-69058634D01*
X92429710Y-69200556D01*
X92334223Y-69365944D01*
X92275208Y-69547572D01*
X92255246Y-69737500D01*
X67795631Y-69737500D01*
X67795001Y-69206274D01*
X67793511Y-67949514D01*
X67813432Y-67881370D01*
X67867033Y-67834814D01*
X67937295Y-67824626D01*
X68000499Y-67852842D01*
X68108724Y-67943654D01*
X68114122Y-67946621D01*
X68114127Y-67946625D01*
X68248051Y-68020249D01*
X68282037Y-68038933D01*
X68287904Y-68040794D01*
X68287906Y-68040795D01*
X68375956Y-68068726D01*
X68470556Y-68098735D01*
X68624477Y-68116000D01*
X69331019Y-68116000D01*
X69334075Y-68115700D01*
X69334082Y-68115700D01*
X69392590Y-68109963D01*
X69478083Y-68101580D01*
X69483984Y-68099798D01*
X69483986Y-68099798D01*
X69567962Y-68074444D01*
X69667419Y-68044416D01*
X69842046Y-67951566D01*
X69973855Y-67844065D01*
X69990537Y-67830460D01*
X69990540Y-67830457D01*
X69995312Y-67826565D01*
X70003618Y-67816525D01*
X70117451Y-67678925D01*
X70117453Y-67678921D01*
X70121380Y-67674175D01*
X70215448Y-67500201D01*
X70273932Y-67311268D01*
X70280627Y-67247572D01*
X70293961Y-67120704D01*
X70293961Y-67120702D01*
X70294605Y-67114575D01*
X70293317Y-67100425D01*
X71597895Y-67100425D01*
X71598454Y-67106565D01*
X71611884Y-67254135D01*
X71615820Y-67297388D01*
X71617558Y-67303294D01*
X71617559Y-67303298D01*
X71630590Y-67347572D01*
X71671660Y-67487119D01*
X71674513Y-67492577D01*
X71674515Y-67492581D01*
X71701431Y-67544065D01*
X71763290Y-67662390D01*
X71887218Y-67816525D01*
X71891942Y-67820489D01*
X71896872Y-67824626D01*
X72038724Y-67943654D01*
X72044122Y-67946621D01*
X72044127Y-67946625D01*
X72178051Y-68020249D01*
X72212037Y-68038933D01*
X72217904Y-68040794D01*
X72217906Y-68040795D01*
X72305956Y-68068726D01*
X72400556Y-68098735D01*
X72554477Y-68116000D01*
X73761019Y-68116000D01*
X73764075Y-68115700D01*
X73764082Y-68115700D01*
X73822590Y-68109963D01*
X73908083Y-68101580D01*
X73913984Y-68099798D01*
X73913986Y-68099798D01*
X73997962Y-68074444D01*
X74097419Y-68044416D01*
X74272046Y-67951566D01*
X74403855Y-67844065D01*
X74420537Y-67830460D01*
X74420540Y-67830457D01*
X74425312Y-67826565D01*
X74433618Y-67816525D01*
X74547451Y-67678925D01*
X74547453Y-67678921D01*
X74551380Y-67674175D01*
X74645448Y-67500201D01*
X74664857Y-67437500D01*
X86555246Y-67437500D01*
X86555936Y-67444065D01*
X86570799Y-67585474D01*
X86575208Y-67627428D01*
X86634223Y-67809056D01*
X86637526Y-67814778D01*
X86637527Y-67814779D01*
X86646855Y-67830935D01*
X86729710Y-67974444D01*
X86734128Y-67979351D01*
X86734129Y-67979352D01*
X86814602Y-68068726D01*
X86857497Y-68116366D01*
X86878056Y-68131303D01*
X86995135Y-68216366D01*
X87011998Y-68228618D01*
X87018026Y-68231302D01*
X87018028Y-68231303D01*
X87180431Y-68303609D01*
X87186462Y-68306294D01*
X87273229Y-68324737D01*
X87366806Y-68344628D01*
X87366811Y-68344628D01*
X87373263Y-68346000D01*
X87564237Y-68346000D01*
X87570689Y-68344628D01*
X87570694Y-68344628D01*
X87664271Y-68324737D01*
X87751038Y-68306294D01*
X87757069Y-68303609D01*
X87919472Y-68231303D01*
X87919474Y-68231302D01*
X87925502Y-68228618D01*
X87942366Y-68216366D01*
X88059444Y-68131303D01*
X88080003Y-68116366D01*
X88122898Y-68068726D01*
X88203371Y-67979352D01*
X88203372Y-67979351D01*
X88207790Y-67974444D01*
X88286855Y-67837500D01*
X94906235Y-67837500D01*
X94906925Y-67844065D01*
X94916976Y-67939691D01*
X94926197Y-68027428D01*
X94985212Y-68209056D01*
X94988515Y-68214778D01*
X94988516Y-68214779D01*
X95006542Y-68246000D01*
X95080699Y-68374444D01*
X95208486Y-68516366D01*
X95362987Y-68628618D01*
X95369015Y-68631302D01*
X95369017Y-68631303D01*
X95531420Y-68703609D01*
X95537451Y-68706294D01*
X95630852Y-68726147D01*
X95717795Y-68744628D01*
X95717800Y-68744628D01*
X95724252Y-68746000D01*
X95915226Y-68746000D01*
X95921678Y-68744628D01*
X95921683Y-68744628D01*
X96008626Y-68726147D01*
X96102027Y-68706294D01*
X96108058Y-68703609D01*
X96270461Y-68631303D01*
X96270463Y-68631302D01*
X96276491Y-68628618D01*
X96430992Y-68516366D01*
X96558779Y-68374444D01*
X96632936Y-68246000D01*
X96650962Y-68214779D01*
X96650963Y-68214778D01*
X96654266Y-68209056D01*
X96713281Y-68027428D01*
X96722503Y-67939691D01*
X96732553Y-67844065D01*
X96733243Y-67837500D01*
X96715507Y-67668754D01*
X96713971Y-67654135D01*
X96713971Y-67654133D01*
X96713281Y-67647572D01*
X96677516Y-67537500D01*
X101855246Y-67537500D01*
X101855936Y-67544065D01*
X101873879Y-67714779D01*
X101875208Y-67727428D01*
X101934223Y-67909056D01*
X101937526Y-67914778D01*
X101937527Y-67914779D01*
X101956517Y-67947670D01*
X102029710Y-68074444D01*
X102034128Y-68079351D01*
X102034129Y-68079352D01*
X102148428Y-68206294D01*
X102157497Y-68216366D01*
X102311998Y-68328618D01*
X102318026Y-68331302D01*
X102318028Y-68331303D01*
X102402082Y-68368726D01*
X102486462Y-68406294D01*
X102579862Y-68426147D01*
X102666806Y-68444628D01*
X102666811Y-68444628D01*
X102673263Y-68446000D01*
X102864237Y-68446000D01*
X102870689Y-68444628D01*
X102870694Y-68444628D01*
X102957638Y-68426147D01*
X103051038Y-68406294D01*
X103135418Y-68368726D01*
X103219472Y-68331303D01*
X103219474Y-68331302D01*
X103225502Y-68328618D01*
X103380003Y-68216366D01*
X103389072Y-68206294D01*
X103503371Y-68079352D01*
X103503372Y-68079351D01*
X103507790Y-68074444D01*
X103580983Y-67947670D01*
X103599973Y-67914779D01*
X103599974Y-67914778D01*
X103603277Y-67909056D01*
X103662292Y-67727428D01*
X103663622Y-67714779D01*
X103680648Y-67552777D01*
X103707661Y-67487120D01*
X103765882Y-67446490D01*
X103779757Y-67442701D01*
X103951038Y-67406294D01*
X104068190Y-67354135D01*
X104105553Y-67337500D01*
X105855246Y-67337500D01*
X105855936Y-67344065D01*
X105871728Y-67494314D01*
X105875208Y-67527428D01*
X105934223Y-67709056D01*
X106029710Y-67874444D01*
X106034128Y-67879351D01*
X106034129Y-67879352D01*
X106092027Y-67943654D01*
X106157497Y-68016366D01*
X106256593Y-68088364D01*
X106295135Y-68116366D01*
X106311998Y-68128618D01*
X106318026Y-68131302D01*
X106318028Y-68131303D01*
X106478549Y-68202771D01*
X106486462Y-68206294D01*
X106552115Y-68220249D01*
X106666806Y-68244628D01*
X106666811Y-68244628D01*
X106673263Y-68246000D01*
X106864237Y-68246000D01*
X106870689Y-68244628D01*
X106870694Y-68244628D01*
X106985385Y-68220249D01*
X107051038Y-68206294D01*
X107058951Y-68202771D01*
X107219472Y-68131303D01*
X107219474Y-68131302D01*
X107225502Y-68128618D01*
X107242366Y-68116366D01*
X107280907Y-68088364D01*
X107380003Y-68016366D01*
X107445473Y-67943654D01*
X107503371Y-67879352D01*
X107503372Y-67879351D01*
X107507790Y-67874444D01*
X107603277Y-67709056D01*
X107662292Y-67527428D01*
X107665773Y-67494314D01*
X107681564Y-67344065D01*
X107682254Y-67337500D01*
X107672802Y-67247572D01*
X107662982Y-67154135D01*
X107662982Y-67154133D01*
X107662292Y-67147572D01*
X107603277Y-66965944D01*
X107582740Y-66930372D01*
X107563961Y-66897847D01*
X107507790Y-66800556D01*
X107391490Y-66671391D01*
X107384425Y-66663545D01*
X107384424Y-66663544D01*
X107380003Y-66658634D01*
X107254340Y-66567334D01*
X107230844Y-66550263D01*
X107230843Y-66550262D01*
X107225502Y-66546382D01*
X107219474Y-66543698D01*
X107219472Y-66543697D01*
X107057069Y-66471391D01*
X107057068Y-66471391D01*
X107051038Y-66468706D01*
X106957637Y-66448853D01*
X106870694Y-66430372D01*
X106870689Y-66430372D01*
X106864237Y-66429000D01*
X106673263Y-66429000D01*
X106666811Y-66430372D01*
X106666806Y-66430372D01*
X106579863Y-66448853D01*
X106486462Y-66468706D01*
X106480432Y-66471391D01*
X106480431Y-66471391D01*
X106318028Y-66543697D01*
X106318026Y-66543698D01*
X106311998Y-66546382D01*
X106306657Y-66550262D01*
X106306656Y-66550263D01*
X106283160Y-66567334D01*
X106157497Y-66658634D01*
X106153076Y-66663544D01*
X106153075Y-66663545D01*
X106146011Y-66671391D01*
X106029710Y-66800556D01*
X105973539Y-66897847D01*
X105954761Y-66930372D01*
X105934223Y-66965944D01*
X105875208Y-67147572D01*
X105874518Y-67154133D01*
X105874518Y-67154135D01*
X105864698Y-67247572D01*
X105855246Y-67337500D01*
X104105553Y-67337500D01*
X104119472Y-67331303D01*
X104119474Y-67331302D01*
X104125502Y-67328618D01*
X104280003Y-67216366D01*
X104347598Y-67141294D01*
X104403371Y-67079352D01*
X104403372Y-67079351D01*
X104407790Y-67074444D01*
X104503277Y-66909056D01*
X104562292Y-66727428D01*
X104563620Y-66714799D01*
X104581564Y-66544065D01*
X104582254Y-66537500D01*
X104567642Y-66398475D01*
X104562982Y-66354135D01*
X104562982Y-66354133D01*
X104562292Y-66347572D01*
X104503277Y-66165944D01*
X104407790Y-66000556D01*
X104366833Y-65955068D01*
X104284425Y-65863545D01*
X104284424Y-65863544D01*
X104280003Y-65858634D01*
X104125502Y-65746382D01*
X104119474Y-65743698D01*
X104119472Y-65743697D01*
X103957069Y-65671391D01*
X103957068Y-65671391D01*
X103951038Y-65668706D01*
X103851611Y-65647572D01*
X103770694Y-65630372D01*
X103770689Y-65630372D01*
X103764237Y-65629000D01*
X103573263Y-65629000D01*
X103566811Y-65630372D01*
X103566806Y-65630372D01*
X103485889Y-65647572D01*
X103386462Y-65668706D01*
X103380432Y-65671391D01*
X103380431Y-65671391D01*
X103218028Y-65743697D01*
X103218026Y-65743698D01*
X103211998Y-65746382D01*
X103057497Y-65858634D01*
X103053076Y-65863544D01*
X103053075Y-65863545D01*
X102970668Y-65955068D01*
X102929710Y-66000556D01*
X102834223Y-66165944D01*
X102775208Y-66347572D01*
X102774518Y-66354133D01*
X102774518Y-66354135D01*
X102769858Y-66398475D01*
X102757468Y-66516366D01*
X102756852Y-66522223D01*
X102729839Y-66587880D01*
X102671618Y-66628510D01*
X102657743Y-66632299D01*
X102486462Y-66668706D01*
X102480432Y-66671391D01*
X102480431Y-66671391D01*
X102318028Y-66743697D01*
X102318026Y-66743698D01*
X102311998Y-66746382D01*
X102306657Y-66750262D01*
X102306656Y-66750263D01*
X102288375Y-66763545D01*
X102157497Y-66858634D01*
X102153076Y-66863544D01*
X102153075Y-66863545D01*
X102116891Y-66903732D01*
X102029710Y-67000556D01*
X101934223Y-67165944D01*
X101875208Y-67347572D01*
X101855246Y-67537500D01*
X96677516Y-67537500D01*
X96654266Y-67465944D01*
X96558779Y-67300556D01*
X96516982Y-67254135D01*
X96435414Y-67163545D01*
X96435413Y-67163544D01*
X96430992Y-67158634D01*
X96276491Y-67046382D01*
X96270463Y-67043698D01*
X96270461Y-67043697D01*
X96108058Y-66971391D01*
X96108057Y-66971391D01*
X96102027Y-66968706D01*
X96008627Y-66948853D01*
X95921683Y-66930372D01*
X95921678Y-66930372D01*
X95915226Y-66929000D01*
X95724252Y-66929000D01*
X95717800Y-66930372D01*
X95717795Y-66930372D01*
X95630851Y-66948853D01*
X95537451Y-66968706D01*
X95531421Y-66971391D01*
X95531420Y-66971391D01*
X95369017Y-67043697D01*
X95369015Y-67043698D01*
X95362987Y-67046382D01*
X95208486Y-67158634D01*
X95204065Y-67163544D01*
X95204064Y-67163545D01*
X95122497Y-67254135D01*
X95080699Y-67300556D01*
X94985212Y-67465944D01*
X94926197Y-67647572D01*
X94925507Y-67654133D01*
X94925507Y-67654135D01*
X94923971Y-67668754D01*
X94906235Y-67837500D01*
X88286855Y-67837500D01*
X88290645Y-67830935D01*
X88299973Y-67814779D01*
X88299974Y-67814778D01*
X88303277Y-67809056D01*
X88362292Y-67627428D01*
X88366702Y-67585474D01*
X88381564Y-67444065D01*
X88382254Y-67437500D01*
X88372434Y-67344065D01*
X88362982Y-67254135D01*
X88362982Y-67254133D01*
X88362292Y-67247572D01*
X88303277Y-67065944D01*
X88207790Y-66900556D01*
X88080003Y-66758634D01*
X87949125Y-66663545D01*
X87930844Y-66650263D01*
X87930843Y-66650262D01*
X87925502Y-66646382D01*
X87919474Y-66643698D01*
X87919472Y-66643697D01*
X87757069Y-66571391D01*
X87757068Y-66571391D01*
X87751038Y-66568706D01*
X87652712Y-66547806D01*
X87570694Y-66530372D01*
X87570689Y-66530372D01*
X87564237Y-66529000D01*
X87373263Y-66529000D01*
X87366811Y-66530372D01*
X87366806Y-66530372D01*
X87284788Y-66547806D01*
X87186462Y-66568706D01*
X87180432Y-66571391D01*
X87180431Y-66571391D01*
X87018028Y-66643697D01*
X87018026Y-66643698D01*
X87011998Y-66646382D01*
X87006657Y-66650262D01*
X87006656Y-66650263D01*
X86988375Y-66663545D01*
X86857497Y-66758634D01*
X86729710Y-66900556D01*
X86634223Y-67065944D01*
X86575208Y-67247572D01*
X86574518Y-67254133D01*
X86574518Y-67254135D01*
X86565066Y-67344065D01*
X86555246Y-67437500D01*
X74664857Y-67437500D01*
X74703932Y-67311268D01*
X74710627Y-67247572D01*
X74723961Y-67120704D01*
X74723961Y-67120702D01*
X74724605Y-67114575D01*
X74714749Y-67006274D01*
X74707239Y-66923751D01*
X74707238Y-66923748D01*
X74706680Y-66917612D01*
X74701661Y-66900556D01*
X74656285Y-66746382D01*
X74650840Y-66727881D01*
X74647173Y-66720865D01*
X74577649Y-66587880D01*
X74559210Y-66552610D01*
X74435282Y-66398475D01*
X74428977Y-66393184D01*
X74374618Y-66347572D01*
X74283776Y-66271346D01*
X74278378Y-66268379D01*
X74278373Y-66268375D01*
X74115858Y-66179033D01*
X74115859Y-66179033D01*
X74110463Y-66176067D01*
X74104596Y-66174206D01*
X74104594Y-66174205D01*
X73927814Y-66118127D01*
X73927813Y-66118127D01*
X73921944Y-66116265D01*
X73768023Y-66099000D01*
X73546473Y-66099000D01*
X73478352Y-66078998D01*
X73431859Y-66025342D01*
X73421755Y-65955068D01*
X73429484Y-65926208D01*
X73436245Y-65909303D01*
X73438780Y-65902966D01*
X73439894Y-65896238D01*
X73439895Y-65896234D01*
X73449618Y-65837500D01*
X93755246Y-65837500D01*
X93755936Y-65844065D01*
X93772985Y-66006274D01*
X93775208Y-66027428D01*
X93834223Y-66209056D01*
X93929710Y-66374444D01*
X93934128Y-66379351D01*
X93934129Y-66379352D01*
X93955675Y-66403281D01*
X94057497Y-66516366D01*
X94211998Y-66628618D01*
X94218026Y-66631302D01*
X94218028Y-66631303D01*
X94308068Y-66671391D01*
X94386462Y-66706294D01*
X94454171Y-66720686D01*
X94566806Y-66744628D01*
X94566811Y-66744628D01*
X94573263Y-66746000D01*
X94764237Y-66746000D01*
X94770689Y-66744628D01*
X94770694Y-66744628D01*
X94883329Y-66720686D01*
X94951038Y-66706294D01*
X95029432Y-66671391D01*
X95119472Y-66631303D01*
X95119474Y-66631302D01*
X95125502Y-66628618D01*
X95280003Y-66516366D01*
X95381825Y-66403281D01*
X95403371Y-66379352D01*
X95403372Y-66379351D01*
X95407790Y-66374444D01*
X95503277Y-66209056D01*
X95562292Y-66027428D01*
X95564516Y-66006274D01*
X95581564Y-65844065D01*
X95582254Y-65837500D01*
X95569640Y-65717481D01*
X95562982Y-65654135D01*
X95562982Y-65654133D01*
X95562292Y-65647572D01*
X95503277Y-65465944D01*
X95491588Y-65445697D01*
X95416918Y-65316366D01*
X95407790Y-65300556D01*
X95330490Y-65214705D01*
X95284425Y-65163545D01*
X95284424Y-65163544D01*
X95280003Y-65158634D01*
X95125502Y-65046382D01*
X95119474Y-65043698D01*
X95119472Y-65043697D01*
X94957069Y-64971391D01*
X94957068Y-64971391D01*
X94951038Y-64968706D01*
X94857638Y-64948853D01*
X94770694Y-64930372D01*
X94770689Y-64930372D01*
X94764237Y-64929000D01*
X94573263Y-64929000D01*
X94566811Y-64930372D01*
X94566806Y-64930372D01*
X94479862Y-64948853D01*
X94386462Y-64968706D01*
X94380432Y-64971391D01*
X94380431Y-64971391D01*
X94218028Y-65043697D01*
X94218026Y-65043698D01*
X94211998Y-65046382D01*
X94057497Y-65158634D01*
X94053076Y-65163544D01*
X94053075Y-65163545D01*
X94007011Y-65214705D01*
X93929710Y-65300556D01*
X93920582Y-65316366D01*
X93845913Y-65445697D01*
X93834223Y-65465944D01*
X93775208Y-65647572D01*
X93774518Y-65654133D01*
X93774518Y-65654135D01*
X93767860Y-65717481D01*
X93755246Y-65837500D01*
X73449618Y-65837500D01*
X73467243Y-65731039D01*
X73467243Y-65731036D01*
X73468358Y-65724302D01*
X73465445Y-65668706D01*
X73459237Y-65550266D01*
X73458880Y-65543453D01*
X73435554Y-65458766D01*
X73412602Y-65375441D01*
X73410789Y-65368859D01*
X73326328Y-65208664D01*
X73321923Y-65203451D01*
X73321920Y-65203447D01*
X73213844Y-65075557D01*
X73213840Y-65075553D01*
X73209437Y-65070343D01*
X73204012Y-65066195D01*
X73070993Y-64964494D01*
X73070989Y-64964491D01*
X73065572Y-64960350D01*
X72953369Y-64908029D01*
X72907619Y-64886695D01*
X72907616Y-64886694D01*
X72901442Y-64883815D01*
X72894794Y-64882329D01*
X72894791Y-64882328D01*
X72767434Y-64853861D01*
X72724707Y-64844310D01*
X72719162Y-64844000D01*
X72586006Y-64844000D01*
X72582609Y-64844369D01*
X72492129Y-64854198D01*
X72422246Y-64841670D01*
X72384191Y-64806318D01*
X72374577Y-64849521D01*
X72324136Y-64899484D01*
X72304468Y-64908028D01*
X72279575Y-64916406D01*
X72124345Y-65009677D01*
X72119388Y-65014365D01*
X72119385Y-65014367D01*
X72020056Y-65108299D01*
X71992765Y-65134107D01*
X71988933Y-65139745D01*
X71988930Y-65139749D01*
X71937990Y-65214705D01*
X71890973Y-65283888D01*
X71823720Y-65452034D01*
X71822606Y-65458762D01*
X71822605Y-65458766D01*
X71795257Y-65623961D01*
X71794142Y-65630698D01*
X71794499Y-65637515D01*
X71794499Y-65637519D01*
X71799401Y-65731039D01*
X71803620Y-65811547D01*
X71805431Y-65818120D01*
X71805431Y-65818123D01*
X71828801Y-65902966D01*
X71851711Y-65986141D01*
X71936172Y-66146336D01*
X71940580Y-66151552D01*
X71958622Y-66172902D01*
X71987313Y-66237843D01*
X71976340Y-66307986D01*
X71942018Y-66351872D01*
X71901968Y-66384536D01*
X71901965Y-66384539D01*
X71897188Y-66388435D01*
X71893261Y-66393182D01*
X71893259Y-66393184D01*
X71775049Y-66536075D01*
X71775047Y-66536079D01*
X71771120Y-66540825D01*
X71677052Y-66714799D01*
X71618568Y-66903732D01*
X71617924Y-66909857D01*
X71617924Y-66909858D01*
X71601227Y-67068726D01*
X71597895Y-67100425D01*
X70293317Y-67100425D01*
X70284749Y-67006274D01*
X70277239Y-66923751D01*
X70277238Y-66923748D01*
X70276680Y-66917612D01*
X70271661Y-66900556D01*
X70226285Y-66746382D01*
X70220840Y-66727881D01*
X70217173Y-66720865D01*
X70147649Y-66587880D01*
X70129210Y-66552610D01*
X70005282Y-66398475D01*
X69998977Y-66393184D01*
X69944618Y-66347572D01*
X69853776Y-66271346D01*
X69848378Y-66268379D01*
X69848373Y-66268375D01*
X69685858Y-66179033D01*
X69685859Y-66179033D01*
X69680463Y-66176067D01*
X69674596Y-66174206D01*
X69674594Y-66174205D01*
X69497814Y-66118127D01*
X69497813Y-66118127D01*
X69491944Y-66116265D01*
X69338023Y-66099000D01*
X68631481Y-66099000D01*
X68628425Y-66099300D01*
X68628418Y-66099300D01*
X68569910Y-66105037D01*
X68484417Y-66113420D01*
X68478516Y-66115202D01*
X68478514Y-66115202D01*
X68405197Y-66137338D01*
X68295081Y-66170584D01*
X68120454Y-66263434D01*
X68115679Y-66267328D01*
X68115678Y-66267329D01*
X68110753Y-66271346D01*
X68024989Y-66341294D01*
X67997151Y-66363998D01*
X67931719Y-66391552D01*
X67861778Y-66379357D01*
X67809533Y-66331284D01*
X67791515Y-66266504D01*
X67787682Y-63034295D01*
X70502682Y-63034295D01*
X70522644Y-63224223D01*
X70581659Y-63405851D01*
X70584962Y-63411573D01*
X70584963Y-63411574D01*
X70603722Y-63444065D01*
X70677146Y-63571239D01*
X70681564Y-63576146D01*
X70681565Y-63576147D01*
X70721829Y-63620865D01*
X70804933Y-63713161D01*
X70887655Y-63773262D01*
X70944798Y-63814779D01*
X70959434Y-63825413D01*
X70965462Y-63828097D01*
X70965464Y-63828098D01*
X71006531Y-63846382D01*
X71131292Y-63901929D01*
X71131294Y-63901930D01*
X71133898Y-63903089D01*
X71133686Y-63903565D01*
X71188751Y-63941215D01*
X71211044Y-63982040D01*
X71261801Y-64138253D01*
X71357288Y-64303641D01*
X71485075Y-64445563D01*
X71639576Y-64557815D01*
X71645604Y-64560499D01*
X71645606Y-64560500D01*
X71803807Y-64630935D01*
X71814040Y-64635491D01*
X71907440Y-64655344D01*
X71994384Y-64673825D01*
X71994389Y-64673825D01*
X72000841Y-64675197D01*
X72191815Y-64675197D01*
X72198267Y-64673825D01*
X72198272Y-64673825D01*
X72238081Y-64665363D01*
X72308872Y-64670765D01*
X72358099Y-64707983D01*
X72374942Y-64657189D01*
X72398704Y-64637500D01*
X97655246Y-64637500D01*
X97655936Y-64644065D01*
X97666193Y-64741651D01*
X97675208Y-64827428D01*
X97734223Y-65009056D01*
X97829710Y-65174444D01*
X97834128Y-65179351D01*
X97834129Y-65179352D01*
X97938842Y-65295648D01*
X97957497Y-65316366D01*
X98111998Y-65428618D01*
X98118026Y-65431302D01*
X98118028Y-65431303D01*
X98209950Y-65472229D01*
X98286462Y-65506294D01*
X98379863Y-65526147D01*
X98466806Y-65544628D01*
X98466811Y-65544628D01*
X98473263Y-65546000D01*
X98664237Y-65546000D01*
X98670689Y-65544628D01*
X98670694Y-65544628D01*
X98757637Y-65526147D01*
X98851038Y-65506294D01*
X98927550Y-65472229D01*
X99019472Y-65431303D01*
X99019474Y-65431302D01*
X99025502Y-65428618D01*
X99180003Y-65316366D01*
X99198658Y-65295648D01*
X99303371Y-65179352D01*
X99303372Y-65179351D01*
X99307790Y-65174444D01*
X99403277Y-65009056D01*
X99462292Y-64827428D01*
X99471308Y-64741651D01*
X99481564Y-64644065D01*
X99482254Y-64637500D01*
X99479766Y-64613828D01*
X99462982Y-64454135D01*
X99462982Y-64454133D01*
X99462292Y-64447572D01*
X99403277Y-64265944D01*
X99365088Y-64199799D01*
X103692947Y-64199799D01*
X103693637Y-64206364D01*
X103699298Y-64260221D01*
X103712909Y-64389727D01*
X103771924Y-64571355D01*
X103867411Y-64736743D01*
X103871829Y-64741650D01*
X103871830Y-64741651D01*
X103968957Y-64849521D01*
X103995198Y-64878665D01*
X104149699Y-64990917D01*
X104155727Y-64993601D01*
X104155729Y-64993602D01*
X104203294Y-65014779D01*
X104324163Y-65068593D01*
X104417563Y-65088446D01*
X104504507Y-65106927D01*
X104504512Y-65106927D01*
X104510964Y-65108299D01*
X104701938Y-65108299D01*
X104708390Y-65106927D01*
X104708395Y-65106927D01*
X104795339Y-65088446D01*
X104888739Y-65068593D01*
X105009608Y-65014779D01*
X105057173Y-64993602D01*
X105057175Y-64993601D01*
X105063203Y-64990917D01*
X105217704Y-64878665D01*
X105243945Y-64849521D01*
X105341072Y-64741651D01*
X105341073Y-64741650D01*
X105345491Y-64736743D01*
X105440978Y-64571355D01*
X105499993Y-64389727D01*
X105513605Y-64260221D01*
X105519265Y-64206364D01*
X105519955Y-64199799D01*
X105509524Y-64100556D01*
X105500683Y-64016434D01*
X105500683Y-64016432D01*
X105499993Y-64009871D01*
X105440978Y-63828243D01*
X105437104Y-63821532D01*
X105348792Y-63668573D01*
X105345491Y-63662855D01*
X105313593Y-63627428D01*
X105222126Y-63525844D01*
X105222125Y-63525843D01*
X105217704Y-63520933D01*
X105063203Y-63408681D01*
X105057175Y-63405997D01*
X105057173Y-63405996D01*
X104894770Y-63333690D01*
X104894769Y-63333690D01*
X104888739Y-63331005D01*
X104795339Y-63311152D01*
X104708395Y-63292671D01*
X104708390Y-63292671D01*
X104701938Y-63291299D01*
X104510964Y-63291299D01*
X104504512Y-63292671D01*
X104504507Y-63292671D01*
X104417563Y-63311152D01*
X104324163Y-63331005D01*
X104318133Y-63333690D01*
X104318132Y-63333690D01*
X104155729Y-63405996D01*
X104155727Y-63405997D01*
X104149699Y-63408681D01*
X103995198Y-63520933D01*
X103990777Y-63525843D01*
X103990776Y-63525844D01*
X103899310Y-63627428D01*
X103867411Y-63662855D01*
X103864110Y-63668573D01*
X103775799Y-63821532D01*
X103771924Y-63828243D01*
X103712909Y-64009871D01*
X103712219Y-64016432D01*
X103712219Y-64016434D01*
X103703378Y-64100556D01*
X103692947Y-64199799D01*
X99365088Y-64199799D01*
X99307790Y-64100556D01*
X99180003Y-63958634D01*
X99025502Y-63846382D01*
X99019474Y-63843698D01*
X99019472Y-63843697D01*
X98857069Y-63771391D01*
X98857068Y-63771391D01*
X98851038Y-63768706D01*
X98757638Y-63748853D01*
X98670694Y-63730372D01*
X98670689Y-63730372D01*
X98664237Y-63729000D01*
X98473263Y-63729000D01*
X98466811Y-63730372D01*
X98466806Y-63730372D01*
X98379862Y-63748853D01*
X98286462Y-63768706D01*
X98280432Y-63771391D01*
X98280431Y-63771391D01*
X98118028Y-63843697D01*
X98118026Y-63843698D01*
X98111998Y-63846382D01*
X97957497Y-63958634D01*
X97829710Y-64100556D01*
X97734223Y-64265944D01*
X97675208Y-64447572D01*
X97674518Y-64454133D01*
X97674518Y-64454135D01*
X97657734Y-64613828D01*
X97655246Y-64637500D01*
X72398704Y-64637500D01*
X72427272Y-64613828D01*
X72547050Y-64560500D01*
X72547052Y-64560499D01*
X72553080Y-64557815D01*
X72707581Y-64445563D01*
X72835368Y-64303641D01*
X72930855Y-64138253D01*
X72989870Y-63956625D01*
X73009832Y-63766697D01*
X72995854Y-63633706D01*
X72990560Y-63583332D01*
X72990560Y-63583330D01*
X72989870Y-63576769D01*
X72944618Y-63437500D01*
X90355246Y-63437500D01*
X90355936Y-63444065D01*
X90369884Y-63576769D01*
X90375208Y-63627428D01*
X90434223Y-63809056D01*
X90529710Y-63974444D01*
X90534128Y-63979351D01*
X90534129Y-63979352D01*
X90567518Y-64016434D01*
X90657497Y-64116366D01*
X90811998Y-64228618D01*
X90818026Y-64231302D01*
X90818028Y-64231303D01*
X90909950Y-64272229D01*
X90986462Y-64306294D01*
X91079862Y-64326147D01*
X91166806Y-64344628D01*
X91166811Y-64344628D01*
X91173263Y-64346000D01*
X91364237Y-64346000D01*
X91370689Y-64344628D01*
X91370694Y-64344628D01*
X91457638Y-64326147D01*
X91551038Y-64306294D01*
X91627550Y-64272229D01*
X91719472Y-64231303D01*
X91719474Y-64231302D01*
X91725502Y-64228618D01*
X91744690Y-64214677D01*
X91811558Y-64190819D01*
X91880709Y-64206900D01*
X91892810Y-64214677D01*
X91911998Y-64228618D01*
X91918026Y-64231302D01*
X91918028Y-64231303D01*
X92009950Y-64272229D01*
X92086462Y-64306294D01*
X92179862Y-64326147D01*
X92266806Y-64344628D01*
X92266811Y-64344628D01*
X92273263Y-64346000D01*
X92464237Y-64346000D01*
X92470689Y-64344628D01*
X92470694Y-64344628D01*
X92557638Y-64326147D01*
X92651038Y-64306294D01*
X92727550Y-64272229D01*
X92819472Y-64231303D01*
X92819474Y-64231302D01*
X92825502Y-64228618D01*
X92980003Y-64116366D01*
X93069982Y-64016434D01*
X93103371Y-63979352D01*
X93103372Y-63979351D01*
X93107790Y-63974444D01*
X93203277Y-63809056D01*
X93262292Y-63627428D01*
X93267617Y-63576769D01*
X93281564Y-63444065D01*
X93282254Y-63437500D01*
X93262292Y-63247572D01*
X93203277Y-63065944D01*
X93185005Y-63034295D01*
X93111091Y-62906274D01*
X93107790Y-62900556D01*
X92980003Y-62758634D01*
X92855394Y-62668100D01*
X92830844Y-62650263D01*
X92830843Y-62650262D01*
X92825502Y-62646382D01*
X92819474Y-62643698D01*
X92819472Y-62643697D01*
X92657069Y-62571391D01*
X92657068Y-62571391D01*
X92651038Y-62568706D01*
X92557638Y-62548853D01*
X92470694Y-62530372D01*
X92470689Y-62530372D01*
X92464237Y-62529000D01*
X92273263Y-62529000D01*
X92266811Y-62530372D01*
X92266806Y-62530372D01*
X92179862Y-62548853D01*
X92086462Y-62568706D01*
X92080432Y-62571391D01*
X92080431Y-62571391D01*
X91918028Y-62643697D01*
X91918026Y-62643698D01*
X91911998Y-62646382D01*
X91897362Y-62657016D01*
X91892810Y-62660323D01*
X91825942Y-62684181D01*
X91756791Y-62668100D01*
X91744690Y-62660323D01*
X91740138Y-62657016D01*
X91725502Y-62646382D01*
X91719474Y-62643698D01*
X91719472Y-62643697D01*
X91557069Y-62571391D01*
X91557068Y-62571391D01*
X91551038Y-62568706D01*
X91457638Y-62548853D01*
X91370694Y-62530372D01*
X91370689Y-62530372D01*
X91364237Y-62529000D01*
X91173263Y-62529000D01*
X91166811Y-62530372D01*
X91166806Y-62530372D01*
X91079862Y-62548853D01*
X90986462Y-62568706D01*
X90980432Y-62571391D01*
X90980431Y-62571391D01*
X90818028Y-62643697D01*
X90818026Y-62643698D01*
X90811998Y-62646382D01*
X90806657Y-62650262D01*
X90806656Y-62650263D01*
X90782106Y-62668100D01*
X90657497Y-62758634D01*
X90529710Y-62900556D01*
X90526409Y-62906274D01*
X90452496Y-63034295D01*
X90434223Y-63065944D01*
X90375208Y-63247572D01*
X90355246Y-63437500D01*
X72944618Y-63437500D01*
X72930855Y-63395141D01*
X72835368Y-63229753D01*
X72824480Y-63217660D01*
X72712003Y-63092742D01*
X72712002Y-63092741D01*
X72707581Y-63087831D01*
X72702237Y-63083948D01*
X72697330Y-63079530D01*
X72699343Y-63077294D01*
X72663953Y-63031495D01*
X72657806Y-62960765D01*
X72690875Y-62897940D01*
X72707261Y-62883727D01*
X72708561Y-62882782D01*
X72726939Y-62869430D01*
X72731361Y-62864519D01*
X72850307Y-62732416D01*
X72850308Y-62732415D01*
X72854726Y-62727508D01*
X72913000Y-62626574D01*
X72946909Y-62567843D01*
X72946910Y-62567842D01*
X72950213Y-62562120D01*
X72990705Y-62437500D01*
X104955246Y-62437500D01*
X104955936Y-62444065D01*
X104961537Y-62497351D01*
X104975208Y-62627428D01*
X105034223Y-62809056D01*
X105129710Y-62974444D01*
X105257497Y-63116366D01*
X105356593Y-63188364D01*
X105396916Y-63217660D01*
X105411998Y-63228618D01*
X105418026Y-63231302D01*
X105418028Y-63231303D01*
X105555864Y-63292671D01*
X105586462Y-63306294D01*
X105679862Y-63326147D01*
X105766806Y-63344628D01*
X105766811Y-63344628D01*
X105773263Y-63346000D01*
X105964237Y-63346000D01*
X105970689Y-63344628D01*
X105970694Y-63344628D01*
X106057638Y-63326147D01*
X106151038Y-63306294D01*
X106181636Y-63292671D01*
X106319472Y-63231303D01*
X106319474Y-63231302D01*
X106325502Y-63228618D01*
X106340585Y-63217660D01*
X106380907Y-63188364D01*
X106480003Y-63116366D01*
X106607790Y-62974444D01*
X106703277Y-62809056D01*
X106762292Y-62627428D01*
X106775964Y-62497351D01*
X106781564Y-62444065D01*
X106782254Y-62437500D01*
X106776262Y-62380492D01*
X106762982Y-62254135D01*
X106762982Y-62254133D01*
X106762292Y-62247572D01*
X106703277Y-62065944D01*
X106669361Y-62007199D01*
X106616918Y-61916366D01*
X106607790Y-61900556D01*
X106595519Y-61886927D01*
X106484425Y-61763545D01*
X106484424Y-61763544D01*
X106480003Y-61758634D01*
X106380907Y-61686636D01*
X106330844Y-61650263D01*
X106330843Y-61650262D01*
X106325502Y-61646382D01*
X106319474Y-61643698D01*
X106319472Y-61643697D01*
X106157069Y-61571391D01*
X106157068Y-61571391D01*
X106151038Y-61568706D01*
X106057637Y-61548853D01*
X105970694Y-61530372D01*
X105970689Y-61530372D01*
X105964237Y-61529000D01*
X105773263Y-61529000D01*
X105766811Y-61530372D01*
X105766806Y-61530372D01*
X105679863Y-61548853D01*
X105586462Y-61568706D01*
X105580432Y-61571391D01*
X105580431Y-61571391D01*
X105418028Y-61643697D01*
X105418026Y-61643698D01*
X105411998Y-61646382D01*
X105406657Y-61650262D01*
X105406656Y-61650263D01*
X105356593Y-61686636D01*
X105257497Y-61758634D01*
X105253076Y-61763544D01*
X105253075Y-61763545D01*
X105141982Y-61886927D01*
X105129710Y-61900556D01*
X105120582Y-61916366D01*
X105068140Y-62007199D01*
X105034223Y-62065944D01*
X104975208Y-62247572D01*
X104974518Y-62254133D01*
X104974518Y-62254135D01*
X104961238Y-62380492D01*
X104955246Y-62437500D01*
X72990705Y-62437500D01*
X73009228Y-62380492D01*
X73022509Y-62254135D01*
X73028500Y-62197129D01*
X73029190Y-62190564D01*
X73009228Y-62000636D01*
X72950213Y-61819008D01*
X72854726Y-61653620D01*
X72819754Y-61614779D01*
X72731361Y-61516609D01*
X72731360Y-61516608D01*
X72726939Y-61511698D01*
X72649073Y-61455125D01*
X72605719Y-61398903D01*
X72597824Y-61340019D01*
X72608599Y-61237500D01*
X100755246Y-61237500D01*
X100755936Y-61244065D01*
X100773430Y-61410508D01*
X100775208Y-61427428D01*
X100834223Y-61609056D01*
X100929710Y-61774444D01*
X100934128Y-61779351D01*
X100934129Y-61779352D01*
X101026568Y-61882016D01*
X101057497Y-61916366D01*
X101211998Y-62028618D01*
X101218026Y-62031302D01*
X101218028Y-62031303D01*
X101309950Y-62072229D01*
X101386462Y-62106294D01*
X101479863Y-62126147D01*
X101566806Y-62144628D01*
X101566811Y-62144628D01*
X101573263Y-62146000D01*
X101764237Y-62146000D01*
X101770689Y-62144628D01*
X101770694Y-62144628D01*
X101857637Y-62126147D01*
X101951038Y-62106294D01*
X102027550Y-62072229D01*
X102119472Y-62031303D01*
X102119474Y-62031302D01*
X102125502Y-62028618D01*
X102280003Y-61916366D01*
X102310932Y-61882016D01*
X102403371Y-61779352D01*
X102403372Y-61779351D01*
X102407790Y-61774444D01*
X102503277Y-61609056D01*
X102562292Y-61427428D01*
X102564071Y-61410508D01*
X102581564Y-61244065D01*
X102582254Y-61237500D01*
X102562292Y-61047572D01*
X102503277Y-60865944D01*
X102407790Y-60700556D01*
X102371969Y-60660772D01*
X102284425Y-60563545D01*
X102284424Y-60563544D01*
X102280003Y-60558634D01*
X102125502Y-60446382D01*
X102119474Y-60443698D01*
X102119472Y-60443697D01*
X101957069Y-60371391D01*
X101957068Y-60371391D01*
X101951038Y-60368706D01*
X101857637Y-60348853D01*
X101770694Y-60330372D01*
X101770689Y-60330372D01*
X101764237Y-60329000D01*
X101573263Y-60329000D01*
X101566811Y-60330372D01*
X101566806Y-60330372D01*
X101479863Y-60348853D01*
X101386462Y-60368706D01*
X101380432Y-60371391D01*
X101380431Y-60371391D01*
X101218028Y-60443697D01*
X101218026Y-60443698D01*
X101211998Y-60446382D01*
X101057497Y-60558634D01*
X101053076Y-60563544D01*
X101053075Y-60563545D01*
X100965532Y-60660772D01*
X100929710Y-60700556D01*
X100834223Y-60865944D01*
X100775208Y-61047572D01*
X100755246Y-61237500D01*
X72608599Y-61237500D01*
X72611003Y-61214626D01*
X72611693Y-61208061D01*
X72591731Y-61018133D01*
X72552026Y-60895934D01*
X72549998Y-60824969D01*
X72586660Y-60764171D01*
X72650372Y-60732846D01*
X72669680Y-60731187D01*
X72669680Y-60731184D01*
X72669781Y-60731179D01*
X72671859Y-60731000D01*
X72676494Y-60731000D01*
X72811287Y-60716357D01*
X72960298Y-60666209D01*
X72976454Y-60660772D01*
X72976456Y-60660771D01*
X72982925Y-60658594D01*
X73138155Y-60565323D01*
X73143112Y-60560635D01*
X73143115Y-60560633D01*
X73264777Y-60445582D01*
X73264779Y-60445580D01*
X73269735Y-60440893D01*
X73273567Y-60435255D01*
X73273570Y-60435251D01*
X73367692Y-60296755D01*
X73371527Y-60291112D01*
X73432967Y-60137500D01*
X90355246Y-60137500D01*
X90355936Y-60144065D01*
X90365358Y-60233706D01*
X90375208Y-60327428D01*
X90434223Y-60509056D01*
X90437526Y-60514778D01*
X90437527Y-60514779D01*
X90455553Y-60546000D01*
X90529710Y-60674444D01*
X90534128Y-60679351D01*
X90534129Y-60679352D01*
X90582295Y-60732846D01*
X90657497Y-60816366D01*
X90811998Y-60928618D01*
X90818026Y-60931302D01*
X90818028Y-60931303D01*
X90980431Y-61003609D01*
X90986462Y-61006294D01*
X91073036Y-61024696D01*
X91166806Y-61044628D01*
X91166811Y-61044628D01*
X91173263Y-61046000D01*
X91364237Y-61046000D01*
X91370689Y-61044628D01*
X91370694Y-61044628D01*
X91464464Y-61024696D01*
X91551038Y-61006294D01*
X91557069Y-61003609D01*
X91719472Y-60931303D01*
X91719474Y-60931302D01*
X91725502Y-60928618D01*
X91744690Y-60914677D01*
X91811558Y-60890819D01*
X91880709Y-60906900D01*
X91892810Y-60914677D01*
X91911998Y-60928618D01*
X91918026Y-60931302D01*
X91918028Y-60931303D01*
X92080431Y-61003609D01*
X92086462Y-61006294D01*
X92173036Y-61024696D01*
X92266806Y-61044628D01*
X92266811Y-61044628D01*
X92273263Y-61046000D01*
X92464237Y-61046000D01*
X92470689Y-61044628D01*
X92470694Y-61044628D01*
X92564464Y-61024696D01*
X92651038Y-61006294D01*
X92657069Y-61003609D01*
X92819472Y-60931303D01*
X92819474Y-60931302D01*
X92825502Y-60928618D01*
X92980003Y-60816366D01*
X93055205Y-60732846D01*
X93103371Y-60679352D01*
X93103372Y-60679351D01*
X93107790Y-60674444D01*
X93181947Y-60546000D01*
X93199973Y-60514779D01*
X93199974Y-60514778D01*
X93203277Y-60509056D01*
X93262292Y-60327428D01*
X93272143Y-60233706D01*
X93281564Y-60144065D01*
X93282254Y-60137500D01*
X93270811Y-60028629D01*
X93262982Y-59954135D01*
X93262982Y-59954133D01*
X93262292Y-59947572D01*
X93203277Y-59765944D01*
X93107790Y-59600556D01*
X92995640Y-59476000D01*
X92984425Y-59463545D01*
X92984424Y-59463544D01*
X92980003Y-59458634D01*
X92873116Y-59380976D01*
X92830844Y-59350263D01*
X92830843Y-59350262D01*
X92825502Y-59346382D01*
X92819474Y-59343698D01*
X92819472Y-59343697D01*
X92657069Y-59271391D01*
X92657068Y-59271391D01*
X92651038Y-59268706D01*
X92557637Y-59248853D01*
X92504279Y-59237511D01*
X97555246Y-59237511D01*
X97555936Y-59244076D01*
X97572408Y-59400795D01*
X97575208Y-59427439D01*
X97634223Y-59609067D01*
X97637526Y-59614789D01*
X97637527Y-59614790D01*
X97649461Y-59635460D01*
X97729710Y-59774455D01*
X97857497Y-59916377D01*
X98011998Y-60028629D01*
X98018026Y-60031313D01*
X98018028Y-60031314D01*
X98180431Y-60103620D01*
X98186462Y-60106305D01*
X98279862Y-60126158D01*
X98366806Y-60144639D01*
X98366811Y-60144639D01*
X98373263Y-60146011D01*
X98457210Y-60146011D01*
X98525331Y-60166013D01*
X98571824Y-60219669D01*
X98577042Y-60233072D01*
X98634223Y-60409056D01*
X98637526Y-60414778D01*
X98637527Y-60414779D01*
X98641017Y-60420824D01*
X98729710Y-60574444D01*
X98857497Y-60716366D01*
X98880180Y-60732846D01*
X98995135Y-60816366D01*
X99011998Y-60828618D01*
X99018026Y-60831302D01*
X99018028Y-60831303D01*
X99180431Y-60903609D01*
X99186462Y-60906294D01*
X99273229Y-60924737D01*
X99366806Y-60944628D01*
X99366811Y-60944628D01*
X99373263Y-60946000D01*
X99564237Y-60946000D01*
X99570689Y-60944628D01*
X99570694Y-60944628D01*
X99664271Y-60924737D01*
X99751038Y-60906294D01*
X99757069Y-60903609D01*
X99919472Y-60831303D01*
X99919474Y-60831302D01*
X99925502Y-60828618D01*
X99942366Y-60816366D01*
X100057320Y-60732846D01*
X100080003Y-60716366D01*
X100207790Y-60574444D01*
X100296483Y-60420824D01*
X100299973Y-60414779D01*
X100299974Y-60414778D01*
X100303277Y-60409056D01*
X100362292Y-60227428D01*
X100363108Y-60219669D01*
X100381564Y-60044065D01*
X100382254Y-60037500D01*
X100375778Y-59975888D01*
X100362982Y-59854135D01*
X100362982Y-59854133D01*
X100362292Y-59847572D01*
X100303277Y-59665944D01*
X100286855Y-59637500D01*
X112755246Y-59637500D01*
X112775208Y-59827428D01*
X112834223Y-60009056D01*
X112837526Y-60014778D01*
X112837527Y-60014779D01*
X112859920Y-60053564D01*
X112929710Y-60174444D01*
X112934128Y-60179351D01*
X112934129Y-60179352D01*
X112983070Y-60233706D01*
X113057497Y-60316366D01*
X113092713Y-60341952D01*
X113201271Y-60420824D01*
X113211998Y-60428618D01*
X113218026Y-60431302D01*
X113218028Y-60431303D01*
X113378549Y-60502771D01*
X113386462Y-60506294D01*
X113475934Y-60525312D01*
X113566806Y-60544628D01*
X113566811Y-60544628D01*
X113573263Y-60546000D01*
X113764237Y-60546000D01*
X113770689Y-60544628D01*
X113770694Y-60544628D01*
X113861566Y-60525312D01*
X113951038Y-60506294D01*
X113958951Y-60502771D01*
X114119472Y-60431303D01*
X114119474Y-60431302D01*
X114125502Y-60428618D01*
X114136230Y-60420824D01*
X114244787Y-60341952D01*
X114280003Y-60316366D01*
X114354430Y-60233706D01*
X114403371Y-60179352D01*
X114403372Y-60179351D01*
X114407790Y-60174444D01*
X114477580Y-60053564D01*
X114499973Y-60014779D01*
X114499974Y-60014778D01*
X114503277Y-60009056D01*
X114562292Y-59827428D01*
X114582254Y-59637500D01*
X114565280Y-59476000D01*
X114562982Y-59454135D01*
X114562982Y-59454133D01*
X114562292Y-59447572D01*
X114503277Y-59265944D01*
X114490652Y-59244076D01*
X114448687Y-59171391D01*
X114407790Y-59100556D01*
X114355009Y-59041936D01*
X114284425Y-58963545D01*
X114284424Y-58963544D01*
X114280003Y-58958634D01*
X114152442Y-58865955D01*
X114130844Y-58850263D01*
X114130843Y-58850262D01*
X114125502Y-58846382D01*
X114119474Y-58843698D01*
X114119472Y-58843697D01*
X113957069Y-58771391D01*
X113957068Y-58771391D01*
X113951038Y-58768706D01*
X113857638Y-58748853D01*
X113770694Y-58730372D01*
X113770689Y-58730372D01*
X113764237Y-58729000D01*
X113573263Y-58729000D01*
X113566811Y-58730372D01*
X113566806Y-58730372D01*
X113479862Y-58748853D01*
X113386462Y-58768706D01*
X113380432Y-58771391D01*
X113380431Y-58771391D01*
X113218028Y-58843697D01*
X113218026Y-58843698D01*
X113211998Y-58846382D01*
X113206657Y-58850262D01*
X113206656Y-58850263D01*
X113185058Y-58865955D01*
X113057497Y-58958634D01*
X113053076Y-58963544D01*
X113053075Y-58963545D01*
X112982492Y-59041936D01*
X112929710Y-59100556D01*
X112888813Y-59171391D01*
X112846849Y-59244076D01*
X112834223Y-59265944D01*
X112775208Y-59447572D01*
X112774518Y-59454133D01*
X112774518Y-59454135D01*
X112772220Y-59476000D01*
X112755246Y-59637500D01*
X100286855Y-59637500D01*
X100207790Y-59500556D01*
X100171092Y-59459798D01*
X100084425Y-59363545D01*
X100084424Y-59363544D01*
X100080003Y-59358634D01*
X99925502Y-59246382D01*
X99919474Y-59243698D01*
X99919472Y-59243697D01*
X99757069Y-59171391D01*
X99757068Y-59171391D01*
X99751038Y-59168706D01*
X99657637Y-59148853D01*
X99570694Y-59130372D01*
X99570689Y-59130372D01*
X99564237Y-59129000D01*
X99480290Y-59129000D01*
X99412169Y-59108998D01*
X99365676Y-59055342D01*
X99360457Y-59041936D01*
X99305319Y-58872240D01*
X99303277Y-58865955D01*
X99207790Y-58700567D01*
X99168912Y-58657388D01*
X99084425Y-58563556D01*
X99084424Y-58563555D01*
X99080003Y-58558645D01*
X98953266Y-58466565D01*
X98930844Y-58450274D01*
X98930843Y-58450273D01*
X98925502Y-58446393D01*
X98919474Y-58443709D01*
X98919472Y-58443708D01*
X98757069Y-58371402D01*
X98757068Y-58371402D01*
X98751038Y-58368717D01*
X98657638Y-58348864D01*
X98570694Y-58330383D01*
X98570689Y-58330383D01*
X98564237Y-58329011D01*
X98373263Y-58329011D01*
X98366811Y-58330383D01*
X98366806Y-58330383D01*
X98279862Y-58348864D01*
X98186462Y-58368717D01*
X98180432Y-58371402D01*
X98180431Y-58371402D01*
X98018028Y-58443708D01*
X98018026Y-58443709D01*
X98011998Y-58446393D01*
X98006657Y-58450273D01*
X98006656Y-58450274D01*
X97984234Y-58466565D01*
X97857497Y-58558645D01*
X97853076Y-58563555D01*
X97853075Y-58563556D01*
X97768589Y-58657388D01*
X97729710Y-58700567D01*
X97634223Y-58865955D01*
X97575208Y-59047583D01*
X97574518Y-59054144D01*
X97574518Y-59054146D01*
X97570156Y-59095648D01*
X97555246Y-59237511D01*
X92504279Y-59237511D01*
X92470694Y-59230372D01*
X92470689Y-59230372D01*
X92464237Y-59229000D01*
X92273263Y-59229000D01*
X92266811Y-59230372D01*
X92266806Y-59230372D01*
X92179863Y-59248853D01*
X92086462Y-59268706D01*
X92080432Y-59271391D01*
X92080431Y-59271391D01*
X91918028Y-59343697D01*
X91918026Y-59343698D01*
X91911998Y-59346382D01*
X91900479Y-59354751D01*
X91892810Y-59360323D01*
X91825942Y-59384181D01*
X91756791Y-59368100D01*
X91744690Y-59360323D01*
X91737021Y-59354751D01*
X91725502Y-59346382D01*
X91719474Y-59343698D01*
X91719472Y-59343697D01*
X91557069Y-59271391D01*
X91557068Y-59271391D01*
X91551038Y-59268706D01*
X91457637Y-59248853D01*
X91370694Y-59230372D01*
X91370689Y-59230372D01*
X91364237Y-59229000D01*
X91173263Y-59229000D01*
X91166811Y-59230372D01*
X91166806Y-59230372D01*
X91079863Y-59248853D01*
X90986462Y-59268706D01*
X90980432Y-59271391D01*
X90980431Y-59271391D01*
X90818028Y-59343697D01*
X90818026Y-59343698D01*
X90811998Y-59346382D01*
X90806657Y-59350262D01*
X90806656Y-59350263D01*
X90764384Y-59380976D01*
X90657497Y-59458634D01*
X90653076Y-59463544D01*
X90653075Y-59463545D01*
X90641861Y-59476000D01*
X90529710Y-59600556D01*
X90434223Y-59765944D01*
X90375208Y-59947572D01*
X90374518Y-59954133D01*
X90374518Y-59954135D01*
X90366689Y-60028629D01*
X90355246Y-60137500D01*
X73432967Y-60137500D01*
X73438780Y-60122966D01*
X73439894Y-60116238D01*
X73439895Y-60116234D01*
X73467243Y-59951039D01*
X73467243Y-59951036D01*
X73468358Y-59944302D01*
X73466895Y-59916377D01*
X73459237Y-59770266D01*
X73458880Y-59763453D01*
X73435554Y-59678766D01*
X73423625Y-59635460D01*
X73424819Y-59564473D01*
X73464202Y-59505401D01*
X73529269Y-59476999D01*
X73545101Y-59476000D01*
X73761019Y-59476000D01*
X73764075Y-59475700D01*
X73764082Y-59475700D01*
X73822590Y-59469963D01*
X73908083Y-59461580D01*
X73913984Y-59459798D01*
X73913986Y-59459798D01*
X73987303Y-59437662D01*
X74097419Y-59404416D01*
X74272046Y-59311566D01*
X74370896Y-59230946D01*
X74420537Y-59190460D01*
X74420540Y-59190457D01*
X74425312Y-59186565D01*
X74426797Y-59184770D01*
X85675552Y-59184770D01*
X85676242Y-59191335D01*
X85694821Y-59368100D01*
X85695514Y-59374698D01*
X85754529Y-59556326D01*
X85850016Y-59721714D01*
X85854434Y-59726621D01*
X85854435Y-59726622D01*
X85969248Y-59854135D01*
X85977803Y-59863636D01*
X86055739Y-59920260D01*
X86093331Y-59947572D01*
X86132304Y-59975888D01*
X86138332Y-59978572D01*
X86138334Y-59978573D01*
X86300737Y-60050879D01*
X86306768Y-60053564D01*
X86400168Y-60073417D01*
X86487112Y-60091898D01*
X86487117Y-60091898D01*
X86493569Y-60093270D01*
X86684543Y-60093270D01*
X86690995Y-60091898D01*
X86691000Y-60091898D01*
X86777944Y-60073417D01*
X86871344Y-60053564D01*
X86877375Y-60050879D01*
X87039778Y-59978573D01*
X87039780Y-59978572D01*
X87045808Y-59975888D01*
X87084782Y-59947572D01*
X87122373Y-59920260D01*
X87200309Y-59863636D01*
X87208864Y-59854135D01*
X87323677Y-59726622D01*
X87323678Y-59726621D01*
X87328096Y-59721714D01*
X87423583Y-59556326D01*
X87482598Y-59374698D01*
X87483292Y-59368100D01*
X87501870Y-59191335D01*
X87502560Y-59184770D01*
X87487548Y-59041936D01*
X87483288Y-59001405D01*
X87483288Y-59001403D01*
X87482598Y-58994842D01*
X87423583Y-58813214D01*
X87399437Y-58771391D01*
X87337029Y-58663298D01*
X87328096Y-58647826D01*
X87200309Y-58505904D01*
X87045808Y-58393652D01*
X87039780Y-58390968D01*
X87039778Y-58390967D01*
X86877375Y-58318661D01*
X86877374Y-58318661D01*
X86871344Y-58315976D01*
X86777944Y-58296123D01*
X86691000Y-58277642D01*
X86690995Y-58277642D01*
X86684543Y-58276270D01*
X86493569Y-58276270D01*
X86487117Y-58277642D01*
X86487112Y-58277642D01*
X86400168Y-58296123D01*
X86306768Y-58315976D01*
X86300738Y-58318661D01*
X86300737Y-58318661D01*
X86138334Y-58390967D01*
X86138332Y-58390968D01*
X86132304Y-58393652D01*
X85977803Y-58505904D01*
X85850016Y-58647826D01*
X85841083Y-58663298D01*
X85778676Y-58771391D01*
X85754529Y-58813214D01*
X85695514Y-58994842D01*
X85694824Y-59001403D01*
X85694824Y-59001405D01*
X85690564Y-59041936D01*
X85675552Y-59184770D01*
X74426797Y-59184770D01*
X74437865Y-59171391D01*
X74547451Y-59038925D01*
X74547453Y-59038921D01*
X74551380Y-59034175D01*
X74645448Y-58860201D01*
X74703932Y-58671268D01*
X74721312Y-58505904D01*
X74723961Y-58480704D01*
X74723961Y-58480702D01*
X74724605Y-58474575D01*
X74710416Y-58318661D01*
X74707239Y-58283751D01*
X74707238Y-58283748D01*
X74706680Y-58277612D01*
X74689798Y-58220249D01*
X74652580Y-58093794D01*
X74650840Y-58087881D01*
X74646382Y-58079352D01*
X74562063Y-57918068D01*
X74559210Y-57912610D01*
X74435282Y-57758475D01*
X74428977Y-57753184D01*
X74365156Y-57699632D01*
X74283776Y-57631346D01*
X74278378Y-57628379D01*
X74278373Y-57628375D01*
X74115858Y-57539033D01*
X74115859Y-57539033D01*
X74110463Y-57536067D01*
X74104596Y-57534206D01*
X74104594Y-57534205D01*
X73927814Y-57478127D01*
X73927813Y-57478127D01*
X73921944Y-57476265D01*
X73768023Y-57459000D01*
X72561481Y-57459000D01*
X72558425Y-57459300D01*
X72558418Y-57459300D01*
X72499910Y-57465037D01*
X72414417Y-57473420D01*
X72408516Y-57475202D01*
X72408514Y-57475202D01*
X72394769Y-57479352D01*
X72225081Y-57530584D01*
X72050454Y-57623434D01*
X71964188Y-57693791D01*
X71901963Y-57744540D01*
X71901960Y-57744543D01*
X71897188Y-57748435D01*
X71893261Y-57753182D01*
X71893259Y-57753184D01*
X71775049Y-57896075D01*
X71775047Y-57896079D01*
X71771120Y-57900825D01*
X71677052Y-58074799D01*
X71618568Y-58263732D01*
X71617924Y-58269857D01*
X71617924Y-58269858D01*
X71603867Y-58403609D01*
X71597895Y-58460425D01*
X71598454Y-58466565D01*
X71614950Y-58647826D01*
X71615820Y-58657388D01*
X71617558Y-58663294D01*
X71617559Y-58663298D01*
X71628528Y-58700567D01*
X71671660Y-58847119D01*
X71674513Y-58852577D01*
X71674515Y-58852581D01*
X71681507Y-58865955D01*
X71763290Y-59022390D01*
X71887218Y-59176525D01*
X71904868Y-59191335D01*
X71944078Y-59224236D01*
X71983404Y-59283346D01*
X71984530Y-59354333D01*
X71967298Y-59391580D01*
X71960540Y-59401524D01*
X71890973Y-59503888D01*
X71823720Y-59672034D01*
X71822606Y-59678762D01*
X71822605Y-59678766D01*
X71799081Y-59820865D01*
X71794142Y-59850698D01*
X71794499Y-59857515D01*
X71794499Y-59857519D01*
X71800703Y-59975888D01*
X71803620Y-60031547D01*
X71832805Y-60137500D01*
X71833521Y-60140101D01*
X71832327Y-60211087D01*
X71792945Y-60270159D01*
X71727877Y-60298562D01*
X71712045Y-60299561D01*
X71602702Y-60299561D01*
X71596250Y-60300933D01*
X71596245Y-60300933D01*
X71523641Y-60316366D01*
X71415901Y-60339267D01*
X71409871Y-60341952D01*
X71409870Y-60341952D01*
X71247467Y-60414258D01*
X71247465Y-60414259D01*
X71241437Y-60416943D01*
X71236096Y-60420823D01*
X71236095Y-60420824D01*
X71225368Y-60428618D01*
X71086936Y-60529195D01*
X71082515Y-60534105D01*
X71082514Y-60534106D01*
X70968464Y-60660772D01*
X70959149Y-60671117D01*
X70923510Y-60732846D01*
X70868216Y-60828618D01*
X70863662Y-60836505D01*
X70804647Y-61018133D01*
X70784685Y-61208061D01*
X70804647Y-61397989D01*
X70863662Y-61579617D01*
X70959149Y-61745005D01*
X70963567Y-61749912D01*
X70963568Y-61749913D01*
X71082514Y-61882016D01*
X71086936Y-61886927D01*
X71092278Y-61890808D01*
X71092280Y-61890810D01*
X71164802Y-61943500D01*
X71208156Y-61999722D01*
X71216053Y-62058586D01*
X71215800Y-62060997D01*
X71188798Y-62126658D01*
X71133587Y-62164803D01*
X71133898Y-62165501D01*
X71127871Y-62168184D01*
X71127869Y-62168185D01*
X70965464Y-62240492D01*
X70965462Y-62240493D01*
X70959434Y-62243177D01*
X70954093Y-62247057D01*
X70954092Y-62247058D01*
X70904029Y-62283431D01*
X70804933Y-62355429D01*
X70800512Y-62360339D01*
X70800511Y-62360340D01*
X70788276Y-62373929D01*
X70677146Y-62497351D01*
X70658081Y-62530372D01*
X70588863Y-62650262D01*
X70581659Y-62662739D01*
X70522644Y-62844367D01*
X70521954Y-62850928D01*
X70521954Y-62850930D01*
X70508457Y-62979352D01*
X70502682Y-63034295D01*
X67787682Y-63034295D01*
X67783255Y-59300909D01*
X67803176Y-59232765D01*
X67856777Y-59186209D01*
X67927039Y-59176021D01*
X67990244Y-59204237D01*
X68108724Y-59303654D01*
X68114122Y-59306621D01*
X68114127Y-59306625D01*
X68226015Y-59368135D01*
X68282037Y-59398933D01*
X68287904Y-59400794D01*
X68287906Y-59400795D01*
X68415575Y-59441294D01*
X68470556Y-59458735D01*
X68624477Y-59476000D01*
X69331019Y-59476000D01*
X69334075Y-59475700D01*
X69334082Y-59475700D01*
X69392590Y-59469963D01*
X69478083Y-59461580D01*
X69483984Y-59459798D01*
X69483986Y-59459798D01*
X69557303Y-59437662D01*
X69667419Y-59404416D01*
X69842046Y-59311566D01*
X69940896Y-59230946D01*
X69990537Y-59190460D01*
X69990540Y-59190457D01*
X69995312Y-59186565D01*
X70007865Y-59171391D01*
X70117451Y-59038925D01*
X70117453Y-59038921D01*
X70121380Y-59034175D01*
X70215448Y-58860201D01*
X70273932Y-58671268D01*
X70291312Y-58505904D01*
X70293961Y-58480704D01*
X70293961Y-58480702D01*
X70294605Y-58474575D01*
X70280416Y-58318661D01*
X70277239Y-58283751D01*
X70277238Y-58283748D01*
X70276680Y-58277612D01*
X70259798Y-58220249D01*
X70222580Y-58093794D01*
X70220840Y-58087881D01*
X70216382Y-58079352D01*
X70132063Y-57918068D01*
X70129210Y-57912610D01*
X70005282Y-57758475D01*
X69998977Y-57753184D01*
X69935156Y-57699632D01*
X69853776Y-57631346D01*
X69848378Y-57628379D01*
X69848373Y-57628375D01*
X69685858Y-57539033D01*
X69685859Y-57539033D01*
X69680463Y-57536067D01*
X69674596Y-57534206D01*
X69674594Y-57534205D01*
X69497814Y-57478127D01*
X69497813Y-57478127D01*
X69491944Y-57476265D01*
X69338023Y-57459000D01*
X68631481Y-57459000D01*
X68628425Y-57459300D01*
X68628418Y-57459300D01*
X68569910Y-57465037D01*
X68484417Y-57473420D01*
X68478516Y-57475202D01*
X68478514Y-57475202D01*
X68464769Y-57479352D01*
X68295081Y-57530584D01*
X68120454Y-57623434D01*
X68000992Y-57720865D01*
X67986915Y-57732346D01*
X67921483Y-57759900D01*
X67851542Y-57747705D01*
X67799297Y-57699632D01*
X67781279Y-57634852D01*
X67781272Y-57628375D01*
X67780452Y-56937500D01*
X94155246Y-56937500D01*
X94155936Y-56944065D01*
X94161358Y-56995648D01*
X94175208Y-57127428D01*
X94234223Y-57309056D01*
X94329710Y-57474444D01*
X94334128Y-57479351D01*
X94334129Y-57479352D01*
X94386486Y-57537500D01*
X94457497Y-57616366D01*
X94611998Y-57728618D01*
X94618026Y-57731302D01*
X94618028Y-57731303D01*
X94780431Y-57803609D01*
X94786462Y-57806294D01*
X94879863Y-57826147D01*
X94966806Y-57844628D01*
X94966811Y-57844628D01*
X94973263Y-57846000D01*
X95164237Y-57846000D01*
X95170689Y-57844628D01*
X95170694Y-57844628D01*
X95257637Y-57826147D01*
X95351038Y-57806294D01*
X95357069Y-57803609D01*
X95519472Y-57731303D01*
X95519474Y-57731302D01*
X95525502Y-57728618D01*
X95680003Y-57616366D01*
X95751014Y-57537500D01*
X106655246Y-57537500D01*
X106655936Y-57544065D01*
X106672287Y-57699632D01*
X106675208Y-57727428D01*
X106734223Y-57909056D01*
X106829710Y-58074444D01*
X106957497Y-58216366D01*
X107111998Y-58328618D01*
X107118026Y-58331302D01*
X107118028Y-58331303D01*
X107258067Y-58393652D01*
X107286462Y-58406294D01*
X107379862Y-58426147D01*
X107466806Y-58444628D01*
X107466811Y-58444628D01*
X107473263Y-58446000D01*
X107664237Y-58446000D01*
X107670689Y-58444628D01*
X107670694Y-58444628D01*
X107757638Y-58426147D01*
X107851038Y-58406294D01*
X107879433Y-58393652D01*
X108019472Y-58331303D01*
X108019474Y-58331302D01*
X108025502Y-58328618D01*
X108180003Y-58216366D01*
X108307790Y-58074444D01*
X108403277Y-57909056D01*
X108462292Y-57727428D01*
X108465214Y-57699632D01*
X108481564Y-57544065D01*
X108482254Y-57537500D01*
X108481340Y-57528803D01*
X108462982Y-57354135D01*
X108462982Y-57354133D01*
X108462292Y-57347572D01*
X108403277Y-57165944D01*
X108307790Y-57000556D01*
X108246502Y-56932488D01*
X108184425Y-56863545D01*
X108184424Y-56863544D01*
X108180003Y-56858634D01*
X108025502Y-56746382D01*
X108019474Y-56743698D01*
X108019472Y-56743697D01*
X107857069Y-56671391D01*
X107857068Y-56671391D01*
X107851038Y-56668706D01*
X107757637Y-56648853D01*
X107670694Y-56630372D01*
X107670689Y-56630372D01*
X107664237Y-56629000D01*
X107473263Y-56629000D01*
X107466811Y-56630372D01*
X107466806Y-56630372D01*
X107379862Y-56648853D01*
X107286462Y-56668706D01*
X107280432Y-56671391D01*
X107280431Y-56671391D01*
X107118028Y-56743697D01*
X107118026Y-56743698D01*
X107111998Y-56746382D01*
X106957497Y-56858634D01*
X106953076Y-56863544D01*
X106953075Y-56863545D01*
X106890999Y-56932488D01*
X106829710Y-57000556D01*
X106734223Y-57165944D01*
X106675208Y-57347572D01*
X106674518Y-57354133D01*
X106674518Y-57354135D01*
X106656160Y-57528803D01*
X106655246Y-57537500D01*
X95751014Y-57537500D01*
X95803371Y-57479352D01*
X95803372Y-57479351D01*
X95807790Y-57474444D01*
X95903277Y-57309056D01*
X95962292Y-57127428D01*
X95976143Y-56995648D01*
X95981564Y-56944065D01*
X95982254Y-56937500D01*
X95973557Y-56854751D01*
X95962982Y-56754135D01*
X95962982Y-56754133D01*
X95962292Y-56747572D01*
X95903277Y-56565944D01*
X95807790Y-56400556D01*
X95798854Y-56390631D01*
X95684425Y-56263545D01*
X95684424Y-56263544D01*
X95680003Y-56258634D01*
X95525502Y-56146382D01*
X95519474Y-56143698D01*
X95519472Y-56143697D01*
X95357069Y-56071391D01*
X95357068Y-56071391D01*
X95351038Y-56068706D01*
X95257637Y-56048853D01*
X95170694Y-56030372D01*
X95170689Y-56030372D01*
X95164237Y-56029000D01*
X94973263Y-56029000D01*
X94966811Y-56030372D01*
X94966806Y-56030372D01*
X94879863Y-56048853D01*
X94786462Y-56068706D01*
X94780432Y-56071391D01*
X94780431Y-56071391D01*
X94618028Y-56143697D01*
X94618026Y-56143698D01*
X94611998Y-56146382D01*
X94457497Y-56258634D01*
X94453076Y-56263544D01*
X94453075Y-56263545D01*
X94338647Y-56390631D01*
X94329710Y-56400556D01*
X94234223Y-56565944D01*
X94175208Y-56747572D01*
X94174518Y-56754133D01*
X94174518Y-56754135D01*
X94163943Y-56854751D01*
X94155246Y-56937500D01*
X67780452Y-56937500D01*
X67779370Y-56025360D01*
X67777313Y-54290527D01*
X67779059Y-54269475D01*
X67781519Y-54254851D01*
X67781519Y-54254845D01*
X67782326Y-54250052D01*
X67782479Y-54237500D01*
X77355246Y-54237500D01*
X77375208Y-54427428D01*
X77434223Y-54609056D01*
X77529710Y-54774444D01*
X77534128Y-54779351D01*
X77534129Y-54779352D01*
X77653075Y-54911455D01*
X77657497Y-54916366D01*
X77811998Y-55028618D01*
X77818026Y-55031302D01*
X77818028Y-55031303D01*
X77852139Y-55046490D01*
X77986462Y-55106294D01*
X78071230Y-55124312D01*
X78166806Y-55144628D01*
X78166811Y-55144628D01*
X78173263Y-55146000D01*
X78364237Y-55146000D01*
X78370689Y-55144628D01*
X78370694Y-55144628D01*
X78466270Y-55124312D01*
X78551038Y-55106294D01*
X78685361Y-55046490D01*
X78719472Y-55031303D01*
X78719474Y-55031302D01*
X78725502Y-55028618D01*
X78880003Y-54916366D01*
X78884425Y-54911455D01*
X79003371Y-54779352D01*
X79003372Y-54779351D01*
X79007790Y-54774444D01*
X79093293Y-54626349D01*
X96555246Y-54626349D01*
X96555936Y-54632914D01*
X96566579Y-54734172D01*
X96575208Y-54816277D01*
X96634223Y-54997905D01*
X96729710Y-55163293D01*
X96734125Y-55168196D01*
X96734129Y-55168201D01*
X96810740Y-55253286D01*
X96841458Y-55317293D01*
X96832693Y-55387747D01*
X96810741Y-55421905D01*
X96750855Y-55488416D01*
X96655368Y-55653804D01*
X96596353Y-55835432D01*
X96576391Y-56025360D01*
X96577081Y-56031925D01*
X96588829Y-56143697D01*
X96596353Y-56215288D01*
X96655368Y-56396916D01*
X96750855Y-56562304D01*
X96755273Y-56567211D01*
X96755274Y-56567212D01*
X96845424Y-56667334D01*
X96878642Y-56704226D01*
X97033143Y-56816478D01*
X97039171Y-56819162D01*
X97039173Y-56819163D01*
X97201576Y-56891469D01*
X97207607Y-56894154D01*
X97301008Y-56914007D01*
X97387951Y-56932488D01*
X97387956Y-56932488D01*
X97394408Y-56933860D01*
X97585382Y-56933860D01*
X97591834Y-56932488D01*
X97591839Y-56932488D01*
X97678782Y-56914007D01*
X97772183Y-56894154D01*
X97778214Y-56891469D01*
X97940617Y-56819163D01*
X97940619Y-56819162D01*
X97946647Y-56816478D01*
X98101148Y-56704226D01*
X98134366Y-56667334D01*
X98224516Y-56567212D01*
X98224517Y-56567211D01*
X98228935Y-56562304D01*
X98324422Y-56396916D01*
X98383437Y-56215288D01*
X98390962Y-56143697D01*
X98402709Y-56031925D01*
X98403399Y-56025360D01*
X98383437Y-55835432D01*
X98324422Y-55653804D01*
X98228935Y-55488416D01*
X98199876Y-55456142D01*
X98147905Y-55398423D01*
X98117187Y-55334416D01*
X98125952Y-55263962D01*
X98147904Y-55229803D01*
X98167958Y-55207531D01*
X98207790Y-55163293D01*
X98223759Y-55135634D01*
X99610250Y-55135634D01*
X99617005Y-55197816D01*
X99668135Y-55334205D01*
X99755489Y-55450761D01*
X99872045Y-55538115D01*
X100008434Y-55589245D01*
X100070616Y-55596000D01*
X101866884Y-55596000D01*
X101929066Y-55589245D01*
X102065455Y-55538115D01*
X102182011Y-55450761D01*
X102269365Y-55334205D01*
X102291549Y-55275029D01*
X102313348Y-55216882D01*
X102355990Y-55160118D01*
X102422552Y-55135418D01*
X102491900Y-55150626D01*
X102526567Y-55178614D01*
X102555000Y-55211438D01*
X102726876Y-55354132D01*
X102919750Y-55466838D01*
X103128442Y-55546530D01*
X103133510Y-55547561D01*
X103133513Y-55547562D01*
X103228612Y-55566910D01*
X103347347Y-55591067D01*
X103352522Y-55591257D01*
X103352524Y-55591257D01*
X103565423Y-55599064D01*
X103565427Y-55599064D01*
X103570587Y-55599253D01*
X103575707Y-55598597D01*
X103575709Y-55598597D01*
X103787038Y-55571525D01*
X103787039Y-55571525D01*
X103792166Y-55570868D01*
X103797116Y-55569383D01*
X104001179Y-55508161D01*
X104001184Y-55508159D01*
X104006134Y-55506674D01*
X104206744Y-55408396D01*
X104388610Y-55278673D01*
X104403373Y-55263962D01*
X104532366Y-55135418D01*
X104546846Y-55120989D01*
X104556420Y-55107666D01*
X104677203Y-54939577D01*
X104678526Y-54940528D01*
X104725395Y-54897357D01*
X104795330Y-54885125D01*
X104860776Y-54912644D01*
X104888625Y-54944494D01*
X104948737Y-55042588D01*
X105095000Y-55211438D01*
X105266876Y-55354132D01*
X105459750Y-55466838D01*
X105668442Y-55546530D01*
X105673510Y-55547561D01*
X105673513Y-55547562D01*
X105768612Y-55566910D01*
X105887347Y-55591067D01*
X105892522Y-55591257D01*
X105892524Y-55591257D01*
X106105423Y-55599064D01*
X106105427Y-55599064D01*
X106110587Y-55599253D01*
X106115707Y-55598597D01*
X106115709Y-55598597D01*
X106327038Y-55571525D01*
X106327039Y-55571525D01*
X106332166Y-55570868D01*
X106337116Y-55569383D01*
X106541179Y-55508161D01*
X106541184Y-55508159D01*
X106546134Y-55506674D01*
X106746744Y-55408396D01*
X106928610Y-55278673D01*
X106943373Y-55263962D01*
X107072366Y-55135418D01*
X107086846Y-55120989D01*
X107096420Y-55107666D01*
X107217203Y-54939577D01*
X107218390Y-54940430D01*
X107265710Y-54896862D01*
X107335647Y-54884645D01*
X107401088Y-54912178D01*
X107428916Y-54944011D01*
X107486444Y-55037888D01*
X107492527Y-55046199D01*
X107631963Y-55207167D01*
X107639330Y-55214383D01*
X107803184Y-55350416D01*
X107811631Y-55356331D01*
X107995506Y-55463779D01*
X108004792Y-55468229D01*
X108203751Y-55544203D01*
X108213649Y-55547079D01*
X108317000Y-55568106D01*
X108331049Y-55566910D01*
X108334750Y-55556565D01*
X108334750Y-55556017D01*
X108842750Y-55556017D01*
X108846814Y-55569859D01*
X108860228Y-55571893D01*
X108866934Y-55571034D01*
X108877012Y-55568892D01*
X109081005Y-55507691D01*
X109090592Y-55503933D01*
X109281845Y-55410239D01*
X109290695Y-55404964D01*
X109464078Y-55281292D01*
X109471950Y-55274639D01*
X109622802Y-55124312D01*
X109629480Y-55116465D01*
X109753753Y-54943520D01*
X109759063Y-54934683D01*
X109853420Y-54743767D01*
X109857219Y-54734172D01*
X109919127Y-54530410D01*
X109921305Y-54520337D01*
X109922736Y-54509462D01*
X109920525Y-54495278D01*
X109907367Y-54491500D01*
X108860865Y-54491500D01*
X108845626Y-54495975D01*
X108844421Y-54497365D01*
X108842750Y-54505048D01*
X108842750Y-55556017D01*
X108334750Y-55556017D01*
X108334750Y-53965385D01*
X108842750Y-53965385D01*
X108847225Y-53980624D01*
X108848615Y-53981829D01*
X108856298Y-53983500D01*
X109907094Y-53983500D01*
X109920625Y-53979527D01*
X109921930Y-53970447D01*
X109879964Y-53803375D01*
X109876644Y-53793624D01*
X109791722Y-53598314D01*
X109786855Y-53589239D01*
X109671176Y-53410426D01*
X109664886Y-53402257D01*
X109521556Y-53244740D01*
X109514023Y-53237715D01*
X109346889Y-53105722D01*
X109338302Y-53100017D01*
X109151867Y-52997099D01*
X109142455Y-52992869D01*
X108941709Y-52921780D01*
X108931738Y-52919146D01*
X108860587Y-52906472D01*
X108847290Y-52907932D01*
X108842750Y-52922489D01*
X108842750Y-53965385D01*
X108334750Y-53965385D01*
X108334750Y-52920602D01*
X108330832Y-52907258D01*
X108316556Y-52905271D01*
X108278074Y-52911160D01*
X108268038Y-52913551D01*
X108065618Y-52979712D01*
X108056109Y-52983709D01*
X107867213Y-53082042D01*
X107858488Y-53087536D01*
X107688183Y-53215405D01*
X107680476Y-53222248D01*
X107533340Y-53376217D01*
X107526859Y-53384222D01*
X107422248Y-53537574D01*
X107367337Y-53582576D01*
X107296812Y-53590747D01*
X107233065Y-53559493D01*
X107212368Y-53535009D01*
X107131572Y-53410117D01*
X107131570Y-53410114D01*
X107128764Y-53405777D01*
X106978420Y-53240551D01*
X106974369Y-53237352D01*
X106974365Y-53237348D01*
X106807164Y-53105300D01*
X106807160Y-53105298D01*
X106803109Y-53102098D01*
X106766778Y-53082042D01*
X106733165Y-53063487D01*
X106607539Y-52994138D01*
X106602670Y-52992414D01*
X106602666Y-52992412D01*
X106401837Y-52921295D01*
X106401833Y-52921294D01*
X106396962Y-52919569D01*
X106391869Y-52918662D01*
X106391866Y-52918661D01*
X106182123Y-52881300D01*
X106182117Y-52881299D01*
X106177034Y-52880394D01*
X106103202Y-52879492D01*
X105958831Y-52877728D01*
X105958829Y-52877728D01*
X105953661Y-52877665D01*
X105732841Y-52911455D01*
X105520506Y-52980857D01*
X105447507Y-53018858D01*
X105348427Y-53070436D01*
X105322357Y-53084007D01*
X105318224Y-53087110D01*
X105318221Y-53087112D01*
X105147850Y-53215030D01*
X105143715Y-53218135D01*
X105140143Y-53221873D01*
X105020528Y-53347043D01*
X104989379Y-53379638D01*
X104881951Y-53537121D01*
X104827043Y-53582121D01*
X104756518Y-53590292D01*
X104692771Y-53559038D01*
X104672074Y-53534554D01*
X104591572Y-53410117D01*
X104591570Y-53410114D01*
X104588764Y-53405777D01*
X104438420Y-53240551D01*
X104434369Y-53237352D01*
X104434365Y-53237348D01*
X104267164Y-53105300D01*
X104267160Y-53105298D01*
X104263109Y-53102098D01*
X104226778Y-53082042D01*
X104193165Y-53063487D01*
X104067539Y-52994138D01*
X104062670Y-52992414D01*
X104062666Y-52992412D01*
X103861837Y-52921295D01*
X103861833Y-52921294D01*
X103856962Y-52919569D01*
X103851869Y-52918662D01*
X103851866Y-52918661D01*
X103642123Y-52881300D01*
X103642117Y-52881299D01*
X103637034Y-52880394D01*
X103563202Y-52879492D01*
X103418831Y-52877728D01*
X103418829Y-52877728D01*
X103413661Y-52877665D01*
X103192841Y-52911455D01*
X102980506Y-52980857D01*
X102907507Y-53018858D01*
X102808427Y-53070436D01*
X102782357Y-53084007D01*
X102778224Y-53087110D01*
X102778221Y-53087112D01*
X102607850Y-53215030D01*
X102603715Y-53218135D01*
X102547287Y-53277184D01*
X102523033Y-53302564D01*
X102461509Y-53337994D01*
X102390596Y-53334537D01*
X102332810Y-53293291D01*
X102313957Y-53259743D01*
X102272517Y-53149203D01*
X102269365Y-53140795D01*
X102182011Y-53024239D01*
X102065455Y-52936885D01*
X101929066Y-52885755D01*
X101866884Y-52879000D01*
X100070616Y-52879000D01*
X100008434Y-52885755D01*
X99872045Y-52936885D01*
X99755489Y-53024239D01*
X99668135Y-53140795D01*
X99617005Y-53277184D01*
X99610250Y-53339366D01*
X99610250Y-55135634D01*
X98223759Y-55135634D01*
X98303277Y-54997905D01*
X98362292Y-54816277D01*
X98370922Y-54734172D01*
X98381564Y-54632914D01*
X98382254Y-54626349D01*
X98369505Y-54505048D01*
X98362982Y-54442984D01*
X98362982Y-54442982D01*
X98362292Y-54436421D01*
X98303277Y-54254793D01*
X98289670Y-54231224D01*
X98266064Y-54190339D01*
X98207790Y-54089405D01*
X98170124Y-54047572D01*
X98084425Y-53952394D01*
X98084424Y-53952393D01*
X98080003Y-53947483D01*
X97925502Y-53835231D01*
X97919474Y-53832547D01*
X97919472Y-53832546D01*
X97757069Y-53760240D01*
X97757068Y-53760240D01*
X97751038Y-53757555D01*
X97657638Y-53737702D01*
X97570694Y-53719221D01*
X97570689Y-53719221D01*
X97564237Y-53717849D01*
X97373263Y-53717849D01*
X97366811Y-53719221D01*
X97366806Y-53719221D01*
X97279863Y-53737702D01*
X97186462Y-53757555D01*
X97180432Y-53760240D01*
X97180431Y-53760240D01*
X97018028Y-53832546D01*
X97018026Y-53832547D01*
X97011998Y-53835231D01*
X96857497Y-53947483D01*
X96853076Y-53952393D01*
X96853075Y-53952394D01*
X96767377Y-54047572D01*
X96729710Y-54089405D01*
X96671436Y-54190339D01*
X96647831Y-54231224D01*
X96634223Y-54254793D01*
X96575208Y-54436421D01*
X96574518Y-54442982D01*
X96574518Y-54442984D01*
X96567995Y-54505048D01*
X96555246Y-54626349D01*
X79093293Y-54626349D01*
X79103277Y-54609056D01*
X79162292Y-54427428D01*
X79182254Y-54237500D01*
X79162292Y-54047572D01*
X79103277Y-53865944D01*
X79007790Y-53700556D01*
X78947831Y-53633964D01*
X78884425Y-53563545D01*
X78884424Y-53563544D01*
X78880003Y-53558634D01*
X78725502Y-53446382D01*
X78719474Y-53443698D01*
X78719472Y-53443697D01*
X78557069Y-53371391D01*
X78557068Y-53371391D01*
X78551038Y-53368706D01*
X78429081Y-53342783D01*
X78370694Y-53330372D01*
X78370689Y-53330372D01*
X78364237Y-53329000D01*
X78173263Y-53329000D01*
X78166811Y-53330372D01*
X78166806Y-53330372D01*
X78108419Y-53342783D01*
X77986462Y-53368706D01*
X77980432Y-53371391D01*
X77980431Y-53371391D01*
X77818028Y-53443697D01*
X77818026Y-53443698D01*
X77811998Y-53446382D01*
X77657497Y-53558634D01*
X77653076Y-53563544D01*
X77653075Y-53563545D01*
X77589670Y-53633964D01*
X77529710Y-53700556D01*
X77434223Y-53865944D01*
X77375208Y-54047572D01*
X77355246Y-54237500D01*
X67782479Y-54237500D01*
X67781790Y-54232686D01*
X67781789Y-54232677D01*
X67780619Y-54224506D01*
X67779577Y-54199041D01*
X67794956Y-53944788D01*
X67796790Y-53929683D01*
X67848274Y-53648737D01*
X67851915Y-53633964D01*
X67909158Y-53450263D01*
X67936891Y-53361264D01*
X67942279Y-53347056D01*
X68059509Y-53086579D01*
X68066579Y-53073109D01*
X68214341Y-52828675D01*
X68222985Y-52816152D01*
X68399137Y-52591309D01*
X68409226Y-52579920D01*
X68611191Y-52377952D01*
X68622580Y-52367863D01*
X68847416Y-52191712D01*
X68859937Y-52183068D01*
X69104374Y-52035297D01*
X69117847Y-52028226D01*
X69378307Y-51910999D01*
X69392533Y-51905604D01*
X69665218Y-51820627D01*
X69679991Y-51816985D01*
X69960944Y-51765495D01*
X69976048Y-51763661D01*
X70226432Y-51748511D01*
X70253424Y-51749781D01*
X70253594Y-51749807D01*
X70262483Y-51751191D01*
X70271384Y-51750027D01*
X70271389Y-51750027D01*
X70294127Y-51747053D01*
X70310430Y-51745989D01*
X129029355Y-51729840D01*
X129048771Y-51731340D01*
G37*
%TD.AperFunction*%
M02*
