M48
; DRILL file {KiCad (6.0.4)} date Mon Nov 28 15:49:40 2022
; FORMAT={-:-/ absolute / metric / decimal}
; #@! TF.CreationDate,2022-11-28T15:49:40+01:00
; #@! TF.GenerationSoftware,Kicad,Pcbnew,(6.0.4)
; #@! TF.FileFunction,Plated,1,4,PTH
FMAT,2
METRIC
; #@! TA.AperFunction,Plated,PTH,ViaDrill
T1C0.400
; #@! TA.AperFunction,Plated,PTH,ComponentDrill
T2C0.600
; #@! TA.AperFunction,Plated,PTH,ComponentDrill
T3C1.000
%
G90
G05
T1
X71.416Y-63.034
X71.698Y-61.208
X72.096Y-63.767
X72.116Y-62.191
X75.269Y-56.737
X75.269Y-69.237
X75.769Y-58.438
X75.769Y-59.537
X75.969Y-66.037
X75.969Y-67.037
X76.769Y-58.438
X76.769Y-59.537
X76.969Y-66.037
X76.969Y-67.037
X77.769Y-56.237
X78.269Y-54.237
X78.569Y-65.638
X79.269Y-73.737
X82.569Y-60.637
X85.269Y-62.837
X86.589Y-59.185
X86.719Y-60.287
X87.469Y-67.438
X87.969Y-56.438
X88.769Y-71.037
X90.269Y-66.737
X90.606Y-56.872
X91.269Y-60.137
X91.269Y-63.438
X92.369Y-60.137
X92.369Y-63.438
X93.169Y-69.737
X93.269Y-71.762
X94.669Y-65.837
X94.769Y-71.737
X95.069Y-56.938
X95.82Y-67.837
X95.969Y-69.938
X96.369Y-64.237
X96.369Y-74.337
X96.469Y-56.438
X97.269Y-67.938
X97.469Y-54.626
X97.49Y-56.025
X98.469Y-59.238
X98.569Y-64.638
X99.469Y-60.037
X99.649Y-67.893
X99.669Y-64.638
X100.869Y-74.337
X101.569Y-59.837
X101.619Y-70.188
X101.669Y-61.237
X102.769Y-67.537
X102.769Y-72.438
X103.669Y-66.537
X104.606Y-64.2
X105.569Y-60.438
X105.869Y-62.438
X106.569Y-71.337
X106.769Y-67.337
X106.869Y-56.637
X107.569Y-57.537
X107.869Y-67.737
X107.869Y-70.037
X108.569Y-74.337
X110.993Y-65.938
X111.869Y-65.138
X112.169Y-68.537
X112.469Y-62.013
X112.469Y-74.237
X112.881Y-70.325
X113.669Y-59.637
X113.969Y-72.438
X115.569Y-62.013
X115.769Y-56.737
X115.769Y-59.737
X116.269Y-69.537
X117.619Y-60.287
X118.469Y-57.137
X118.769Y-69.737
X121.531Y-68.0
X121.569Y-56.337
X121.769Y-69.737
X123.006Y-68.0
X124.469Y-69.737
X125.269Y-56.337
X127.169Y-69.737
X128.569Y-56.337
X129.969Y-69.737
T3
X100.969Y-54.237
X103.509Y-54.237
X106.049Y-54.237
X108.589Y-54.237
T2
X69.281Y-58.467G85X68.681Y-58.467
G05
X69.281Y-67.108G85X68.681Y-67.108
G05
X73.711Y-58.467G85X72.611Y-58.467
G05
X73.711Y-67.108G85X72.611Y-67.108
G05
T0
M30
