%TF.GenerationSoftware,KiCad,Pcbnew,(6.0.4)*%
%TF.CreationDate,2022-11-28T15:49:36+01:00*%
%TF.ProjectId,STM32F103RF,53544d33-3246-4313-9033-52462e6b6963,1*%
%TF.SameCoordinates,Original*%
%TF.FileFunction,Legend,Top*%
%TF.FilePolarity,Positive*%
%FSLAX46Y46*%
G04 Gerber Fmt 4.6, Leading zero omitted, Abs format (unit mm)*
G04 Created by KiCad (PCBNEW (6.0.4)) date 2022-11-28 15:49:36*
%MOMM*%
%LPD*%
G01*
G04 APERTURE LIST*
G04 Aperture macros list*
%AMRoundRect*
0 Rectangle with rounded corners*
0 $1 Rounding radius*
0 $2 $3 $4 $5 $6 $7 $8 $9 X,Y pos of 4 corners*
0 Add a 4 corners polygon primitive as box body*
4,1,4,$2,$3,$4,$5,$6,$7,$8,$9,$2,$3,0*
0 Add four circle primitives for the rounded corners*
1,1,$1+$1,$2,$3*
1,1,$1+$1,$4,$5*
1,1,$1+$1,$6,$7*
1,1,$1+$1,$8,$9*
0 Add four rect primitives between the rounded corners*
20,1,$1+$1,$2,$3,$4,$5,0*
20,1,$1+$1,$4,$5,$6,$7,0*
20,1,$1+$1,$6,$7,$8,$9,0*
20,1,$1+$1,$8,$9,$2,$3,0*%
%AMRotRect*
0 Rectangle, with rotation*
0 The origin of the aperture is its center*
0 $1 length*
0 $2 width*
0 $3 Rotation angle, in degrees counterclockwise*
0 Add horizontal line*
21,1,$1,$2,0,0,$3*%
G04 Aperture macros list end*
%ADD10C,0.150000*%
%ADD11C,0.120000*%
%ADD12RoundRect,0.237500X0.237500X-0.300000X0.237500X0.300000X-0.237500X0.300000X-0.237500X-0.300000X0*%
%ADD13RoundRect,0.237500X-0.287500X-0.237500X0.287500X-0.237500X0.287500X0.237500X-0.287500X0.237500X0*%
%ADD14RoundRect,0.237500X-0.237500X0.250000X-0.237500X-0.250000X0.237500X-0.250000X0.237500X0.250000X0*%
%ADD15RoundRect,0.237500X-0.344715X0.008839X0.008839X-0.344715X0.344715X-0.008839X-0.008839X0.344715X0*%
%ADD16RoundRect,0.237500X0.300000X0.237500X-0.300000X0.237500X-0.300000X-0.237500X0.300000X-0.237500X0*%
%ADD17RoundRect,0.075000X0.075000X-0.662500X0.075000X0.662500X-0.075000X0.662500X-0.075000X-0.662500X0*%
%ADD18RoundRect,0.075000X0.662500X-0.075000X0.662500X0.075000X-0.662500X0.075000X-0.662500X-0.075000X0*%
%ADD19RoundRect,0.237500X0.237500X-0.287500X0.237500X0.287500X-0.237500X0.287500X-0.237500X-0.287500X0*%
%ADD20RoundRect,0.237500X-0.380070X0.044194X0.044194X-0.380070X0.380070X-0.044194X-0.044194X0.380070X0*%
%ADD21R,1.700000X1.700000*%
%ADD22O,1.700000X1.700000*%
%ADD23C,0.650000*%
%ADD24R,1.450000X0.600000*%
%ADD25R,1.450000X0.300000*%
%ADD26O,1.600000X1.000000*%
%ADD27O,2.100000X1.000000*%
%ADD28RoundRect,0.237500X0.287500X0.237500X-0.287500X0.237500X-0.287500X-0.237500X0.287500X-0.237500X0*%
%ADD29RoundRect,0.237500X-0.300000X-0.237500X0.300000X-0.237500X0.300000X0.237500X-0.300000X0.237500X0*%
%ADD30RoundRect,0.237500X-0.250000X-0.237500X0.250000X-0.237500X0.250000X0.237500X-0.250000X0.237500X0*%
%ADD31RoundRect,0.237500X-0.237500X0.300000X-0.237500X-0.300000X0.237500X-0.300000X0.237500X0.300000X0*%
%ADD32R,1.000000X1.000000*%
%ADD33RoundRect,0.237500X0.044194X0.380070X-0.380070X-0.044194X-0.044194X-0.380070X0.380070X0.044194X0*%
%ADD34RoundRect,0.237500X0.250000X0.237500X-0.250000X0.237500X-0.250000X-0.237500X0.250000X-0.237500X0*%
%ADD35RoundRect,0.062500X-0.350000X-0.062500X0.350000X-0.062500X0.350000X0.062500X-0.350000X0.062500X0*%
%ADD36RoundRect,0.062500X-0.062500X-0.350000X0.062500X-0.350000X0.062500X0.350000X-0.062500X0.350000X0*%
%ADD37R,2.500000X2.500000*%
%ADD38RotRect,1.150000X1.000000X315.000000*%
%ADD39R,3.600000X1.270000*%
%ADD40R,4.200000X1.350000*%
%ADD41RoundRect,0.150000X-0.512500X-0.150000X0.512500X-0.150000X0.512500X0.150000X-0.512500X0.150000X0*%
%ADD42RotRect,1.150000X1.000000X135.000000*%
G04 APERTURE END LIST*
D10*
X111149702Y-53542261D02*
X111292559Y-53589880D01*
X111530654Y-53589880D01*
X111625892Y-53542261D01*
X111673511Y-53494642D01*
X111721130Y-53399404D01*
X111721130Y-53304166D01*
X111673511Y-53208928D01*
X111625892Y-53161309D01*
X111530654Y-53113690D01*
X111340178Y-53066071D01*
X111244940Y-53018452D01*
X111197321Y-52970833D01*
X111149702Y-52875595D01*
X111149702Y-52780357D01*
X111197321Y-52685119D01*
X111244940Y-52637500D01*
X111340178Y-52589880D01*
X111578273Y-52589880D01*
X111721130Y-52637500D01*
X112054464Y-52589880D02*
X112292559Y-53589880D01*
X112483035Y-52875595D01*
X112673511Y-53589880D01*
X112911607Y-52589880D01*
X113292559Y-53589880D02*
X113292559Y-52589880D01*
X113530654Y-52589880D01*
X113673511Y-52637500D01*
X113768750Y-52732738D01*
X113816369Y-52827976D01*
X113863988Y-53018452D01*
X113863988Y-53161309D01*
X113816369Y-53351785D01*
X113768750Y-53447023D01*
X113673511Y-53542261D01*
X113530654Y-53589880D01*
X113292559Y-53589880D01*
X114292559Y-53589880D02*
X114292559Y-52589880D01*
X114959226Y-52589880D02*
X115149702Y-52589880D01*
X115244940Y-52637500D01*
X115340178Y-52732738D01*
X115387797Y-52923214D01*
X115387797Y-53256547D01*
X115340178Y-53447023D01*
X115244940Y-53542261D01*
X115149702Y-53589880D01*
X114959226Y-53589880D01*
X114863988Y-53542261D01*
X114768750Y-53447023D01*
X114721130Y-53256547D01*
X114721130Y-52923214D01*
X114768750Y-52732738D01*
X114863988Y-52637500D01*
X114959226Y-52589880D01*
X116054464Y-53923214D02*
X116054464Y-52494642D01*
X117292559Y-52637500D02*
X117197321Y-52589880D01*
X117054464Y-52589880D01*
X116911607Y-52637500D01*
X116816369Y-52732738D01*
X116768750Y-52827976D01*
X116721130Y-53018452D01*
X116721130Y-53161309D01*
X116768750Y-53351785D01*
X116816369Y-53447023D01*
X116911607Y-53542261D01*
X117054464Y-53589880D01*
X117149702Y-53589880D01*
X117292559Y-53542261D01*
X117340178Y-53494642D01*
X117340178Y-53161309D01*
X117149702Y-53161309D01*
X117768750Y-53589880D02*
X117768750Y-52589880D01*
X118340178Y-53589880D01*
X118340178Y-52589880D01*
X118816369Y-53589880D02*
X118816369Y-52589880D01*
X119054464Y-52589880D01*
X119197321Y-52637500D01*
X119292559Y-52732738D01*
X119340178Y-52827976D01*
X119387797Y-53018452D01*
X119387797Y-53161309D01*
X119340178Y-53351785D01*
X119292559Y-53447023D01*
X119197321Y-53542261D01*
X119054464Y-53589880D01*
X118816369Y-53589880D01*
X81349702Y-70689880D02*
X81349702Y-69689880D01*
X81730654Y-69689880D01*
X81825892Y-69737500D01*
X81873511Y-69785119D01*
X81921130Y-69880357D01*
X81921130Y-70023214D01*
X81873511Y-70118452D01*
X81825892Y-70166071D01*
X81730654Y-70213690D01*
X81349702Y-70213690D01*
X82921130Y-70594642D02*
X82873511Y-70642261D01*
X82730654Y-70689880D01*
X82635416Y-70689880D01*
X82492559Y-70642261D01*
X82397321Y-70547023D01*
X82349702Y-70451785D01*
X82302083Y-70261309D01*
X82302083Y-70118452D01*
X82349702Y-69927976D01*
X82397321Y-69832738D01*
X82492559Y-69737500D01*
X82635416Y-69689880D01*
X82730654Y-69689880D01*
X82873511Y-69737500D01*
X82921130Y-69785119D01*
X83873511Y-70689880D02*
X83302083Y-70689880D01*
X83587797Y-70689880D02*
X83587797Y-69689880D01*
X83492559Y-69832738D01*
X83397321Y-69927976D01*
X83302083Y-69975595D01*
X84206845Y-69689880D02*
X84825892Y-69689880D01*
X84492559Y-70070833D01*
X84635416Y-70070833D01*
X84730654Y-70118452D01*
X84778273Y-70166071D01*
X84825892Y-70261309D01*
X84825892Y-70499404D01*
X84778273Y-70594642D01*
X84730654Y-70642261D01*
X84635416Y-70689880D01*
X84349702Y-70689880D01*
X84254464Y-70642261D01*
X84206845Y-70594642D01*
X85730654Y-70689880D02*
X85254464Y-70689880D01*
X85254464Y-69689880D01*
X120064285Y-71415285D02*
X120192857Y-71458142D01*
X120407142Y-71458142D01*
X120492857Y-71415285D01*
X120535714Y-71372428D01*
X120578571Y-71286714D01*
X120578571Y-71201000D01*
X120535714Y-71115285D01*
X120492857Y-71072428D01*
X120407142Y-71029571D01*
X120235714Y-70986714D01*
X120150000Y-70943857D01*
X120107142Y-70901000D01*
X120064285Y-70815285D01*
X120064285Y-70729571D01*
X120107142Y-70643857D01*
X120150000Y-70601000D01*
X120235714Y-70558142D01*
X120450000Y-70558142D01*
X120578571Y-70601000D01*
X120835714Y-70558142D02*
X121350000Y-70558142D01*
X121092857Y-71458142D02*
X121092857Y-70558142D01*
X122164285Y-71458142D02*
X121864285Y-71029571D01*
X121650000Y-71458142D02*
X121650000Y-70558142D01*
X121992857Y-70558142D01*
X122078571Y-70601000D01*
X122121428Y-70643857D01*
X122164285Y-70729571D01*
X122164285Y-70858142D01*
X122121428Y-70943857D01*
X122078571Y-70986714D01*
X121992857Y-71029571D01*
X121650000Y-71029571D01*
X122850000Y-70986714D02*
X122550000Y-70986714D01*
X122550000Y-71458142D02*
X122550000Y-70558142D01*
X122978571Y-70558142D01*
X117107142Y-72007142D02*
X117621428Y-72007142D01*
X117364285Y-72907142D02*
X117364285Y-72007142D01*
X117921428Y-72907142D02*
X117921428Y-72007142D01*
X118307142Y-72907142D02*
X118307142Y-72435714D01*
X118264285Y-72350000D01*
X118178571Y-72307142D01*
X118050000Y-72307142D01*
X117964285Y-72350000D01*
X117921428Y-72392857D01*
X118864285Y-72907142D02*
X118778571Y-72864285D01*
X118735714Y-72821428D01*
X118692857Y-72735714D01*
X118692857Y-72478571D01*
X118735714Y-72392857D01*
X118778571Y-72350000D01*
X118864285Y-72307142D01*
X118992857Y-72307142D01*
X119078571Y-72350000D01*
X119121428Y-72392857D01*
X119164285Y-72478571D01*
X119164285Y-72735714D01*
X119121428Y-72821428D01*
X119078571Y-72864285D01*
X118992857Y-72907142D01*
X118864285Y-72907142D01*
X119550000Y-72907142D02*
X119550000Y-72307142D01*
X119550000Y-72392857D02*
X119592857Y-72350000D01*
X119678571Y-72307142D01*
X119807142Y-72307142D01*
X119892857Y-72350000D01*
X119935714Y-72435714D01*
X119935714Y-72907142D01*
X119935714Y-72435714D02*
X119978571Y-72350000D01*
X120064285Y-72307142D01*
X120192857Y-72307142D01*
X120278571Y-72350000D01*
X120321428Y-72435714D01*
X120321428Y-72907142D01*
X121135714Y-72907142D02*
X121135714Y-72435714D01*
X121092857Y-72350000D01*
X121007142Y-72307142D01*
X120835714Y-72307142D01*
X120750000Y-72350000D01*
X121135714Y-72864285D02*
X121050000Y-72907142D01*
X120835714Y-72907142D01*
X120750000Y-72864285D01*
X120707142Y-72778571D01*
X120707142Y-72692857D01*
X120750000Y-72607142D01*
X120835714Y-72564285D01*
X121050000Y-72564285D01*
X121135714Y-72521428D01*
X121521428Y-72864285D02*
X121607142Y-72907142D01*
X121778571Y-72907142D01*
X121864285Y-72864285D01*
X121907142Y-72778571D01*
X121907142Y-72735714D01*
X121864285Y-72650000D01*
X121778571Y-72607142D01*
X121650000Y-72607142D01*
X121564285Y-72564285D01*
X121521428Y-72478571D01*
X121521428Y-72435714D01*
X121564285Y-72350000D01*
X121650000Y-72307142D01*
X121778571Y-72307142D01*
X121864285Y-72350000D01*
X122978571Y-72907142D02*
X122978571Y-72007142D01*
X123321428Y-72007142D01*
X123407142Y-72050000D01*
X123450000Y-72092857D01*
X123492857Y-72178571D01*
X123492857Y-72307142D01*
X123450000Y-72392857D01*
X123407142Y-72435714D01*
X123321428Y-72478571D01*
X122978571Y-72478571D01*
X124221428Y-72864285D02*
X124135714Y-72907142D01*
X123964285Y-72907142D01*
X123878571Y-72864285D01*
X123835714Y-72778571D01*
X123835714Y-72435714D01*
X123878571Y-72350000D01*
X123964285Y-72307142D01*
X124135714Y-72307142D01*
X124221428Y-72350000D01*
X124264285Y-72435714D01*
X124264285Y-72521428D01*
X123835714Y-72607142D01*
X124650000Y-72907142D02*
X124650000Y-72307142D01*
X124650000Y-72478571D02*
X124692857Y-72392857D01*
X124735714Y-72350000D01*
X124821428Y-72307142D01*
X124907142Y-72307142D01*
X125207142Y-72907142D02*
X125207142Y-72307142D01*
X125207142Y-72478571D02*
X125250000Y-72392857D01*
X125292857Y-72350000D01*
X125378571Y-72307142D01*
X125464285Y-72307142D01*
X125764285Y-72907142D02*
X125764285Y-72307142D01*
X125764285Y-72007142D02*
X125721428Y-72050000D01*
X125764285Y-72092857D01*
X125807142Y-72050000D01*
X125764285Y-72007142D01*
X125764285Y-72092857D01*
X114557142Y-73499000D02*
X114471428Y-73456142D01*
X114342857Y-73456142D01*
X114214285Y-73499000D01*
X114128571Y-73584714D01*
X114085714Y-73670428D01*
X114042857Y-73841857D01*
X114042857Y-73970428D01*
X114085714Y-74141857D01*
X114128571Y-74227571D01*
X114214285Y-74313285D01*
X114342857Y-74356142D01*
X114428571Y-74356142D01*
X114557142Y-74313285D01*
X114600000Y-74270428D01*
X114600000Y-73970428D01*
X114428571Y-73970428D01*
X114985714Y-74356142D02*
X114985714Y-73756142D01*
X114985714Y-73456142D02*
X114942857Y-73499000D01*
X114985714Y-73541857D01*
X115028571Y-73499000D01*
X114985714Y-73456142D01*
X114985714Y-73541857D01*
X115285714Y-73756142D02*
X115628571Y-73756142D01*
X115414285Y-73456142D02*
X115414285Y-74227571D01*
X115457142Y-74313285D01*
X115542857Y-74356142D01*
X115628571Y-74356142D01*
X115928571Y-74356142D02*
X115928571Y-73456142D01*
X115928571Y-73884714D02*
X116442857Y-73884714D01*
X116442857Y-74356142D02*
X116442857Y-73456142D01*
X117257142Y-73756142D02*
X117257142Y-74356142D01*
X116871428Y-73756142D02*
X116871428Y-74227571D01*
X116914285Y-74313285D01*
X117000000Y-74356142D01*
X117128571Y-74356142D01*
X117214285Y-74313285D01*
X117257142Y-74270428D01*
X117685714Y-74356142D02*
X117685714Y-73456142D01*
X117685714Y-73799000D02*
X117771428Y-73756142D01*
X117942857Y-73756142D01*
X118028571Y-73799000D01*
X118071428Y-73841857D01*
X118114285Y-73927571D01*
X118114285Y-74184714D01*
X118071428Y-74270428D01*
X118028571Y-74313285D01*
X117942857Y-74356142D01*
X117771428Y-74356142D01*
X117685714Y-74313285D01*
X118500000Y-74270428D02*
X118542857Y-74313285D01*
X118500000Y-74356142D01*
X118457142Y-74313285D01*
X118500000Y-74270428D01*
X118500000Y-74356142D01*
X118500000Y-73799000D02*
X118542857Y-73841857D01*
X118500000Y-73884714D01*
X118457142Y-73841857D01*
X118500000Y-73799000D01*
X118500000Y-73884714D01*
X119485714Y-73456142D02*
X120000000Y-73456142D01*
X119742857Y-74356142D02*
X119742857Y-73456142D01*
X120428571Y-74356142D02*
X120342857Y-74313285D01*
X120300000Y-74270428D01*
X120257142Y-74184714D01*
X120257142Y-73927571D01*
X120300000Y-73841857D01*
X120342857Y-73799000D01*
X120428571Y-73756142D01*
X120557142Y-73756142D01*
X120642857Y-73799000D01*
X120685714Y-73841857D01*
X120728571Y-73927571D01*
X120728571Y-74184714D01*
X120685714Y-74270428D01*
X120642857Y-74313285D01*
X120557142Y-74356142D01*
X120428571Y-74356142D01*
X121114285Y-74356142D02*
X121114285Y-73756142D01*
X121114285Y-73841857D02*
X121157142Y-73799000D01*
X121242857Y-73756142D01*
X121371428Y-73756142D01*
X121457142Y-73799000D01*
X121500000Y-73884714D01*
X121500000Y-74356142D01*
X121500000Y-73884714D02*
X121542857Y-73799000D01*
X121628571Y-73756142D01*
X121757142Y-73756142D01*
X121842857Y-73799000D01*
X121885714Y-73884714D01*
X121885714Y-74356142D01*
X122314285Y-74356142D02*
X122314285Y-73756142D01*
X122314285Y-73841857D02*
X122357142Y-73799000D01*
X122442857Y-73756142D01*
X122571428Y-73756142D01*
X122657142Y-73799000D01*
X122700000Y-73884714D01*
X122700000Y-74356142D01*
X122700000Y-73884714D02*
X122742857Y-73799000D01*
X122828571Y-73756142D01*
X122957142Y-73756142D01*
X123042857Y-73799000D01*
X123085714Y-73884714D01*
X123085714Y-74356142D01*
X123428571Y-73756142D02*
X123642857Y-74356142D01*
X123857142Y-73756142D02*
X123642857Y-74356142D01*
X123557142Y-74570428D01*
X123514285Y-74613285D01*
X123428571Y-74656142D01*
X124157142Y-73541857D02*
X124200000Y-73499000D01*
X124285714Y-73456142D01*
X124500000Y-73456142D01*
X124585714Y-73499000D01*
X124628571Y-73541857D01*
X124671428Y-73627571D01*
X124671428Y-73713285D01*
X124628571Y-73841857D01*
X124114285Y-74356142D01*
X124671428Y-74356142D01*
X124971428Y-73456142D02*
X125571428Y-73456142D01*
X125185714Y-74356142D01*
X126085714Y-73456142D02*
X126171428Y-73456142D01*
X126257142Y-73499000D01*
X126300000Y-73541857D01*
X126342857Y-73627571D01*
X126385714Y-73799000D01*
X126385714Y-74013285D01*
X126342857Y-74184714D01*
X126300000Y-74270428D01*
X126257142Y-74313285D01*
X126171428Y-74356142D01*
X126085714Y-74356142D01*
X126000000Y-74313285D01*
X125957142Y-74270428D01*
X125914285Y-74184714D01*
X125871428Y-74013285D01*
X125871428Y-73799000D01*
X125914285Y-73627571D01*
X125957142Y-73541857D01*
X126000000Y-73499000D01*
X126085714Y-73456142D01*
X127200000Y-73456142D02*
X126771428Y-73456142D01*
X126728571Y-73884714D01*
X126771428Y-73841857D01*
X126857142Y-73799000D01*
X127071428Y-73799000D01*
X127157142Y-73841857D01*
X127200000Y-73884714D01*
X127242857Y-73970428D01*
X127242857Y-74184714D01*
X127200000Y-74270428D01*
X127157142Y-74313285D01*
X127071428Y-74356142D01*
X126857142Y-74356142D01*
X126771428Y-74313285D01*
X126728571Y-74270428D01*
X127799999Y-73456142D02*
X127885714Y-73456142D01*
X127971428Y-73499000D01*
X128014285Y-73541857D01*
X128057142Y-73627571D01*
X128099999Y-73799000D01*
X128099999Y-74013285D01*
X128057142Y-74184714D01*
X128014285Y-74270428D01*
X127971428Y-74313285D01*
X127885714Y-74356142D01*
X127799999Y-74356142D01*
X127714285Y-74313285D01*
X127671428Y-74270428D01*
X127628571Y-74184714D01*
X127585714Y-74013285D01*
X127585714Y-73799000D01*
X127628571Y-73627571D01*
X127671428Y-73541857D01*
X127714285Y-73499000D01*
X127799999Y-73456142D01*
X128442857Y-73541857D02*
X128485714Y-73499000D01*
X128571428Y-73456142D01*
X128785714Y-73456142D01*
X128871428Y-73499000D01*
X128914285Y-73541857D01*
X128957142Y-73627571D01*
X128957142Y-73713285D01*
X128914285Y-73841857D01*
X128399999Y-74356142D01*
X128957142Y-74356142D01*
X90102083Y-52589880D02*
X90721130Y-52589880D01*
X90387797Y-52970833D01*
X90530654Y-52970833D01*
X90625892Y-53018452D01*
X90673511Y-53066071D01*
X90721130Y-53161309D01*
X90721130Y-53399404D01*
X90673511Y-53494642D01*
X90625892Y-53542261D01*
X90530654Y-53589880D01*
X90244940Y-53589880D01*
X90149702Y-53542261D01*
X90102083Y-53494642D01*
X91006845Y-52589880D02*
X91340178Y-53589880D01*
X91673511Y-52589880D01*
X91911607Y-52589880D02*
X92530654Y-52589880D01*
X92197321Y-52970833D01*
X92340178Y-52970833D01*
X92435416Y-53018452D01*
X92483035Y-53066071D01*
X92530654Y-53161309D01*
X92530654Y-53399404D01*
X92483035Y-53494642D01*
X92435416Y-53542261D01*
X92340178Y-53589880D01*
X92054464Y-53589880D01*
X91959226Y-53542261D01*
X91911607Y-53494642D01*
X93197321Y-53923214D02*
X93197321Y-52494642D01*
X93863988Y-53542261D02*
X94006845Y-53589880D01*
X94244940Y-53589880D01*
X94340178Y-53542261D01*
X94387797Y-53494642D01*
X94435416Y-53399404D01*
X94435416Y-53304166D01*
X94387797Y-53208928D01*
X94340178Y-53161309D01*
X94244940Y-53113690D01*
X94054464Y-53066071D01*
X93959226Y-53018452D01*
X93911607Y-52970833D01*
X93863988Y-52875595D01*
X93863988Y-52780357D01*
X93911607Y-52685119D01*
X93959226Y-52637500D01*
X94054464Y-52589880D01*
X94292559Y-52589880D01*
X94435416Y-52637500D01*
X94768750Y-52589880D02*
X95006845Y-53589880D01*
X95197321Y-52875595D01*
X95387797Y-53589880D01*
X95625892Y-52589880D01*
X96578273Y-53494642D02*
X96530654Y-53542261D01*
X96387797Y-53589880D01*
X96292559Y-53589880D01*
X96149702Y-53542261D01*
X96054464Y-53447023D01*
X96006845Y-53351785D01*
X95959226Y-53161309D01*
X95959226Y-53018452D01*
X96006845Y-52827976D01*
X96054464Y-52732738D01*
X96149702Y-52637500D01*
X96292559Y-52589880D01*
X96387797Y-52589880D01*
X96530654Y-52637500D01*
X96578273Y-52685119D01*
X97483035Y-53589880D02*
X97006845Y-53589880D01*
X97006845Y-52589880D01*
X97816369Y-53589880D02*
X97816369Y-52589880D01*
X98387797Y-53589880D02*
X97959226Y-53018452D01*
X98387797Y-52589880D02*
X97816369Y-53161309D01*
X81397916Y-67339880D02*
X81397916Y-66339880D01*
X81778869Y-66339880D01*
X81874107Y-66387500D01*
X81921726Y-66435119D01*
X81969345Y-66530357D01*
X81969345Y-66673214D01*
X81921726Y-66768452D01*
X81874107Y-66816071D01*
X81778869Y-66863690D01*
X81397916Y-66863690D01*
X82302678Y-66339880D02*
X82540773Y-67339880D01*
X82731250Y-66625595D01*
X82921726Y-67339880D01*
X83159821Y-66339880D01*
X84112202Y-67339880D02*
X83778869Y-66863690D01*
X83540773Y-67339880D02*
X83540773Y-66339880D01*
X83921726Y-66339880D01*
X84016964Y-66387500D01*
X84064583Y-66435119D01*
X84112202Y-66530357D01*
X84112202Y-66673214D01*
X84064583Y-66768452D01*
X84016964Y-66816071D01*
X83921726Y-66863690D01*
X83540773Y-66863690D01*
X80188392Y-61154166D02*
X80236011Y-61201785D01*
X80283630Y-61344642D01*
X80283630Y-61439880D01*
X80236011Y-61582738D01*
X80140773Y-61677976D01*
X80045535Y-61725595D01*
X79855059Y-61773214D01*
X79712202Y-61773214D01*
X79521726Y-61725595D01*
X79426488Y-61677976D01*
X79331250Y-61582738D01*
X79283630Y-61439880D01*
X79283630Y-61344642D01*
X79331250Y-61201785D01*
X79378869Y-61154166D01*
X79378869Y-60773214D02*
X79331250Y-60725595D01*
X79283630Y-60630357D01*
X79283630Y-60392261D01*
X79331250Y-60297023D01*
X79378869Y-60249404D01*
X79474107Y-60201785D01*
X79569345Y-60201785D01*
X79712202Y-60249404D01*
X80283630Y-60820833D01*
X80283630Y-60201785D01*
X79802083Y-66289880D02*
X79468750Y-65813690D01*
X79230654Y-66289880D02*
X79230654Y-65289880D01*
X79611607Y-65289880D01*
X79706845Y-65337500D01*
X79754464Y-65385119D01*
X79802083Y-65480357D01*
X79802083Y-65623214D01*
X79754464Y-65718452D01*
X79706845Y-65766071D01*
X79611607Y-65813690D01*
X79230654Y-65813690D01*
X80659226Y-65623214D02*
X80659226Y-66289880D01*
X80421130Y-65242261D02*
X80183035Y-65956547D01*
X80802083Y-65956547D01*
X121525892Y-68494642D02*
X121478273Y-68542261D01*
X121335416Y-68589880D01*
X121240178Y-68589880D01*
X121097321Y-68542261D01*
X121002083Y-68447023D01*
X120954464Y-68351785D01*
X120906845Y-68161309D01*
X120906845Y-68018452D01*
X120954464Y-67827976D01*
X121002083Y-67732738D01*
X121097321Y-67637500D01*
X121240178Y-67589880D01*
X121335416Y-67589880D01*
X121478273Y-67637500D01*
X121525892Y-67685119D01*
X121906845Y-67685119D02*
X121954464Y-67637500D01*
X122049702Y-67589880D01*
X122287797Y-67589880D01*
X122383035Y-67637500D01*
X122430654Y-67685119D01*
X122478273Y-67780357D01*
X122478273Y-67875595D01*
X122430654Y-68018452D01*
X121859226Y-68589880D01*
X122478273Y-68589880D01*
X123097321Y-67589880D02*
X123192559Y-67589880D01*
X123287797Y-67637500D01*
X123335416Y-67685119D01*
X123383035Y-67780357D01*
X123430654Y-67970833D01*
X123430654Y-68208928D01*
X123383035Y-68399404D01*
X123335416Y-68494642D01*
X123287797Y-68542261D01*
X123192559Y-68589880D01*
X123097321Y-68589880D01*
X123002083Y-68542261D01*
X122954464Y-68494642D01*
X122906845Y-68399404D01*
X122859226Y-68208928D01*
X122859226Y-67970833D01*
X122906845Y-67780357D01*
X122954464Y-67685119D01*
X123002083Y-67637500D01*
X123097321Y-67589880D01*
X106317645Y-67524306D02*
X106216630Y-68096726D01*
X106721706Y-67928367D02*
X106014600Y-68635474D01*
X105745225Y-68366100D01*
X105711554Y-68265085D01*
X105711554Y-68197741D01*
X105745225Y-68096726D01*
X105846241Y-67995711D01*
X105947256Y-67962039D01*
X106014600Y-67962039D01*
X106115615Y-67995711D01*
X106384989Y-68265085D01*
X104970775Y-67591649D02*
X105307493Y-67928367D01*
X105677882Y-67625321D01*
X105610538Y-67625321D01*
X105509523Y-67591649D01*
X105341164Y-67423291D01*
X105307493Y-67322275D01*
X105307493Y-67254932D01*
X105341164Y-67153917D01*
X105509523Y-66985558D01*
X105610538Y-66951886D01*
X105677882Y-66951886D01*
X105778897Y-66985558D01*
X105947256Y-67153917D01*
X105980928Y-67254932D01*
X105980928Y-67322275D01*
X88725892Y-66594642D02*
X88678273Y-66642261D01*
X88535416Y-66689880D01*
X88440178Y-66689880D01*
X88297321Y-66642261D01*
X88202083Y-66547023D01*
X88154464Y-66451785D01*
X88106845Y-66261309D01*
X88106845Y-66118452D01*
X88154464Y-65927976D01*
X88202083Y-65832738D01*
X88297321Y-65737500D01*
X88440178Y-65689880D01*
X88535416Y-65689880D01*
X88678273Y-65737500D01*
X88725892Y-65785119D01*
X89678273Y-66689880D02*
X89106845Y-66689880D01*
X89392559Y-66689880D02*
X89392559Y-65689880D01*
X89297321Y-65832738D01*
X89202083Y-65927976D01*
X89106845Y-65975595D01*
X90059226Y-65785119D02*
X90106845Y-65737500D01*
X90202083Y-65689880D01*
X90440178Y-65689880D01*
X90535416Y-65737500D01*
X90583035Y-65785119D01*
X90630654Y-65880357D01*
X90630654Y-65975595D01*
X90583035Y-66118452D01*
X90011607Y-66689880D01*
X90630654Y-66689880D01*
X92533630Y-62749404D02*
X93343154Y-62749404D01*
X93438392Y-62701785D01*
X93486011Y-62654166D01*
X93533630Y-62558928D01*
X93533630Y-62368452D01*
X93486011Y-62273214D01*
X93438392Y-62225595D01*
X93343154Y-62177976D01*
X92533630Y-62177976D01*
X92628869Y-61749404D02*
X92581250Y-61701785D01*
X92533630Y-61606547D01*
X92533630Y-61368452D01*
X92581250Y-61273214D01*
X92628869Y-61225595D01*
X92724107Y-61177976D01*
X92819345Y-61177976D01*
X92962202Y-61225595D01*
X93533630Y-61797023D01*
X93533630Y-61177976D01*
X116646130Y-63804166D02*
X116646130Y-64280357D01*
X115646130Y-64280357D01*
X116646130Y-62947023D02*
X116646130Y-63518452D01*
X116646130Y-63232738D02*
X115646130Y-63232738D01*
X115788988Y-63327976D01*
X115884226Y-63423214D01*
X115931845Y-63518452D01*
X91359821Y-62570833D02*
X91359821Y-62904166D01*
X91883630Y-62904166D02*
X90883630Y-62904166D01*
X90883630Y-62427976D01*
X91359821Y-61713690D02*
X91407440Y-61570833D01*
X91455059Y-61523214D01*
X91550297Y-61475595D01*
X91693154Y-61475595D01*
X91788392Y-61523214D01*
X91836011Y-61570833D01*
X91883630Y-61666071D01*
X91883630Y-62047023D01*
X90883630Y-62047023D01*
X90883630Y-61713690D01*
X90931250Y-61618452D01*
X90978869Y-61570833D01*
X91074107Y-61523214D01*
X91169345Y-61523214D01*
X91264583Y-61570833D01*
X91312202Y-61618452D01*
X91359821Y-61713690D01*
X91359821Y-62047023D01*
X91883630Y-60523214D02*
X91883630Y-61094642D01*
X91883630Y-60808928D02*
X90883630Y-60808928D01*
X91026488Y-60904166D01*
X91121726Y-60999404D01*
X91169345Y-61094642D01*
X96601639Y-73052813D02*
X96668982Y-73052813D01*
X96803669Y-73120157D01*
X96871013Y-73187501D01*
X96938356Y-73322188D01*
X96938356Y-73456875D01*
X96904685Y-73557890D01*
X96803669Y-73726249D01*
X96702654Y-73827264D01*
X96534295Y-73928279D01*
X96433280Y-73961951D01*
X96298593Y-73961951D01*
X96163906Y-73894607D01*
X96096562Y-73827264D01*
X96029219Y-73692577D01*
X96029219Y-73625233D01*
X96332265Y-72648752D02*
X96197578Y-72514065D01*
X96096562Y-72480394D01*
X96029219Y-72480394D01*
X95860860Y-72514065D01*
X95692501Y-72615081D01*
X95423127Y-72884455D01*
X95389456Y-72985470D01*
X95389456Y-73052813D01*
X95423127Y-73153829D01*
X95557814Y-73288516D01*
X95658830Y-73322188D01*
X95726173Y-73322188D01*
X95827188Y-73288516D01*
X95995547Y-73120157D01*
X96029219Y-73019142D01*
X96029219Y-72951798D01*
X95995547Y-72850783D01*
X95860860Y-72716096D01*
X95759845Y-72682424D01*
X95692501Y-72682424D01*
X95591486Y-72716096D01*
X98021130Y-55770833D02*
X98735416Y-55770833D01*
X98878273Y-55818452D01*
X98973511Y-55913690D01*
X99021130Y-56056547D01*
X99021130Y-56151785D01*
X98116369Y-55342261D02*
X98068750Y-55294642D01*
X98021130Y-55199404D01*
X98021130Y-54961309D01*
X98068750Y-54866071D01*
X98116369Y-54818452D01*
X98211607Y-54770833D01*
X98306845Y-54770833D01*
X98449702Y-54818452D01*
X99021130Y-55389880D01*
X99021130Y-54770833D01*
X75421130Y-64770833D02*
X76135416Y-64770833D01*
X76278273Y-64818452D01*
X76373511Y-64913690D01*
X76421130Y-65056547D01*
X76421130Y-65151785D01*
X76421130Y-63770833D02*
X76421130Y-64342261D01*
X76421130Y-64056547D02*
X75421130Y-64056547D01*
X75563988Y-64151785D01*
X75659226Y-64247023D01*
X75706845Y-64342261D01*
X77521130Y-69004166D02*
X77044940Y-69337500D01*
X77521130Y-69575595D02*
X76521130Y-69575595D01*
X76521130Y-69194642D01*
X76568750Y-69099404D01*
X76616369Y-69051785D01*
X76711607Y-69004166D01*
X76854464Y-69004166D01*
X76949702Y-69051785D01*
X76997321Y-69099404D01*
X77044940Y-69194642D01*
X77044940Y-69575595D01*
X76521130Y-68147023D02*
X76521130Y-68337500D01*
X76568750Y-68432738D01*
X76616369Y-68480357D01*
X76759226Y-68575595D01*
X76949702Y-68623214D01*
X77330654Y-68623214D01*
X77425892Y-68575595D01*
X77473511Y-68527976D01*
X77521130Y-68432738D01*
X77521130Y-68242261D01*
X77473511Y-68147023D01*
X77425892Y-68099404D01*
X77330654Y-68051785D01*
X77092559Y-68051785D01*
X76997321Y-68099404D01*
X76949702Y-68147023D01*
X76902083Y-68242261D01*
X76902083Y-68432738D01*
X76949702Y-68527976D01*
X76997321Y-68575595D01*
X77092559Y-68623214D01*
X117325892Y-67780357D02*
X117373511Y-67827976D01*
X117421130Y-67970833D01*
X117421130Y-68066071D01*
X117373511Y-68208928D01*
X117278273Y-68304166D01*
X117183035Y-68351785D01*
X116992559Y-68399404D01*
X116849702Y-68399404D01*
X116659226Y-68351785D01*
X116563988Y-68304166D01*
X116468750Y-68208928D01*
X116421130Y-68066071D01*
X116421130Y-67970833D01*
X116468750Y-67827976D01*
X116516369Y-67780357D01*
X117421130Y-66827976D02*
X117421130Y-67399404D01*
X117421130Y-67113690D02*
X116421130Y-67113690D01*
X116563988Y-67208928D01*
X116659226Y-67304166D01*
X116706845Y-67399404D01*
X117421130Y-66351785D02*
X117421130Y-66161309D01*
X117373511Y-66066071D01*
X117325892Y-66018452D01*
X117183035Y-65923214D01*
X116992559Y-65875595D01*
X116611607Y-65875595D01*
X116516369Y-65923214D01*
X116468750Y-65970833D01*
X116421130Y-66066071D01*
X116421130Y-66256547D01*
X116468750Y-66351785D01*
X116516369Y-66399404D01*
X116611607Y-66447023D01*
X116849702Y-66447023D01*
X116944940Y-66399404D01*
X116992559Y-66351785D01*
X117040178Y-66256547D01*
X117040178Y-66066071D01*
X116992559Y-65970833D01*
X116944940Y-65923214D01*
X116849702Y-65875595D01*
X88725892Y-67794642D02*
X88678273Y-67842261D01*
X88535416Y-67889880D01*
X88440178Y-67889880D01*
X88297321Y-67842261D01*
X88202083Y-67747023D01*
X88154464Y-67651785D01*
X88106845Y-67461309D01*
X88106845Y-67318452D01*
X88154464Y-67127976D01*
X88202083Y-67032738D01*
X88297321Y-66937500D01*
X88440178Y-66889880D01*
X88535416Y-66889880D01*
X88678273Y-66937500D01*
X88725892Y-66985119D01*
X89678273Y-67889880D02*
X89106845Y-67889880D01*
X89392559Y-67889880D02*
X89392559Y-66889880D01*
X89297321Y-67032738D01*
X89202083Y-67127976D01*
X89106845Y-67175595D01*
X90630654Y-67889880D02*
X90059226Y-67889880D01*
X90344940Y-67889880D02*
X90344940Y-66889880D01*
X90249702Y-67032738D01*
X90154464Y-67127976D01*
X90059226Y-67175595D01*
X121327083Y-66489880D02*
X120850892Y-66489880D01*
X120850892Y-65489880D01*
X121565178Y-65489880D02*
X122184226Y-65489880D01*
X121850892Y-65870833D01*
X121993750Y-65870833D01*
X122088988Y-65918452D01*
X122136607Y-65966071D01*
X122184226Y-66061309D01*
X122184226Y-66299404D01*
X122136607Y-66394642D01*
X122088988Y-66442261D01*
X121993750Y-66489880D01*
X121708035Y-66489880D01*
X121612797Y-66442261D01*
X121565178Y-66394642D01*
X102954464Y-57170833D02*
X102992559Y-57208928D01*
X103030654Y-57323214D01*
X103030654Y-57399404D01*
X102992559Y-57513690D01*
X102916369Y-57589880D01*
X102840178Y-57627976D01*
X102687797Y-57666071D01*
X102573511Y-57666071D01*
X102421130Y-57627976D01*
X102344940Y-57589880D01*
X102268750Y-57513690D01*
X102230654Y-57399404D01*
X102230654Y-57323214D01*
X102268750Y-57208928D01*
X102306845Y-57170833D01*
X102230654Y-56485119D02*
X102230654Y-56637500D01*
X102268750Y-56713690D01*
X102306845Y-56751785D01*
X102421130Y-56827976D01*
X102573511Y-56866071D01*
X102878273Y-56866071D01*
X102954464Y-56827976D01*
X102992559Y-56789880D01*
X103030654Y-56713690D01*
X103030654Y-56561309D01*
X102992559Y-56485119D01*
X102954464Y-56447023D01*
X102878273Y-56408928D01*
X102687797Y-56408928D01*
X102611607Y-56447023D01*
X102573511Y-56485119D01*
X102535416Y-56561309D01*
X102535416Y-56713690D01*
X102573511Y-56789880D01*
X102611607Y-56827976D01*
X102687797Y-56866071D01*
X72864583Y-71239880D02*
X72531250Y-70763690D01*
X72293154Y-71239880D02*
X72293154Y-70239880D01*
X72674107Y-70239880D01*
X72769345Y-70287500D01*
X72816964Y-70335119D01*
X72864583Y-70430357D01*
X72864583Y-70573214D01*
X72816964Y-70668452D01*
X72769345Y-70716071D01*
X72674107Y-70763690D01*
X72293154Y-70763690D01*
X73816964Y-71239880D02*
X73245535Y-71239880D01*
X73531250Y-71239880D02*
X73531250Y-70239880D01*
X73436011Y-70382738D01*
X73340773Y-70477976D01*
X73245535Y-70525595D01*
X78688392Y-64354166D02*
X78736011Y-64401785D01*
X78783630Y-64544642D01*
X78783630Y-64639880D01*
X78736011Y-64782738D01*
X78640773Y-64877976D01*
X78545535Y-64925595D01*
X78355059Y-64973214D01*
X78212202Y-64973214D01*
X78021726Y-64925595D01*
X77926488Y-64877976D01*
X77831250Y-64782738D01*
X77783630Y-64639880D01*
X77783630Y-64544642D01*
X77831250Y-64401785D01*
X77878869Y-64354166D01*
X78783630Y-63401785D02*
X78783630Y-63973214D01*
X78783630Y-63687500D02*
X77783630Y-63687500D01*
X77926488Y-63782738D01*
X78021726Y-63877976D01*
X78069345Y-63973214D01*
X87430654Y-55989880D02*
X87430654Y-54989880D01*
X87668750Y-54989880D01*
X87811607Y-55037500D01*
X87906845Y-55132738D01*
X87954464Y-55227976D01*
X88002083Y-55418452D01*
X88002083Y-55561309D01*
X87954464Y-55751785D01*
X87906845Y-55847023D01*
X87811607Y-55942261D01*
X87668750Y-55989880D01*
X87430654Y-55989880D01*
X88383035Y-55085119D02*
X88430654Y-55037500D01*
X88525892Y-54989880D01*
X88763988Y-54989880D01*
X88859226Y-55037500D01*
X88906845Y-55085119D01*
X88954464Y-55180357D01*
X88954464Y-55275595D01*
X88906845Y-55418452D01*
X88335416Y-55989880D01*
X88954464Y-55989880D01*
X101340382Y-74005769D02*
X101340382Y-74073113D01*
X101273038Y-74207800D01*
X101205695Y-74275143D01*
X101071008Y-74342487D01*
X100936321Y-74342487D01*
X100835306Y-74308815D01*
X100666947Y-74207800D01*
X100565932Y-74106785D01*
X100464916Y-73938426D01*
X100431245Y-73837411D01*
X100431245Y-73702724D01*
X100498588Y-73568037D01*
X100565932Y-73500693D01*
X100700619Y-73433350D01*
X100767962Y-73433350D01*
X102081161Y-73399678D02*
X101677100Y-73803739D01*
X101879130Y-73601708D02*
X101172023Y-72894601D01*
X101205695Y-73062960D01*
X101205695Y-73197647D01*
X101172023Y-73298663D01*
X101609756Y-72456869D02*
X102047489Y-72019136D01*
X102081161Y-72524212D01*
X102182176Y-72423197D01*
X102283191Y-72389525D01*
X102350535Y-72389525D01*
X102451550Y-72423197D01*
X102619909Y-72591556D01*
X102653580Y-72692571D01*
X102653580Y-72759914D01*
X102619909Y-72860930D01*
X102417878Y-73062960D01*
X102316863Y-73096632D01*
X102249519Y-73096632D01*
X86064583Y-67169880D02*
X85731250Y-66693690D01*
X85493154Y-67169880D02*
X85493154Y-66169880D01*
X85874107Y-66169880D01*
X85969345Y-66217500D01*
X86016964Y-66265119D01*
X86064583Y-66360357D01*
X86064583Y-66503214D01*
X86016964Y-66598452D01*
X85969345Y-66646071D01*
X85874107Y-66693690D01*
X85493154Y-66693690D01*
X86397916Y-66169880D02*
X87016964Y-66169880D01*
X86683630Y-66550833D01*
X86826488Y-66550833D01*
X86921726Y-66598452D01*
X86969345Y-66646071D01*
X87016964Y-66741309D01*
X87016964Y-66979404D01*
X86969345Y-67074642D01*
X86921726Y-67122261D01*
X86826488Y-67169880D01*
X86540773Y-67169880D01*
X86445535Y-67122261D01*
X86397916Y-67074642D01*
X78102083Y-54189880D02*
X77768750Y-53713690D01*
X77530654Y-54189880D02*
X77530654Y-53189880D01*
X77911607Y-53189880D01*
X78006845Y-53237500D01*
X78054464Y-53285119D01*
X78102083Y-53380357D01*
X78102083Y-53523214D01*
X78054464Y-53618452D01*
X78006845Y-53666071D01*
X77911607Y-53713690D01*
X77530654Y-53713690D01*
X78673511Y-53618452D02*
X78578273Y-53570833D01*
X78530654Y-53523214D01*
X78483035Y-53427976D01*
X78483035Y-53380357D01*
X78530654Y-53285119D01*
X78578273Y-53237500D01*
X78673511Y-53189880D01*
X78863988Y-53189880D01*
X78959226Y-53237500D01*
X79006845Y-53285119D01*
X79054464Y-53380357D01*
X79054464Y-53427976D01*
X79006845Y-53523214D01*
X78959226Y-53570833D01*
X78863988Y-53618452D01*
X78673511Y-53618452D01*
X78578273Y-53666071D01*
X78530654Y-53713690D01*
X78483035Y-53808928D01*
X78483035Y-53999404D01*
X78530654Y-54094642D01*
X78578273Y-54142261D01*
X78673511Y-54189880D01*
X78863988Y-54189880D01*
X78959226Y-54142261D01*
X79006845Y-54094642D01*
X79054464Y-53999404D01*
X79054464Y-53808928D01*
X79006845Y-53713690D01*
X78959226Y-53666071D01*
X78863988Y-53618452D01*
X104806845Y-59789880D02*
X104806845Y-60599404D01*
X104854464Y-60694642D01*
X104902083Y-60742261D01*
X104997321Y-60789880D01*
X105187797Y-60789880D01*
X105283035Y-60742261D01*
X105330654Y-60694642D01*
X105378273Y-60599404D01*
X105378273Y-59789880D01*
X105759226Y-59789880D02*
X106378273Y-59789880D01*
X106044940Y-60170833D01*
X106187797Y-60170833D01*
X106283035Y-60218452D01*
X106330654Y-60266071D01*
X106378273Y-60361309D01*
X106378273Y-60599404D01*
X106330654Y-60694642D01*
X106283035Y-60742261D01*
X106187797Y-60789880D01*
X105902083Y-60789880D01*
X105806845Y-60742261D01*
X105759226Y-60694642D01*
X87102083Y-72089880D02*
X86768750Y-71613690D01*
X86530654Y-72089880D02*
X86530654Y-71089880D01*
X86911607Y-71089880D01*
X87006845Y-71137500D01*
X87054464Y-71185119D01*
X87102083Y-71280357D01*
X87102083Y-71423214D01*
X87054464Y-71518452D01*
X87006845Y-71566071D01*
X86911607Y-71613690D01*
X86530654Y-71613690D01*
X87435416Y-71089880D02*
X88102083Y-71089880D01*
X87673511Y-72089880D01*
X99151131Y-74141053D02*
X99487849Y-73804335D01*
X99016444Y-74747144D02*
X99151131Y-74141053D01*
X98545040Y-74275740D01*
X98646055Y-72962542D02*
X99050116Y-73366603D01*
X98848085Y-73164572D02*
X98140979Y-73871679D01*
X98309337Y-73838007D01*
X98444024Y-73838007D01*
X98545040Y-73871679D01*
X108375855Y-73639530D02*
X108443199Y-73639530D01*
X108577886Y-73706874D01*
X108645229Y-73774217D01*
X108712573Y-73908904D01*
X108712573Y-74043591D01*
X108678901Y-74144606D01*
X108577886Y-74312965D01*
X108476871Y-74413980D01*
X108308512Y-74514996D01*
X108207497Y-74548667D01*
X108072810Y-74548667D01*
X107938123Y-74481324D01*
X107870779Y-74413980D01*
X107803436Y-74279293D01*
X107803436Y-74211950D01*
X107534061Y-73942576D02*
X107466718Y-73942576D01*
X107365703Y-73908904D01*
X107197344Y-73740545D01*
X107163672Y-73639530D01*
X107163672Y-73572187D01*
X107197344Y-73471171D01*
X107264687Y-73403828D01*
X107399374Y-73336484D01*
X108207497Y-73336484D01*
X107769764Y-72898751D01*
X106692268Y-72764064D02*
X107163672Y-72292660D01*
X106591252Y-73201797D02*
X107264687Y-72865080D01*
X106826955Y-72427347D01*
X113154464Y-57323214D02*
X113116369Y-57361309D01*
X113002083Y-57399404D01*
X112925892Y-57399404D01*
X112811607Y-57361309D01*
X112735416Y-57285119D01*
X112697321Y-57208928D01*
X112659226Y-57056547D01*
X112659226Y-56942261D01*
X112697321Y-56789880D01*
X112735416Y-56713690D01*
X112811607Y-56637500D01*
X112925892Y-56599404D01*
X113002083Y-56599404D01*
X113116369Y-56637500D01*
X113154464Y-56675595D01*
X113916369Y-57399404D02*
X113459226Y-57399404D01*
X113687797Y-57399404D02*
X113687797Y-56599404D01*
X113611607Y-56713690D01*
X113535416Y-56789880D01*
X113459226Y-56827976D01*
X114373511Y-56942261D02*
X114297321Y-56904166D01*
X114259226Y-56866071D01*
X114221130Y-56789880D01*
X114221130Y-56751785D01*
X114259226Y-56675595D01*
X114297321Y-56637500D01*
X114373511Y-56599404D01*
X114525892Y-56599404D01*
X114602083Y-56637500D01*
X114640178Y-56675595D01*
X114678273Y-56751785D01*
X114678273Y-56789880D01*
X114640178Y-56866071D01*
X114602083Y-56904166D01*
X114525892Y-56942261D01*
X114373511Y-56942261D01*
X114297321Y-56980357D01*
X114259226Y-57018452D01*
X114221130Y-57094642D01*
X114221130Y-57247023D01*
X114259226Y-57323214D01*
X114297321Y-57361309D01*
X114373511Y-57399404D01*
X114525892Y-57399404D01*
X114602083Y-57361309D01*
X114640178Y-57323214D01*
X114678273Y-57247023D01*
X114678273Y-57094642D01*
X114640178Y-57018452D01*
X114602083Y-56980357D01*
X114525892Y-56942261D01*
X82121130Y-72475595D02*
X81121130Y-72475595D01*
X81121130Y-72237500D01*
X81168750Y-72094642D01*
X81263988Y-71999404D01*
X81359226Y-71951785D01*
X81549702Y-71904166D01*
X81692559Y-71904166D01*
X81883035Y-71951785D01*
X81978273Y-71999404D01*
X82073511Y-72094642D01*
X82121130Y-72237500D01*
X82121130Y-72475595D01*
X81454464Y-71047023D02*
X82121130Y-71047023D01*
X81073511Y-71285119D02*
X81787797Y-71523214D01*
X81787797Y-70904166D01*
X76997916Y-61186071D02*
X76664583Y-61186071D01*
X76664583Y-61709880D02*
X76664583Y-60709880D01*
X77140773Y-60709880D01*
X78045535Y-61709880D02*
X77474107Y-61709880D01*
X77759821Y-61709880D02*
X77759821Y-60709880D01*
X77664583Y-60852738D01*
X77569345Y-60947976D01*
X77474107Y-60995595D01*
X77130654Y-55989880D02*
X77130654Y-54989880D01*
X77368750Y-54989880D01*
X77511607Y-55037500D01*
X77606845Y-55132738D01*
X77654464Y-55227976D01*
X77702083Y-55418452D01*
X77702083Y-55561309D01*
X77654464Y-55751785D01*
X77606845Y-55847023D01*
X77511607Y-55942261D01*
X77368750Y-55989880D01*
X77130654Y-55989880D01*
X78606845Y-54989880D02*
X78130654Y-54989880D01*
X78083035Y-55466071D01*
X78130654Y-55418452D01*
X78225892Y-55370833D01*
X78463988Y-55370833D01*
X78559226Y-55418452D01*
X78606845Y-55466071D01*
X78654464Y-55561309D01*
X78654464Y-55799404D01*
X78606845Y-55894642D01*
X78559226Y-55942261D01*
X78463988Y-55989880D01*
X78225892Y-55989880D01*
X78130654Y-55942261D01*
X78083035Y-55894642D01*
X116125892Y-58889880D02*
X115792559Y-58413690D01*
X115554464Y-58889880D02*
X115554464Y-57889880D01*
X115935416Y-57889880D01*
X116030654Y-57937500D01*
X116078273Y-57985119D01*
X116125892Y-58080357D01*
X116125892Y-58223214D01*
X116078273Y-58318452D01*
X116030654Y-58366071D01*
X115935416Y-58413690D01*
X115554464Y-58413690D01*
X117078273Y-58889880D02*
X116506845Y-58889880D01*
X116792559Y-58889880D02*
X116792559Y-57889880D01*
X116697321Y-58032738D01*
X116602083Y-58127976D01*
X116506845Y-58175595D01*
X117697321Y-57889880D02*
X117792559Y-57889880D01*
X117887797Y-57937500D01*
X117935416Y-57985119D01*
X117983035Y-58080357D01*
X118030654Y-58270833D01*
X118030654Y-58508928D01*
X117983035Y-58699404D01*
X117935416Y-58794642D01*
X117887797Y-58842261D01*
X117792559Y-58889880D01*
X117697321Y-58889880D01*
X117602083Y-58842261D01*
X117554464Y-58794642D01*
X117506845Y-58699404D01*
X117459226Y-58508928D01*
X117459226Y-58270833D01*
X117506845Y-58080357D01*
X117554464Y-57985119D01*
X117602083Y-57937500D01*
X117697321Y-57889880D01*
X104681218Y-70631844D02*
X104748561Y-70631844D01*
X104883248Y-70699188D01*
X104950592Y-70766532D01*
X105017935Y-70901219D01*
X105017935Y-71035906D01*
X104984264Y-71136921D01*
X104883248Y-71305280D01*
X104782233Y-71406295D01*
X104613874Y-71507310D01*
X104512859Y-71540982D01*
X104378172Y-71540982D01*
X104243485Y-71473638D01*
X104176141Y-71406295D01*
X104108798Y-71271608D01*
X104108798Y-71204264D01*
X103401691Y-70631844D02*
X103738409Y-70968562D01*
X104108798Y-70665516D01*
X104041454Y-70665516D01*
X103940439Y-70631844D01*
X103772080Y-70463486D01*
X103738409Y-70362470D01*
X103738409Y-70295127D01*
X103772080Y-70194112D01*
X103940439Y-70025753D01*
X104041454Y-69992081D01*
X104108798Y-69992081D01*
X104209813Y-70025753D01*
X104378172Y-70194112D01*
X104411844Y-70295127D01*
X104411844Y-70362470D01*
X92542083Y-58634642D02*
X92494464Y-58682261D01*
X92351607Y-58729880D01*
X92256369Y-58729880D01*
X92113511Y-58682261D01*
X92018273Y-58587023D01*
X91970654Y-58491785D01*
X91923035Y-58301309D01*
X91923035Y-58158452D01*
X91970654Y-57967976D01*
X92018273Y-57872738D01*
X92113511Y-57777500D01*
X92256369Y-57729880D01*
X92351607Y-57729880D01*
X92494464Y-57777500D01*
X92542083Y-57825119D01*
X92875416Y-57729880D02*
X93542083Y-57729880D01*
X93113511Y-58729880D01*
X72864583Y-55309880D02*
X72531250Y-54833690D01*
X72293154Y-55309880D02*
X72293154Y-54309880D01*
X72674107Y-54309880D01*
X72769345Y-54357500D01*
X72816964Y-54405119D01*
X72864583Y-54500357D01*
X72864583Y-54643214D01*
X72816964Y-54738452D01*
X72769345Y-54786071D01*
X72674107Y-54833690D01*
X72293154Y-54833690D01*
X73245535Y-54405119D02*
X73293154Y-54357500D01*
X73388392Y-54309880D01*
X73626488Y-54309880D01*
X73721726Y-54357500D01*
X73769345Y-54405119D01*
X73816964Y-54500357D01*
X73816964Y-54595595D01*
X73769345Y-54738452D01*
X73197916Y-55309880D01*
X73816964Y-55309880D01*
X87430654Y-58089880D02*
X87430654Y-57089880D01*
X87668750Y-57089880D01*
X87811607Y-57137500D01*
X87906845Y-57232738D01*
X87954464Y-57327976D01*
X88002083Y-57518452D01*
X88002083Y-57661309D01*
X87954464Y-57851785D01*
X87906845Y-57947023D01*
X87811607Y-58042261D01*
X87668750Y-58089880D01*
X87430654Y-58089880D01*
X88954464Y-58089880D02*
X88383035Y-58089880D01*
X88668750Y-58089880D02*
X88668750Y-57089880D01*
X88573511Y-57232738D01*
X88478273Y-57327976D01*
X88383035Y-57375595D01*
X93622767Y-68151041D02*
X93670386Y-68198660D01*
X93718005Y-68341517D01*
X93718005Y-68436755D01*
X93670386Y-68579613D01*
X93575148Y-68674851D01*
X93479910Y-68722470D01*
X93289434Y-68770089D01*
X93146577Y-68770089D01*
X92956101Y-68722470D01*
X92860863Y-68674851D01*
X92765625Y-68579613D01*
X92718005Y-68436755D01*
X92718005Y-68341517D01*
X92765625Y-68198660D01*
X92813244Y-68151041D01*
X93146577Y-67579613D02*
X93098958Y-67674851D01*
X93051339Y-67722470D01*
X92956101Y-67770089D01*
X92908482Y-67770089D01*
X92813244Y-67722470D01*
X92765625Y-67674851D01*
X92718005Y-67579613D01*
X92718005Y-67389136D01*
X92765625Y-67293898D01*
X92813244Y-67246279D01*
X92908482Y-67198660D01*
X92956101Y-67198660D01*
X93051339Y-67246279D01*
X93098958Y-67293898D01*
X93146577Y-67389136D01*
X93146577Y-67579613D01*
X93194196Y-67674851D01*
X93241815Y-67722470D01*
X93337053Y-67770089D01*
X93527529Y-67770089D01*
X93622767Y-67722470D01*
X93670386Y-67674851D01*
X93718005Y-67579613D01*
X93718005Y-67389136D01*
X93670386Y-67293898D01*
X93622767Y-67246279D01*
X93527529Y-67198660D01*
X93337053Y-67198660D01*
X93241815Y-67246279D01*
X93194196Y-67293898D01*
X93146577Y-67389136D01*
X77130654Y-58089880D02*
X77130654Y-57089880D01*
X77368750Y-57089880D01*
X77511607Y-57137500D01*
X77606845Y-57232738D01*
X77654464Y-57327976D01*
X77702083Y-57518452D01*
X77702083Y-57661309D01*
X77654464Y-57851785D01*
X77606845Y-57947023D01*
X77511607Y-58042261D01*
X77368750Y-58089880D01*
X77130654Y-58089880D01*
X78559226Y-57089880D02*
X78368750Y-57089880D01*
X78273511Y-57137500D01*
X78225892Y-57185119D01*
X78130654Y-57327976D01*
X78083035Y-57518452D01*
X78083035Y-57899404D01*
X78130654Y-57994642D01*
X78178273Y-58042261D01*
X78273511Y-58089880D01*
X78463988Y-58089880D01*
X78559226Y-58042261D01*
X78606845Y-57994642D01*
X78654464Y-57899404D01*
X78654464Y-57661309D01*
X78606845Y-57566071D01*
X78559226Y-57518452D01*
X78463988Y-57470833D01*
X78273511Y-57470833D01*
X78178273Y-57518452D01*
X78130654Y-57566071D01*
X78083035Y-57661309D01*
X124589880Y-63120833D02*
X125304166Y-63120833D01*
X125447023Y-63168452D01*
X125542261Y-63263690D01*
X125589880Y-63406547D01*
X125589880Y-63501785D01*
X124589880Y-62739880D02*
X124589880Y-62120833D01*
X124970833Y-62454166D01*
X124970833Y-62311309D01*
X125018452Y-62216071D01*
X125066071Y-62168452D01*
X125161309Y-62120833D01*
X125399404Y-62120833D01*
X125494642Y-62168452D01*
X125542261Y-62216071D01*
X125589880Y-62311309D01*
X125589880Y-62597023D01*
X125542261Y-62692261D01*
X125494642Y-62739880D01*
X84506845Y-59689880D02*
X84506845Y-60499404D01*
X84554464Y-60594642D01*
X84602083Y-60642261D01*
X84697321Y-60689880D01*
X84887797Y-60689880D01*
X84983035Y-60642261D01*
X85030654Y-60594642D01*
X85078273Y-60499404D01*
X85078273Y-59689880D01*
X86078273Y-60689880D02*
X85506845Y-60689880D01*
X85792559Y-60689880D02*
X85792559Y-59689880D01*
X85697321Y-59832738D01*
X85602083Y-59927976D01*
X85506845Y-59975595D01*
X107954464Y-57551785D02*
X107992559Y-57589880D01*
X108030654Y-57704166D01*
X108030654Y-57780357D01*
X107992559Y-57894642D01*
X107916369Y-57970833D01*
X107840178Y-58008928D01*
X107687797Y-58047023D01*
X107573511Y-58047023D01*
X107421130Y-58008928D01*
X107344940Y-57970833D01*
X107268750Y-57894642D01*
X107230654Y-57780357D01*
X107230654Y-57704166D01*
X107268750Y-57589880D01*
X107306845Y-57551785D01*
X108030654Y-56789880D02*
X108030654Y-57247023D01*
X108030654Y-57018452D02*
X107230654Y-57018452D01*
X107344940Y-57094642D01*
X107421130Y-57170833D01*
X107459226Y-57247023D01*
X107230654Y-56523214D02*
X107230654Y-55989880D01*
X108030654Y-56332738D01*
X88864583Y-65244642D02*
X88816964Y-65292261D01*
X88674107Y-65339880D01*
X88578869Y-65339880D01*
X88436011Y-65292261D01*
X88340773Y-65197023D01*
X88293154Y-65101785D01*
X88245535Y-64911309D01*
X88245535Y-64768452D01*
X88293154Y-64577976D01*
X88340773Y-64482738D01*
X88436011Y-64387500D01*
X88578869Y-64339880D01*
X88674107Y-64339880D01*
X88816964Y-64387500D01*
X88864583Y-64435119D01*
X89721726Y-64673214D02*
X89721726Y-65339880D01*
X89483630Y-64292261D02*
X89245535Y-65006547D01*
X89864583Y-65006547D01*
X112725892Y-68089880D02*
X112392559Y-67613690D01*
X112154464Y-68089880D02*
X112154464Y-67089880D01*
X112535416Y-67089880D01*
X112630654Y-67137500D01*
X112678273Y-67185119D01*
X112725892Y-67280357D01*
X112725892Y-67423214D01*
X112678273Y-67518452D01*
X112630654Y-67566071D01*
X112535416Y-67613690D01*
X112154464Y-67613690D01*
X113678273Y-68089880D02*
X113106845Y-68089880D01*
X113392559Y-68089880D02*
X113392559Y-67089880D01*
X113297321Y-67232738D01*
X113202083Y-67327976D01*
X113106845Y-67375595D01*
X114630654Y-68089880D02*
X114059226Y-68089880D01*
X114344940Y-68089880D02*
X114344940Y-67089880D01*
X114249702Y-67232738D01*
X114154464Y-67327976D01*
X114059226Y-67375595D01*
X111054464Y-56123214D02*
X111016369Y-56161309D01*
X110902083Y-56199404D01*
X110825892Y-56199404D01*
X110711607Y-56161309D01*
X110635416Y-56085119D01*
X110597321Y-56008928D01*
X110559226Y-55856547D01*
X110559226Y-55742261D01*
X110597321Y-55589880D01*
X110635416Y-55513690D01*
X110711607Y-55437500D01*
X110825892Y-55399404D01*
X110902083Y-55399404D01*
X111016369Y-55437500D01*
X111054464Y-55475595D01*
X111816369Y-56199404D02*
X111359226Y-56199404D01*
X111587797Y-56199404D02*
X111587797Y-55399404D01*
X111511607Y-55513690D01*
X111435416Y-55589880D01*
X111359226Y-55627976D01*
X112502083Y-55666071D02*
X112502083Y-56199404D01*
X112311607Y-55361309D02*
X112121130Y-55932738D01*
X112616369Y-55932738D01*
X106325892Y-64580357D02*
X106373511Y-64627976D01*
X106421130Y-64770833D01*
X106421130Y-64866071D01*
X106373511Y-65008928D01*
X106278273Y-65104166D01*
X106183035Y-65151785D01*
X105992559Y-65199404D01*
X105849702Y-65199404D01*
X105659226Y-65151785D01*
X105563988Y-65104166D01*
X105468750Y-65008928D01*
X105421130Y-64866071D01*
X105421130Y-64770833D01*
X105468750Y-64627976D01*
X105516369Y-64580357D01*
X106421130Y-63627976D02*
X106421130Y-64199404D01*
X106421130Y-63913690D02*
X105421130Y-63913690D01*
X105563988Y-64008928D01*
X105659226Y-64104166D01*
X105706845Y-64199404D01*
X105421130Y-62723214D02*
X105421130Y-63199404D01*
X105897321Y-63247023D01*
X105849702Y-63199404D01*
X105802083Y-63104166D01*
X105802083Y-62866071D01*
X105849702Y-62770833D01*
X105897321Y-62723214D01*
X105992559Y-62675595D01*
X106230654Y-62675595D01*
X106325892Y-62723214D01*
X106373511Y-62770833D01*
X106421130Y-62866071D01*
X106421130Y-63104166D01*
X106373511Y-63199404D01*
X106325892Y-63247023D01*
X123320892Y-65880357D02*
X123368511Y-65927976D01*
X123416130Y-66070833D01*
X123416130Y-66166071D01*
X123368511Y-66308928D01*
X123273273Y-66404166D01*
X123178035Y-66451785D01*
X122987559Y-66499404D01*
X122844702Y-66499404D01*
X122654226Y-66451785D01*
X122558988Y-66404166D01*
X122463750Y-66308928D01*
X122416130Y-66166071D01*
X122416130Y-66070833D01*
X122463750Y-65927976D01*
X122511369Y-65880357D01*
X122511369Y-65499404D02*
X122463750Y-65451785D01*
X122416130Y-65356547D01*
X122416130Y-65118452D01*
X122463750Y-65023214D01*
X122511369Y-64975595D01*
X122606607Y-64927976D01*
X122701845Y-64927976D01*
X122844702Y-64975595D01*
X123416130Y-65547023D01*
X123416130Y-64927976D01*
X122511369Y-64547023D02*
X122463750Y-64499404D01*
X122416130Y-64404166D01*
X122416130Y-64166071D01*
X122463750Y-64070833D01*
X122511369Y-64023214D01*
X122606607Y-63975595D01*
X122701845Y-63975595D01*
X122844702Y-64023214D01*
X123416130Y-64594642D01*
X123416130Y-63975595D01*
X89025892Y-70180357D02*
X89073511Y-70227976D01*
X89121130Y-70370833D01*
X89121130Y-70466071D01*
X89073511Y-70608928D01*
X88978273Y-70704166D01*
X88883035Y-70751785D01*
X88692559Y-70799404D01*
X88549702Y-70799404D01*
X88359226Y-70751785D01*
X88263988Y-70704166D01*
X88168750Y-70608928D01*
X88121130Y-70466071D01*
X88121130Y-70370833D01*
X88168750Y-70227976D01*
X88216369Y-70180357D01*
X89121130Y-69227976D02*
X89121130Y-69799404D01*
X89121130Y-69513690D02*
X88121130Y-69513690D01*
X88263988Y-69608928D01*
X88359226Y-69704166D01*
X88406845Y-69799404D01*
X88121130Y-68608928D02*
X88121130Y-68513690D01*
X88168750Y-68418452D01*
X88216369Y-68370833D01*
X88311607Y-68323214D01*
X88502083Y-68275595D01*
X88740178Y-68275595D01*
X88930654Y-68323214D01*
X89025892Y-68370833D01*
X89073511Y-68418452D01*
X89121130Y-68513690D01*
X89121130Y-68608928D01*
X89073511Y-68704166D01*
X89025892Y-68751785D01*
X88930654Y-68799404D01*
X88740178Y-68847023D01*
X88502083Y-68847023D01*
X88311607Y-68799404D01*
X88216369Y-68751785D01*
X88168750Y-68704166D01*
X88121130Y-68608928D01*
X122850892Y-61664642D02*
X122803273Y-61712261D01*
X122660416Y-61759880D01*
X122565178Y-61759880D01*
X122422321Y-61712261D01*
X122327083Y-61617023D01*
X122279464Y-61521785D01*
X122231845Y-61331309D01*
X122231845Y-61188452D01*
X122279464Y-60997976D01*
X122327083Y-60902738D01*
X122422321Y-60807500D01*
X122565178Y-60759880D01*
X122660416Y-60759880D01*
X122803273Y-60807500D01*
X122850892Y-60855119D01*
X123231845Y-60855119D02*
X123279464Y-60807500D01*
X123374702Y-60759880D01*
X123612797Y-60759880D01*
X123708035Y-60807500D01*
X123755654Y-60855119D01*
X123803273Y-60950357D01*
X123803273Y-61045595D01*
X123755654Y-61188452D01*
X123184226Y-61759880D01*
X123803273Y-61759880D01*
X124755654Y-61759880D02*
X124184226Y-61759880D01*
X124469940Y-61759880D02*
X124469940Y-60759880D01*
X124374702Y-60902738D01*
X124279464Y-60997976D01*
X124184226Y-61045595D01*
X89164583Y-59244642D02*
X89116964Y-59292261D01*
X88974107Y-59339880D01*
X88878869Y-59339880D01*
X88736011Y-59292261D01*
X88640773Y-59197023D01*
X88593154Y-59101785D01*
X88545535Y-58911309D01*
X88545535Y-58768452D01*
X88593154Y-58577976D01*
X88640773Y-58482738D01*
X88736011Y-58387500D01*
X88878869Y-58339880D01*
X88974107Y-58339880D01*
X89116964Y-58387500D01*
X89164583Y-58435119D01*
X89497916Y-58339880D02*
X90116964Y-58339880D01*
X89783630Y-58720833D01*
X89926488Y-58720833D01*
X90021726Y-58768452D01*
X90069345Y-58816071D01*
X90116964Y-58911309D01*
X90116964Y-59149404D01*
X90069345Y-59244642D01*
X90021726Y-59292261D01*
X89926488Y-59339880D01*
X89640773Y-59339880D01*
X89545535Y-59292261D01*
X89497916Y-59244642D01*
X112766719Y-74144606D02*
X112766719Y-74211950D01*
X112699375Y-74346637D01*
X112632032Y-74413980D01*
X112497345Y-74481324D01*
X112362658Y-74481324D01*
X112261643Y-74447652D01*
X112093284Y-74346637D01*
X111992269Y-74245622D01*
X111891253Y-74077263D01*
X111857582Y-73976248D01*
X111857582Y-73841561D01*
X111924925Y-73706874D01*
X111992269Y-73639530D01*
X112126956Y-73572187D01*
X112194299Y-73572187D01*
X112463673Y-73302812D02*
X112463673Y-73235469D01*
X112497345Y-73134454D01*
X112665704Y-72966095D01*
X112766719Y-72932423D01*
X112834062Y-72932423D01*
X112935078Y-72966095D01*
X113002421Y-73033438D01*
X113069765Y-73168125D01*
X113069765Y-73976248D01*
X113507498Y-73538515D01*
X113036093Y-72595706D02*
X113473826Y-72157973D01*
X113507498Y-72663049D01*
X113608513Y-72562034D01*
X113709528Y-72528362D01*
X113776872Y-72528362D01*
X113877887Y-72562034D01*
X114046246Y-72730393D01*
X114079917Y-72831408D01*
X114079917Y-72898751D01*
X114046246Y-72999767D01*
X113844215Y-73201797D01*
X113743200Y-73235469D01*
X113675856Y-73235469D01*
X89221130Y-72304166D02*
X88744940Y-72637500D01*
X89221130Y-72875595D02*
X88221130Y-72875595D01*
X88221130Y-72494642D01*
X88268750Y-72399404D01*
X88316369Y-72351785D01*
X88411607Y-72304166D01*
X88554464Y-72304166D01*
X88649702Y-72351785D01*
X88697321Y-72399404D01*
X88744940Y-72494642D01*
X88744940Y-72875595D01*
X89221130Y-71827976D02*
X89221130Y-71637500D01*
X89173511Y-71542261D01*
X89125892Y-71494642D01*
X88983035Y-71399404D01*
X88792559Y-71351785D01*
X88411607Y-71351785D01*
X88316369Y-71399404D01*
X88268750Y-71447023D01*
X88221130Y-71542261D01*
X88221130Y-71732738D01*
X88268750Y-71827976D01*
X88316369Y-71875595D01*
X88411607Y-71923214D01*
X88649702Y-71923214D01*
X88744940Y-71875595D01*
X88792559Y-71827976D01*
X88840178Y-71732738D01*
X88840178Y-71542261D01*
X88792559Y-71447023D01*
X88744940Y-71399404D01*
X88649702Y-71351785D01*
X112188631Y-69491053D02*
X112525349Y-69154335D01*
X112053944Y-70097144D02*
X112188631Y-69491053D01*
X111582540Y-69625740D01*
X111447853Y-69356366D02*
X111380509Y-69356366D01*
X111279494Y-69322694D01*
X111111135Y-69154335D01*
X111077463Y-69053320D01*
X111077463Y-68985977D01*
X111111135Y-68884961D01*
X111178479Y-68817618D01*
X111313166Y-68750274D01*
X112121288Y-68750274D01*
X111683555Y-68312542D01*
X120827083Y-61789880D02*
X120350892Y-61789880D01*
X120350892Y-60789880D01*
X121112797Y-60885119D02*
X121160416Y-60837500D01*
X121255654Y-60789880D01*
X121493750Y-60789880D01*
X121588988Y-60837500D01*
X121636607Y-60885119D01*
X121684226Y-60980357D01*
X121684226Y-61075595D01*
X121636607Y-61218452D01*
X121065178Y-61789880D01*
X121684226Y-61789880D01*
X77491130Y-72188095D02*
X76491130Y-72188095D01*
X76491130Y-71950000D01*
X76538750Y-71807142D01*
X76633988Y-71711904D01*
X76729226Y-71664285D01*
X76919702Y-71616666D01*
X77062559Y-71616666D01*
X77253035Y-71664285D01*
X77348273Y-71711904D01*
X77443511Y-71807142D01*
X77491130Y-71950000D01*
X77491130Y-72188095D01*
X76491130Y-71283333D02*
X76491130Y-70616666D01*
X77491130Y-71045238D01*
X116054464Y-60923214D02*
X116016369Y-60961309D01*
X115902083Y-60999404D01*
X115825892Y-60999404D01*
X115711607Y-60961309D01*
X115635416Y-60885119D01*
X115597321Y-60808928D01*
X115559226Y-60656547D01*
X115559226Y-60542261D01*
X115597321Y-60389880D01*
X115635416Y-60313690D01*
X115711607Y-60237500D01*
X115825892Y-60199404D01*
X115902083Y-60199404D01*
X116016369Y-60237500D01*
X116054464Y-60275595D01*
X116816369Y-60999404D02*
X116359226Y-60999404D01*
X116587797Y-60999404D02*
X116587797Y-60199404D01*
X116511607Y-60313690D01*
X116435416Y-60389880D01*
X116359226Y-60427976D01*
X117502083Y-60199404D02*
X117349702Y-60199404D01*
X117273511Y-60237500D01*
X117235416Y-60275595D01*
X117159226Y-60389880D01*
X117121130Y-60542261D01*
X117121130Y-60847023D01*
X117159226Y-60923214D01*
X117197321Y-60961309D01*
X117273511Y-60999404D01*
X117425892Y-60999404D01*
X117502083Y-60961309D01*
X117540178Y-60923214D01*
X117578273Y-60847023D01*
X117578273Y-60656547D01*
X117540178Y-60580357D01*
X117502083Y-60542261D01*
X117425892Y-60504166D01*
X117273511Y-60504166D01*
X117197321Y-60542261D01*
X117159226Y-60580357D01*
X117121130Y-60656547D01*
D11*
X80721250Y-61971267D02*
X80721250Y-61678733D01*
X81741250Y-61971267D02*
X81741250Y-61678733D01*
X81183750Y-69322500D02*
X83643750Y-69322500D01*
X81183750Y-67852500D02*
X81183750Y-69322500D01*
X83643750Y-67852500D02*
X81183750Y-67852500D01*
X79646250Y-67695276D02*
X79646250Y-68204724D01*
X80691250Y-67695276D02*
X80691250Y-68204724D01*
X120503750Y-67283767D02*
X120503750Y-66991233D01*
X119483750Y-67283767D02*
X119483750Y-66991233D01*
X104319170Y-68926846D02*
X104679404Y-69287080D01*
X105058096Y-68187920D02*
X105418330Y-68548154D01*
X92511892Y-66494375D02*
X92219358Y-66494375D01*
X92511892Y-65474375D02*
X92219358Y-65474375D01*
X102541250Y-58377500D02*
X102091250Y-58377500D01*
X95321250Y-65597500D02*
X95771250Y-65597500D01*
X102541250Y-58827500D02*
X102541250Y-58377500D01*
X95321250Y-65147500D02*
X95321250Y-65597500D01*
X95321250Y-58827500D02*
X95321250Y-58377500D01*
X95771250Y-65597500D02*
X95771250Y-66887500D01*
X102541250Y-65597500D02*
X102091250Y-65597500D01*
X95321250Y-58377500D02*
X95771250Y-58377500D01*
X102541250Y-65147500D02*
X102541250Y-65597500D01*
X118103750Y-63808767D02*
X118103750Y-63466233D01*
X117083750Y-63808767D02*
X117083750Y-63466233D01*
X88834983Y-62347500D02*
X89177517Y-62347500D01*
X88834983Y-61327500D02*
X89177517Y-61327500D01*
X83631250Y-64552500D02*
X81171250Y-64552500D01*
X81171250Y-64552500D02*
X81171250Y-66022500D01*
X81171250Y-66022500D02*
X83631250Y-66022500D01*
X96567199Y-72544698D02*
X96774052Y-72751551D01*
X97288448Y-71823449D02*
X97495301Y-72030302D01*
X102238750Y-55567500D02*
X102238750Y-52907500D01*
X109918750Y-55567500D02*
X109918750Y-52907500D01*
X102238750Y-52907500D02*
X109918750Y-52907500D01*
X99638750Y-55567500D02*
X99638750Y-54237500D01*
X100968750Y-55567500D02*
X99638750Y-55567500D01*
X102238750Y-55567500D02*
X109918750Y-55567500D01*
X68031250Y-58087500D02*
X66131250Y-58087500D01*
X71931250Y-67487500D02*
X69931250Y-67487500D01*
X71931250Y-58087500D02*
X69931250Y-58087500D01*
X68031250Y-67487500D02*
X66131250Y-67487500D01*
X66131250Y-58087500D02*
X66131250Y-67487500D01*
X77946250Y-67695276D02*
X77946250Y-68204724D01*
X78991250Y-67695276D02*
X78991250Y-68204724D01*
X118903750Y-67283767D02*
X118903750Y-66991233D01*
X117883750Y-67283767D02*
X117883750Y-66991233D01*
X91211892Y-69194375D02*
X90919358Y-69194375D01*
X91211892Y-68174375D02*
X90919358Y-68174375D01*
X120265017Y-64027500D02*
X119922483Y-64027500D01*
X120265017Y-65047500D02*
X119922483Y-65047500D01*
X104584983Y-57797500D02*
X104877517Y-57797500D01*
X104584983Y-56777500D02*
X104877517Y-56777500D01*
X72776526Y-68765000D02*
X73285974Y-68765000D01*
X72776526Y-69810000D02*
X73285974Y-69810000D01*
X80241250Y-63403733D02*
X80241250Y-63696267D01*
X79221250Y-63403733D02*
X79221250Y-63696267D01*
X83368750Y-56487500D02*
X86518750Y-56487500D01*
X83368750Y-54787500D02*
X83368750Y-56487500D01*
X83368750Y-54787500D02*
X86518750Y-54787500D01*
X100995301Y-72544698D02*
X100788448Y-72751551D01*
X100274052Y-71823449D02*
X100067199Y-72030302D01*
X86485974Y-64765000D02*
X85976526Y-64765000D01*
X86485974Y-65810000D02*
X85976526Y-65810000D01*
X80614026Y-53215000D02*
X81123474Y-53215000D01*
X80614026Y-54260000D02*
X81123474Y-54260000D01*
X111378750Y-64847500D02*
X111378750Y-64122500D01*
X107883750Y-60627500D02*
X107158750Y-60627500D01*
X107158750Y-64847500D02*
X107158750Y-64122500D01*
X107883750Y-64847500D02*
X107158750Y-64847500D01*
X110653750Y-64847500D02*
X111378750Y-64847500D01*
X111378750Y-60627500D02*
X111378750Y-61352500D01*
X110653750Y-60627500D02*
X111378750Y-60627500D01*
X86523474Y-69110000D02*
X86014026Y-69110000D01*
X86523474Y-68065000D02*
X86014026Y-68065000D01*
X96474574Y-70310723D02*
X98808027Y-72644176D01*
X98454473Y-68330824D02*
X96474574Y-70310723D01*
X108104699Y-72594698D02*
X108311552Y-72801551D01*
X108825948Y-71873449D02*
X109032801Y-72080302D01*
X109722483Y-59447500D02*
X110015017Y-59447500D01*
X109722483Y-58427500D02*
X110015017Y-58427500D01*
X79433750Y-73110000D02*
X80903750Y-73110000D01*
X79433750Y-70650000D02*
X79433750Y-73110000D01*
X80903750Y-73110000D02*
X80903750Y-70650000D01*
X77159983Y-63197500D02*
X77502517Y-63197500D01*
X77159983Y-62177500D02*
X77502517Y-62177500D01*
X78868750Y-54787500D02*
X82018750Y-54787500D01*
X78868750Y-56487500D02*
X82018750Y-56487500D01*
X78868750Y-54787500D02*
X78868750Y-56487500D01*
X113414026Y-57815000D02*
X113923474Y-57815000D01*
X113414026Y-58860000D02*
X113923474Y-58860000D01*
X101937590Y-69255963D02*
X102144443Y-69462816D01*
X102658839Y-68534714D02*
X102865692Y-68741567D01*
X93015017Y-56427500D02*
X92722483Y-56427500D01*
X93015017Y-57447500D02*
X92722483Y-57447500D01*
X72776526Y-56810000D02*
X73285974Y-56810000D01*
X72776526Y-55765000D02*
X73285974Y-55765000D01*
X87168750Y-56787500D02*
X84018750Y-56787500D01*
X87168750Y-58487500D02*
X87168750Y-56787500D01*
X87168750Y-58487500D02*
X84018750Y-58487500D01*
X94055625Y-67838108D02*
X94055625Y-68130642D01*
X95075625Y-67838108D02*
X95075625Y-68130642D01*
X82668750Y-58487500D02*
X82668750Y-56787500D01*
X82668750Y-56787500D02*
X79518750Y-56787500D01*
X82668750Y-58487500D02*
X79518750Y-58487500D01*
X130637500Y-61947500D02*
X130637500Y-60837500D01*
X130637500Y-64737500D02*
X130637500Y-63627500D01*
X126927500Y-64737500D02*
X126927500Y-63627500D01*
X126927500Y-61947500D02*
X126927500Y-60837500D01*
X125877500Y-62537500D02*
X125877500Y-63037500D01*
X126377500Y-62787500D02*
X125877500Y-62537500D01*
X125877500Y-63037500D02*
X126377500Y-62787500D01*
X85231250Y-61227500D02*
X83431250Y-61227500D01*
X85231250Y-64347500D02*
X84431250Y-64347500D01*
X85231250Y-64347500D02*
X86031250Y-64347500D01*
X85231250Y-61227500D02*
X86031250Y-61227500D01*
X106322483Y-59447500D02*
X106615017Y-59447500D01*
X106322483Y-58427500D02*
X106615017Y-58427500D01*
X89177517Y-63897500D02*
X88884983Y-63897500D01*
X89177517Y-62877500D02*
X88884983Y-62877500D01*
X110323474Y-67015000D02*
X109814026Y-67015000D01*
X110323474Y-68060000D02*
X109814026Y-68060000D01*
X109722483Y-56827500D02*
X110015017Y-56827500D01*
X109722483Y-57847500D02*
X110015017Y-57847500D01*
X106315017Y-65627500D02*
X106022483Y-65627500D01*
X106315017Y-66647500D02*
X106022483Y-66647500D01*
X124903750Y-65383767D02*
X124903750Y-65091233D01*
X123883750Y-65383767D02*
X123883750Y-65091233D01*
X90922483Y-69727500D02*
X91215017Y-69727500D01*
X90922483Y-70747500D02*
X91215017Y-70747500D01*
X123347483Y-62227500D02*
X123640017Y-62227500D01*
X123347483Y-63247500D02*
X123640017Y-63247500D01*
X89177517Y-60797500D02*
X88884983Y-60797500D01*
X89177517Y-59777500D02*
X88884983Y-59777500D01*
X111711552Y-71973449D02*
X111504699Y-72180302D01*
X112432801Y-72694698D02*
X112225948Y-72901551D01*
X91335974Y-72370000D02*
X90826526Y-72370000D01*
X91335974Y-71325000D02*
X90826526Y-71325000D01*
X112325426Y-70814277D02*
X109991973Y-68480824D01*
X110345527Y-72794176D02*
X112325426Y-70814277D01*
X119922483Y-63247500D02*
X120265017Y-63247500D01*
X119922483Y-62227500D02*
X120265017Y-62227500D01*
X79203750Y-73110000D02*
X79203750Y-70650000D01*
X77733750Y-73110000D02*
X79203750Y-73110000D01*
X77733750Y-70650000D02*
X77733750Y-73110000D01*
X113522483Y-60327500D02*
X113815017Y-60327500D01*
X113522483Y-61347500D02*
X113815017Y-61347500D01*
%LPC*%
D12*
X81231250Y-62687500D03*
X81231250Y-60962500D03*
D13*
X81968750Y-68587500D03*
X83718750Y-68587500D03*
D14*
X80168750Y-67037500D03*
X80168750Y-68862500D03*
D12*
X119993750Y-68000000D03*
X119993750Y-66275000D03*
D15*
X104223515Y-68092265D03*
X105513985Y-69382735D03*
D16*
X93228125Y-65984375D03*
X91503125Y-65984375D03*
D17*
X96181250Y-66150000D03*
X96681250Y-66150000D03*
X97181250Y-66150000D03*
X97681250Y-66150000D03*
X98181250Y-66150000D03*
X98681250Y-66150000D03*
X99181250Y-66150000D03*
X99681250Y-66150000D03*
X100181250Y-66150000D03*
X100681250Y-66150000D03*
X101181250Y-66150000D03*
X101681250Y-66150000D03*
D18*
X103093750Y-64737500D03*
X103093750Y-64237500D03*
X103093750Y-63737500D03*
X103093750Y-63237500D03*
X103093750Y-62737500D03*
X103093750Y-62237500D03*
X103093750Y-61737500D03*
X103093750Y-61237500D03*
X103093750Y-60737500D03*
X103093750Y-60237500D03*
X103093750Y-59737500D03*
X103093750Y-59237500D03*
D17*
X101681250Y-57825000D03*
X101181250Y-57825000D03*
X100681250Y-57825000D03*
X100181250Y-57825000D03*
X99681250Y-57825000D03*
X99181250Y-57825000D03*
X98681250Y-57825000D03*
X98181250Y-57825000D03*
X97681250Y-57825000D03*
X97181250Y-57825000D03*
X96681250Y-57825000D03*
X96181250Y-57825000D03*
D18*
X94768750Y-59237500D03*
X94768750Y-59737500D03*
X94768750Y-60237500D03*
X94768750Y-60737500D03*
X94768750Y-61237500D03*
X94768750Y-61737500D03*
X94768750Y-62237500D03*
X94768750Y-62737500D03*
X94768750Y-63237500D03*
X94768750Y-63737500D03*
X94768750Y-64237500D03*
X94768750Y-64737500D03*
D19*
X117593750Y-64512500D03*
X117593750Y-62762500D03*
D13*
X88131250Y-61837500D03*
X89881250Y-61837500D03*
X81956250Y-65287500D03*
X83706250Y-65287500D03*
D20*
X96421370Y-71677620D03*
X97641130Y-72897380D03*
D21*
X100968750Y-54237500D03*
D22*
X103508750Y-54237500D03*
X106048750Y-54237500D03*
X108588750Y-54237500D03*
D23*
X72631250Y-65677500D03*
X72631250Y-59897500D03*
D24*
X74076250Y-59537500D03*
X74076250Y-60337500D03*
D25*
X74076250Y-61537500D03*
X74076250Y-62537500D03*
X74076250Y-63037500D03*
X74076250Y-64037500D03*
D24*
X74076250Y-65237500D03*
X74076250Y-66037500D03*
X74076250Y-66037500D03*
X74076250Y-65237500D03*
D25*
X74076250Y-64537500D03*
X74076250Y-63537500D03*
X74076250Y-62037500D03*
X74076250Y-61037500D03*
D24*
X74076250Y-60337500D03*
X74076250Y-59537500D03*
D26*
X68981250Y-67107500D03*
D27*
X73161250Y-58467500D03*
D26*
X68981250Y-58467500D03*
D27*
X73161250Y-67107500D03*
D14*
X78468750Y-67037500D03*
X78468750Y-68862500D03*
D12*
X118393750Y-68000000D03*
X118393750Y-66275000D03*
D16*
X91928125Y-68684375D03*
X90203125Y-68684375D03*
D28*
X120968750Y-64537500D03*
X119218750Y-64537500D03*
D29*
X103868750Y-57287500D03*
X105593750Y-57287500D03*
D30*
X72118750Y-69287500D03*
X73943750Y-69287500D03*
D31*
X79731250Y-62687500D03*
X79731250Y-64412500D03*
D32*
X84018750Y-55637500D03*
X86518750Y-55637500D03*
D33*
X101141130Y-71677620D03*
X99921370Y-72897380D03*
D34*
X87143750Y-65287500D03*
X85318750Y-65287500D03*
D30*
X79956250Y-53737500D03*
X81781250Y-53737500D03*
D35*
X107331250Y-61737500D03*
X107331250Y-62237500D03*
X107331250Y-62737500D03*
X107331250Y-63237500D03*
X107331250Y-63737500D03*
D36*
X108268750Y-64675000D03*
X108768750Y-64675000D03*
X109268750Y-64675000D03*
X109768750Y-64675000D03*
X110268750Y-64675000D03*
D35*
X111206250Y-63737500D03*
X111206250Y-63237500D03*
X111206250Y-62737500D03*
X111206250Y-62237500D03*
X111206250Y-61737500D03*
D36*
X110268750Y-60800000D03*
X109768750Y-60800000D03*
X109268750Y-60800000D03*
X108768750Y-60800000D03*
X108268750Y-60800000D03*
D37*
X109268750Y-62737500D03*
D34*
X87181250Y-68587500D03*
X85356250Y-68587500D03*
D38*
X97517557Y-70363756D03*
X98754994Y-71601193D03*
X99744943Y-70611244D03*
X98507506Y-69373807D03*
D20*
X107958870Y-71727620D03*
X109178630Y-72947380D03*
D29*
X109006250Y-58937500D03*
X110731250Y-58937500D03*
D19*
X80168750Y-72325000D03*
X80168750Y-70575000D03*
D13*
X76456250Y-62687500D03*
X78206250Y-62687500D03*
D32*
X79518750Y-55637500D03*
X82018750Y-55637500D03*
D30*
X112756250Y-58337500D03*
X114581250Y-58337500D03*
D20*
X101791761Y-68388885D03*
X103011521Y-69608645D03*
D16*
X93731250Y-56937500D03*
X92006250Y-56937500D03*
D30*
X72118750Y-56287500D03*
X73943750Y-56287500D03*
D32*
X86518750Y-57637500D03*
X84018750Y-57637500D03*
D31*
X94565625Y-67121875D03*
X94565625Y-68846875D03*
D32*
X82018750Y-57637500D03*
X79518750Y-57637500D03*
D39*
X128837500Y-62787500D03*
D40*
X128637500Y-65612500D03*
X128637500Y-59962500D03*
D41*
X84093750Y-61837500D03*
X84093750Y-62787500D03*
X84093750Y-63737500D03*
X86368750Y-63737500D03*
X86368750Y-61837500D03*
D29*
X105606250Y-58937500D03*
X107331250Y-58937500D03*
D16*
X89893750Y-63387500D03*
X88168750Y-63387500D03*
D34*
X110981250Y-67537500D03*
X109156250Y-67537500D03*
D29*
X109006250Y-57337500D03*
X110731250Y-57337500D03*
D16*
X107031250Y-66137500D03*
X105306250Y-66137500D03*
D12*
X124393750Y-66100000D03*
X124393750Y-64375000D03*
D29*
X90206250Y-70237500D03*
X91931250Y-70237500D03*
X122631250Y-62737500D03*
X124356250Y-62737500D03*
D16*
X89893750Y-60287500D03*
X88168750Y-60287500D03*
D33*
X112578630Y-71827620D03*
X111358870Y-73047380D03*
D34*
X91993750Y-71847500D03*
X90168750Y-71847500D03*
D42*
X111282443Y-70761244D03*
X110045006Y-69523807D03*
X109055057Y-70513756D03*
X110292494Y-71751193D03*
D13*
X119218750Y-62737500D03*
X120968750Y-62737500D03*
D19*
X78468750Y-72325000D03*
X78468750Y-70575000D03*
D29*
X112806250Y-60837500D03*
X114531250Y-60837500D03*
M02*
